<?xml version="1.0" encoding="utf-8" ?><svg xmlns="http://www.w3.org/2000/svg" xmlns:xlink="http://www.w3.org/1999/xlink" width="512" height="512" viewBox="0 0 512 512"><path d="M224.957 54.0134C230.453 54.5306 236.287 52.8792 241.849 52.7443C243.378 52.6195 245.314 53.1892 246.781 53.1172C256.062 52.6621 265.367 53.3085 274.623 53.1189C275.425 53.1024 276.976 52.8231 277.855 52.7344C285.607 53.4229 293.747 55.2877 301.21 57.3989C324.318 63.933 345.689 75.5111 363.783 91.299C376.606 102.558 388.388 116.123 398.108 130.107C400.863 134.07 400.278 135.603 400.011 140.137C399.077 140.94 398.145 141.727 397.245 142.569C399.186 144.121 405.245 155.216 406.323 157.861C409.378 157.232 410.026 157.211 413.116 157.671C417.237 160.665 418.65 166.224 420.791 170.739C428.164 186.287 433.474 202.92 438.144 219.457C440.238 226.871 440.99 234.905 443.478 242.16C443.522 242.293 446.6 242.444 447.026 242.375C451.62 241.627 455.504 242.219 460.003 242.378C476.788 242.974 496.567 246.832 507.345 260.962C509.746 264.115 510.295 268.561 512 272.059L512 279.925C510.684 285.112 508.691 291.498 506.009 296.14C496.498 312.247 481.05 325.58 465.216 335.248C460.621 338.054 455.694 340.269 450.804 342.47C445.471 344.872 442.954 343.219 441.565 349.931C440.065 357.178 436.766 364.453 433.47 371.047C423.782 391.218 408.383 406.817 389.196 418.187C381.355 422.834 371.078 427.013 362.454 430.289C358.827 431.667 354.078 432.657 350.327 433.854C349.673 434.063 349.605 434.406 349.449 435.061C348.853 437.572 348.747 441.061 348 443.475C346.007 449.911 341.655 454.483 336.063 458.015C334.622 458.925 330.025 460.31 328.417 460.363C322.961 460.542 316.246 460.754 310.836 460.562C303.295 460.296 292.955 461.249 285.833 459.867C280.367 458.805 273.477 453.28 270.869 448.47C270.192 447.223 269.679 445.716 268.712 444.689C267.149 444.435 258.506 444.506 256.547 444.547C253.56 444.61 245.442 444.284 242.849 444.676C242.609 445.038 241.556 447.39 241.207 448.059C239.119 452.066 236.069 455.012 232.22 457.316C229.573 458.917 226.621 459.946 223.553 460.337C221.108 460.67 217.789 460.649 215.278 460.571C205.442 460.265 195.392 460.86 185.577 460.525C171.643 460.049 162.288 447.243 162.466 433.823C159.047 433.628 152.296 431.2 148.897 430.038C116.389 418.926 89.0621 397.152 75.4787 364.991C72.7583 358.55 70.6821 351.882 68.5392 345.23C68.4417 344.927 62.9398 343.174 62.1828 342.868C58.9329 341.394 54.5192 339.621 51.3818 337.905C33.9391 328.367 15.0667 312.449 5.25613 294.936C2.53486 290.078 1.86617 285.815 0 281.148L0 271.521C0.402536 270.926 0.998288 268.955 1.19894 268.215C2.50396 263.404 3.85074 261.124 7.43709 257.507C20.2857 244.548 41.0159 242.406 58.3711 242.026C61.1831 241.964 64.7384 242.522 68.1732 242.48C68.3783 240.615 69.0098 238.707 69.3902 236.853C84.5043 163.206 127.187 86.1028 201.873 60.015C209.384 57.3913 217.201 55.6925 224.957 54.0134Z"/><path fill="#FEFEFE" d="M166.227 150.697C182.858 141.731 202.372 139.749 220.466 145.187C231.446 148.496 237.571 153.242 246.932 158.816C251.852 161.746 261.51 161.195 266.289 158.233C270.985 155.385 274.925 152.399 279.944 149.831C296.102 141.681 314.751 139.968 332.123 145.04C350.434 150.489 365.828 162.991 374.917 179.795C383.976 196.53 385.934 216.203 380.353 234.396C377.816 242.678 373.776 250.423 368.435 257.243C362.422 264.916 357.272 268.256 354.184 278.349C352.323 284.336 352.093 290.712 353.518 296.819C354.903 302.714 358.722 309.926 361.223 315.64C363.904 321.891 366.364 328.235 368.597 334.659C372.081 344.372 374.315 353.327 376.947 363.224C380.508 376.619 382.533 389.456 384.905 403.109C381.399 404.85 377.997 406.98 374.492 408.83C364.524 414.092 354.411 416.831 343.794 420.198C337.337 413.326 331.851 410.818 322.275 410.792C311.79 410.762 301.235 410.546 290.76 410.969C285.663 411.174 281.448 413.156 277.313 415.973C276.225 415.17 270.364 413.203 268.664 412.455C266.619 411.601 264.682 410.546 262.688 409.575C202.313 380.196 174.101 313.301 166.104 250.022C165.624 246.222 165.003 242.15 164.978 238.334L164.672 238.141C164.791 237.046 164.298 232.962 164.188 231.632C163.908 227.897 163.685 224.158 163.519 220.416C163.336 216.313 163.218 212.207 163.164 208.1C163.129 206.088 163.192 202.486 162.885 200.604L163.023 200.441C163.596 186.173 163.822 172.103 165.881 157.928C166.144 156.115 166.678 152.346 166.227 150.697Z"/><path fill="#F37280" d="M171.404 198.049C172.163 200.132 173.183 201.748 175.271 202.742C177.128 203.618 179.269 203.665 181.164 202.873C183.3 201.983 184.16 200.894 185.308 199.01C186.155 199.821 189.259 200.937 190.468 201.636C211.413 213.737 201.791 236.739 180.24 239.667C175.116 240.333 169.909 239.879 164.978 238.334L164.672 238.141C164.791 237.046 164.298 232.962 164.188 231.632C163.908 227.897 163.685 224.158 163.519 220.416C163.336 216.313 163.218 212.207 163.164 208.1C163.129 206.088 163.192 202.486 162.885 200.604L163.023 200.441C165.757 199.449 168.558 198.65 171.404 198.049Z"/><path d="M171.404 198.049C170.521 193.521 171.894 188.582 174.453 184.808C177.482 180.335 182.188 177.274 187.505 176.317C192.794 175.349 198.25 176.531 202.664 179.601C207.496 182.976 209.937 187.56 211.034 193.336C211.949 198.149 209.675 202.517 204.571 203.338C202.591 203.642 201.273 203.317 199.635 202.277C195.052 199.369 197.635 190.32 190.508 191.037C186.301 191.46 185.979 195.706 185.308 199.01C184.16 200.894 183.3 201.983 181.164 202.873C179.269 203.665 177.128 203.618 175.271 202.742C173.183 201.748 172.163 200.132 171.404 198.049Z"/><path d="M252.917 198.106C269.985 196.868 289.463 203.1 291.717 222.612C294.191 244.02 281.926 267.9 258.993 270.907C258.35 270.996 257.704 271.06 257.057 271.099C255.401 271.21 253.553 271.059 251.919 270.806C229.904 267.369 218.01 243.754 220.195 223.115C221.563 210.19 230.758 201.981 243.028 199.32C246.573 198.552 249.322 198.324 252.917 198.106Z"/><path fill="#F2C651" d="M240.595 216.013C248.556 212.068 259.918 212.233 268.287 214.592C279.567 217.771 278.042 231.207 274.989 239.763C271.252 250.238 261.847 259.174 250.166 254.874C238.931 249.71 233.39 235.601 235.249 223.628C235.775 220.242 237.787 217.852 240.595 216.013Z"/><path fill="#D9B249" d="M250.166 254.874C238.931 249.71 233.39 235.601 235.249 223.628C235.775 220.242 237.787 217.852 240.595 216.013C241.277 217.781 240.937 224.307 241.135 226.73C241.827 235.225 243.885 242.764 248.167 250.166C249.001 251.607 250.121 253.19 250.166 254.874Z"/><path fill="#F37280" d="M340.623 197.83C341.115 198.271 345.525 199.284 346.399 199.577C369.724 207.395 367.303 233.532 343.952 239.125C331.003 242.227 313.43 236.687 310.38 222.819C309.361 218.222 310.226 213.408 312.781 209.454C315.315 205.506 319.041 202.707 323.235 200.78C324.246 200.315 326.261 199.652 326.683 198.814C327.208 200.614 329.271 202.504 331.058 203.068C332.992 203.683 335.092 203.494 336.885 202.544C338.967 201.436 339.984 200.041 340.623 197.83Z"/><path d="M326.683 198.814C326.182 196.918 325.932 194.488 324.809 192.882C324.085 191.846 322.323 190.944 321.015 190.919C314.628 190.794 316.816 199.327 312.232 202.3C310.887 203.323 309.431 203.823 307.692 203.48C301.782 202.311 300.124 198.049 301.105 192.628C302.04 187.224 305.139 182.435 309.686 179.368C314.172 176.387 319.661 175.316 324.938 176.394C330.209 177.469 334.83 180.611 337.767 185.118C340.056 188.627 341.483 193.671 340.623 197.83C339.984 200.041 338.967 201.436 336.885 202.544C335.092 203.494 332.992 203.683 331.058 203.068C329.271 202.504 327.208 200.614 326.683 198.814Z"/><path fill="#434A55" d="M113.395 392.804C110.953 389.754 107.759 387.026 105.176 384.048C93.8042 370.94 85.182 352.181 82.1248 335.045C65.7506 243.266 108.612 114.154 200.543 76.8623C217.625 70.0201 235.848 66.4749 254.249 66.414C294.504 66.0592 330.472 80.1802 359.396 108.096C361.739 110.359 364.232 112.545 366.471 114.912C374.144 123.023 380.736 131.734 387.338 140.696C389.876 144.141 393.521 144.109 397.245 142.569C399.186 144.121 405.245 155.216 406.323 157.861C401.013 162.281 401.893 165.576 404.599 171.304C428.279 221.439 440.145 281.413 429.62 336.359C426.358 353.392 418.202 370.451 407.272 383.581C404.675 386.701 401.261 389.718 398.552 392.857C396.915 384.286 395.43 375.402 393.476 366.88C390.071 352.032 385.628 337.935 380.511 323.553C376.835 313.22 371.013 302.921 367.927 292.446C366.783 288.56 368.831 280.535 371.14 277.272C375.353 271.979 379.633 267.687 383.573 261.984C396.418 243.071 401.225 219.831 396.937 197.375C392.579 174.861 379.491 154.985 360.53 142.087C341.716 129.267 318.59 124.421 296.212 128.61C290.705 129.642 283.482 131.686 278.349 133.959C274.473 135.646 270.722 137.607 267.126 139.828C252.637 148.971 257.025 146.85 243.039 138.713C203.9 115.943 153.83 127.758 128.408 165.163C115.537 184.114 110.738 207.409 115.07 229.905C117.016 240.013 120.759 249.69 126.12 258.477C128.283 261.98 130.696 265.321 133.341 268.476C139.046 275.178 144.58 279.892 144.297 289.505C144.199 292.828 143.395 295.535 142.027 298.585C138.474 306.51 134.82 314.32 131.819 322.479C130.025 327.355 126.734 333.569 132.337 337.408C133.035 337.888 133.58 338.216 134.43 338.353C133.236 339.408 129.759 354.269 128.585 356.965C122.287 356.161 120.2 359.561 118.902 365.023C116.709 374.254 115.14 383.495 113.395 392.804Z"/><path fill="#E5E5E4" d="M134.43 338.353C138.086 339.357 141.584 337.772 143.198 334.461C145.783 329.16 147.608 323.153 149.894 317.696C152.484 311.511 156.018 305.302 157.932 298.914C161.167 288.124 159.066 276.439 152.275 267.452C150.404 264.932 147.756 262.165 145.668 259.745C142.277 255.853 139.334 251.592 136.895 247.042C127.983 230.237 126.137 210.572 131.766 192.402C137.371 174.536 149.738 159.57 166.227 150.697C166.678 152.346 166.144 156.115 165.881 157.928C163.822 172.103 163.596 186.173 163.023 200.441L162.885 200.604C163.192 202.486 163.129 206.088 163.164 208.1C163.218 212.207 163.336 216.313 163.519 220.416C163.685 224.158 163.908 227.897 164.188 231.632C164.298 232.962 164.791 237.046 164.672 238.141L164.978 238.334C165.003 242.15 165.624 246.222 166.104 250.022C174.101 313.301 202.313 380.196 262.688 409.575C264.682 410.546 266.619 411.601 268.664 412.455C270.364 413.203 276.225 415.17 277.313 415.973C272.399 420.297 270.472 423.176 268.43 429.305L243.625 429.3C241.969 424.412 240.06 420.771 236.147 417.25C233.205 414.586 229.657 412.683 225.811 411.705C219.251 410.049 209.3 410.798 202.23 410.766C188.454 410.704 178.215 409.017 168.235 420.181C164.255 418.981 160.368 417.9 156.399 416.611C145.437 413.051 136.982 408.688 127.105 403.03C128.371 396.981 129.042 390.303 130.263 384.14C131.462 377.604 133.324 371.108 134.184 364.52C134.679 360.725 131.804 358.193 128.585 356.965C129.759 354.269 133.236 339.408 134.43 338.353Z"/><path fill="#D96674" d="M164.672 238.141C158.761 235.774 153.628 232.286 150.869 226.326C148.879 222.07 148.713 217.186 150.409 212.805C152.619 207.049 157.373 203.066 162.885 200.604C163.192 202.486 163.129 206.088 163.164 208.1C163.218 212.207 163.336 216.313 163.519 220.416C163.685 224.158 163.908 227.897 164.188 231.632C164.298 232.962 164.791 237.046 164.672 238.141Z"/><path fill="#434A55" d="M447.974 257.107C451.115 256.995 454.26 256.992 457.401 257.096C468.433 257.493 485.976 259.759 493.602 268.045C504.898 280.32 483.635 301.735 475.075 309.42C465.251 318.008 458.018 322.421 446.439 327.899C446.787 323.104 447.499 318.138 447.881 313.281C448.489 304.821 448.662 296.335 448.397 287.857C448.196 282.384 447.86 276.92 447.39 271.463C447.019 267.157 446.074 261.729 446.065 257.516C446.572 257.043 447.087 257.181 447.974 257.107Z"/><path fill="#434A55" d="M53.9307 257.11C57.9324 256.942 61.9403 256.985 65.9375 257.24C65.3216 265.449 64.2297 273.219 63.8246 281.548C63.3351 291.175 63.3544 300.822 63.8824 310.448C64.2611 316.296 64.9994 322.168 65.5604 328.009C62.64 326.453 59.5148 325.075 56.5868 323.472C51.9623 320.892 47.544 317.957 43.3713 314.696C41.2235 313.097 39.1382 311.415 37.1202 309.655C28.7179 302.247 15.6597 288.205 15.1535 276.964C14.4244 260.777 42.6089 257.646 53.9307 257.11Z"/><path fill="#F2C651" d="M293.164 425.846C298.795 425.618 305.048 425.861 310.783 425.789C315.762 425.896 320.774 425.483 325.718 426.121C333.34 427.104 336.838 436.219 331.875 442.048C329.538 444.793 327.163 445.295 323.812 445.67C315.4 446.001 306.674 445.521 298.229 445.728C294.571 445.818 289.82 445.94 286.76 443.72C284.601 442.146 283.161 439.774 282.76 437.132C282.379 434.454 283.143 431.739 284.865 429.652C287.217 426.754 289.712 426.25 293.164 425.846Z"/><path fill="#F2C651" d="M188.402 425.841C198.412 425.602 210.449 425.579 220.346 426.054C230.979 426.565 234.056 443.933 219.059 445.664C213.312 445.92 206.77 445.612 200.927 445.72C196.137 445.64 191.391 445.959 186.62 445.461C178.78 444.644 175.245 435.729 179.987 429.608C182.144 426.824 185.144 426.207 188.402 425.841Z"/><path d="M224.957 54.0134C228.275 53.0297 241.394 51.7525 245.344 51.5269C256.195 50.9936 267.073 51.3976 277.855 52.7344C276.976 52.8231 275.425 53.1024 274.623 53.1189C265.367 53.3085 256.062 52.6621 246.781 53.1172C245.314 53.1892 243.378 52.6195 241.849 52.7443C236.287 52.8792 230.453 54.5306 224.957 54.0134Z"/></svg>