<svg width="400" height="400" viewBox="0 0 400 400" fill="none" xmlns="http://www.w3.org/2000/svg">
<path d="M221.673 76.1143C223.918 76.1315 226.162 76.2244 228.401 76.393C238.003 77.178 242.146 78.6548 250.758 80.8358C271.973 85.6928 288.732 96.9547 302.366 113.886C310.719 124.258 320.487 138.344 326.155 150.575C333.07 165.498 337.422 184.68 338.948 200.99C339.845 210.572 339.018 222.437 338.23 232.102C355.719 244.018 384.869 278.799 360.255 298.429C348.831 307.54 328.294 298.328 315.254 295.984C306.066 307.396 299.625 313.362 286.885 321.264C275.826 328.123 264.433 333.072 251.181 333.078C247.829 333.08 245.713 333.085 242.348 332.294C237.908 342.777 230.647 343.833 220.18 342.14C212.389 340.88 206.049 339.394 199.553 334.641C195.136 330.691 194.383 328.113 193.318 322.575C187.774 320.468 180.249 319.311 175.038 317.321C173.909 318.604 172.723 319.874 171.371 320.982C162.253 328.456 149.035 323.214 139.53 319.183C136.068 317.714 132.578 315.356 130.268 312.512C127.322 308.884 127.396 304.636 127.892 300.277C108.096 291.997 99.2298 276.596 90.9905 257.691C80.2005 232.932 85.1573 213.309 89.4784 187.985C87.0388 184.834 85.257 181.277 83.1977 178.007C76.3221 167.207 71.6255 156.045 69.6639 143.317C67.9373 132.113 65.3951 117.489 73.4844 108.033C75.9642 105.134 80.4766 103.164 84.322 103.266C95.009 103.55 106.295 108.314 114.515 115.096C117.497 117.615 119.966 120.316 122.653 123.078C123.093 123.531 124.364 124.354 124.757 124.049C126.654 122.576 129.601 119.339 131.205 117.73C135.973 112.895 141.081 108.407 146.489 104.3C153.868 98.8104 160.704 95.3862 168.847 91.369C185.766 83.0217 202.649 77.0205 221.673 76.1143Z" fill="black"/>
<path d="M159.147 135.035C168.906 126.605 179.239 122.992 192.377 123.821C203.439 124.519 217.349 132.976 224.843 141.037C227.102 143.466 229.538 147.654 233.466 147.917C237.392 148.18 242.118 145.648 246.283 144.913C250.606 144.15 253.46 144.115 257.644 143.962C271.344 143.459 283.232 148.029 292.407 158.337C300.064 166.939 304.384 179.788 303.56 191.292C302.759 202.462 295.305 216.735 286.718 223.809C277.208 231.644 271.258 235.33 270.177 249.049C269.498 257.66 270.88 265.885 271.189 274.211C271.654 286.71 273.046 308.698 267.525 319.796C260.266 323.102 250.914 323.755 243.144 322.338C241.263 313.037 228.728 311.287 221.09 309.003C218.977 308.371 216.649 307.8 214.501 307.281C205.768 306.265 201.855 306.379 195.861 313.252C192.155 311.512 181.684 308.507 177.598 308.12C176.226 299.175 171.455 295.607 162.943 292.833C156.15 290.62 148.885 288.257 141.757 287.786C137.823 287.525 135.109 288.657 132.296 291.358C124.195 288.025 118.249 283.505 112.892 276.593C113.673 264.164 128.267 243.41 135.368 232.962C140.629 225.221 147.942 216.607 150.323 207.121C152.951 197.365 146.987 189.237 145.223 180.239C142.048 164.042 145.949 145.685 159.147 135.035Z" fill="#FEFEFE"/>
<path d="M159.147 135.035C159.531 137.731 157.646 147.496 157.464 150.943C156.633 166.695 157.05 182.279 160.906 197.668C166.081 219.989 174.756 240.448 185.756 260.501C191.604 271.161 197.731 281.731 204.117 292.086C205.668 294.6 214.215 305.847 214.501 307.281C205.768 306.265 201.855 306.379 195.861 313.252C192.155 311.512 181.684 308.507 177.598 308.12C176.226 299.175 171.455 295.607 162.943 292.833C156.15 290.62 148.885 288.257 141.757 287.786C137.823 287.525 135.109 288.657 132.296 291.358C124.195 288.025 118.249 283.505 112.892 276.593C113.673 264.164 128.267 243.41 135.368 232.962C140.629 225.221 147.942 216.607 150.323 207.121C152.951 197.365 146.987 189.237 145.223 180.239C142.048 164.042 145.949 145.685 159.147 135.035Z" fill="#C1C0C0"/>
<path d="M216.873 168.35C222.094 167.913 226.352 167.968 231.05 170.656C245.127 178.711 248.99 191.982 240.164 206.02C236.196 212.331 231.002 217.211 223.306 218.958C217.378 219.647 208.035 217.437 203.438 213.54C193.527 205.14 192.764 185.451 200.987 175.663C205.1 170.767 210.691 168.85 216.873 168.35Z" fill="black"/>
<path d="M216.459 178.334C218.356 178.095 221.689 178.225 223.535 178.799C241.425 184.368 235.754 201.759 222.656 209.061C214.176 213.584 206.863 205.588 205.747 197.579C204.447 188.245 206.143 180.037 216.459 178.334Z" fill="#FEC043"/>
<path d="M178.245 98.1222C192.446 91.1525 209.988 85.4809 225.996 86.2449C233.16 86.5867 244.087 88.6758 251.062 90.8509C258.264 93.5417 266.189 96.0003 272.706 100.13C287.192 109.308 297.737 123.095 306.981 137.191C314.83 149.162 320.424 159.791 323.843 173.795C325.838 181.968 327.982 190.166 328.75 198.624C330.28 217.02 328.904 239.397 322.55 256.829C315.908 275.05 309.784 291.387 294.216 303.864C288.912 308.114 285.099 310.381 279.835 314.093C282.627 302.81 281.515 280.943 280.787 268.972C280.346 261.724 279.24 253.281 280.662 246.048C282.376 237.333 292.221 233.6 297.946 226.757C302.387 221.448 303.913 219.108 307.179 212.983C316.708 195.11 315.362 176.322 305.172 159.064C298.722 148.14 286.305 138.572 273.946 135.578C262.988 132.924 245.771 133.366 235.254 137.88C227.458 128.356 216.979 121.089 205.511 116.622C192.871 111.697 177.081 113.177 165.02 119.198C164.885 115.004 172.307 106.479 174.837 102.734C175.873 101.2 177.472 100.048 178.245 98.1222Z" fill="#414651"/>
<path d="M105.709 265.915C100.697 255.824 95.1333 243.008 94.609 231.615C92.128 177.701 127.142 117.671 178.245 98.1226C177.472 100.048 175.873 101.2 174.837 102.734C172.307 106.479 164.885 115.004 165.02 119.198C164.783 119.322 164.547 119.448 164.312 119.575C140.079 132.62 130.925 154.792 135.298 181.682C136.6 189.686 142.985 198.492 140.059 206.491C137.322 213.976 131.705 220.696 127.231 227.203C119.066 239.329 109.944 251.824 105.709 265.915Z" fill="#414651"/>
<path d="M83.2348 113.296C83.9133 113.264 84.5925 113.251 85.2717 113.256C92.3534 113.351 102.271 117.701 107.592 122.206C110.941 125.041 114.721 129.087 117.87 132.27C110.544 141.536 104.326 151.627 99.3423 162.337C97.0784 166.733 95.232 171.467 93.4912 176.088C90.9496 170.314 86.5884 165.005 84.1484 158.665C80.867 150.138 72.1394 117.625 83.2348 113.296Z" fill="#414651"/>
<path d="M336.53 242.874C337.497 243.38 342.909 248.876 343.828 249.931C350.739 258.029 360.278 268.763 359.67 280.122C359.155 289.733 352.63 292.755 343.937 292.247C335.423 291.511 328.929 288.481 320.699 286.775C326.474 276.104 334.64 254.684 336.53 242.874Z" fill="#414651"/>
<path d="M229.327 332.567C226.06 333.249 220.739 332.066 217.323 331.455C212.845 330.601 207.186 329.139 204.457 325.173C202.74 322.664 202.792 319.076 205.771 317.583C208.922 316.004 214.181 317.332 217.449 318.323C223.368 319.842 236.644 321.442 232.624 329.588C231.652 331.557 231.555 332.002 229.327 332.567Z" fill="#C19133"/>
<path d="M229.327 332.567C228.797 332.546 228.243 332.55 227.724 332.436C225.799 332.013 218.785 322.608 217.39 320.489C216.934 319.796 216.699 319.343 216.873 318.532L217.449 318.323C223.368 319.842 236.644 321.442 232.624 329.588C231.652 331.557 231.555 332.002 229.327 332.567Z" fill="#FEC043"/>
<path d="M141.061 297.702C143.079 297.706 149.466 299.044 151.642 299.804C156.175 301.499 164.259 302.435 167.015 306.871C168.671 309.537 166.118 312.869 163.625 314.152C157.417 316.304 147.178 311.85 141.513 309.044C136.168 306.397 136.355 300.855 141.061 297.702Z" fill="#C19133"/>
<mask id="path-13-outside-1_303_30" maskUnits="userSpaceOnUse" x="63.2913" y="64.0728" width="318" height="268" fill="black">
<rect fill="white" x="63.2913" y="64.0728" width="318" height="268"/>
<path d="M92.0168 270C96.8999 270.197 103.104 271.666 108.892 273.359C114.786 275.083 133 281.5 133 281.5C133.086 281.52 152.786 285.918 161.848 287.795C180.014 291.558 204.184 296.471 228.219 301.072C252.273 305.676 276.118 309.953 293.662 312.458C302.248 313.685 309.167 314.461 313.823 314.667C312.157 311.416 310.214 308.028 308.42 305.046C308.247 304.758 308.076 304.474 307.906 304.196L314.406 295.696C315.172 296.913 316.054 298.337 316.989 299.89C319.875 304.686 323.414 310.954 325.615 316.291C325.985 317.19 326.232 318.423 325.901 319.797C325.569 321.17 324.79 322.151 324.059 322.777C322.795 323.859 321.297 324.222 320.507 324.379C318.687 324.743 316.301 324.775 313.788 324.677C308.588 324.474 301.108 323.624 292.248 322.359C274.459 319.818 250.422 315.503 226.339 310.893C202.237 306.28 178.013 301.357 159.82 297.588C150.722 295.704 141.637 293.791 137.811 292.981C133.985 292.171 133.58 292.084 132.187 291.787C130.793 291.49 125.693 289.732 121.446 288.141C117.198 286.55 111.612 284.574 106.084 282.957C100.413 281.297 95.1991 280.137 91.6145 279.993C91.0367 279.969 90.5456 279.977 90.137 280.002C91.2651 288.394 97.2913 294.445 105.756 295.755C107.299 295.994 109.306 295.661 111.753 294.599C112.661 294.205 114.578 293.733 115.491 293.204L124.27 298.696C121.762 300.561 118.844 302.425 115.733 303.774C112.34 305.246 108.333 306.273 104.227 305.637C90.6225 303.532 80.8167 292.954 80.0002 278.988C79.9093 277.43 80.2037 275.782 81.1165 274.278C82.0188 272.791 83.299 271.817 84.5608 271.202C86.8981 270.062 89.6676 269.906 92.0168 270ZM333.612 171.542C339.121 173.462 344.985 175.885 349.623 178.743C351.718 180.033 353.082 182.198 353.104 184.823C353.121 187.001 352.203 188.908 351.334 190.291C349.552 193.127 346.412 196.175 342.677 199.209C341.551 200.124 340.336 201.066 339.038 202.029C331.544 207.592 321.308 213.879 309.638 220.004C282.351 234.326 246.009 248.392 216.774 249.993C201.743 250.815 184.854 246.989 168.348 241.272C151.773 235.531 135.195 227.741 120.681 220.306C111.728 215.719 103.282 211.116 96.2034 207.258L96.1926 207.252L95.5559 206.906C92.3928 205.182 89.5125 203.614 86.9924 202.272C86.3982 201.955 85.8239 201.651 85.2708 201.361C85.7041 202.077 86.1462 202.792 86.593 203.5L84.9446 218.898C84.1212 217.754 83.2269 216.489 82.2961 215.137C78.3998 209.48 73.6512 202.004 70.8909 195.438C70.6181 194.789 70.1797 193.57 70.3186 192.114C70.5007 190.207 71.6364 188.438 73.5461 187.565C74.9843 186.908 76.3629 186.999 77.0383 187.078C77.8396 187.171 78.6187 187.375 79.2922 187.588C81.661 188.338 84.9883 189.941 88.7961 191.919C89.1203 192.088 89.4487 192.26 89.7795 192.433C93.1361 194.194 96.9415 196.268 101.146 198.561C101.215 198.599 101.284 198.636 101.354 198.674L101.357 198.676C108.27 202.447 116.277 206.814 125.24 211.406C139.572 218.748 155.679 226.301 171.62 231.823C187.63 237.368 203.089 240.726 216.228 240.007C243.33 238.524 278.155 225.235 304.99 211.15C318.361 204.132 329.446 197.075 336.371 191.449C336.809 191.093 337.224 190.747 337.617 190.413C339.726 188.618 341.205 187.125 342.134 185.976C340.358 185.03 338.398 184.126 336.35 183.275C335.574 179.357 334.66 175.419 333.612 171.542ZM374.213 87.2251L353.128 105.703L341.36 108.69L341.328 108.652L328.87 118.878L328.535 118.471C327.099 119.823 325.504 121.29 323.786 122.807C321.021 125.25 317.877 127.888 314.534 130.431C309.277 134.431 303.528 138.195 297.984 140.59C295.892 141.494 293.59 141.605 291.535 141.451C289.414 141.292 287.097 140.811 284.695 140.137C279.889 138.788 274.179 136.501 268.02 133.682C255.673 128.032 240.848 119.934 226.6 111.924C222.721 109.744 218.888 107.571 215.155 105.454L215.114 105.43L213.565 104.551C204.1 99.1818 195.328 94.2053 188.128 90.3774C185.042 88.7365 182.315 87.345 179.998 86.2437C178.393 85.4805 176.985 84.8563 175.79 84.3853C175.589 84.3057 175.398 84.2333 175.219 84.1665C174.616 85.7291 174.043 87.4307 173.519 89.1265C171.961 89.8527 170.404 90.6005 168.847 91.3687C166.307 92.6217 163.894 93.8173 161.552 95.0356C161.859 93.7589 162.351 91.7937 162.907 89.7886C163.997 85.8614 165.594 80.7444 167.503 76.8149C168.448 74.8708 170.16 74.0121 171.449 73.7046C172.62 73.4258 173.718 73.5087 174.473 73.6157C176.023 73.8357 177.766 74.4153 179.458 75.0825C182.921 76.4477 187.505 78.7211 192.727 81.4956L192.823 81.5474C200.146 85.4407 209.119 90.5313 218.649 95.938C222.852 98.3227 227.17 100.772 231.5 103.207C244.492 110.51 257.691 117.731 268.959 123.085C270.052 123.605 271.127 124.107 272.181 124.589C278.158 127.325 283.324 129.366 287.397 130.509C289.433 131.081 286.567 130.458 292.283 131.479C297.991 132.498 308.747 122.275 308.784 122.24C311.712 119.998 314.554 117.621 317.165 115.314C318.931 113.754 320.565 112.249 322.017 110.876C322.071 110.826 322.125 110.776 322.181 110.728L321.597 110.017L334.055 99.7896L333.799 99.478L339.901 89.5884L359.095 71.0728L374.213 87.2251Z"/>
</mask>
<path d="M92.0168 270C96.8999 270.197 103.104 271.666 108.892 273.359C114.786 275.083 133 281.5 133 281.5C133.086 281.52 152.786 285.918 161.848 287.795C180.014 291.558 204.184 296.471 228.219 301.072C252.273 305.676 276.118 309.953 293.662 312.458C302.248 313.685 309.167 314.461 313.823 314.667C312.157 311.416 310.214 308.028 308.42 305.046C308.247 304.758 308.076 304.474 307.906 304.196L314.406 295.696C315.172 296.913 316.054 298.337 316.989 299.89C319.875 304.686 323.414 310.954 325.615 316.291C325.985 317.19 326.232 318.423 325.901 319.797C325.569 321.17 324.79 322.151 324.059 322.777C322.795 323.859 321.297 324.222 320.507 324.379C318.687 324.743 316.301 324.775 313.788 324.677C308.588 324.474 301.108 323.624 292.248 322.359C274.459 319.818 250.422 315.503 226.339 310.893C202.237 306.28 178.013 301.357 159.82 297.588C150.722 295.704 141.637 293.791 137.811 292.981C133.985 292.171 133.58 292.084 132.187 291.787C130.793 291.49 125.693 289.732 121.446 288.141C117.198 286.55 111.612 284.574 106.084 282.957C100.413 281.297 95.1991 280.137 91.6145 279.993C91.0367 279.969 90.5456 279.977 90.137 280.002C91.2651 288.394 97.2913 294.445 105.756 295.755C107.299 295.994 109.306 295.661 111.753 294.599C112.661 294.205 114.578 293.733 115.491 293.204L124.27 298.696C121.762 300.561 118.844 302.425 115.733 303.774C112.34 305.246 108.333 306.273 104.227 305.637C90.6225 303.532 80.8167 292.954 80.0002 278.988C79.9093 277.43 80.2037 275.782 81.1165 274.278C82.0188 272.791 83.299 271.817 84.5608 271.202C86.8981 270.062 89.6676 269.906 92.0168 270ZM333.612 171.542C339.121 173.462 344.985 175.885 349.623 178.743C351.718 180.033 353.082 182.198 353.104 184.823C353.121 187.001 352.203 188.908 351.334 190.291C349.552 193.127 346.412 196.175 342.677 199.209C341.551 200.124 340.336 201.066 339.038 202.029C331.544 207.592 321.308 213.879 309.638 220.004C282.351 234.326 246.009 248.392 216.774 249.993C201.743 250.815 184.854 246.989 168.348 241.272C151.773 235.531 135.195 227.741 120.681 220.306C111.728 215.719 103.282 211.116 96.2034 207.258L96.1926 207.252L95.5559 206.906C92.3928 205.182 89.5125 203.614 86.9924 202.272C86.3982 201.955 85.8239 201.651 85.2708 201.361C85.7041 202.077 86.1462 202.792 86.593 203.5L84.9446 218.898C84.1212 217.754 83.2269 216.489 82.2961 215.137C78.3998 209.48 73.6512 202.004 70.8909 195.438C70.6181 194.789 70.1797 193.57 70.3186 192.114C70.5007 190.207 71.6364 188.438 73.5461 187.565C74.9843 186.908 76.3629 186.999 77.0383 187.078C77.8396 187.171 78.6187 187.375 79.2922 187.588C81.661 188.338 84.9883 189.941 88.7961 191.919C89.1203 192.088 89.4487 192.26 89.7795 192.433C93.1361 194.194 96.9415 196.268 101.146 198.561C101.215 198.599 101.284 198.636 101.354 198.674L101.357 198.676C108.27 202.447 116.277 206.814 125.24 211.406C139.572 218.748 155.679 226.301 171.62 231.823C187.63 237.368 203.089 240.726 216.228 240.007C243.33 238.524 278.155 225.235 304.99 211.15C318.361 204.132 329.446 197.075 336.371 191.449C336.809 191.093 337.224 190.747 337.617 190.413C339.726 188.618 341.205 187.125 342.134 185.976C340.358 185.03 338.398 184.126 336.35 183.275C335.574 179.357 334.66 175.419 333.612 171.542ZM374.213 87.2251L353.128 105.703L341.36 108.69L341.328 108.652L328.87 118.878L328.535 118.471C327.099 119.823 325.504 121.29 323.786 122.807C321.021 125.25 317.877 127.888 314.534 130.431C309.277 134.431 303.528 138.195 297.984 140.59C295.892 141.494 293.59 141.605 291.535 141.451C289.414 141.292 287.097 140.811 284.695 140.137C279.889 138.788 274.179 136.501 268.02 133.682C255.673 128.032 240.848 119.934 226.6 111.924C222.721 109.744 218.888 107.571 215.155 105.454L215.114 105.43L213.565 104.551C204.1 99.1818 195.328 94.2053 188.128 90.3774C185.042 88.7365 182.315 87.345 179.998 86.2437C178.393 85.4805 176.985 84.8563 175.79 84.3853C175.589 84.3057 175.398 84.2333 175.219 84.1665C174.616 85.7291 174.043 87.4307 173.519 89.1265C171.961 89.8527 170.404 90.6005 168.847 91.3687C166.307 92.6217 163.894 93.8173 161.552 95.0356C161.859 93.7589 162.351 91.7937 162.907 89.7886C163.997 85.8614 165.594 80.7444 167.503 76.8149C168.448 74.8708 170.16 74.0121 171.449 73.7046C172.62 73.4258 173.718 73.5087 174.473 73.6157C176.023 73.8357 177.766 74.4153 179.458 75.0825C182.921 76.4477 187.505 78.7211 192.727 81.4956L192.823 81.5474C200.146 85.4407 209.119 90.5313 218.649 95.938C222.852 98.3227 227.17 100.772 231.5 103.207C244.492 110.51 257.691 117.731 268.959 123.085C270.052 123.605 271.127 124.107 272.181 124.589C278.158 127.325 283.324 129.366 287.397 130.509C289.433 131.081 286.567 130.458 292.283 131.479C297.991 132.498 308.747 122.275 308.784 122.24C311.712 119.998 314.554 117.621 317.165 115.314C318.931 113.754 320.565 112.249 322.017 110.876C322.071 110.826 322.125 110.776 322.181 110.728L321.597 110.017L334.055 99.7896L333.799 99.478L339.901 89.5884L359.095 71.0728L374.213 87.2251Z" fill="#71CFF1"/>
<path d="M92.0168 270L92.2988 263.006H92.2987L92.0168 270ZM108.892 273.359L110.858 266.641L110.857 266.641L108.892 273.359ZM133 281.5L130.674 288.103C130.936 288.195 131.204 288.272 131.475 288.332L133 281.5ZM161.848 287.795L160.428 294.65H160.428L161.848 287.795ZM228.219 301.072L229.535 294.197V294.197L228.219 301.072ZM293.662 312.458L292.673 319.388H292.673L293.662 312.458ZM313.823 314.667L313.513 321.661C316.005 321.771 318.366 320.548 319.714 318.45C321.061 316.351 321.19 313.694 320.053 311.475L313.823 314.667ZM308.42 305.046L314.418 301.437L314.418 301.437L308.42 305.046ZM307.906 304.196L302.346 299.944C300.594 302.235 300.427 305.366 301.924 307.831L307.906 304.196ZM314.406 295.696L320.331 291.968C319.11 290.027 317.016 288.808 314.726 288.703C312.435 288.599 310.239 289.622 308.846 291.444L314.406 295.696ZM316.989 299.89L322.986 296.281V296.281L316.989 299.89ZM325.615 316.291L332.086 313.623L332.086 313.622L325.615 316.291ZM325.901 319.797L332.705 321.44L332.706 321.439L325.901 319.797ZM324.059 322.777L328.613 328.093L328.613 328.093L324.059 322.777ZM320.507 324.379L321.878 331.244L321.878 331.244L320.507 324.379ZM313.788 324.677L313.516 331.672H313.516L313.788 324.677ZM292.248 322.359L291.259 329.289V329.289L292.248 322.359ZM226.339 310.893L225.023 317.768V317.768L226.339 310.893ZM159.82 297.588L161.239 290.734L159.82 297.588ZM137.811 292.981L136.362 299.829V299.829L137.811 292.981ZM132.187 291.787L133.646 284.94V284.94L132.187 291.787ZM121.446 288.141L118.99 294.696H118.99L121.446 288.141ZM106.084 282.957L108.05 276.238H108.05L106.084 282.957ZM91.6145 279.993L91.8966 272.998L91.8963 272.998L91.6145 279.993ZM90.137 280.002L89.6957 273.016C87.7574 273.139 85.957 274.061 84.7251 275.563C83.4932 277.064 82.9406 279.01 83.1994 280.935L90.137 280.002ZM105.756 295.755L104.685 302.673L104.686 302.673L105.756 295.755ZM111.753 294.599L114.538 301.021L114.539 301.021L111.753 294.599ZM115.491 293.204L119.204 287.269C117.005 285.893 114.225 285.847 111.981 287.148L115.491 293.204ZM124.27 298.696L128.448 304.312C130.303 302.932 131.357 300.724 131.264 298.414C131.171 296.103 129.943 293.988 127.983 292.762L124.27 298.696ZM115.733 303.774L118.518 310.196L118.518 310.196L115.733 303.774ZM104.227 305.637L103.156 312.555L103.156 312.555L104.227 305.637ZM80.0002 278.988L73.0121 279.396L73.0122 279.396L80.0002 278.988ZM81.1165 274.278L75.1321 270.646L75.1318 270.647L81.1165 274.278ZM84.5608 271.202L81.4926 264.91L81.4925 264.91L84.5608 271.202ZM333.612 171.542L335.915 164.932C333.464 164.078 330.741 164.651 328.841 166.42C326.941 168.189 326.177 170.865 326.854 173.37L333.612 171.542ZM349.623 178.743L353.295 172.783L353.295 172.783L349.623 178.743ZM353.104 184.823L360.104 184.766V184.765L353.104 184.823ZM351.334 190.291L357.261 194.015L357.261 194.015L351.334 190.291ZM342.677 199.209L347.091 204.642L347.091 204.642L342.677 199.209ZM339.038 202.029L334.866 196.408V196.408L339.038 202.029ZM309.638 220.004L312.891 226.203H312.891L309.638 220.004ZM216.774 249.993L217.156 256.982H217.156L216.774 249.993ZM168.348 241.272L166.057 247.886H166.057L168.348 241.272ZM120.681 220.306L117.489 226.536H117.489L120.681 220.306ZM96.2034 207.258L92.8514 213.404L92.8536 213.405L96.2034 207.258ZM96.1926 207.252L99.5446 201.107L99.54 201.105L96.1926 207.252ZM95.5559 206.906L92.2063 213.052L92.2086 213.054L95.5559 206.906ZM86.9924 202.272L90.2835 196.094L90.2835 196.094L86.9924 202.272ZM85.2708 201.361L88.5262 195.164C85.7434 193.702 82.3274 194.274 80.1732 196.563C78.0189 198.853 77.6547 202.297 79.2826 204.986L85.2708 201.361ZM86.593 203.5L93.5532 204.246C93.721 202.679 93.3552 201.101 92.5152 199.768L86.593 203.5ZM84.9446 218.898L79.2629 222.987C80.9577 225.342 83.9296 226.407 86.7345 225.665C89.5394 224.923 91.596 222.528 91.9048 219.643L84.9446 218.898ZM82.2961 215.137L76.5311 219.108L76.5311 219.108L82.2961 215.137ZM70.8909 195.438L64.4379 198.151L64.438 198.151L70.8909 195.438ZM70.3186 192.114L63.3503 191.448L63.3503 191.449L70.3186 192.114ZM73.5461 187.565L70.6369 181.198L70.6362 181.198L73.5461 187.565ZM77.0383 187.078L77.8469 180.124L77.8464 180.124L77.0383 187.078ZM79.2922 187.588L81.4042 180.915L81.4039 180.914L79.2922 187.588ZM88.7961 191.919L92.0234 185.708L92.0234 185.708L88.7961 191.919ZM89.7795 192.433L93.0315 186.234H93.0315L89.7795 192.433ZM101.146 198.561L97.7941 204.706H97.7941L101.146 198.561ZM101.354 198.674L105.237 192.85C105.064 192.735 104.887 192.628 104.705 192.529L101.354 198.674ZM101.357 198.676L97.4738 204.501C97.646 204.615 97.8233 204.723 98.005 204.822L101.357 198.676ZM125.24 211.406L122.049 217.636H122.049L125.24 211.406ZM171.62 231.823L169.329 238.437H169.329L171.62 231.823ZM216.228 240.007L216.61 246.997H216.61L216.228 240.007ZM304.99 211.15L308.244 217.348H308.244L304.99 211.15ZM336.371 191.449L340.785 196.882L340.785 196.882L336.371 191.449ZM337.617 190.413L342.155 195.743L342.155 195.743L337.617 190.413ZM342.134 185.976L347.578 190.377C348.891 188.753 349.41 186.627 348.994 184.581C348.577 182.534 347.269 180.781 345.426 179.798L342.134 185.976ZM336.35 183.275L329.483 184.635C329.937 186.927 331.505 188.842 333.663 189.739L336.35 183.275ZM374.213 87.2251L378.827 92.4896C380.253 91.2399 381.111 89.465 381.205 87.571C381.298 85.6771 380.62 83.8261 379.324 82.4417L374.213 87.2251ZM353.128 105.703L354.85 112.487C355.921 112.216 356.911 111.695 357.742 110.967L353.128 105.703ZM341.36 108.69L335.948 113.13C337.67 115.229 340.45 116.143 343.082 115.475L341.36 108.69ZM341.328 108.652L346.74 104.212C345.562 102.776 343.862 101.868 342.014 101.686C340.167 101.504 338.322 102.063 336.887 103.241L341.328 108.652ZM328.87 118.878L323.464 123.325C325.918 126.309 330.326 126.74 333.312 124.289L328.87 118.878ZM328.535 118.471L333.942 114.024C332.711 112.528 330.915 111.609 328.982 111.485C327.048 111.362 325.15 112.045 323.739 113.373L328.535 118.471ZM323.786 122.807L328.421 128.053V128.053L323.786 122.807ZM314.534 130.431L318.773 136.002L318.773 136.002L314.534 130.431ZM297.984 140.59L300.76 147.016L300.76 147.016L297.984 140.59ZM291.535 141.451L291.012 148.431L291.012 148.431L291.535 141.451ZM284.695 140.137L282.803 146.877L282.803 146.877L284.695 140.137ZM268.02 133.682L265.107 140.047L265.107 140.047L268.02 133.682ZM226.6 111.924L230.03 105.822L230.03 105.822L226.6 111.924ZM215.155 105.454L211.682 111.531C211.688 111.535 211.694 111.539 211.701 111.542L215.155 105.454ZM215.114 105.43L218.587 99.3525C218.58 99.349 218.574 99.3456 218.568 99.3421L215.114 105.43ZM213.565 104.551L217.019 98.4632L217.019 98.4629L213.565 104.551ZM188.128 90.3774L191.414 84.1968L191.414 84.1967L188.128 90.3774ZM179.998 86.2437L183.004 79.9219L183.004 79.9218L179.998 86.2437ZM175.79 84.3853L178.358 77.8732L178.358 77.8731L175.79 84.3853ZM175.219 84.1665L177.667 77.6086C174.073 76.2667 170.068 78.0683 168.688 81.6482L175.219 84.1665ZM173.519 89.1265L176.476 95.471C178.268 94.6359 179.623 93.0824 180.206 91.194L173.519 89.1265ZM168.847 91.3687L171.944 97.6463L171.944 97.6462L168.847 91.3687ZM161.552 95.0356L154.746 93.3994C154.105 96.066 155.08 98.8614 157.241 100.551C159.402 102.24 162.35 102.511 164.783 101.246L161.552 95.0356ZM162.907 89.7886L156.162 87.9176L156.162 87.9176L162.907 89.7886ZM167.503 76.8149L161.207 73.7551L161.207 73.7554L167.503 76.8149ZM171.449 73.7046L169.827 66.8952L169.826 66.8954L171.449 73.7046ZM174.473 73.6157L175.456 66.6851L175.456 66.685L174.473 73.6157ZM179.458 75.0825L182.026 68.5704L182.026 68.5704L179.458 75.0825ZM192.727 81.4956L196.031 75.3243C196.024 75.3209 196.018 75.3174 196.011 75.3139L192.727 81.4956ZM192.823 81.5474L189.52 87.7186C189.526 87.7218 189.531 87.7249 189.537 87.728L192.823 81.5474ZM218.649 95.938L222.103 89.8496L222.103 89.8496L218.649 95.938ZM231.5 103.207L228.07 109.308V109.308L231.5 103.207ZM268.959 123.085L265.955 129.408L265.955 129.408L268.959 123.085ZM272.181 124.589L269.268 130.955L269.268 130.955L272.181 124.589ZM287.397 130.509L289.288 123.77L289.288 123.77L287.397 130.509ZM292.283 131.479L291.052 138.37L291.053 138.37L292.283 131.479ZM308.784 122.24L304.528 116.682C304.331 116.834 304.141 116.995 303.961 117.167L308.784 122.24ZM317.165 115.314L321.8 120.56L321.8 120.56L317.165 115.314ZM322.017 110.876L317.208 105.789L317.208 105.79L322.017 110.876ZM322.181 110.728L326.77 116.014C329.633 113.528 329.997 109.215 327.59 106.285L322.181 110.728ZM321.597 110.017L317.155 104.607C315.72 105.785 314.812 107.485 314.63 109.333C314.449 111.181 315.009 113.025 316.188 114.46L321.597 110.017ZM334.055 99.7896L338.497 105.2C339.932 104.022 340.84 102.322 341.021 100.474C341.203 98.6259 340.643 96.7816 339.464 95.3467L334.055 99.7896ZM333.799 99.478L327.842 95.8025C326.271 98.3478 326.491 101.61 328.39 103.921L333.799 99.478ZM339.901 89.5884L335.041 84.5504C334.619 84.9568 334.251 85.4146 333.943 85.9129L339.901 89.5884ZM359.095 71.0728L364.206 66.2893C362.924 64.9205 361.148 64.1229 359.274 64.075C357.399 64.0272 355.584 64.7331 354.235 66.0347L359.095 71.0728ZM92.0168 270L91.7349 276.995C95.7101 277.155 101.222 278.408 106.926 280.077L108.892 273.359L110.857 266.641C104.986 264.923 98.0896 263.24 92.2988 263.006L92.0168 270ZM108.892 273.359L106.926 280.077C109.684 280.884 115.541 282.859 120.879 284.696C123.511 285.601 125.961 286.453 127.754 287.079C128.65 287.392 129.381 287.649 129.888 287.826C130.141 287.915 130.338 287.985 130.472 288.032C130.539 288.055 130.59 288.073 130.624 288.085C130.641 288.091 130.653 288.095 130.662 288.098C130.666 288.1 130.669 288.101 130.671 288.102C130.672 288.102 130.673 288.102 130.674 288.103C130.674 288.103 130.674 288.103 130.674 288.103C130.674 288.103 130.674 288.103 133 281.5C135.326 274.898 135.326 274.898 135.326 274.898C135.326 274.898 135.326 274.898 135.325 274.898C135.325 274.898 135.324 274.897 135.323 274.897C135.32 274.896 135.317 274.895 135.312 274.893C135.303 274.89 135.29 274.885 135.272 274.879C135.237 274.867 135.185 274.848 135.117 274.824C134.98 274.777 134.78 274.706 134.524 274.616C134.012 274.437 133.274 274.178 132.37 273.862C130.564 273.231 128.092 272.372 125.433 271.457C120.191 269.654 113.994 267.558 110.858 266.641L108.892 273.359ZM133 281.5L131.475 288.332C131.538 288.346 151.301 292.759 160.428 294.65L161.848 287.795L163.268 280.941C154.272 279.077 134.634 274.693 134.526 274.669L133 281.5ZM161.848 287.795L160.428 294.65C178.613 298.417 202.821 303.337 226.903 307.947L228.219 301.072L229.535 294.197C205.548 289.605 181.415 284.7 163.268 280.941L161.848 287.795ZM228.219 301.072L226.903 307.947C250.977 312.555 274.957 316.858 292.673 319.388L293.662 312.458L294.652 305.529C277.279 303.048 253.569 298.797 229.535 294.197L228.219 301.072ZM293.662 312.458L292.673 319.388C301.303 320.621 308.5 321.438 313.513 321.661L313.823 314.667L314.134 307.674C309.834 307.484 303.194 306.749 294.652 305.529L293.662 312.458ZM313.823 314.667L320.053 311.475C318.29 308.034 316.26 304.499 314.418 301.437L308.42 305.046L302.422 308.655C304.169 311.558 306.025 314.798 307.594 317.86L313.823 314.667ZM308.42 305.046L314.418 301.437C314.244 301.149 314.066 300.853 313.889 300.561L307.906 304.196L301.924 307.831C302.085 308.095 302.249 308.368 302.422 308.656L308.42 305.046ZM307.906 304.196L313.467 308.448L319.967 299.948L314.406 295.696L308.846 291.444L302.346 299.944L307.906 304.196ZM314.406 295.696L308.482 299.424C309.227 300.608 310.084 301.992 310.991 303.499L316.989 299.89L322.986 296.281C322.024 294.682 321.118 293.218 320.331 291.968L314.406 295.696ZM316.989 299.89L310.991 303.499C313.844 308.24 317.154 314.134 319.143 318.959L325.615 316.291L332.086 313.622C329.674 307.773 325.905 301.132 322.986 296.281L316.989 299.89ZM325.615 316.291L319.143 318.958C319.088 318.825 319.005 318.531 319.096 318.156L325.901 319.797L332.706 321.439C333.459 318.315 332.883 315.556 332.086 313.623L325.615 316.291ZM325.901 319.797L319.096 318.155C319.186 317.781 319.393 317.556 319.505 317.461L324.059 322.777L328.613 328.093C330.186 326.745 331.952 324.56 332.705 321.44L325.901 319.797ZM324.059 322.777L319.505 317.461C319.614 317.367 319.66 317.365 319.567 317.401C319.475 317.437 319.349 317.472 319.136 317.515L320.507 324.379L321.878 331.244C322.951 331.029 325.934 330.388 328.613 328.093L324.059 322.777ZM320.507 324.379L319.136 317.515C318.18 317.706 316.498 317.778 314.061 317.683L313.788 324.677L313.516 331.672C316.104 331.773 319.194 331.78 321.878 331.244L320.507 324.379ZM313.788 324.677L314.061 317.683C309.241 317.495 302.06 316.689 293.238 315.429L292.248 322.359L291.259 329.289C300.157 330.559 307.934 331.454 313.516 331.672L313.788 324.677ZM292.248 322.359L293.238 315.429C275.62 312.913 251.718 308.624 227.655 304.018L226.339 310.893L225.023 317.768C249.126 322.382 273.297 326.723 291.259 329.289L292.248 322.359ZM226.339 310.893L227.655 304.018C203.6 299.414 179.413 294.499 161.239 290.734L159.82 297.588L158.4 304.443C176.612 308.215 200.873 313.146 225.023 317.768L226.339 310.893ZM159.82 297.588L161.239 290.734C152.155 288.852 143.08 286.941 139.26 286.133L137.811 292.981L136.362 299.829C140.195 300.64 149.29 302.556 158.4 304.443L159.82 297.588ZM137.811 292.981L139.26 286.133C135.439 285.324 135.039 285.237 133.646 284.94L132.187 291.787L130.727 298.633C132.121 298.93 132.53 299.019 136.362 299.829L137.811 292.981ZM132.187 291.787L133.646 284.94C133.65 284.941 133.349 284.866 132.605 284.634C131.942 284.427 131.102 284.15 130.146 283.824C128.236 283.172 125.964 282.359 123.901 281.586L121.446 288.141L118.99 294.696C121.174 295.514 123.576 296.375 125.627 297.074C127.489 297.71 129.54 298.38 130.727 298.633L132.187 291.787ZM121.446 288.141L123.901 281.586C119.569 279.963 113.806 277.922 108.05 276.238L106.084 282.957L104.119 289.675C109.419 291.226 114.828 293.137 118.99 294.696L121.446 288.141ZM106.084 282.957L108.05 276.238C102.299 274.556 96.3911 273.18 91.8966 272.998L91.6145 279.993L91.3324 286.987C94.0072 287.095 98.5262 288.039 104.119 289.675L106.084 282.957ZM91.6145 279.993L91.8963 272.998C91.104 272.966 90.3702 272.974 89.6957 273.016L90.137 280.002L90.5782 286.989C90.721 286.979 90.9694 286.972 91.3327 286.987L91.6145 279.993ZM90.137 280.002L83.1994 280.935C84.7506 292.474 93.2278 300.9 104.685 302.673L105.756 295.755L106.827 288.838C101.355 287.991 97.7796 284.314 97.0746 279.07L90.137 280.002ZM105.756 295.755L104.686 302.673C108.022 303.189 111.428 302.37 114.538 301.021L111.753 294.599L108.968 288.177C108.127 288.542 107.521 288.711 107.135 288.783C106.745 288.856 106.667 288.813 106.826 288.838L105.756 295.755ZM111.753 294.599L114.539 301.021C114.473 301.049 114.522 301.025 114.819 300.926C115.155 300.813 115.329 300.76 115.816 300.599C116.2 300.472 116.688 300.307 117.179 300.117C117.633 299.941 118.312 299.659 119.002 299.26L115.491 293.204L111.981 287.148C112.214 287.012 112.312 286.988 112.121 287.062C111.967 287.122 111.748 287.199 111.425 287.305C111.205 287.378 110.673 287.55 110.365 287.653C110.018 287.769 109.487 287.952 108.968 288.177L111.753 294.599ZM115.491 293.204L111.779 299.138L120.557 304.63L124.27 298.696L127.983 292.762L119.204 287.269L115.491 293.204ZM124.27 298.696L120.091 293.08C117.849 294.748 115.405 296.286 112.947 297.352L115.733 303.774L118.518 310.196C122.282 308.563 125.676 306.375 128.448 304.312L124.27 298.696ZM115.733 303.774L112.947 297.352C110.216 298.537 107.609 299.077 105.297 298.72L104.227 305.637L103.156 312.555C109.057 313.468 114.463 311.954 118.518 310.196L115.733 303.774ZM104.227 305.637L105.297 298.72C94.9199 297.113 87.6103 289.219 86.9883 278.579L80.0002 278.988L73.0122 279.396C74.023 296.688 86.3251 309.95 103.156 312.555L104.227 305.637ZM80.0002 278.988L86.9883 278.58C86.9767 278.38 86.9933 278.231 87.0158 278.129C87.0367 278.035 87.0652 277.968 87.1011 277.909L81.1165 274.278L75.1318 270.647C73.3602 273.567 72.8534 276.677 73.0121 279.396L80.0002 278.988ZM81.1165 274.278L87.1008 277.909C87.1588 277.814 87.2903 277.659 87.6291 277.493L84.5608 271.202L81.4925 264.91C79.3078 265.975 76.8788 267.768 75.1321 270.646L81.1165 274.278ZM84.5608 271.202L87.6289 277.493C87.9458 277.339 88.4511 277.177 89.2054 277.077C89.9553 276.978 90.806 276.957 91.735 276.995L92.0168 270L92.2987 263.006C89.6167 262.898 85.4216 262.994 81.4926 264.91L84.5608 271.202ZM333.612 171.542L331.308 178.153C336.634 180.009 341.947 182.235 345.952 184.703L349.623 178.743L353.295 172.783C348.023 169.535 341.608 166.916 335.915 164.932L333.612 171.542ZM349.623 178.743L345.951 184.702C346.087 184.786 346.114 184.844 346.106 184.829C346.103 184.823 346.099 184.816 346.098 184.811C346.097 184.807 346.104 184.826 346.104 184.88L353.104 184.823L360.104 184.765C360.061 179.544 357.276 175.236 353.295 172.783L349.623 178.743ZM353.104 184.823L346.104 184.879C346.105 184.963 346.088 185.146 345.975 185.458C345.858 185.778 345.67 186.148 345.407 186.566L351.334 190.291L357.261 194.015C358.416 192.176 360.137 188.902 360.104 184.766L353.104 184.823ZM351.334 190.291L345.407 186.566C344.258 188.395 341.86 190.854 338.263 193.777L342.677 199.209L347.091 204.642C350.965 201.495 354.846 197.858 357.261 194.015L351.334 190.291ZM342.677 199.209L338.263 193.777C337.225 194.62 336.091 195.499 334.866 196.408L339.038 202.029L343.211 207.65C344.58 206.633 345.877 205.629 347.091 204.642L342.677 199.209ZM339.038 202.029L334.866 196.408C327.744 201.695 317.838 207.795 306.385 213.806L309.638 220.004L312.891 226.203C324.778 219.964 335.345 213.488 343.211 207.65L339.038 202.029ZM309.638 220.004L306.385 213.806C279.414 227.962 244.134 241.485 216.391 243.003L216.774 249.993L217.156 256.982C247.885 255.3 285.288 240.69 312.891 226.203L309.638 220.004ZM216.774 249.993L216.391 243.003C202.685 243.753 186.797 240.255 170.639 234.658L168.348 241.272L166.057 247.886C182.91 253.724 200.802 257.877 217.156 256.982L216.774 249.993ZM168.348 241.272L170.639 234.658C154.508 229.07 138.258 221.446 123.873 214.076L120.681 220.306L117.489 226.536C132.131 234.037 149.038 241.991 166.057 247.886L168.348 241.272ZM120.681 220.306L123.873 214.076C115.01 209.536 106.639 204.973 99.5532 201.112L96.2034 207.258L92.8536 213.405C99.9245 217.258 108.445 221.903 117.489 226.536L120.681 220.306ZM96.2034 207.258L99.5553 201.113L99.5446 201.107L96.1926 207.252L92.8407 213.398L92.8514 213.404L96.2034 207.258ZM96.1926 207.252L99.54 201.105L98.9032 200.758L95.5559 206.906L92.2086 213.054L92.8453 213.4L96.1926 207.252ZM95.5559 206.906L98.9055 200.759C95.7475 199.038 92.8378 197.455 90.2835 196.094L86.9924 202.272L83.7013 208.45C86.1871 209.774 89.0382 211.326 92.2063 213.052L95.5559 206.906ZM86.9924 202.272L90.2835 196.094C89.6789 195.772 89.0927 195.462 88.5262 195.164L85.2708 201.361L82.0153 207.558C82.5551 207.841 83.1174 208.139 83.7014 208.45L86.9924 202.272ZM85.2708 201.361L79.2826 204.986C79.739 205.74 80.2032 206.49 80.6709 207.233L86.593 203.5L92.5152 199.768C92.0893 199.093 91.6692 198.413 91.2589 197.736L85.2708 201.361ZM86.593 203.5L79.6328 202.755L77.9844 218.153L84.9446 218.898L91.9048 219.643L93.5532 204.246L86.593 203.5ZM84.9446 218.898L90.6262 214.809C89.8279 213.7 88.9617 212.474 88.0612 211.167L82.2961 215.137L76.5311 219.108C77.4921 220.503 78.4144 221.808 79.2629 222.987L84.9446 218.898ZM82.2961 215.137L88.0612 211.167C84.2131 205.579 79.811 198.594 77.3438 192.725L70.8909 195.438L64.438 198.151C67.4914 205.414 72.5864 213.38 76.5311 219.108L82.2961 215.137ZM70.8909 195.438L77.3439 192.725C77.3203 192.669 77.3066 192.633 77.2972 192.605C77.2876 192.577 77.284 192.561 77.2833 192.559C77.2827 192.556 77.2868 192.573 77.2896 192.609C77.2925 192.645 77.2941 192.703 77.287 192.779L70.3186 192.114L63.3503 191.449C63.0481 194.615 64.0021 197.114 64.4379 198.151L70.8909 195.438ZM70.3186 192.114L77.2869 192.779C77.2669 192.989 77.1926 193.215 77.0446 193.429C76.8874 193.657 76.6726 193.832 76.4561 193.931L73.5461 187.565L70.6362 181.198C66.3144 183.174 63.7553 187.208 63.3503 191.448L70.3186 192.114ZM73.5461 187.565L76.4554 193.932C76.2891 194.008 76.1696 194.02 76.1454 194.022C76.1243 194.024 76.138 194.02 76.2303 194.031L77.0383 187.078L77.8464 180.124C76.7239 179.994 73.8112 179.748 70.6369 181.198L73.5461 187.565ZM77.0383 187.078L76.2298 194.031C76.4186 194.053 76.729 194.119 77.1805 194.262L79.2922 187.588L81.4039 180.914C80.5084 180.631 79.2607 180.289 77.8469 180.124L77.0383 187.078ZM79.2922 187.588L77.1803 194.262C78.8883 194.803 81.7051 196.124 85.5689 198.131L88.7961 191.919L92.0234 185.708C88.2714 183.758 84.4337 181.873 81.4042 180.915L79.2922 187.588ZM88.7961 191.919L85.5689 198.131C85.8825 198.294 86.2023 198.461 86.5276 198.632L89.7795 192.433L93.0315 186.234C92.6951 186.058 92.3581 185.882 92.0234 185.708L88.7961 191.919ZM89.7795 192.433L86.5276 198.632C89.8243 200.361 93.5773 202.407 97.7941 204.706L101.146 198.561L104.497 192.416C100.306 190.13 96.4478 188.027 93.0315 186.234L89.7795 192.433ZM101.146 198.561L97.7941 204.706C97.832 204.727 97.8694 204.748 97.9036 204.766C97.9388 204.785 97.9707 204.803 98.0021 204.82L101.354 198.674L104.705 192.529C104.667 192.508 104.63 192.488 104.596 192.469C104.561 192.45 104.529 192.433 104.497 192.416L101.146 198.561ZM101.354 198.674L97.4709 204.499L97.4738 204.501L101.357 198.676L105.24 192.852L105.237 192.85L101.354 198.674ZM101.357 198.676L98.005 204.822C104.914 208.59 112.994 212.997 122.049 217.636L125.24 211.406L128.432 205.176C119.559 200.63 111.626 196.304 104.708 192.531L101.357 198.676ZM125.24 211.406L122.049 217.636C136.508 225.043 152.945 232.762 169.329 238.437L171.62 231.823L173.912 225.208C158.414 219.84 142.636 212.452 128.432 205.176L125.24 211.406ZM171.62 231.823L169.329 238.437C185.686 244.103 202.147 247.788 216.61 246.997L216.228 240.007L215.845 233.018C204.031 233.664 189.575 230.634 173.912 225.208L171.62 231.823ZM216.228 240.007L216.61 246.997C245.206 245.431 281.092 231.599 308.244 217.348L304.99 211.15L301.737 204.952C275.217 218.871 241.455 231.616 215.845 233.018L216.228 240.007ZM304.99 211.15L308.244 217.348C321.838 210.213 333.366 202.91 340.785 196.882L336.371 191.449L331.957 186.016C325.527 191.24 314.885 198.051 301.737 204.952L304.99 211.15ZM336.371 191.449L340.785 196.882C341.265 196.492 341.722 196.112 342.155 195.743L337.617 190.413L333.08 185.082C332.727 185.383 332.353 185.695 331.957 186.016L336.371 191.449ZM337.617 190.413L342.155 195.743C344.45 193.789 346.279 191.983 347.578 190.377L342.134 185.976L336.69 181.575C336.131 182.267 335.001 183.447 333.08 185.082L337.617 190.413ZM342.134 185.976L345.426 179.798C343.405 178.722 341.234 177.725 339.037 176.811L336.35 183.275L333.663 189.739C335.561 190.528 337.31 191.337 338.842 192.154L342.134 185.976ZM336.35 183.275L343.216 181.915C342.411 177.849 341.462 173.754 340.369 169.714L333.612 171.542L326.854 173.37C327.859 177.084 328.737 180.866 329.483 184.635L336.35 183.275ZM374.213 87.2251L369.6 81.9606L348.515 100.438L353.128 105.703L357.742 110.967L378.827 92.4896L374.213 87.2251ZM353.128 105.703L351.406 98.9178L339.637 101.905L341.36 108.69L343.082 115.475L354.85 112.487L353.128 105.703ZM341.36 108.69L346.771 104.25L346.74 104.212L341.328 108.652L335.917 113.092L335.948 113.13L341.36 108.69ZM341.328 108.652L336.887 103.241L324.429 113.468L328.87 118.878L333.312 124.289L345.77 114.062L341.328 108.652ZM328.87 118.878L334.276 114.432L333.942 114.024L328.535 118.471L323.129 122.918L323.464 123.325L328.87 118.878ZM328.535 118.471L323.739 113.373C322.344 114.685 320.804 116.101 319.152 117.561L323.786 122.807L328.421 128.053C330.204 126.478 331.854 124.96 333.332 123.569L328.535 118.471ZM323.786 122.807L319.152 117.561C316.481 119.92 313.471 122.444 310.296 124.86L314.534 130.431L318.773 136.002C322.283 133.332 325.561 130.58 328.421 128.053L323.786 122.807ZM314.534 130.431L310.296 124.86C305.247 128.702 300.011 132.089 295.207 134.164L297.984 140.59L300.76 147.016C307.045 144.301 313.308 140.16 318.773 136.002L314.534 130.431ZM297.984 140.59L295.207 134.164C294.592 134.43 293.582 134.584 292.059 134.47L291.535 141.451L291.012 148.431C293.598 148.625 297.192 148.558 300.76 147.016L297.984 140.59ZM291.535 141.451L292.059 134.47C290.563 134.358 288.731 134 286.586 133.398L284.695 140.137L282.803 146.877C285.462 147.623 288.266 148.225 291.012 148.431L291.535 141.451ZM284.695 140.137L286.586 133.398C282.294 132.193 276.964 130.077 270.933 127.317L268.02 133.682L265.107 140.047C271.395 142.925 277.484 145.384 282.803 146.877L284.695 140.137ZM268.02 133.682L270.933 127.317C258.879 121.801 244.28 113.833 230.03 105.822L226.6 111.924L223.17 118.026C237.416 126.035 252.468 134.263 265.107 140.047L268.02 133.682ZM226.6 111.924L230.03 105.822C226.164 103.649 222.341 101.483 218.608 99.365L215.155 105.454L211.701 111.542C215.435 113.66 219.278 115.838 223.17 118.026L226.6 111.924ZM215.155 105.454L218.628 99.3759L218.587 99.3525L215.114 105.43L211.641 111.508L211.682 111.531L215.155 105.454ZM215.114 105.43L218.568 99.3421L217.019 98.4632L213.565 104.551L210.11 110.639L211.659 111.518L215.114 105.43ZM213.565 104.551L217.019 98.4629C207.582 93.1092 198.717 88.0794 191.414 84.1968L188.128 90.3774L184.842 96.5581C191.938 100.331 200.618 105.254 210.111 110.64L213.565 104.551ZM188.128 90.3774L191.414 84.1967C188.276 82.5284 185.449 81.0844 183.004 79.9219L179.998 86.2437L176.992 92.5655C179.18 93.6057 181.807 94.9446 184.842 96.5581L188.128 90.3774ZM179.998 86.2437L183.004 79.9218C181.315 79.1189 179.752 78.4229 178.358 77.8732L175.79 84.3853L173.223 90.8974C174.218 91.2898 175.471 91.8421 176.993 92.5655L179.998 86.2437ZM175.79 84.3853L178.358 77.8731C178.105 77.7735 177.873 77.6853 177.667 77.6086L175.219 84.1665L172.771 90.7244C172.923 90.7812 173.072 90.8379 173.223 90.8974L175.79 84.3853ZM175.219 84.1665L168.688 81.6482C168.012 83.3997 167.388 85.2592 166.831 87.0589L173.519 89.1265L180.206 91.194C180.699 89.6021 181.221 88.0585 181.75 86.6849L175.219 84.1665ZM173.519 89.1265L170.561 82.7819C168.954 83.5311 167.351 84.3013 165.75 85.0911L168.847 91.3687L171.944 97.6462C173.457 96.8997 174.967 96.1744 176.476 95.471L173.519 89.1265ZM168.847 91.3687L165.75 85.091C163.213 86.3428 160.738 87.5687 158.321 88.8258L161.552 95.0356L164.783 101.246C167.05 100.066 169.401 98.9007 171.944 97.6463L168.847 91.3687ZM161.552 95.0356L168.358 96.6719C168.652 95.4501 169.124 93.5664 169.653 91.6595L162.907 89.7886L156.162 87.9176C155.579 90.021 155.066 92.0678 154.746 93.3994L161.552 95.0356ZM162.907 89.7886L169.653 91.6595C170.722 87.8059 172.182 83.2018 173.799 79.8745L167.503 76.8149L161.207 73.7554C159.005 78.2871 157.272 83.917 156.162 87.9176L162.907 89.7886ZM167.503 76.8149L173.799 79.8748C173.757 79.9605 173.694 80.0603 173.608 80.1583C173.524 80.2537 173.44 80.3256 173.367 80.3765C173.239 80.4664 173.144 80.4968 173.073 80.5138L171.449 73.7046L169.826 66.8954C167.187 67.5246 163.34 69.3666 161.207 73.7551L167.503 76.8149ZM171.449 73.7046L173.072 80.514C173.028 80.5243 173.041 80.5156 173.127 80.5155C173.213 80.5154 173.329 80.5235 173.49 80.5464L174.473 73.6157L175.456 66.685C174.307 66.5221 172.217 66.3258 169.827 66.8952L171.449 73.7046ZM174.473 73.6157L173.49 80.5463C174.207 80.6481 175.334 80.9808 176.891 81.5946L179.458 75.0825L182.026 68.5704C180.198 67.8499 177.84 67.0232 175.456 66.6851L174.473 73.6157ZM179.458 75.0825L176.891 81.5946C179.96 82.8049 184.249 84.9179 189.442 87.6773L192.727 81.4956L196.011 75.3139C190.761 72.5244 185.881 70.0906 182.026 68.5704L179.458 75.0825ZM192.727 81.4956L189.423 87.6669L189.52 87.7186L192.823 81.5474L196.127 75.3761L196.031 75.3243L192.727 81.4956ZM192.823 81.5474L189.537 87.728C196.757 91.5665 205.636 96.6036 215.195 102.026L218.649 95.938L222.103 89.8496C212.601 84.459 203.535 79.3148 196.11 75.3667L192.823 81.5474ZM218.649 95.938L215.195 102.026C219.396 104.41 223.726 106.866 228.07 109.308L231.5 103.207L234.93 97.1046C230.614 94.6779 226.308 92.2352 222.103 89.8496L218.649 95.938ZM231.5 103.207L228.07 109.308C241.071 116.617 254.451 123.941 265.955 129.408L268.959 123.085L271.964 116.763C260.93 111.52 247.913 104.403 234.93 97.1046L231.5 103.207ZM268.959 123.085L265.955 129.408C267.074 129.94 268.179 130.456 269.268 130.955L272.181 124.589L275.094 118.224C274.074 117.757 273.03 117.27 271.964 116.763L268.959 123.085ZM272.181 124.589L269.268 130.955C275.373 133.748 280.919 135.962 285.505 137.249L287.397 130.509L289.288 123.77C285.729 122.771 280.943 120.901 275.094 118.224L272.181 124.589ZM287.397 130.509L285.505 137.249C285.922 137.366 285.965 137.387 285.876 137.356C285.702 137.294 286.082 137.434 286.366 137.517C286.789 137.641 287.139 137.701 287.276 137.725C287.699 137.797 288.187 137.858 291.052 138.37L292.283 131.479L293.514 124.588C292.064 124.329 291.143 124.171 290.541 124.072C290.239 124.021 290.021 123.986 289.863 123.961C289.774 123.947 289.735 123.941 289.684 123.933C289.637 123.925 289.632 123.924 289.644 123.926C289.654 123.928 289.935 123.974 290.295 124.079C290.515 124.144 290.836 124.26 290.554 124.161C290.252 124.053 289.889 123.938 289.288 123.77L287.397 130.509ZM292.283 131.479L291.053 138.37C294.608 139.005 297.96 137.834 300.138 136.853C302.537 135.773 304.838 134.301 306.728 132.952C310.53 130.237 313.504 127.412 313.608 127.313L308.784 122.24L303.961 117.167C304.028 117.103 301.605 119.407 298.592 121.558C297.075 122.641 295.614 123.536 294.39 124.087C292.945 124.738 292.813 124.463 293.514 124.588L292.283 131.479ZM308.784 122.24L313.04 127.797C316.123 125.437 319.092 122.952 321.8 120.56L317.165 115.314L312.531 110.068C310.016 112.29 307.301 114.559 304.528 116.682L308.784 122.24ZM317.165 115.314L321.8 120.56C323.633 118.94 325.325 117.382 326.826 115.963L322.017 110.876L317.208 105.79C315.804 107.117 314.229 108.567 312.531 110.068L317.165 115.314ZM322.017 110.876L326.825 115.964C326.8 115.987 326.781 116.004 326.77 116.014L322.181 110.728L317.592 105.442C317.47 105.548 317.341 105.664 317.208 105.789L322.017 110.876ZM322.181 110.728L327.59 106.285L327.006 105.574L321.597 110.017L316.188 114.46L316.772 115.171L322.181 110.728ZM321.597 110.017L326.039 115.427L338.497 105.2L334.055 99.7896L329.613 94.3792L317.155 104.607L321.597 110.017ZM334.055 99.7896L339.464 95.3467L339.208 95.0352L333.799 99.478L328.39 103.921L328.646 104.232L334.055 99.7896ZM333.799 99.478L339.756 103.154L345.858 93.2639L339.901 89.5884L333.943 85.9129L327.842 95.8025L333.799 99.478ZM339.901 89.5884L344.76 94.6264L363.955 76.1108L359.095 71.0728L354.235 66.0347L335.041 84.5504L339.901 89.5884ZM359.095 71.0728L353.984 75.8562L369.102 92.0085L374.213 87.2251L379.324 82.4417L364.206 66.2893L359.095 71.0728Z" fill="black" mask="url(#path-13-outside-1_303_30)"/>
<rect x="363.802" y="75.9683" width="9" height="12" transform="rotate(47.0723 363.802 75.9683)" fill="#D9D9D9"/>
<rect x="356.393" y="84.188" width="6.3325" height="8.44333" transform="rotate(47.0723 356.393 84.188)" fill="#D9D9D9"/>
<path d="M283.231 171.814L255.649 182.206L277.596 193.08" stroke="black" stroke-width="10" stroke-linecap="round" stroke-linejoin="round"/>
<path d="M179.636 142L198.451 164.688L174 163.266" stroke="black" stroke-width="10" stroke-linecap="round" stroke-linejoin="round"/>
</svg>
