<?xml version="1.0" encoding="utf-8" ?><svg xmlns="http://www.w3.org/2000/svg" xmlns:xlink="http://www.w3.org/1999/xlink" width="650" height="650" viewBox="0 0 650 650"><path fill="white" transform="scale(1.625 1.625)" d="M0 0L400 0L400 400L0 400L0 0Z"/><path transform="scale(1.625 1.625)" d="M187.324 25.1392C186.024 22.1375 185.409 18.624 186.057 15.3896C186.807 11.6403 189.179 8.82237 192.309 6.74301C196.8 3.7583 201.353 2.89652 206.606 4.02877C210.466 4.86067 213.531 6.31588 215.699 9.7372C217.969 13.3181 218.756 18.016 217.783 22.1397C216.948 25.6743 214.854 28.6648 211.742 30.5553C206.76 33.5822 200.526 33.4374 195.04 32.1397C195.532 36.0926 196.618 42.9125 195.002 46.5453C194.354 48.0011 193.402 48.3888 192.002 48.8897C191.518 50.3725 191.204 52.1092 190.565 53.5098C191.258 54.6208 191.517 55.1351 191.209 56.4272C190.178 60.7576 185.816 65.7154 182.465 68.5051C181.531 69.2831 179.012 70.7406 178.52 71.7165C178.294 72.1649 179.86 75.8215 179.833 76.8669C179.712 81.5291 176.154 87.7518 172.127 90.0882C171.283 90.5776 169.453 90.5984 168.461 90.7119C167.861 93.104 167.585 95.4989 166.857 97.8706C174.872 92.1007 183.125 86.8146 191.28 81.2701C194.58 79.0266 197.693 76.1549 201.121 74.158C201.798 73.7633 202.449 73.5772 203.237 73.6963C204.159 73.8356 205.015 74.5232 205.514 75.2912C207.512 78.3623 201.454 84.1936 208.671 90.3957C212.81 93.9517 220.974 94.8139 223.486 97.5389C224.178 98.2896 224.262 99.415 223.978 100.361C223.617 101.567 222.672 102.254 221.589 102.778C217.324 104.842 212.198 105.198 207.771 107.042C201.49 109.657 195.379 114.082 188.863 116.962C180.603 120.613 172.913 122.176 164.775 125.195C168.218 132.773 171.711 150.193 172.939 158.713C176.272 159.846 179.313 161.948 182.498 163.453C185.817 165.02 189.374 166.12 192.603 167.87C193.723 168.477 195.669 169.335 196.228 170.537C196.938 172.065 196.486 174.002 196.075 175.56C193.333 178.643 189.075 179.839 185.76 182.21C186.333 184.703 187.284 187.117 187.805 189.603C189.824 188.319 192.306 186.346 194.843 186.831C195.551 186.966 196.193 187.317 196.608 187.919C197.052 188.562 197.106 189.385 196.917 190.126C196.672 191.089 196.065 191.93 195.334 192.589C193.695 194.069 191.221 195.08 189.333 196.267C186.437 198.087 183.667 200.228 180.668 201.86C177.562 203.55 174.322 205.001 171.238 206.732C167.802 208.66 164.552 210.929 161.149 212.92C156.609 215.575 151.973 218.063 147.431 220.715C141.999 223.886 136.695 227.275 131.261 230.437C128.417 232.092 125.483 233.583 122.616 235.197C114.714 239.644 107.15 244.586 98.774 248.195C93.3228 250.543 85.3644 254.178 79.4178 252.425C77.337 251.812 75.0317 250.351 73.99 248.402C73.4443 247.382 73.2082 246.206 73.5586 245.079C73.7499 244.442 74.1995 243.915 74.798 243.625C75.6889 243.201 76.7471 243.389 77.6215 243.757C78.8706 244.283 79.8099 245.329 81.0616 245.843C84.1276 247.103 88.5947 245.115 91.5178 244.022C96.8663 242.022 101.155 239.094 106.056 236.314C108.015 235.202 110.29 234.67 112.311 233.669C114.942 232.366 117.313 230.557 119.903 229.182C118.562 226.187 117.755 222.826 117.244 219.587C114.677 221.044 111.29 223.729 108.232 222.923C105.889 222.305 103.543 221.01 101.327 220.005L90.6992 215.237C88.8338 214.404 86.7031 213.165 84.6484 213.014C83.4943 212.93 82.4089 213.414 81.4322 213.981C72.1725 219.362 57.1311 231.736 45.8504 228.937C43.9429 228.464 42.1439 227.501 41.1255 225.751C40.2846 224.306 40.0352 222.394 40.4946 220.785C40.8376 219.584 41.6023 218.441 42.7338 217.86C43.354 217.541 44.1085 217.406 44.7823 217.629C45.6623 217.92 46.3225 218.726 46.6863 219.55C47.1057 220.5 47.1545 221.712 47.2708 222.739C54.3774 222.86 60.3175 219.216 66.2902 215.801C66.0897 212.028 65.9811 208.25 65.9647 204.472C60.467 202.628 54.213 199.886 51.4088 194.571C52.2611 193.242 53.0747 192.242 54.3027 191.23C50.9043 185.065 49.2204 176.212 51.1511 169.333C52.0038 166.295 53.7383 163.627 56.5591 162.107C56.735 162.013 56.9122 161.921 57.0906 161.832C55.3376 156.941 54.1652 147.06 56.4535 142.145C56.8546 141.284 57.3986 140.98 58.2513 140.642C59.2053 138.753 60.1137 136.744 60.8197 134.748C60.4908 133.813 60.4848 133.215 60.787 132.263C62.1969 127.82 66.3964 123.826 70.4329 121.726C70.9295 120.531 71.4713 119.351 71.9963 118.168C71.4721 116.259 70.999 114.418 71.123 112.42C71.3075 109.446 72.7158 107.134 74.8954 105.188C68.4532 95.1494 73.8392 81.9985 75.9732 71.474C76.7301 67.741 76.9639 63.909 77.2761 60.1189C76.3286 59.8035 75.3504 59.5008 74.489 58.9849C72.5116 57.8007 71.2551 55.7085 70.7308 53.5091C69.6937 49.1581 70.9859 43.5705 73.3347 39.8292C76.4282 34.9019 85.6646 30.8707 91.0802 29.6258C91.5792 28.3976 92.1605 27.2633 92.9576 26.1986C95.8741 22.3033 100.181 20.1204 104.752 18.7453C123.364 13.147 132.932 22.0128 150.176 24.8519C162.477 26.7717 174.994 26.8686 187.324 25.1392Z"/><path fill="#FE001C" transform="scale(1.625 1.625)" d="M121.235 31.2053L121.549 30.5401C124.403 29.2464 133.917 29.7897 137.509 29.7191C138.791 29.6939 140.004 29.4847 141.299 29.5259C155.552 32.3684 174.531 34.3127 188.754 31.0552C188.865 33.9773 189.23 36.8775 189.356 39.7947C189.45 41.9905 189.233 44.2834 189.498 46.4584C189.563 47.0004 189.744 47.5715 190.165 47.944C190.659 48.3811 191.399 48.6409 192.002 48.8897C191.518 50.3725 191.204 52.1092 190.565 53.5098C189.886 53.1262 189.181 52.6965 188.392 52.6072C187.484 52.5047 186.652 52.9183 186.035 53.5614C184.715 54.9374 183.884 57.1113 182.917 58.7572C180.932 62.1343 177.447 64.7004 174.313 66.9582C169.481 61.6262 163.907 58.6137 157.924 54.8761C154.125 52.4744 150.397 49.9607 146.747 47.3382C144.204 45.4967 141.666 43.6163 139.239 41.6235C136.548 39.4128 133.948 36.9614 130.978 35.1309C127.949 33.2638 124.626 32.1893 121.235 31.2053Z"/><path fill="#33353E" transform="scale(1.625 1.625)" d="M71.0961 128.37C71.497 130.162 71.9417 131.901 72.5582 133.635C73.3412 135.837 74.7938 138.407 74.9808 140.732C75.0586 141.698 74.7957 142.882 74.622 143.836C74.0311 147.081 73.1789 150.275 72.7129 153.543C72.1969 157.162 72.0967 160.985 71.2829 164.542C70.9601 165.952 70.3285 167.302 69.5629 168.526C69.362 168.845 69.1513 169.159 68.9311 169.465C64.6913 165.59 61.7589 158.679 61.5118 152.959C61.4225 150.893 61.714 148.826 61.6416 146.766C61.6103 145.875 61.3254 145.011 61.2934 144.135C61.2573 143.145 61.5678 142.507 61.1873 141.517C61.1533 141.428 61.1226 141.338 61.0873 141.25C61.0658 141.197 61.0403 141.145 61.0168 141.093C60.1102 140.747 59.2084 140.715 58.2513 140.642C59.2053 138.753 60.1137 136.744 60.8197 134.748C61.2626 135.068 61.7075 135.385 62.1545 135.699C62.8487 135.666 65.4765 135.917 65.8127 135.543C67.8008 133.329 68.8323 130.491 71.0961 128.37Z"/><path fill="#474D59" transform="scale(1.625 1.625)" d="M60.8197 134.748C61.2626 135.068 61.7075 135.385 62.1545 135.699C61.6194 137.043 61.9979 140.268 61.0168 141.093C60.1102 140.747 59.2084 140.715 58.2513 140.642C59.2053 138.753 60.1137 136.744 60.8197 134.748Z"/><path fill="#B10113" transform="scale(1.625 1.625)" d="M98.6587 28.7239C99.9944 27.7726 101.348 26.9006 102.827 26.1854C116.068 19.7818 128.567 25.1461 141.299 29.5259C140.004 29.4847 138.791 29.6939 137.509 29.7191C133.917 29.7897 124.403 29.2464 121.549 30.5401L121.235 31.2053C113.648 29.3506 106.469 28.4903 98.6587 28.7239Z"/><path fill="white" transform="scale(1.625 1.625)" d="M93.3573 63.5171L93.9588 63.327C96.7461 64.8059 98.4441 66.6926 101.773 67.1708C103.882 67.4736 106.03 67.0852 108.107 66.6999C115.21 65.3822 122.181 63.0385 128.779 67.3881C130.983 68.8407 132.722 70.9248 133.51 73.4651C135.101 78.5987 132.765 84.4793 133.823 89.8731C134.717 94.426 138.661 98.0067 138.814 102.235C138.923 105.239 137.576 108.781 136.174 111.38C135.37 112.87 134.58 113.793 132.919 114.292C129.908 115.197 126.383 115.348 123.253 115.529C113.088 116.117 103.492 115.788 93.7623 112.542C91.2962 111.54 88.9974 110.419 86.7969 108.91C82.5612 106.005 79.3119 102.02 78.3827 96.861C77.6737 92.925 77.9065 88.8953 80.2186 85.5549C80.9058 83.5837 81.1318 81.4953 81.8159 79.5194C83.6478 73.2221 88.6665 67.9339 93.3573 63.5171Z"/><path transform="scale(1.625 1.625)" d="M94.5095 88.6603C97.6471 85.8915 100.833 85.4478 104.873 84.8956C106.231 84.71 107.68 84.4218 109.054 84.4988C111.161 84.6168 112.958 85.8802 114.27 87.4695C115.594 89.077 116.2 91.1568 115.948 93.2238C115.378 98.0538 110.144 104.754 106.377 107.701C104.706 109.009 102.755 109.883 100.583 109.553C98.9842 109.31 97.6671 108.356 96.5715 107.214C95.0227 103.965 93.7935 100.414 93.1659 96.8648C92.6415 93.8989 92.7271 91.1908 94.5095 88.6603Z"/><path fill="#EDC04D" transform="scale(1.625 1.625)" d="M100.973 91.9484C102.848 91.5129 107.082 90.1328 108.843 91.0513C109.294 91.2866 109.587 91.6057 109.712 92.1032C110.017 93.3188 108.885 94.9703 108.237 95.9434C106.846 98.0317 105.225 100.081 103.542 101.94C103.078 102.572 102.351 103.155 101.789 103.713C100.763 101.356 98.3195 95.3483 99.4046 92.9388C99.7043 92.2735 100.349 92.1822 100.973 91.9484Z"/><path fill="#A28332" transform="scale(1.625 1.625)" d="M100.973 91.9484C101.592 93.0001 102.396 94.2511 102.728 95.4295C103.257 97.3049 102.361 100.42 103.542 101.94C103.078 102.572 102.351 103.155 101.789 103.713C100.763 101.356 98.3195 95.3483 99.4046 92.9388C99.7043 92.2735 100.349 92.1822 100.973 91.9484Z"/><path fill="#B1B0B1" transform="scale(1.625 1.625)" d="M80.2186 85.5549C83.92 87.8015 87.1523 89.9381 91.7277 88.9107C91.9873 88.8524 92.1085 88.8028 92.3747 88.7135L93.8147 88.0092L94.5095 88.6603C92.7271 91.1908 92.6415 93.8989 93.1659 96.8648C93.7935 100.414 95.0227 103.965 96.5715 107.214C94.7248 108.771 94.41 110.318 93.7623 112.542C91.2962 111.54 88.9974 110.419 86.7969 108.91C82.5612 106.005 79.3119 102.02 78.3827 96.861C77.6737 92.925 77.9065 88.8953 80.2186 85.5549Z"/><path transform="scale(1.625 1.625)" d="M93.3573 63.5171C93.288 66.185 92.5604 68.9544 92.2951 71.6393C94.3867 73.3612 99.3525 76.3966 99.5319 79.2277C99.5845 80.057 99.2344 80.7826 98.6625 81.3651C97.7879 82.2558 96.5925 82.6612 95.4243 83.0126C94.2666 83.3998 93.1114 83.8061 91.9399 84.1491C92.1541 85.6702 92.2777 87.1808 92.3747 88.7135C92.1085 88.8028 91.9873 88.8524 91.7277 88.9107C87.1523 89.9381 83.92 87.8015 80.2186 85.5549C80.9058 83.5837 81.1318 81.4953 81.8159 79.5194C83.6478 73.2221 88.6665 67.9339 93.3573 63.5171Z"/><path fill="#B1B0B1" transform="scale(1.625 1.625)" d="M93.3573 63.5171C93.288 66.185 92.5604 68.9544 92.2951 71.6393C91.2223 71.3156 89.7008 71.085 88.6726 71.6774C88.2868 71.8996 88.0003 72.3501 87.91 72.7896C87.5763 74.414 88.8132 76.6015 89.7553 77.857C89.8112 77.9315 89.869 78.0046 89.9258 78.0785C89.4388 78.5619 88.5387 78.6021 87.8761 78.719C86.2621 78.7155 83.1023 79.9611 81.8159 79.5194C83.6478 73.2221 88.6665 67.9339 93.3573 63.5171Z"/><path fill="#A84E57" transform="scale(1.625 1.625)" d="M81.8159 79.5194C83.1023 79.9611 86.2621 78.7155 87.8761 78.719C86.4265 79.7119 84.7375 80.7643 84.3527 82.6296C84.2409 83.1716 84.3289 83.7334 84.6683 84.1796C85.2886 84.9951 86.329 85.2741 87.303 85.3456C88.9707 85.468 90.4221 84.7466 91.9399 84.1491C92.1541 85.6702 92.2777 87.1808 92.3747 88.7135C92.1085 88.8028 91.9873 88.8524 91.7277 88.9107C87.1523 89.9381 83.92 87.8015 80.2186 85.5549C80.9058 83.5837 81.1318 81.4953 81.8159 79.5194Z"/><path fill="#F4727F" transform="scale(1.625 1.625)" d="M91.9399 84.1491C93.1114 83.8061 94.2666 83.3998 95.4243 83.0126C95.537 84.6412 95.5833 86.0904 94.4182 87.4015C94.2283 87.6151 94.0222 87.813 93.8147 88.0092L92.3747 88.7135C92.2777 87.1808 92.1541 85.6702 91.9399 84.1491Z"/><path transform="scale(1.625 1.625)" d="M117.434 85.4126C115.327 84.3786 112.306 84.1802 110.84 82.1692C110.388 81.5496 110.161 80.7752 110.311 80.0135C110.582 78.6446 111.731 77.6057 112.859 76.8881C115.162 75.4225 120.203 73.0683 122.932 73.7574C123.592 73.9242 124.201 74.2762 124.539 74.8861C124.917 75.567 124.873 76.5013 124.639 77.2218C124.149 78.7303 122.252 79.5647 120.977 80.2868C122.629 80.6641 124.216 81.2128 125.819 81.755C128.224 82.0602 130.081 82.7599 131.991 84.2707C132.683 85.6304 133.233 86.6742 132.678 88.2267C132.19 89.5914 131.091 90.5304 129.802 91.1237C127.187 92.327 123.804 92.1223 121.175 91.072C119.694 90.4803 118.287 89.4387 117.678 87.9179C117.322 87.0274 117.309 86.344 117.434 85.4126Z"/><path fill="#F4727F" transform="scale(1.625 1.625)" d="M125.819 81.755C128.224 82.0602 130.081 82.7599 131.991 84.2707C132.683 85.6304 133.233 86.6742 132.678 88.2267C132.19 89.5914 131.091 90.5304 129.802 91.1237C127.187 92.327 123.804 92.1223 121.175 91.072C119.694 90.4803 118.287 89.4387 117.678 87.9179C117.322 87.0274 117.309 86.344 117.434 85.4126C119.699 86.304 122.988 87.8891 125.406 86.8496C126.043 86.5757 126.493 86.1472 126.7 85.4776C127.143 84.0494 126.468 82.9726 125.819 81.755Z"/><path fill="#474D59" transform="scale(1.625 1.625)" d="M158.461 127.297C158.523 127.305 158.589 127.296 158.647 127.32C158.946 127.443 159.045 127.624 159.171 127.903C162.622 135.558 167.776 161.034 167.673 169.294C167.633 172.552 166.938 175.959 165.747 178.988C164.973 180.956 163.974 182.786 162.526 184.34C157.333 189.909 147.235 193.729 140.364 196.766C140.301 193.889 140.172 191.035 139.712 188.192C138.646 181.526 134.96 175.563 129.475 171.629C133.705 169.011 137.523 165.747 141.902 163.378C143.767 162.37 146.832 161.063 147.515 158.868C147.755 158.096 147.735 157.258 147.34 156.54C146.973 155.872 146.191 155.347 145.463 155.16C141.894 154.243 117.78 172.414 113.109 175.205C112.948 169.087 115.071 162.768 117.93 157.391C122.541 148.721 133.145 135.687 142.475 131.844C144.674 130.938 147.179 130.54 149.482 129.941C152.504 129.155 155.48 128.225 158.461 127.297Z"/><path fill="white" transform="scale(1.625 1.625)" d="M110.171 35.3576C115.486 36.1387 121.118 37.0282 125.963 39.4776C129.584 41.3084 132.542 44.235 135.671 46.7744C138.46 49.0386 141.378 51.2139 144.321 53.276C147.821 55.7278 151.367 58.1571 155.001 60.4038C158.415 62.5144 162.013 64.421 165.194 66.8782C167.61 68.7441 169.98 71.2114 171.819 73.6565C172.701 74.8286 173.681 76.25 173.501 77.7836C173.225 80.1251 171.029 82.5898 169.484 84.2227C160.961 80.7701 155.029 73.7233 147.755 68.3586C144.299 65.8104 140.293 63.9098 137.07 61.0655C127.623 52.731 123.227 42.0963 108.406 43.3384L108.011 42.9989C108.701 40.5563 108.919 38.1014 109.44 35.6442L110.171 35.3576Z"/><path fill="white" transform="scale(1.625 1.625)" d="M88.0971 165.52C89.6874 165.87 91.3324 166.076 92.9404 166.339C97.6459 167.236 102.465 167.926 106.961 169.623C106.695 172.8 106.171 177.236 108.412 179.884C109.304 180.937 110.556 181.508 111.929 181.569C115.3 181.718 118.77 179.137 121.477 177.378C121.573 179.947 122.331 182.445 122.88 184.945C123.671 188.67 123.804 192.504 123.273 196.275C119.608 191.963 112.256 191.064 106.874 190.615C105.445 190.496 104.36 190.537 102.97 190.937C99.8369 192.308 100.331 193.313 96.6284 192.521C92.7006 183.905 85.1364 185.578 83.1985 182.048C81.5365 179.021 86.8857 169.103 88.0971 165.52Z"/><path fill="#B1B0B1" transform="scale(1.625 1.625)" d="M88.0971 165.52C89.6874 165.87 91.3324 166.076 92.9404 166.339C92.0608 169.011 95.8493 179.606 97.2051 182.263C98.7089 185.21 100.684 188.538 102.97 190.937C99.8369 192.308 100.331 193.313 96.6284 192.521C92.7006 183.905 85.1364 185.578 83.1985 182.048C81.5365 179.021 86.8857 169.103 88.0971 165.52Z"/><path fill="#474D59" transform="scale(1.625 1.625)" d="M139.085 70.1316C145.371 73.369 150.741 78.9816 156.133 83.4743C158.096 85.1103 160.213 86.5484 162.32 87.99C162.2 89.3858 162.056 90.7735 161.806 92.153C160.926 97.0078 159.034 101.696 154.892 104.579C151.282 106.886 147.352 108.619 143.467 110.401C144.424 107.577 145.439 104.205 145.164 101.211C144.717 96.3437 140.796 92.9373 139.893 88.2885C138.673 82.0085 141.701 77.1638 139.085 70.1316Z"/><path fill="white" transform="scale(1.625 1.625)" d="M179.339 185.564L179.582 185.611C180.683 188.049 181.328 190.676 181.99 193.259C177.33 196.358 172.264 198.422 167.502 201.276L141.548 216.538C136.48 219.546 131.532 222.895 126.317 225.63C125.947 225.834 125.981 225.769 125.597 225.682C124.881 224.527 124.339 222.187 124.34 220.83C128.825 221.397 133.175 217.498 135.377 213.922C136.508 212.085 137.324 209.886 138.762 208.267C140.831 205.938 151.484 200.808 154.818 198.981L179.339 185.564Z"/><path fill="#9A8777" transform="scale(1.625 1.625)" d="M70.3723 187.73C70.5927 187.742 70.4414 187.715 70.7554 187.987C70.7163 189.665 71.0649 191.335 72.0271 192.748C74.1548 195.872 84.4235 199.577 88.2113 200.29C90.9194 200.8 92.3992 199.924 94.5544 198.451L98.3506 199.184C98.8828 200.461 99.4096 201.724 100.35 202.762C103.25 205.963 110.305 207.187 114.455 207.176C116.537 207.17 118.604 206.735 120.692 206.7C122.71 206.666 124.788 206.943 126.81 207.058C123.263 208.56 119.857 210.633 116.477 212.476C114.184 213.779 111.862 215.03 109.513 216.229C101.712 213.438 94.2347 209.45 86.6789 206.08C84.2898 205.014 81.7865 204.176 79.3771 203.146L60.1678 194.739C63.6511 192.612 67.0098 190.056 70.3723 187.73Z"/><path fill="white" transform="scale(1.625 1.625)" d="M198.401 83.894C198.958 86.6973 199.966 89.1156 201.19 91.6732C204.644 95.0445 207.155 97.5153 211.751 99.341C209.315 99.8933 207.072 100.736 204.704 101.491C202.809 102.505 200.875 103.48 199.025 104.574C197.274 105.66 195.223 107.12 193.284 107.763C191.402 108.91 189.342 109.866 187.329 110.763C185.71 111.566 184.017 112.411 182.295 112.965C180.331 108.854 179.503 101.903 178.493 97.3071C179.601 96.2593 181.011 95.4164 182.354 94.7032C184.122 93.0709 186.614 91.7926 188.659 90.5008C189.989 89.4568 191.479 88.6098 192.918 87.7253C194.709 86.4058 196.667 85.2784 198.401 83.894Z"/><path fill="white" transform="scale(1.625 1.625)" d="M198.401 83.894C198.958 86.6973 199.966 89.1156 201.19 91.6732C204.644 95.0445 207.155 97.5153 211.751 99.341C209.315 99.8933 207.072 100.736 204.704 101.491C202.809 102.505 200.875 103.48 199.025 104.574C196.537 99.2299 194.829 93.3051 192.918 87.7253C194.709 86.4058 196.667 85.2784 198.401 83.894Z"/><path fill="#FE001C" transform="scale(1.625 1.625)" d="M201.19 91.6732C204.644 95.0445 207.155 97.5153 211.751 99.341C209.315 99.8933 207.072 100.736 204.704 101.491C203.51 98.2266 202.339 94.9539 201.19 91.6732Z"/><path fill="#FE001C" transform="scale(1.625 1.625)" d="M192.918 87.7253C194.829 93.3051 196.537 99.2299 199.025 104.574C197.274 105.66 195.223 107.12 193.284 107.763C191.194 102.958 188.826 95.7456 188.659 90.5008C189.989 89.4568 191.479 88.6098 192.918 87.7253Z"/><path fill="#FE001C" transform="scale(1.625 1.625)" d="M178.493 97.3071C179.601 96.2593 181.011 95.4164 182.354 94.7032C183.519 99.8823 184.869 106.055 187.329 110.763C185.71 111.566 184.017 112.411 182.295 112.965C180.331 108.854 179.503 101.903 178.493 97.3071Z"/><path fill="white" transform="scale(1.625 1.625)" d="M101.591 130.002C111.138 131.748 120.083 133.184 129.834 132.971C121.962 138.506 112.787 152.239 109.484 161.192L108.783 163.394C103.935 161.123 96.4998 160.121 91.1224 159.484C93.3906 158.203 95.5688 156.77 97.8948 155.589C100.07 154.484 102.353 153.604 104.533 152.507C106.329 151.603 108.342 150.336 108.939 148.289C109.995 144.668 103.532 133.502 101.591 130.002Z"/><path fill="#B1B0B1" transform="scale(1.625 1.625)" d="M76.7083 123.301C78.6807 124.408 80.9348 125.211 83.0373 126.041C85.3819 126.773 87.7779 127.442 90.0602 128.353C91.5609 128.469 92.8991 128.772 94.3447 129.185L96.2572 133.012C96.9563 134.425 97.6046 135.909 98.3975 137.269C99.2692 139.126 100.2 140.974 100.992 142.866C101.666 144.052 102.267 145.26 102.854 146.492C100.102 147.714 97.2549 148.851 94.5778 150.224C92.8193 151.397 90.8961 152.405 89.0963 153.531C88.3214 152.464 87.5981 151.438 87.0119 150.255C85.8007 148.123 84.6536 145.982 83.5735 143.781C82.6748 142.164 82.0837 140.305 81.4127 138.58C80.4316 136.716 79.6378 134.789 78.8319 132.846C78.1855 131.287 77.7171 129.431 77.3821 127.78C77.051 126.316 76.9076 124.789 76.7083 123.301Z"/><path fill="#B1B0B1" transform="scale(1.625 1.625)" d="M76.7083 123.301C78.6807 124.408 80.9348 125.211 83.0373 126.041C85.3819 126.773 87.7779 127.442 90.0602 128.353C91.5609 128.469 92.8991 128.772 94.3447 129.185L96.2572 133.012L94.9105 133.556C90.3619 135.142 85.8951 136.818 81.4127 138.58C80.4316 136.716 79.6378 134.789 78.8319 132.846C78.1855 131.287 77.7171 129.431 77.3821 127.78C77.051 126.316 76.9076 124.789 76.7083 123.301Z"/><path fill="#B10113" transform="scale(1.625 1.625)" d="M76.7083 123.301C78.6807 124.408 80.9348 125.211 83.0373 126.041C85.3819 126.773 87.7779 127.442 90.0602 128.353C86.1958 129.593 82.3831 130.841 78.8319 132.846C78.1855 131.287 77.7171 129.431 77.3821 127.78C77.051 126.316 76.9076 124.789 76.7083 123.301Z"/><path fill="#B1B0B1" transform="scale(1.625 1.625)" d="M76.7083 123.301C78.6807 124.408 80.9348 125.211 83.0373 126.041C81.224 126.888 79.3064 127.271 77.3821 127.78C77.051 126.316 76.9076 124.789 76.7083 123.301Z"/><path fill="#B10113" transform="scale(1.625 1.625)" d="M96.2572 133.012C96.9563 134.425 97.6046 135.909 98.3975 137.269C97.2448 137.649 96.0499 137.991 94.9301 138.455L94.7377 138.767C91.0944 139.993 86.807 141.68 83.5735 143.781C82.6748 142.164 82.0837 140.305 81.4127 138.58C85.8951 136.818 90.3619 135.142 94.9105 133.556L96.2572 133.012Z"/><path fill="#FE001C" transform="scale(1.625 1.625)" d="M96.2572 133.012C96.9563 134.425 97.6046 135.909 98.3975 137.269C97.2448 137.649 96.0499 137.991 94.9301 138.455C94.9849 136.815 94.9705 135.195 94.9105 133.556L96.2572 133.012Z"/><path fill="white" transform="scale(1.625 1.625)" d="M94.9301 138.455C96.0499 137.991 97.2448 137.649 98.3975 137.269C99.2692 139.126 100.2 140.974 100.992 142.866C101.666 144.052 102.267 145.26 102.854 146.492C100.102 147.714 97.2549 148.851 94.5778 150.224C94.0157 149.422 94.0791 147.332 93.9804 146.306L94.2628 146.086C94.62 143.717 94.7704 141.163 94.7377 138.767L94.9301 138.455Z"/><path fill="#FE001C" transform="scale(1.625 1.625)" d="M100.992 142.866C101.666 144.052 102.267 145.26 102.854 146.492C100.102 147.714 97.2549 148.851 94.5778 150.224C94.0157 149.422 94.0791 147.332 93.9804 146.306L94.2628 146.086C96.5342 145.06 98.7837 144.024 100.992 142.866Z"/><path fill="#B10113" transform="scale(1.625 1.625)" d="M87.0119 150.255C89.2551 148.78 91.5199 147.394 93.9804 146.306C94.0791 147.332 94.0157 149.422 94.5778 150.224C92.8193 151.397 90.8961 152.405 89.0963 153.531C88.3214 152.464 87.5981 151.438 87.0119 150.255Z"/><path fill="#B1B0B1" transform="scale(1.625 1.625)" d="M108.406 43.3384C108.353 43.3681 108.304 43.4091 108.246 43.4276C107.181 43.7662 105.831 43.8391 104.716 44.0384C102.276 44.4495 99.8544 44.9573 97.4554 45.5606C94.762 46.2367 92.1012 46.9456 89.5145 47.9645C86.3473 49.212 83.0456 50.8773 79.7765 51.7668C79.077 51.9572 78.6148 52.0852 77.9399 51.8123C77.6491 51.1069 77.6906 50.454 77.7876 49.7108C78.3184 45.6419 80.3525 41.7849 83.6664 39.3176C90.1184 34.514 102.381 34.1999 110.171 35.3576L109.44 35.6442C108.919 38.1014 108.701 40.5563 108.011 42.9989L108.406 43.3384Z"/><path fill="white" transform="scale(1.625 1.625)" d="M178.493 97.3071C179.503 101.903 180.331 108.854 182.295 112.965C180.24 113.78 178.084 114.683 175.922 115.164C174.567 115.781 172.847 116.354 171.373 116.602C169.519 117.153 167.667 117.751 165.785 118.194C164.141 119.063 162.121 119.486 160.341 120.023C159.439 116.886 158.936 113.635 158.136 110.467C159.53 109.404 161.189 108.555 162.694 107.649C164.402 106.189 166.994 105.037 168.937 103.812C170.059 102.93 171.4 102.231 172.622 101.491C174.121 99.9237 176.68 98.5661 178.493 97.3071Z"/><path fill="white" transform="scale(1.625 1.625)" d="M168.937 103.812C169.481 108.162 170.358 112.339 171.373 116.602C169.519 117.153 167.667 117.751 165.785 118.194C164.141 119.063 162.121 119.486 160.341 120.023C159.439 116.886 158.936 113.635 158.136 110.467C159.53 109.404 161.189 108.555 162.694 107.649C164.402 106.189 166.994 105.037 168.937 103.812Z"/><path fill="#FE001C" transform="scale(1.625 1.625)" d="M162.694 107.649C163.374 111.126 163.809 115.166 165.785 118.194C164.141 119.063 162.121 119.486 160.341 120.023C159.439 116.886 158.936 113.635 158.136 110.467C159.53 109.404 161.189 108.555 162.694 107.649Z"/><path fill="#FE001C" transform="scale(1.625 1.625)" d="M168.937 103.812C170.059 102.93 171.4 102.231 172.622 101.491C173.477 105.766 173.998 111.27 175.922 115.164C174.567 115.781 172.847 116.354 171.373 116.602C170.358 112.339 169.481 108.162 168.937 103.812Z"/><path fill="white" transform="scale(1.625 1.625)" d="M194.03 23.8391C193.518 23.2746 193.109 22.6246 192.822 21.9187C191.953 19.82 191.76 17.4739 192.726 15.3583C193.793 13.0203 196.152 11.3536 198.49 10.4442C200.683 9.59141 202.902 9.38234 205.091 10.3446C206.529 11.0124 207.797 11.4449 209.361 11.7445C211.197 13.8316 212.155 16.3732 211.953 19.1739C211.797 21.3322 210.918 23.1917 209.234 24.5979C206.802 26.6296 202.948 27.1111 199.902 26.7635C197.604 26.5012 195.547 25.6396 194.03 23.8391Z"/><path fill="#B1B0B1" transform="scale(1.625 1.625)" d="M194.03 23.8391C193.518 23.2746 193.109 22.6246 192.822 21.9187C191.953 19.82 191.76 17.4739 192.726 15.3583C193.793 13.0203 196.152 11.3536 198.49 10.4442C200.683 9.59141 202.902 9.38234 205.091 10.3446C200.179 12.6713 197.964 15.289 195.699 20.2503C195.186 21.3722 194.788 22.883 194.03 23.8391Z"/><path fill="#474D59" transform="scale(1.625 1.625)" d="M95.9054 52.4935C102.276 50.6331 111.195 47.6247 117.417 51.0429C121.316 53.1843 124.332 56.8046 127.498 59.8662C120.62 57.3873 114.836 59.0647 107.947 60.3811C105.971 60.7585 103.903 61.1731 101.896 60.7923C99.3124 60.3021 97.4825 57.543 94.7763 56.752C95.2642 55.3783 95.874 53.9666 95.9054 52.4935Z"/><path fill="white" transform="scale(1.625 1.625)" d="M59.424 167.675C62.6607 171.034 62.3029 173.841 67.7092 175.428C67.7124 177.445 67.705 179.441 67.9355 181.449L63.1292 184.707C61.9455 185.585 60.7056 186.398 59.4907 187.233C58.4439 184.814 57.7248 182.267 57.3523 179.658C56.686 175.248 56.7118 171.366 59.424 167.675Z"/><path fill="#9A8777" transform="scale(1.625 1.625)" d="M174.482 166.512C178.183 169.508 184.168 171.576 188.667 173.012C185.828 174.374 183.081 175.969 180.317 177.479C177.154 179.247 173.868 180.852 170.808 182.795C173.452 177.601 173.663 172.135 174.482 166.512Z"/><path fill="white" transform="scale(1.625 1.625)" d="M158.136 110.467C158.936 113.635 159.439 116.886 160.341 120.023C158.343 120.708 156.321 121.518 154.264 121.997C152.823 122.7 151.183 123.089 149.624 123.451C149.169 120.636 148.973 117.745 148.684 114.907C149.614 114.321 150.772 113.897 151.777 113.434C153.748 112.271 156.037 111.395 158.136 110.467Z"/><path fill="#FE001C" transform="scale(1.625 1.625)" d="M151.777 113.434C152.378 116.419 152.809 119.286 154.264 121.997C152.823 122.7 151.183 123.089 149.624 123.451C149.169 120.636 148.973 117.745 148.684 114.907C149.614 114.321 150.772 113.897 151.777 113.434Z"/><path fill="white" transform="scale(1.625 1.625)" d="M148.684 114.907C148.973 117.745 149.169 120.636 149.624 123.451C147.73 124.08 145.717 124.682 143.728 124.898C141.974 125.398 139.551 125.777 137.733 125.701C137.645 123.727 137.631 121.793 137.693 119.818C138.809 118.808 141.036 118.19 142.448 117.627C144.168 116.486 146.751 115.723 148.684 114.907Z"/><path fill="#FE001C" transform="scale(1.625 1.625)" d="M137.693 119.818C138.809 118.808 141.036 118.19 142.448 117.627C142.502 120.188 142.554 122.555 143.728 124.898C141.974 125.398 139.551 125.777 137.733 125.701C137.645 123.727 137.631 121.793 137.693 119.818Z"/><path fill="#474D59" transform="scale(1.625 1.625)" d="M127.976 179.202C129.257 180.078 130.468 181.957 131.21 183.322C132.876 186.382 134.908 195.184 133.573 198.53C133.313 199.184 132.538 199.32 131.946 199.557C130.749 199.843 129.628 200.22 128.476 200.652C130.845 193.831 129.762 186.032 127.976 179.202Z"/><path fill="#33353E" transform="scale(1.625 1.625)" d="M77.6537 164.652C79.0323 164.911 80.3293 164.998 81.731 165.009C79.2751 171.479 77.0469 174.392 76.4305 181.712C76.136 182.287 76.1421 182.423 75.5363 182.703L75.0354 182.443C73.6692 179.91 74.0293 175.656 74.0192 172.81C75.6252 170.388 76.9585 167.471 77.6537 164.652Z"/><path fill="#33353E" transform="scale(1.625 1.625)" d="M84.5016 56.5759C88.2982 55.2224 92.0117 53.5503 95.9054 52.4935C95.874 53.9666 95.2642 55.3783 94.7763 56.752C94.3988 56.7474 94.0438 56.7669 93.6692 56.8218C89.3672 57.452 86.5671 61.3637 84.2054 64.6461C84.3849 61.9596 84.4836 59.2683 84.5016 56.5759Z"/><path fill="#B10113" transform="scale(1.625 1.625)" d="M78.4243 109.888C79.5385 110.883 80.6433 111.888 81.7386 112.904C83.0931 113.908 84.4691 114.883 85.8657 115.828C85.5404 117.232 85.2099 118.62 85.0377 120.052C82.8891 119.399 80.6889 118.606 78.9344 117.171C78.4242 116.554 77.9483 115.866 77.6601 115.115C76.9223 113.193 77.6318 111.63 78.4243 109.888Z"/><path fill="#B1B0B1" transform="scale(1.625 1.625)" d="M78.4243 109.888C79.5385 110.883 80.6433 111.888 81.7386 112.904C80.9234 114.499 80.1038 115.807 78.9344 117.171C78.4242 116.554 77.9483 115.866 77.6601 115.115C76.9223 113.193 77.6318 111.63 78.4243 109.888Z"/><path fill="white" transform="scale(1.625 1.625)" d="M137.693 119.818C137.631 121.793 137.645 123.727 137.733 125.701C135.525 126.002 133.293 126.161 131.09 126.473C130.975 124.675 131.006 122.871 131.011 121.071C133.442 120.581 135.346 120.947 137.693 119.818Z"/><path fill="white" transform="scale(1.625 1.625)" d="M119.523 121.968C121.692 121.861 123.86 121.736 126.027 121.596C125.97 123.307 125.826 125.033 125.812 126.743C123.696 126.688 121.58 126.609 119.466 126.506C119.303 124.923 119.295 123.544 119.523 121.968Z"/><path fill="#EDC04D" transform="scale(1.625 1.625)" d="M109.447 200.046C107.719 199.593 106.236 199.284 104.928 197.953L104.965 197.51C105.739 197.072 106.635 197.196 107.499 197.206C109.966 197.248 115.216 197.545 117.015 199.379C117.358 199.729 117.297 199.77 117.363 200.219C116.747 200.865 116.156 200.988 115.255 201.02C113.284 201.089 111.331 200.562 109.447 200.046Z"/><path fill="#CAA239" transform="scale(1.625 1.625)" d="M109.447 200.046C107.719 199.593 106.236 199.284 104.928 197.953L104.965 197.51C105.739 197.072 106.635 197.196 107.499 197.206L107.471 197.659L107.692 197.84C108.5 198.514 108.998 199.087 109.447 200.046Z"/><path fill="#A28332" transform="scale(1.625 1.625)" d="M78.0484 187.954C80.7629 188.073 85.9057 190.403 88.3066 191.83C89.0751 192.287 89.6857 192.701 89.9076 193.584L89.5118 194.002C86.6969 193.697 80.6221 191.578 78.3468 189.916C77.7649 189.491 77.5384 189.345 77.4143 188.644L78.0484 187.954Z"/><path fill="#33353E" transform="scale(1.625 1.625)" d="M79.4206 149.897C80.857 151.632 82.1281 153.913 83.1974 155.904C83.635 156.719 84.0658 157.388 83.7901 158.309L83.0596 158.518C81.4743 158.411 79.9315 158.306 78.3442 158.465C78.5699 155.594 78.9291 152.735 79.4206 149.897Z"/><path fill="#FE001C" transform="scale(1.625 1.625)" d="M126.027 121.596L131.011 121.071C131.006 122.871 130.975 124.675 131.09 126.473C129.32 126.676 127.594 126.745 125.812 126.743C125.826 125.033 125.97 123.307 126.027 121.596Z"/><path fill="#B1B0B1" transform="scale(1.625 1.625)" d="M85.8657 115.828C87.9175 116.801 89.9448 117.736 92.082 118.511L91.0675 121.851C89.0604 121.719 86.9183 120.749 85.0377 120.052C85.2099 118.62 85.5404 117.232 85.8657 115.828Z"/><path fill="white" transform="scale(1.625 1.625)" d="M108.067 121.837C110.306 122.022 112.541 122.062 114.786 122.104C114.577 123.37 114.352 124.632 114.111 125.892C112.06 125.643 110.053 125.222 108.031 124.805L108.067 121.837Z"/><path fill="#FE001C" transform="scale(1.625 1.625)" d="M114.786 122.104L119.523 121.968C119.295 123.544 119.303 124.923 119.466 126.506C117.669 126.363 115.896 126.14 114.111 125.892C114.352 124.632 114.577 123.37 114.786 122.104Z"/><path fill="white" transform="scale(1.625 1.625)" d="M96.3237 119.862C98.5502 120.338 100.78 120.859 103.02 121.264C102.702 122.137 102.4 123.02 102.062 123.886C100.122 123.681 98.1909 123.405 96.2713 123.061L96.3237 119.862Z"/><path fill="#FE001C" transform="scale(1.625 1.625)" d="M92.082 118.511L96.3237 119.862L96.2713 123.061C94.5197 122.816 92.7576 122.365 91.0675 121.851L92.082 118.511Z"/><path fill="#FE001C" transform="scale(1.625 1.625)" d="M103.02 121.264C104.706 121.419 106.389 121.611 108.067 121.837L108.031 124.805C106.062 124.419 104.048 124.181 102.062 123.886C102.4 123.02 102.702 122.137 103.02 121.264Z"/><path fill="white" transform="scale(1.625 1.625)" d="M72.572 206.42C73.989 207.468 75.7792 207.582 77.0588 208.594C76.9004 209.246 76.1604 209.568 75.6157 209.951L72.5983 211.875C72.7301 210.075 72.6085 208.225 72.572 206.42Z"/></svg>