<svg width="557" height="556" viewBox="0 0 557 556" fill="none" xmlns="http://www.w3.org/2000/svg">
<path d="M146.91 212.819C145.387 210.065 143.972 207.671 145.384 204.545C150.592 193.008 159.23 177.8 166.649 167.785C181.092 148.289 201.69 131.373 222.715 119.482C238.574 110.673 257.25 104.995 275.212 102.69C280.994 101.948 286.487 102.65 292.186 102.377C310.133 101.331 332.008 106.991 348.363 114.176C372.004 124.562 398.964 146.421 414.564 167.168C433.243 192.012 447.343 228.658 452.902 259.09C458.69 260.883 463.162 263.408 466.116 268.923C467.802 272.074 468.69 275.862 469.213 279.373C471.294 293.393 471.194 335.232 467.063 348.256C465.259 353.94 462.164 357.309 457.42 360.759C455.737 361.982 454.21 363.054 453.083 364.846C449.864 369.964 447.566 377.881 444.804 383.59C440.749 391.972 434.886 401.219 428.155 407.731C425.233 410.559 421.798 413.023 418.606 415.542C412.564 420.309 406.705 424.277 399.829 427.772C391.758 431.874 383.4 434.529 374.634 436.714C374.53 442.379 373.353 446.447 369.107 450.31C360.174 458.436 345.918 460.955 334.119 460.517C320.203 460 305.432 456.986 297.838 444.323C294.057 444.623 287.61 444.718 283.9 444.184C272.189 463.89 235.587 464.234 217.224 453.877C209.484 449.511 207.538 444.86 207.198 436.567C191.289 433.359 176.367 426.26 163.656 416.223C160.625 413.967 156.29 411.83 153.764 409.005C143.953 398.026 136.528 384.563 131.313 370.844C128.891 364.472 127.957 363.039 122.219 359.302C117.198 356.033 114.149 349.039 113.334 343.313C111.777 330.703 110.989 317.462 111.364 304.732C111.81 289.59 108.706 263.255 128.471 259.467C129.859 254.684 130.658 249.683 131.866 244.858C133.515 238.27 133.702 232.564 141.382 231.094L141.683 231.04C143.592 224.82 145.31 219.125 146.91 212.819Z" fill="black"/>
<path d="M146.91 212.819C151.611 213.758 154.86 213.24 157.16 208.701C165.202 192.842 174.122 175.776 186.777 163.018C206.758 142.934 226.847 128.232 254.034 119.898C300.855 105.546 349.265 119.771 384.434 153.083C393.338 161.518 401.526 168.843 408.121 179.463C413.203 187.647 418.332 195.89 422.674 204.498C429.798 221.281 436.745 241.761 440.363 259.464C433.709 258.429 419.621 256.206 413.198 256.718C424.953 222.956 406.038 182.799 371.477 171.472C352.4 165.219 328.627 164.21 310.25 173.194C303.369 176.604 297.162 181.876 290.673 184.62C283.97 181.204 278.18 176.499 271.446 173.19C254.761 165.012 235.877 165.522 218.096 169.249C186.623 175.849 166.32 202.994 164.772 234.376C164.404 241.825 165.664 249.755 168.49 256.683C158.412 256.813 151.278 257.898 141.243 259.416C142.875 252.696 144.802 246.019 146.219 239.277C147.165 234.778 145.189 233.142 141.683 231.04C143.592 224.82 145.31 219.125 146.91 212.819Z" fill="#424852"/>
<path d="M200.631 190.088C217.399 178.14 247.85 175.279 266.594 184.513C272.231 187.29 277.325 191.813 283.03 194.548C297.121 201.689 306.867 186.865 319.226 182.703C344.712 174.12 379.069 180.208 394.629 203.918C401.921 214.995 406.099 230.93 403.934 244.133C403.001 249.213 401.637 252.356 399.245 256.783C390.695 257.101 379.972 258.86 372.512 262.963C370.799 264.065 368.776 265.076 366.957 266.035L363.743 268.495C361.027 271.117 359.524 273.046 358.392 276.753C356.785 286.14 358.7 291.557 363.67 299.653C366.707 304.6 369.802 309.609 372.863 314.546C372.815 318.345 372.664 325.211 374.052 328.809C377.292 337.203 382.992 344.834 387.105 352.967C389.892 358.478 392.634 365.322 395.909 370.613C396.757 371.985 399.419 372.256 401.037 372.2L401.401 372.185C401.885 373.17 405.749 386.367 405.908 387.654C403.878 388.74 403.161 389.196 401.837 391.227C401.264 399.321 401.263 406.661 398.677 414.37C388.413 420.255 378.508 423.619 366.772 425.369C350.055 414.063 312.772 412.881 299.634 429.901C299.447 430.219 298.19 432.319 297.86 432.337C293.355 432.589 288.579 431.906 284.126 432.369L283.684 432.418C272.308 412.574 231.939 413.674 214.822 425.37C201.374 423.415 192.826 419.72 181.106 413.404C180.919 409.474 179.73 405.357 180.073 400.983C181.432 383.62 188.653 363.613 196.982 348.49C202.231 338.957 205.923 335.38 208.702 324.634C209.092 321.66 208.879 317.865 208.684 314.85L216.211 302.563C221.941 293.24 225.6 287.284 223.184 276.098C221.552 272.181 220.995 271.539 217.992 268.483L214.424 265.807C212.115 264.449 210.329 263.454 207.916 262.28C206.579 261.622 205.589 261.263 204.207 260.76C201.762 259.863 200.191 259.42 197.654 258.798C193.879 257.706 186.328 256.957 182.391 256.716C175.973 244.727 176.16 234.879 179.319 221.874C182.571 208.489 189.515 198.278 200.631 190.088Z" fill="#FEFEFE"/>
<path d="M181.106 413.404C180.919 409.475 179.73 405.357 180.073 400.983C181.432 383.621 188.653 363.613 196.982 348.49C202.231 338.957 205.923 335.381 208.702 324.635C211.336 327.328 212.599 333.479 214.079 337.078C217.209 344.687 221.387 352.154 225.392 359.347C237.37 380.87 268.895 411.405 290.08 424.505C292.704 426.125 295.642 428.312 298.559 429.295C298.992 429.439 299.275 429.628 299.634 429.901C299.447 430.219 298.19 432.319 297.86 432.337C293.355 432.589 288.579 431.906 284.126 432.369L283.684 432.418C272.308 412.574 231.939 413.674 214.822 425.371C201.374 423.415 192.827 419.72 181.106 413.404Z" fill="#D1D1D1"/>
<path d="M350.012 228.102C350.501 227.824 351.104 227.832 351.585 228.125C352.066 228.417 352.35 228.948 352.326 229.51C352.303 230.073 351.975 230.577 351.473 230.829C350.721 231.204 349.807 230.915 349.412 230.176C349.016 229.436 349.282 228.516 350.012 228.102Z" fill="#FEFEFE"/>
<path d="M235.844 228.103C236.373 227.81 237.023 227.851 237.51 228.21C237.996 228.569 238.229 229.178 238.105 229.768C237.98 230.359 237.522 230.823 236.931 230.955C236.182 231.124 235.423 230.716 235.149 229.999C234.876 229.283 235.171 228.474 235.844 228.103Z" fill="#FEFEFE"/>
<path d="M182.391 256.716C175.973 244.727 176.16 234.879 179.319 221.874C182.571 208.489 189.515 198.278 200.631 190.088C201.73 191.859 200.436 198.756 200.083 200.988C197.498 217.294 195.852 233.151 196.994 249.704C197.16 252.097 196.086 256.246 197.704 257.842L197.654 258.798C193.879 257.706 186.328 256.957 182.391 256.716Z" fill="#D1D1D1"/>
<path d="M364.402 256.488C365.619 260.173 366.172 262.182 366.957 266.035L363.743 268.495C362.699 265.561 361.731 261.35 360.969 258.258C362.083 257.627 363.256 257.062 364.402 256.488Z" fill="#FEFEFE"/>
<path d="M217.387 256.319L220.323 257.906C219.671 261.627 218.9 264.809 217.992 268.483L214.424 265.807C215.133 262.054 215.808 259.785 217.387 256.319Z" fill="#FEFEFE"/>
<path d="M289.176 232.611C294.439 231.874 305.533 234.882 310.067 237.665C317.528 242.174 320.556 250.748 319.9 259.171C318.651 275.219 310.228 295.262 292.97 299.189C274.724 299.923 264.216 278.443 262.165 262.873C259.433 242.141 270.568 234.968 289.176 232.611Z" fill="black"/>
<path d="M280.944 246.894C288.643 244.779 295.097 244.053 302.554 247.666C304.548 248.632 306.793 251.313 307.144 253.454C308.888 264.092 303.447 279.105 294.67 285.334C282.782 293.022 270.57 260.829 274.889 252.492C276.815 248.772 277.311 248.418 280.944 246.894Z" fill="#F2C650"/>
<path d="M294.67 285.334C282.782 293.022 270.57 260.829 274.889 252.492C276.815 248.772 277.311 248.418 280.944 246.895L280.981 247.174C281.199 248.956 281.058 250.625 281.194 252.417C281.938 262.094 285.149 272.06 290.45 280.216C291.776 282.253 293.182 283.531 294.67 285.334Z" fill="#C6A342"/>
<path d="M375 253.194C385.172 251.871 378.25 259.561 376.384 258.629C375.384 258.129 375.061 255.532 375 253.194Z" fill="#F77380"/>
<path d="M125.469 277.227C128.333 275.399 131.32 274.212 134.614 273.437C145.874 270.789 175.38 267.69 185.97 269.622C194.035 270.051 207.946 273.419 211.458 281.518C209.055 291.191 199.786 306.097 193.053 313.477C180.496 328.51 170.583 336.203 153.639 346.123C148.399 349.192 139.206 352.959 132.94 351.309C130.517 350.671 128.642 348.841 127.437 346.712C126.518 345.09 125.554 342.023 125.358 340.251C123.93 327.319 122.378 288.257 125.469 277.227Z" fill="#373B44"/>
<path d="M391.057 335.236C402.226 345.728 414.44 354.428 428.611 360.373C432.451 361.982 436.348 363.032 439.906 364.504C438.583 367.419 433.4 379.533 431.94 381.545C427.017 390.422 422.369 398.029 414.259 404.269C414.331 398.855 415.575 385.391 405.908 387.654C405.749 386.367 401.885 373.171 401.401 372.185C405.327 370.113 405.943 368.842 405.905 364.587C404.372 358.228 394.878 341.038 391.057 335.236Z" fill="#373B44"/>
<path d="M405.905 364.587C408.05 365.646 414.057 371.477 416.956 373.487C420.081 375.653 430.756 379.841 431.94 381.545C427.017 390.422 422.369 398.029 414.259 404.269C414.331 398.855 415.575 385.391 405.908 387.654C405.749 386.367 401.885 373.17 401.401 372.185C405.327 370.112 405.943 368.842 405.905 364.587Z" fill="#424852"/>
<path d="M189.653 336.024C189.675 336.753 181.755 350.534 180.953 352.43C174.132 368.579 167.863 386.951 167.399 404.501C161.398 399.396 159.704 397.29 155.395 390.858C148.999 380.996 146.588 375.293 141.811 364.475C160.321 358.129 175.603 350.126 189.653 336.024Z" fill="#373B44"/>
<path d="M333.565 429.313C339.881 428.744 354.746 431.159 358.991 434.939C370 444.744 342.256 447.836 338.358 448.199C308.87 449.172 294.555 432.083 333.565 429.313Z" fill="#F2C650"/>
<path d="M244.955 429.315C250.713 428.673 265.571 431.254 269.475 434.752C280.299 444.448 252.761 447.787 248.16 448.182C217.449 449.227 206.357 431.865 244.955 429.315Z" fill="#C6A342"/>
<path d="M364.364 238.152C374.754 236.684 387.14 246.032 379.768 257.139C375.682 263.298 366.941 264.888 360.123 265.99C350.838 266.241 336.517 261.661 344.172 248.404C346.455 244.452 359.747 238.826 364.364 238.152Z" fill="#F37280"/>
<path d="M207.096 240.987C211.971 238.56 217.796 236.802 223.053 239.008C228.551 241.313 237.875 244.705 240.865 250.141C244.267 256.327 239.464 262.299 233.85 264.525C226.219 267.637 215.877 265.372 208.721 261.921L208.615 261.753C201.091 256.761 199.233 247.062 207 241.325C207 241.321 207.001 241.317 207 241.314L207.096 240.987Z" fill="#F37280"/>
<rect x="214" y="257" width="153" height="78" rx="19" fill="#B40000" stroke="black" stroke-width="12"/>
<circle cx="346.5" cy="277.5" r="6.5" fill="#CCCCCC" stroke="black" stroke-width="7"/>
<circle cx="323.5" cy="277.5" r="6.5" fill="#CCCCCC" stroke="black" stroke-width="7"/>
<path d="M185.97 269.622C194.035 270.05 207.946 273.418 211.458 281.518C209.055 291.191 199.786 306.097 193.053 313.477C188.193 306.347 181.904 277.829 183.061 270.209C183.749 269.5 184.722 269.697 185.97 269.622Z" fill="#424852"/>
<path d="M404.609 269.133C416.48 269.133 446.792 270.711 456.271 277.301C459.227 287.703 457.744 327.665 456.425 339.22C456.12 341.612 455.435 344.044 454.44 346.225C449.825 356.331 435.883 350.288 428.603 346.43C405.365 333.34 386.096 315.416 374.034 291.298C372.108 287.448 368.309 281.585 372.545 277.908C381.364 270.253 393.486 269.456 404.609 269.133Z" fill="#424852"/>
<path d="M357 213L333 230.111L357 235" stroke="black" stroke-width="12" stroke-linecap="round" stroke-linejoin="round"/>
<path d="M225 213L249 230.111L225 235" stroke="black" stroke-width="12" stroke-linecap="round" stroke-linejoin="round"/>
<path d="M323.5 254L325.68 274.32L346 276.5L325.68 278.68L323.5 299L321.32 278.68L301 276.5L321.32 274.32L323.5 254Z" fill="white"/>
</svg>
