<svg width="560" height="560" viewBox="0 0 560 560" fill="none" xmlns="http://www.w3.org/2000/svg">
<path d="M165.263 184.313C163.795 183.827 161.269 183.201 160.708 181.585C158.154 174.224 160.022 164.691 159.925 156.919C159.659 135.622 160.202 117.901 168.443 97.6103C203.417 11.4979 346.131 8.8897 388.654 89.7218C393.867 99.645 397.579 116.183 399.764 127.238C403.239 164.048 396.435 205.153 404.435 241.304C418.546 248.974 430.617 259.998 434.559 276.073C438.435 291.891 442.676 321.593 434.679 336.282C431.376 342.349 426.342 344.866 420.248 347.055C430.351 397.314 433.472 414.37 402.263 460.717C399.084 465.437 391.186 476.294 387.443 480.126C403.908 488.13 408.308 504.117 404.992 521.367C399.943 527.302 397.161 527.472 389.652 528.074C384.769 528.464 379.822 528.856 374.921 528.813C366.113 528.736 323.451 526.642 318.548 522.086C317.497 521.108 316.678 519.76 315.885 518.569C298.181 522.534 280.014 522.939 262.02 521.338C256.827 520.878 250.596 518.74 245.536 519.096C242.709 519.295 239.502 524.074 235.891 524.82C224.41 527.193 168.146 531.394 159.739 525.823C156.609 523.747 155.089 520.417 154.491 516.818C153.118 508.559 155.884 495.907 160.99 489.18C163.967 485.255 168.501 482.163 172.857 479.978C160.854 467.719 144.659 440.271 137.978 424.594C129.183 403.962 134.343 368.091 140.374 346.772C114.61 340.722 121.143 305.628 123.5 286.2C126.065 265.051 137.451 251.203 156.026 241.304C157.776 230.039 158.646 219.233 159.41 207.88C159.662 204.132 161.323 203.554 164.395 201.751C163.537 195.248 165.83 189.235 165.263 184.313Z" fill="black"/>
<path d="M172.853 178.642C172.43 162.567 173.727 144.861 173.317 128.615C173.701 123.919 175.844 119.062 176.877 114.656C186.096 75.3571 220.879 52.1527 258.888 46.2412C277.985 43.271 281.637 42.7739 301.096 46.2104C324.839 50.4042 343.052 57.6603 360.783 74.6344C374.589 87.6641 378.133 98.144 383.665 115.314C388.278 129.64 386.474 131.761 386.901 145.509C387.866 176.548 385.358 206.813 390.208 237.685C380.158 234.757 369.963 233.597 359.594 232.483C354.968 231.987 347.984 231.52 343.555 230.546C343.247 212.457 352.511 205.226 359.712 190.447C371.304 166.653 379.198 133.753 356.699 113.446C329.941 89.294 306.272 100.63 279.886 114.911C265.031 105.607 245.427 95.7844 227.723 100.551C178.62 113.77 183.387 163.948 205.276 198.751C211.773 209.08 217.16 218.223 216.783 230.746C199.337 233.057 188.31 233.65 170.217 237.24C171.035 230.529 172.09 223.556 172.534 216.833C172.992 209.882 172.906 202.212 164.395 201.751C163.537 195.248 165.83 189.235 165.263 184.313C168.422 182.26 169.978 181.089 172.853 178.642Z" fill="#474D59"/>
<path d="M363.672 340.667C364.712 343.013 365.757 351.361 366.164 354.028C368.934 372.137 369.646 389.443 366.388 407.625C362.977 425.898 357.954 444.961 348.87 461.3C346.415 465.713 339.712 472.837 336.87 477.37C336.702 477.638 330.152 482.173 329.315 482.74C320.764 488.54 317.935 495.092 316.321 505.084C292.596 509.469 268.037 509.166 244.272 505.223C241.585 490.733 235.816 484.152 222.786 477.768C221.048 471.889 215.614 467.537 212.119 462.134C208.703 456.855 207.284 453.514 204.984 447.828C194.839 420.479 189.171 392.697 193.006 363.588C193.767 357.817 194.631 351.805 194.949 346.026C223.777 400.663 292.045 415.572 340.122 374.193C349.578 366.056 359.389 352.675 363.672 340.667Z" fill="white"/>
<path d="M234.121 113.059C253.987 111.449 263.882 123.96 280.165 128.784C294.589 124.836 308.131 111.111 324.073 112.896C363.725 117.338 363.34 156.343 347.714 184.27C338.829 200.15 330.833 210.395 330.063 228.322L329.552 228.534C320.47 218.989 295.339 213.13 282.055 212.346C291.959 208.475 296.189 202.126 300.111 192.607C302.531 183.439 303.414 176.696 301.158 167.303C296.629 148.454 269.438 145.943 260.887 162.816C256.495 171.824 257.359 183.168 260.232 192.479C263.222 202.173 268.834 207.858 277.588 212.344C259.185 212.295 245.83 216.145 230.267 226.02C229.587 210.539 219.494 196.883 212.241 183.589C197.804 157.132 196.154 118.812 234.121 113.059Z" fill="white"/>
<path d="M276.67 236.675C308.239 236.675 335.004 256.95 344.763 285.196L345.215 286.547L345.279 286.745L345.326 286.948L347.786 297.482L347.835 297.689L347.865 297.901C348.377 301.428 348.666 304.984 348.666 308.67C348.666 348.431 316.431 380.666 276.67 380.666C236.909 380.666 204.675 348.431 204.675 308.67C204.675 268.909 236.909 236.675 276.67 236.675Z" fill="black" stroke="black" stroke-width="10"/>
<path d="M288.34 289.261C291.013 289.261 293.526 289.743 295.825 290.759C298.124 291.774 300.156 293.111 301.92 294.876C303.685 296.64 305.075 298.618 306.091 300.971C307.107 303.27 307.588 305.783 307.588 308.456V327.705H299.996V308.456C299.996 306.852 299.675 305.355 299.087 303.965C298.499 302.575 297.643 301.345 296.627 300.276C295.558 299.207 294.328 298.405 292.884 297.816C291.441 297.228 289.944 296.907 288.34 296.907C286.736 296.907 285.238 297.228 283.848 297.816C282.458 298.405 281.228 299.26 280.159 300.276C279.09 301.345 278.288 302.575 277.699 303.965C277.111 305.355 276.791 306.852 276.791 308.456V327.705H269.145V308.456C269.145 306.852 268.824 305.355 268.236 303.965C267.647 302.575 266.792 301.345 265.776 300.276C264.707 299.207 263.477 298.405 262.033 297.816C260.59 297.228 259.093 296.907 257.489 296.907C255.885 296.907 254.387 297.228 252.997 297.816C251.607 298.405 250.377 299.26 249.308 300.276C248.239 301.345 247.437 302.575 246.848 303.965C246.26 305.355 245.939 306.852 245.939 308.456V327.705H238.347V308.456C238.347 305.783 238.828 303.27 239.844 300.971C240.86 298.672 242.197 296.64 243.961 294.876C245.726 293.111 247.757 291.774 250.057 290.759C252.409 289.743 254.869 289.261 257.489 289.261C260.697 289.261 263.584 289.957 266.257 291.347C268.931 292.737 271.123 294.662 272.887 297.014C274.652 294.608 276.897 292.737 279.571 291.347C282.298 289.957 285.185 289.261 288.34 289.261Z" fill="white"/>
<path d="M269 339.375C269 338.592 269.142 337.867 269.425 337.2C269.725 336.517 270.125 335.925 270.625 335.425C271.142 334.908 271.742 334.508 272.425 334.225C273.108 333.925 273.833 333.775 274.6 333.775C275.383 333.775 276.108 333.925 276.775 334.225C277.458 334.508 278.058 334.908 278.575 335.425C279.092 335.925 279.492 336.517 279.775 337.2C280.075 337.867 280.225 338.592 280.225 339.375V345H278V339.375C278 338.908 277.908 338.475 277.725 338.075C277.558 337.658 277.317 337.3 277 337C276.7 336.683 276.342 336.442 275.925 336.275C275.508 336.092 275.067 336 274.6 336C274.133 336 273.692 336.092 273.275 336.275C272.875 336.442 272.517 336.683 272.2 337C271.9 337.3 271.658 337.658 271.475 338.075C271.308 338.475 271.225 338.908 271.225 339.375V345H269V339.375ZM291.013 341.025L292.588 342.6L291.813 343.375C291.28 343.908 290.671 344.317 289.988 344.6C289.305 344.883 288.588 345.025 287.838 345.025C287.088 345.025 286.371 344.883 285.688 344.6C285.005 344.317 284.396 343.908 283.863 343.375C283.313 342.825 282.905 342.208 282.638 341.525C282.371 340.825 282.238 340.117 282.238 339.4C282.238 338.683 282.371 337.983 282.638 337.3C282.905 336.617 283.313 336 283.863 335.45C284.413 334.9 285.03 334.492 285.713 334.225C286.413 333.942 287.121 333.8 287.838 333.8C288.555 333.8 289.255 333.942 289.938 334.225C290.638 334.492 291.263 334.9 291.813 335.45L292.588 336.225L286.363 342.45C286.996 342.767 287.663 342.875 288.363 342.775C289.08 342.658 289.705 342.333 290.238 341.8L291.013 341.025ZM285.438 337C284.771 337.667 284.438 338.467 284.438 339.4C284.438 339.917 284.555 340.408 284.788 340.875C284.988 340.675 285.288 340.375 285.688 339.975C286.105 339.558 286.538 339.125 286.988 338.675C287.455 338.208 287.896 337.767 288.313 337.35C288.746 336.933 289.08 336.608 289.313 336.375C288.68 336.058 288.005 335.95 287.288 336.05C286.588 336.15 285.971 336.467 285.438 337ZM301.321 342.75V344.975H300.221C299.454 344.975 298.729 344.833 298.046 344.55C297.362 344.25 296.762 343.842 296.246 343.325C295.729 342.808 295.321 342.208 295.021 341.525C294.737 340.842 294.596 340.117 294.596 339.35V329.25H296.821V336H301.321V338.225H296.821V339.35C296.821 339.817 296.904 340.258 297.071 340.675C297.254 341.092 297.496 341.458 297.796 341.775C298.112 342.075 298.479 342.317 298.896 342.5C299.312 342.667 299.754 342.75 300.221 342.75H301.321Z" fill="white"/>
<mask id="mask0_217_43" style="mask-type:alpha" maskUnits="userSpaceOnUse" x="209" y="241" width="135" height="135">
<path d="M317.319 325.299V305.195H313.309C312.721 305.195 312.293 304.767 312.293 304.179V300.65C312.293 300.062 312.721 299.634 313.309 299.634H320.741C322.131 299.634 323.201 300.704 323.201 302.094V322.198H327.211C327.799 322.198 328.227 322.626 328.227 323.214V326.743C328.227 327.331 327.799 327.758 327.211 327.758H319.779C318.388 327.758 317.319 326.689 317.319 325.299Z" fill="url(#paint0_linear_217_43)"/>
<path d="M338.105 300.436C338.566 303.627 338.693 305.89 338.693 308.67C338.693 340.217 313.136 365.774 281.589 365.774C250.043 365.774 224.486 340.217 224.486 308.67C224.486 277.124 250.043 251.567 281.589 251.567C306.452 251.567 327.111 266.153 335.432 289.582C336.476 293.821 337.481 296.116 338.105 300.436ZM340.458 288.085C331.048 258.751 306.506 241.675 276.67 241.675C239.671 241.675 209.675 271.671 209.675 308.67C209.675 345.67 239.671 375.666 276.67 375.666C313.67 375.666 343.666 345.67 343.666 308.67C343.666 305.248 343.424 301.328 342.917 297.943C341.957 293.83 341.748 292.108 340.458 288.085Z" fill="url(#paint1_linear_217_43)"/>
<path d="M320.795 289.368C320.795 289.101 320.955 288.299 320.314 287.39C319.725 286.588 318.87 286.374 317.961 286.374C317.907 286.374 317.907 286.374 317.854 286.374C317.801 286.374 317.747 286.374 317.747 286.374C316.892 286.374 315.983 286.588 315.394 287.39C314.753 288.299 314.913 289.101 314.913 289.368C314.913 289.636 312.935 292.951 313.202 293.432C313.363 293.699 314.004 293.272 314.004 293.646C314.004 294.02 313.363 297.763 317.801 297.763C317.801 297.763 317.801 297.763 317.854 297.763C317.854 297.763 317.854 297.763 317.907 297.763C322.345 297.763 321.704 294.02 321.704 293.646C321.704 293.272 322.345 293.699 322.506 293.432C322.72 292.951 320.795 289.636 320.795 289.368ZM319.298 288.353C319.512 288.353 319.725 288.566 319.725 288.78C319.725 288.994 319.512 289.208 319.298 289.208C319.084 289.208 318.87 288.994 318.87 288.78C318.87 288.566 319.03 288.353 319.298 288.353ZM316.41 288.353C316.624 288.353 316.838 288.566 316.838 288.78C316.838 288.994 316.624 289.208 316.41 289.208C316.196 289.208 315.983 288.994 315.983 288.78C315.983 288.566 316.143 288.353 316.41 288.353ZM320.367 296.052C320.153 296.426 319.618 297.014 317.961 297.068C317.907 297.068 317.907 297.068 317.854 297.068C317.801 297.068 317.801 297.068 317.747 297.068C316.09 297.068 315.608 296.426 315.341 296.052C314.646 294.876 315.288 292.897 315.822 291.561C316.036 291.026 315.608 290.331 316.09 290.277H316.143C316.571 290.277 317.426 290.919 317.801 291.026C317.854 291.026 317.854 291.026 317.907 291.026C317.961 291.026 317.961 291.026 318.014 291.026C318.389 290.919 319.298 290.224 319.672 290.277C320.153 290.331 319.725 291.026 319.939 291.561C320.367 292.897 321.062 294.876 320.367 296.052Z" fill="#71CFF1"/>
</mask>
<g mask="url(#mask0_217_43)">
<path d="M209.461 237.772H343.666V375.719H209.461V237.772Z" fill="url(#paint2_linear_217_43)"/>
</g>
<path d="M220.223 148.025C219.724 143.181 220.312 139.021 223.533 135.26C232.914 124.306 253.394 130.267 253.804 145.358C253.925 149.839 251.351 151.821 247.718 153.43C246.213 152.974 244.546 152.171 243.079 151.531C242.576 152.839 241.921 154.731 241.306 155.938L239.287 154.086C237.848 157.398 236.268 162.627 233.211 163.94C231.192 163.392 231.858 163.622 230.293 161.605C230.041 160.381 229.43 159.743 228.695 158.729C229.963 155.785 231.4 153.622 231.157 150.529C229.12 151.705 227.591 152.12 225.204 152.234L224.609 152.023C222.106 150.844 221.851 150.341 220.223 148.025Z" fill="black"/>
<path d="M231.157 150.529C232.022 148.172 233.649 141.629 237.441 143.432C240.825 145.041 241.206 148.862 243.079 151.531C242.576 152.839 241.921 154.731 241.306 155.938L239.287 154.085C237.848 157.398 236.268 162.627 233.211 163.94C231.192 163.392 231.858 163.622 230.293 161.605C230.041 160.381 229.43 159.743 228.695 158.729C229.963 155.785 231.4 153.622 231.157 150.529Z" fill="#FEE0F1"/>
<path d="M230.293 161.605C231.183 157.924 234.275 148.914 238.738 148.732L239.922 150.181C239.938 151.858 239.71 152.438 239.287 154.085C237.848 157.398 236.268 162.627 233.211 163.94C231.192 163.392 231.858 163.622 230.293 161.605Z" fill="#FFA0B4"/>
<path d="M311.83 153.061C307.7 151.372 306.23 148.42 306.695 144.072C308.877 123.639 343.196 125.32 340.157 147.569C339.059 149.226 338.718 150.41 337.149 150.974L334.836 152.298C332.509 152.1 331.232 151.49 329.06 150.688C329.147 153.466 329.266 153.784 330.572 156.245L329.018 158.065C329.169 160.449 329.895 162.878 327.429 163.877C323.901 162.381 321.324 154.958 319.954 151.408L317.428 151.182C315.272 153.029 314.52 152.716 311.83 153.061Z" fill="black"/>
<path d="M328.009 147.683C328.361 148.653 328.775 149.707 329.06 150.688C329.147 153.466 329.266 153.783 330.572 156.245L329.018 158.065C329.169 160.449 329.895 162.878 327.429 163.877C323.901 162.381 321.324 154.958 319.954 151.408C319.905 149.283 319.584 150.165 320.68 148.592C322.524 148.254 323.527 149.065 325.255 149.961C326.758 149.058 326.924 149.015 328.009 147.683Z" fill="#FFA0B4"/>
<path d="M328.009 147.683C328.361 148.653 328.775 149.707 329.061 150.688C329.147 153.466 329.266 153.783 330.572 156.245L329.018 158.065C327.912 154.658 327.148 152.942 325.255 149.961C326.758 149.058 326.924 149.015 328.009 147.683Z" fill="#FEE0F1"/>
<path d="M317.428 151.181C319.226 147.936 320.939 142.051 325.176 143.063C327.037 144.538 327.159 145.458 328.009 147.683C326.924 149.015 326.758 149.058 325.255 149.961C323.527 149.065 322.524 148.254 320.68 148.592C319.584 150.165 319.905 149.283 319.954 151.408L317.428 151.181Z" fill="#FBEAF2"/>
<path d="M225.204 152.234C227.591 152.119 229.12 151.705 231.157 150.529C231.4 153.622 229.963 155.785 228.695 158.729C227.524 161.637 227.224 163.321 224.573 164.82C222.268 164.592 222.875 164.989 221.427 163.666C220.611 159.13 224.509 156.547 225.204 152.234Z" fill="#FFA0B4"/>
<path d="M329.06 150.688C331.232 151.49 332.509 152.1 334.836 152.298C337.08 156.913 338.747 159.029 338.138 164.163L337.335 165.248C333.669 164.764 331.706 159.264 330.572 156.245C329.266 153.784 329.147 153.466 329.06 150.688Z" fill="#FFA0B4"/>
<path d="M220.223 148.025C221.851 150.341 222.106 150.844 224.609 152.023C220.159 154.45 221.072 159.334 216.129 158.915C213.897 155.971 217.383 149.91 220.223 148.025Z" fill="#FFA0B4"/>
<path d="M337.149 150.974C338.718 150.41 339.059 149.226 340.157 147.569C343.19 149.828 346.185 154.288 343.579 157.894C339.661 158.789 338.209 153.994 337.149 150.974Z" fill="#FFA0B4"/>
<path d="M317.428 151.181C318.626 155.102 321.802 159.224 317.787 161.911C313.468 161.838 313.674 154.179 311.83 153.061C314.52 152.716 315.272 153.028 317.428 151.181Z" fill="#FFA0B4"/>
<path d="M243.079 151.531C244.546 152.17 246.213 152.974 247.719 153.43C247.329 156.836 246.111 160.418 242.583 161.651C240.135 160.637 240.85 158.213 241.306 155.938C241.921 154.73 242.576 152.839 243.079 151.531Z" fill="#FFA0B4"/>
<path d="M324.566 238.697C330.225 238.312 340.05 238.565 345.737 239.095H345.738C356.233 240.077 370.129 241.055 383.241 243.991C396.069 246.864 409.164 251.81 417.947 261.382L418.362 261.841L418.472 261.966L418.576 262.097C425.229 270.559 428.382 281.215 429.862 291.665C431.161 300.841 431.221 310.254 431.006 318.544L430.901 322.025C430.679 328.492 428.856 333.778 424.21 336.572C420.08 339.054 415.231 338.471 412.355 338.07C410.503 337.811 409.427 337.601 408 337.435C406.705 337.284 405.929 337.289 405.464 337.365C405.453 337.366 405.442 337.369 405.432 337.37C405.414 337.418 405.393 337.475 405.372 337.544C405.547 337.788 405.798 338.104 406.144 338.488C407.366 339.841 408.626 340.881 409.906 342.099L411.027 343.165L411.427 344.659C418.32 370.376 421.121 389.895 417.707 408.626C414.287 427.388 404.762 444.669 388.49 466.217L388.421 466.308L388.347 466.397C384.84 470.659 382.607 474.245 379.38 479.282L376.599 483.624L372.088 481.13C367.278 478.471 363.616 478.096 357.319 478.607L344.968 479.608L352.51 469.777C360.792 458.981 367.206 441.635 371.283 422.907C375.335 404.29 376.916 385.063 376.005 370.988C375.852 368.628 374.538 359.75 373.236 350.823C372.601 346.473 371.985 342.211 371.558 338.965C371.346 337.349 371.172 335.931 371.067 334.86C371.015 334.334 370.972 333.813 370.954 333.364C370.945 333.147 370.939 332.852 370.953 332.536C370.954 332.506 370.961 331.47 371.441 330.38L372.772 327.358L376.064 327.112C377.776 326.983 378.878 326.568 379.491 326.203C379.726 326.063 379.873 325.942 379.963 325.854C379.799 325.581 379.34 325.003 378.22 324.32C365.917 316.81 350.752 308.824 338.045 298.914C325.152 288.86 313.929 276.231 309.461 258.705L309.341 258.213C308.179 253.142 309.119 248.403 312.235 244.751C315.257 241.21 319.701 239.425 324.103 238.748L324.334 238.712L324.566 238.697Z" fill="#474D59" stroke="black" stroke-width="11"/>
<path d="M219.315 238.793C225.091 238.211 233.986 238.063 240.335 239.675H240.335C243.677 240.523 246.361 242.296 248.217 244.833C250.012 247.285 250.772 250.09 251.002 252.67C251.452 257.705 249.991 262.997 248.346 266.769C237.496 291.659 213.085 306.623 191.91 318.476L187.722 320.808C178.662 325.835 169.118 330.958 159.39 335.152L159.389 335.151C156.422 336.485 153.297 337.656 150.23 338.34C147.176 339.021 143.809 339.306 140.58 338.484C137.156 337.613 134.18 335.561 132.168 332.194C130.261 329.005 129.433 325.004 129.357 320.438C129.22 312.248 129.209 301.153 130.763 290.443C132.29 279.92 135.457 268.752 142.443 261.232C151.537 251.444 165.783 246.342 179.663 243.413C193.674 240.456 208.399 239.511 219.315 238.793Z" fill="#474D59" stroke="black" stroke-width="11"/>
<path d="M184.219 331.708L184.611 332.291L184.213 334.004C176.472 368.772 175.873 399.579 186.304 433.825C189.018 442.737 192.268 452.861 196.091 461.428C196.914 463.272 201.797 470.676 203.1 472.719L202.901 473.257C197.45 471.807 190.284 473.306 185.652 476.536C184.008 474.045 182.407 471.511 180.8 468.994C167.636 451.549 150.416 427.173 147.018 404.913C144.473 388.247 150.063 362.329 154.242 345.84C165.947 341.014 173.07 337.608 184.219 331.708Z" fill="#474D59"/>
<path d="M355.501 486.51C365.323 485.467 378.361 489.111 386.35 495.041C391.988 499.225 392.094 507.364 392.685 513.954C383.116 515.304 376.871 515.968 367.231 515.098C356.123 514.224 339.767 513.498 329.22 511.882C330.134 492.969 339.061 490.643 355.501 486.51Z" fill="#F3C652"/>
<path d="M195.704 486.574C204.892 485.556 216.734 488.068 224.058 494.091C229.866 498.866 230.705 504.898 231.256 512.028C222.901 513.095 211.282 513.73 202.875 514.197C187.896 515.919 182.341 515.981 167.69 513.861C168.162 508.371 168.234 503.109 171.283 498.299C175.775 491.216 187.865 488.239 195.704 486.574Z" fill="#F3C652"/>
<path d="M279.078 164.986C286.137 164.979 289.044 168.945 289.141 175.722C289.272 184.834 287.204 191.916 280.752 198.319C276.623 197.602 272.915 189.845 272.276 185.96C270.996 178.206 269.15 167.157 279.078 164.986Z" fill="#F3C652"/>
<defs>
<linearGradient id="paint0_linear_217_43" x1="320.383" y1="327.624" x2="320.124" y2="299.666" gradientUnits="userSpaceOnUse">
<stop stop-color="#6FA3E8"/>
<stop offset="1" stop-color="#71CFF1"/>
</linearGradient>
<linearGradient id="paint1_linear_217_43" x1="209.618" y1="308.652" x2="343.644" y2="308.652" gradientUnits="userSpaceOnUse">
<stop stop-color="#6FA3E8"/>
<stop offset="1" stop-color="#71CFF1"/>
</linearGradient>
<linearGradient id="paint2_linear_217_43" x1="222.026" y1="351.659" x2="335.111" y2="269.853" gradientUnits="userSpaceOnUse">
<stop stop-color="#6FA3E8"/>
<stop offset="1" stop-color="#71CFF1"/>
</linearGradient>
</defs>
</svg>
