<svg width="1920" height="1080" viewBox="0 0 1920 1080" fill="none" xmlns="http://www.w3.org/2000/svg">
<path d="M749.932 487.15C754.57 476.415 758.45 464.411 762.725 453.418C776.855 417.086 802.491 364.197 832.162 338.469C871.611 306.023 915.811 285.861 967.838 288.109C1018.26 290.288 1066.87 315.684 1101.31 352.077C1109.61 360.847 1122.41 375.94 1109.33 385.981C1116.26 394.433 1122.05 404.752 1127.32 414.293C1129.63 413.15 1132.53 412.212 1135.1 412.966C1147.87 416.709 1163.38 472.963 1171.33 486.914C1206.22 491.959 1219.72 501.012 1246.68 521.836C1247.21 523.293 1247.72 524.756 1248.21 526.224C1252.43 538.733 1250.22 550.186 1244.37 561.82C1242.25 566.04 1219.05 599.928 1216.65 601.842C1212.07 605.495 1205.96 606.742 1201.24 610.151C1197.65 612.748 1195.38 617.013 1191.2 618.875C1185.78 621.299 1178.5 622.273 1172.67 624.216C1172.03 625.826 1171.36 627.422 1170.66 629.004C1161.87 649.037 1156.6 655.453 1142.19 671.145C1116.68 698.926 1098.98 706.43 1065.19 719.631C1067.22 757.145 1028.23 751.276 1003.12 749.351C990.132 748.356 980.47 744.024 974.27 732.602C965.972 733.394 954.268 733.414 946.019 732.462C933.64 754.373 907.856 749.398 885.71 750.494C864.941 751.521 854.231 739.622 854.819 719.279C825.371 708.098 805.213 699.866 782.976 676.574C765.58 658.353 756.269 648.377 748.656 624.169C735.476 619.333 728.715 621.862 720.627 609.908C717.588 608.715 709.746 605.768 707.743 603.629C686.526 580.964 661.262 555.118 673.289 521.801C694.731 502.745 721.461 490.66 749.932 487.15Z" fill="black"/>
<path d="M961.95 306.733C992.408 308.997 1011.47 312.568 1038.48 327.952C1055.29 337.529 1071.1 346.856 1084.39 361.473C1090.86 368.393 1095.27 377.75 1102.08 384.312C1103.37 385.588 1107.5 385.859 1109.33 385.981C1116.26 394.433 1122.05 404.752 1127.32 414.293C1125.94 416.509 1124.34 419.924 1125.07 422.495C1131.39 444.857 1143.25 465.491 1149.5 488.06C1136.81 498.207 1127.81 503.211 1113.77 510.944C1127.33 486.525 1126.12 461.747 1114.16 437.142C1100.78 409.326 1076.82 388.028 1047.63 378.003C1017 367.496 992.573 377.235 966.202 391.903C964.446 392.88 960.835 394.304 959.079 393.692C947.955 389.396 938.586 383.74 927.263 379.234C875.521 358.645 818.275 399.206 801.316 447.98C793.569 470.261 794.904 487.912 805.559 509.77C792.558 503.293 781.958 496.17 770.663 487.164C782.271 448.222 812.884 382.576 842.443 354.862C870.151 328.883 919.098 305.551 958.303 306.969C960.066 307.111 960.487 307.398 961.95 306.733Z" fill="#979696"/>
<path d="M958.303 306.969C958.145 303.24 957.549 299.765 959.42 296.634L960.631 296.85C962.382 300.341 962.022 302.821 961.95 306.733C960.487 307.398 960.066 307.111 958.303 306.969Z" fill="#171617"/>
<path d="M959.968 415.209C970.945 413.087 985.232 401.988 997.357 397.674C1016.84 390.742 1030.55 390.585 1049.58 399.096C1072.71 409.458 1090.83 428.521 1100 452.151C1105.51 466.661 1106.61 483.5 1099.46 497.286C1082.51 529.966 1072.62 530.566 1041.32 542.195C1035.93 544.082 1030.51 545.882 1025.06 547.594C974.966 562.814 919.092 559.135 871.402 538.961C864.648 536.103 851.345 531.897 845.732 528.686C834.597 522.317 820.908 501.317 817.57 489.144C812.869 472 817.278 454.162 826.121 439.262C841.061 414.089 860.95 400.419 888.751 392.991C909.96 391.439 922.491 396.256 940.623 406.62C947.508 410.555 952.182 413.274 959.968 415.209Z" fill="#F9F9F9"/>
<path d="M954.996 454.066C1019.94 451.228 1005.6 526.455 964.587 540.978C933.999 548.143 887.063 466.92 954.996 454.066Z" fill="black"/>
<path d="M955.927 471.804C995.093 470.191 983.739 504.497 963.536 522.671C949.414 526.181 931.673 493.305 940.407 481.043C945.437 473.982 948.145 473.907 955.927 471.804Z" fill="#FEB800"/>
<path d="M870.278 438.866C874.922 431.708 877.012 427.981 885.559 425.49C897.667 421.96 922.039 436.547 913.976 450.312C910.119 456.896 902.989 452.965 899.415 448.818C897.291 446.354 894.348 443.698 891.188 442.827C888.533 443.322 889.227 442.786 887.822 444.528C889.055 450.185 900.033 454.864 899.379 465.672C897.397 498.403 838.807 478.871 841.266 454.35C842.843 438.617 857.792 437.568 870.278 438.866Z" fill="#EFA4BD"/>
<path d="M870.278 438.866C874.922 431.708 877.012 427.981 885.559 425.49C897.667 421.96 922.039 436.547 913.976 450.312C910.119 456.896 902.989 452.965 899.415 448.818C897.291 446.354 894.348 443.698 891.188 442.827C888.533 443.322 889.227 442.786 887.822 444.528C883.994 450.619 884.732 457.067 874.142 457.709C866.138 454.408 868.264 445.437 870.278 438.866Z" fill="black"/>
<path d="M1034.57 445.446L1032.3 443.282C1023.42 442.26 1022.36 451.894 1014.12 454.032C1011.22 453.67 1009.45 453.089 1007.72 450.741C997.76 437.207 1024.67 421.779 1035.99 425.152C1044.11 427.569 1047.1 432.847 1050.94 438.884C1062.43 437.58 1077.84 438.201 1079.54 452.896C1082.27 476.538 1042.65 491.426 1026.47 476.796C1014.93 466.158 1025.49 452.87 1034.57 445.446Z" fill="#EFA4BD"/>
<path d="M1034.57 445.446L1032.3 443.282C1023.42 442.26 1022.36 451.894 1014.12 454.032C1011.22 453.67 1009.45 453.089 1007.72 450.741C997.76 437.207 1024.67 421.779 1035.99 425.152C1044.11 427.569 1047.1 432.847 1050.94 438.884C1058.02 460.82 1037.92 463.841 1034.57 445.446Z" fill="black"/>
<path d="M762.192 526.553C764.183 528.225 777.007 548.91 779.036 552.121L818.802 615.083C825.027 624.931 834.526 640.966 841.397 649.868C875.976 659.242 915.225 672.578 949.779 683.418C950.299 689.528 952.139 709.324 948.909 713.636L947.517 713.381L946.548 711.278C939.569 693.661 922.799 693.553 906.289 693.38C889.772 693.207 876.584 694.302 861.176 700.421C804.126 682.958 759.488 638.945 760.306 577.451C760.534 560.325 759.196 543.552 762.192 526.553Z" fill="#316A90"/>
<path d="M1157.33 528.558C1159.67 530.997 1160.11 547.301 1160.3 551.146C1161.46 570.795 1160.54 589.387 1155.77 608.413C1150.91 630.285 1142.98 642.651 1128 658.593C1105.81 682.197 1089.34 690.977 1058.69 700.418C1042.22 693.35 1024.44 693 1006.76 693.489C992.056 693.896 980.54 696.228 973.763 710.245C973.307 712.675 973.755 711.781 971.386 713.58L972.074 714.221L972.449 713.294L970.472 713.692C967.989 710.934 967.935 690.359 967.535 684.871C1004.07 672.16 1043.42 661.6 1080.27 649.534C1087.22 640.434 1099.58 619.572 1106.09 609.286L1157.33 528.558Z" fill="#316A90"/>
<path d="M1119.38 527.903L1119.9 529.064C1115.46 534.976 1087.88 564.805 1083.08 566.89C1060.47 576.711 1034.48 587.366 1011.64 597.09L1001.1 585.785C996.677 581.513 991.904 577.471 987.263 573.429C1030.32 569.004 1080.33 546.846 1119.38 527.903Z" fill="#F9F9F9"/>
<path d="M800.2 527.592C805.155 529.069 826.615 539.459 832.618 542.07C865.062 556.182 898.365 569.828 933.885 573.41C929.557 577.205 925.274 581.052 921.037 584.949C916.967 588.913 913.543 592.835 909.786 597.076C887.445 587.627 856.739 575.827 835.362 564.922C830.85 562.619 805.127 533.434 800.2 527.592Z" fill="#F9F9F9"/>
<path d="M805.482 560.313C826.232 581.277 845.355 604.045 869.17 621.686C876.509 627.123 878.603 628.085 886.046 622.969C889.779 626.195 893.214 628.933 897.088 631.95C893.193 642.238 903.1 646.96 909.979 652.342C890.584 646.373 871.224 640.293 851.899 634.102C837.176 610.946 818.948 583.768 805.482 560.313Z" fill="#316A90"/>
<path d="M1114.42 561.631C1113.52 566.197 1074.85 625.55 1069.41 634.085C1050.8 640.097 1032.13 645.94 1013.41 651.613L1013.37 651.001C1015.07 648.801 1033.15 635.867 1036.45 633.581C1066.72 612.612 1089.08 588.064 1114.42 561.631Z" fill="#316A90"/>
<path d="M870.582 599.976C880.071 603.532 888.905 607.779 898.175 611.798C910.296 617.054 916.577 615.902 925.178 606.385L934.811 624.789C934.219 631.931 933.411 639.054 932.387 646.147C923.149 639.528 907.625 623.528 897.088 631.95C893.214 628.933 889.779 626.195 886.046 622.969C889.273 610.426 878.971 606.965 870.582 599.976Z" fill="#F9F9F9"/>
<path d="M960.667 574.514C968.203 580.423 975.561 586.555 982.733 592.901C979.934 598.967 977.441 603.549 974.174 609.361C968.882 609.389 966.105 609.791 960.833 610.599C956.027 609.616 951.949 609.574 947.086 609.377C944.075 604.603 941.021 598.015 938.449 592.862C945.848 586.392 953.004 580.628 960.667 574.514Z" fill="#FE0012"/>
<path d="M1005.31 711.919C1014.31 711.78 1058.44 706.933 1044.41 728.385C1042.52 731.275 1038.45 731.439 1035.23 731.71C1024.95 730.947 1014.61 731.469 1004.26 730.501C995.547 729.686 986.2 723.791 993.307 714.477C996.527 712.486 1001.42 712.342 1005.31 711.919Z" fill="#FEB800"/>
<path d="M888.194 711.842C893.954 711.09 920.684 710.772 924.256 713.791C935.097 722.952 927.394 728.386 917.057 730.198C909.284 730.671 875.873 736.005 873.482 724.874C871.147 714.007 879.917 713.012 888.194 711.842Z" fill="#FEB800"/>
<path d="M1047.53 600.996L1048.54 601.37C1043.77 606.248 993.994 643.95 989.594 644.676C987.92 642.244 987.918 638.926 987.562 635.85L986.257 624.56C989.74 618.791 992.897 612.507 996.039 606.525C1007.41 618.338 1013.35 616.006 1027.74 609.739C1034.25 606.906 1041.01 603.863 1047.53 600.996Z" fill="#F9F9F9"/>
<path d="M744.413 505.644C745.289 507.363 742.894 527.692 742.718 531.463C742.124 545.367 742.078 559.288 742.581 573.196C742.946 582.453 743.958 592.659 743.671 601.77C741.8 603.36 739.446 603.037 736.818 603.117C737.116 571.57 733.023 540.531 733.355 507.735L744.413 505.644Z" fill="#316A90"/>
<path d="M1175.39 505.32L1187.78 507.795C1188.31 539.942 1183.79 571.346 1184.61 601.483C1183.06 603.098 1180.12 603.209 1178.07 602.573C1177.24 600.695 1178.66 569.384 1178.7 564.662C1178.9 544.479 1179.77 525.308 1175.39 505.32Z" fill="#316A90"/>
<path d="M952.565 627.165C958.764 628.325 962.817 627.955 968.999 627.162C969.657 637.472 971.255 646.83 972.87 656.995L966.179 661.597C958.733 666.899 954.783 661.746 948.335 657.044C950.184 647.227 951.32 637.092 952.565 627.165Z" fill="#FE0012"/>
<path d="M1205.65 516.751L1210.65 519.101C1211 519.596 1211.44 520.198 1211.95 520.908C1211.23 539.761 1209.73 566.882 1207.84 584.938C1206.49 585.829 1204.95 586.539 1203.5 587.268C1201.98 584.707 1205.69 526.192 1205.65 516.751Z" fill="#F9F9F9"/>
<path d="M713.255 516.911L714.528 517.473C715.846 519.775 718.444 579.451 718.658 586.816L717.179 587.785C716.498 587.261 715.831 586.734 715.222 586.124C711.691 582.589 708.838 530.049 709.195 522.205C709.318 519.488 711.341 518.529 713.255 516.911Z" fill="#F9F9F9"/>
<path d="M690.229 532.018L691.771 533.568C692.677 538.028 693.846 549.059 692.685 553.355C689.127 545.23 686.279 540.437 690.229 532.018Z" fill="#979696"/>
<path d="M1229.22 533.002C1234.22 536.446 1230.88 544.21 1229.39 548.744L1228.81 549.009C1227.73 545.884 1228.91 536.818 1229.22 533.002Z" fill="#979696"/>
</svg>
