<svg width="400" height="400" viewBox="0 0 400 400" fill="none" xmlns="http://www.w3.org/2000/svg">
<path fill-rule="evenodd" clip-rule="evenodd" d="M179.698 20.279C186.128 19.7005 192.714 20.1948 199.166 20.2343C204.711 20.2683 210.247 19.9779 215.797 20.0962C224.282 20.277 232.823 21.0763 241.255 22.0368C256.417 23.7639 271.574 26.4103 286.551 29.3108C304.376 32.8367 322.047 37.102 339.52 42.0928C346.216 44.0219 353.54 45.8337 359.841 48.7697C361.727 49.6479 363.818 50.8477 365.085 52.5337C367.032 55.1262 365.691 61.6638 365.345 64.6418C363.735 78.4781 360.665 91.7551 353.912 104.013C352.858 105.926 351.619 108.671 349.812 109.969C347.876 111.358 344.88 110.518 342.727 110.147C341.122 118.625 339.125 126.909 337.889 135.474C339.443 135.546 341.013 135.625 342.56 135.806C348.221 136.521 353.357 139.49 356.8 144.04C365.114 155.042 362.47 173.205 360.649 186C356.773 213.249 350.492 233.154 330.884 252.972C326.924 256.975 322.764 261.07 318.257 264.457C318.209 283.107 318.15 303.602 310.778 321.052C301.167 343.808 281.217 352.518 259.808 361.223C259.718 363.104 259.471 364.854 258.646 366.57C255.979 372.11 250.4 375.434 244.78 377.372C234.346 380.972 221.41 381.052 211.377 376.205C209.731 375.227 207.588 373.756 206.454 372.22C205.754 371.272 205.258 369.941 204.417 369.13C202.875 367.643 197.18 368.21 194.947 368.227C194.491 369.209 193.995 370.166 193.4 371.072C190.474 375.533 184.445 377.995 179.443 379.044C169.194 381.191 155.91 379.812 147.078 374C141.99 370.652 139.926 366.841 138.705 361.005C125.252 356.138 111.499 349.698 101.001 339.801C80.644 320.612 81.2057 290.114 80.4368 264.296C75.4829 260.211 70.6041 255.95 66.2305 251.24C60.4367 245.003 54.9231 238.119 50.9136 230.577C42.0627 213.927 35.8385 182.062 36.6041 163.333C36.9328 155.29 38.5267 146.731 44.771 141.077C49.6534 136.656 55.618 135.458 62.0201 135.729C61.0967 126.998 58.5946 118.717 57.3702 110.089C56.1412 110.329 54.9041 110.53 53.662 110.689C52.2091 110.87 50.9773 110.696 49.8269 109.733C48.3582 108.504 47.2919 106.015 46.3433 104.363C38.6633 90.9934 35.2363 74.7496 34.1054 59.4576C33.9453 57.2924 33.7461 53.628 35.3485 51.9492C39.8534 47.23 51.3933 44.7576 57.7482 42.8852C95.6939 31.7045 140.243 22.4695 179.698 20.279ZM199.442 82.7405C194.13 82.7732 188.674 83.4633 183.387 84.01C167.548 85.6476 152.184 88.4468 136.613 91.6608C124.135 94.2365 111.542 96.2717 99.127 99.1441C88.0461 101.708 77.2144 105.054 66.2095 107.882C67.3917 113.477 68.6987 119.07 69.6806 124.704C70.5209 129.525 70.9622 134.42 72.1066 139.184C83.9948 148.923 91.7682 165.655 98.2565 179.363C99.8844 176.337 101.871 173.452 103.823 170.628C125.85 138.766 146.618 127.651 184.181 120.897C189.191 119.996 194.234 120.024 199.304 120.061C222.714 120.232 247.419 126.551 266.751 140.092C269.83 142.248 275.249 145.398 275.768 149.4C276.021 151.345 275.062 152.751 273.871 154.168C276.691 157.432 279.529 160.678 282.386 163.908C282.875 163.293 283.361 162.69 284.034 162.267C284.885 161.731 285.948 161.633 286.908 161.886C291.359 163.056 298.415 175.639 300.636 179.717C303.969 170.298 314.339 152.222 320.982 144.665C323.133 142.218 325.481 140.301 328.114 138.411C329.188 134.312 329.457 129.76 330.163 125.562C331.152 119.68 332.525 113.832 333.774 107.999C322.993 105.186 312.415 101.842 301.549 99.299C288.787 96.3116 275.804 94.2059 262.965 91.5534C247.438 88.3456 232.089 85.5791 216.3 83.9598C210.73 83.3885 205.043 82.7061 199.442 82.7405Z" fill="black"/>
<path d="M134.716 186.629C146.227 178.869 158.797 175.594 172.586 178.344C181.568 180.137 192.419 188.179 199.509 188.144C206.878 188.107 214.091 182.163 220.984 179.79C240.174 173.183 264.126 180.696 275.389 197.775C281.259 206.673 281.067 217.136 278.933 227.238C277.461 234.202 275.28 241.331 271.736 247.542C267.33 255.265 260.076 261.374 258.528 270.541C256.19 284.385 267.411 300.437 272.397 313.1C275.833 321.827 278.346 331.27 278.599 340.679C271.021 345.166 263.001 348.857 254.665 351.692C245.231 345.832 233.72 345.196 223.092 347.645C219.948 348.369 216.977 349.423 214.032 350.733C210.878 352.825 208.095 354.326 205.675 357.306C201.488 357.055 197.275 357.13 193.086 357.253C189.246 352.849 184.515 350.102 178.942 348.417C166.87 344.769 155.242 345.717 144.127 351.69C135.974 348.686 128.347 345.207 120.735 341.016C120.659 337.493 120.892 334.047 121.492 330.574C122.195 326.513 124.129 321.011 123.671 316.991C123.469 315.224 121.803 314.056 120.553 312.973C122.755 309.226 124.348 304.674 126.159 300.706C126.504 300.808 126.851 300.904 127.201 300.99C128.65 301.34 130.24 301.397 131.531 300.533C134.794 298.347 139.755 283.528 140.494 279.192C142.449 267.722 136.361 260.652 130.166 251.911C122.907 241.669 116.696 222.093 118.927 209.459C120.628 199.827 126.865 192.146 134.716 186.629Z" fill="white"/>
<path d="M126.159 300.705C126.504 300.808 126.851 300.904 127.201 300.99C128.65 301.34 130.24 301.397 131.531 300.533C134.794 298.347 139.755 283.528 140.494 279.192C142.449 267.722 136.361 260.652 130.166 251.911C122.907 241.669 116.696 222.093 118.927 209.459C120.628 199.827 126.865 192.146 134.716 186.629C134.962 189.644 134.718 192.73 134.707 195.756C134.684 202.359 134.727 209.263 135.491 215.826L135.32 216.143C136.359 221.129 136.437 226.6 136.943 231.681L137.253 231.992C137.302 237.128 138.901 242.949 140.12 247.942C145.542 270.161 155.256 289.424 168.683 307.827C173.679 314.677 178.979 321.371 185.038 327.323C191.171 333.349 197.945 339.026 204.769 344.252C207.262 346.16 212.209 348.482 214.032 350.733C210.878 352.825 208.095 354.326 205.675 357.306C201.488 357.055 197.275 357.13 193.086 357.253C189.246 352.849 184.515 350.102 178.942 348.417C166.87 344.769 155.242 345.717 144.127 351.69C135.974 348.686 128.347 345.207 120.735 341.016C120.659 337.493 120.892 334.047 121.492 330.574C122.195 326.513 124.129 321.011 123.671 316.991C123.469 315.224 121.803 314.056 120.553 312.973C122.755 309.226 124.348 304.674 126.159 300.705Z" fill="#CCCCCC"/>
<path d="M135.32 216.143C136.359 221.129 136.437 226.601 136.943 231.681C135.518 230.872 134.174 229.831 133.175 228.523C131.732 226.638 130.992 224.172 131.401 221.812C131.822 219.378 133.32 217.5 135.32 216.143Z" fill="#C15865"/>
<path d="M135.491 215.826C139.587 213.815 143.404 212.966 147.829 214.529C151.998 216 159.296 219.046 161.187 223.225C161.959 224.931 162.048 226.881 161.265 228.599C160.072 231.215 157.47 233.026 154.804 233.925C149.322 235.775 142.398 234.226 137.252 231.992L136.942 231.681C136.436 226.601 136.359 221.129 135.32 216.143L135.491 215.826Z" fill="#F37280"/>
<path d="M197.283 211.99C200.663 211.366 204.399 212.393 207.662 213.279C211.931 214.436 215.589 216.783 217.781 220.699C221.036 226.519 221.038 232.605 219.278 238.875C216.586 248.471 210.986 255.401 202.328 260.251C201.793 260.379 201.263 260.518 200.725 260.627C198.038 261.168 195.443 259.831 193.266 258.357C185.759 253.269 180.575 244.864 178.96 235.981C177.94 230.365 178.699 224.205 182.037 219.446C185.655 214.29 191.453 213.003 197.283 211.99Z" fill="black"/>
<path d="M192.177 224.269C195.722 222.493 200.752 221.86 204.549 223.166C206.622 223.878 208.375 225.259 209.276 227.288C210.886 230.908 209.545 235.762 208.082 239.222C206.486 242.996 204.079 246.134 200.872 248.675C200.313 248.849 199.635 249.018 199.052 248.894C197.092 248.475 195.075 246.266 193.936 244.692C190.652 240.156 188.38 233.749 189.397 228.112C189.755 226.132 190.575 225.395 192.177 224.269Z" fill="#F3C651"/>
<path d="M192.177 224.269C193.022 225.639 193.399 232.561 194.148 235.032C195.203 238.518 196.878 241.666 198.7 244.799C199.443 246.079 200.358 247.282 200.872 248.675C200.313 248.849 199.635 249.018 199.052 248.894C197.092 248.475 195.075 246.266 193.936 244.692C190.652 240.156 188.38 233.749 189.397 228.112C189.755 226.132 190.575 225.395 192.177 224.269Z" fill="#C39E40"/>
<path d="M254.254 213.78C257.38 213.439 260.823 214.132 263.461 215.883C265.517 217.248 267.103 219.282 267.538 221.748C267.935 223.993 267.344 226.205 266.024 228.048C262.611 232.812 256.41 233.881 251.02 234.741C247.542 234.833 244.065 234.433 241.037 232.572C239.157 231.416 237.741 229.775 237.325 227.563C236.927 225.439 237.539 223.196 238.852 221.499C241.652 217.882 249.827 214.417 254.254 213.78Z" fill="#F37280"/>
<path d="M158.318 195.499C160.525 195.319 162.514 195.352 164.519 196.437C166.713 197.625 168.338 199.643 169.029 202.04C169.839 204.885 169.431 207.939 167.902 210.47C166.329 213.135 163.866 214.635 160.921 215.365C159.354 215.516 157.775 215.372 156.288 214.835C153.864 213.96 152.016 212.283 150.968 209.923C149.85 207.442 149.825 204.606 150.9 202.106C152.328 198.835 155.121 196.829 158.318 195.499Z" fill="black"/>
<path d="M236.554 195.489C239.075 195.285 241.16 195.539 243.38 196.813C246.835 198.795 248.221 201.957 249.237 205.629C248.94 206.71 248.645 207.806 248.264 208.862C247.185 211.849 245.105 213.742 242.278 215.04C240.405 215.453 238.525 215.565 236.677 214.97C234.115 214.149 231.994 212.329 230.792 209.922C229.448 207.279 229.184 203.979 230.264 201.202C231.447 198.159 233.667 196.657 236.554 195.489Z" fill="black"/>
<path d="M190.778 29.1937C238.321 27.6004 289.462 37.4531 335.098 50.3925C342.462 52.4803 349.652 55.0088 356.967 57.2323C356.264 60.7034 356.119 64.3235 355.624 67.8355C353.978 79.4752 351.428 91.5786 344.461 101.264C331.976 98.0622 319.67 94.2349 307.142 91.1899C295.999 88.4817 284.726 86.5377 273.479 84.3351C261.826 82.0528 250.25 79.3872 238.523 77.4982C228.935 75.9543 219.252 75.0641 209.598 74.0694C181.638 72.321 153.82 79.0478 126.585 84.3128C117.665 86.0373 108.703 87.575 99.8329 89.5496C90.2548 91.6819 80.832 94.2848 71.3877 96.9362C66.1413 98.4091 60.7101 99.6164 55.5864 101.47C46.5589 88.0068 45.0868 72.8308 43.1919 57.1997C86.905 42.1645 144.623 30.1734 190.778 29.1937Z" fill="white"/>
<path d="M101.812 49.4427C102.416 49.3753 103.022 49.3123 103.629 49.293C106.344 49.207 108.506 50.2776 110.4 52.1552C114.451 56.1725 118.91 67.7865 118.832 73.5607C118.812 75.0557 118.424 76.9226 117.218 77.9326C116.483 78.5396 115.536 78.8293 114.587 78.7382C108.773 78.1486 107.984 64.3376 104.503 60.4367L104.029 60.5838C103.332 62.8963 102.736 65.5125 102.816 67.9363C102.924 71.2082 104.424 74.993 103.442 78.2136C103.018 79.603 102.082 80.588 100.787 81.2156C99.7164 81.7339 98.5302 81.9418 97.4019 81.4865C93.3092 79.8352 92.9797 71.3861 91.368 67.8068L91.1782 67.3922C90.2581 65.6823 89.1663 64.313 87.8914 62.8536C87.4878 65.0969 87.2218 67.3178 87.2994 69.6009C87.4538 74.1427 89.2364 80.7489 87.7591 85.0225C87.3485 86.2105 86.378 87.265 85.212 87.7474C84.0335 88.235 82.4908 88.231 81.3512 87.6324C80.5072 87.1891 79.8718 86.4884 79.4076 85.665C77.7262 82.6819 76.8466 78.7045 75.6973 75.4549C74.5161 72.1152 73.0564 68.8118 72.0433 65.423C71.4761 63.5259 70.7355 60.2271 71.8265 58.47C74.56 54.0672 77.3719 58.6673 79.9299 58.0734C80.1973 57.519 80.4686 56.9632 80.7872 56.4358C81.7412 54.8558 84.0414 53.5442 85.8147 53.1998C89.3201 52.5189 92.2774 54.4968 95.0755 56.2814C96.8378 52.9871 98.3068 51.0175 101.812 49.4427Z" fill="#668AFE"/>
<path d="M176.418 37.986C178.394 37.8758 180.108 37.8575 181.977 38.6383C184.494 39.6895 186.708 41.7152 187.672 44.3001C191.321 54.0882 178.691 57.1757 177.638 59.4831L178.199 59.9137C182.354 60.2671 184.305 58.4192 188.014 57.4584C189.224 57.1449 190.528 57.0414 191.611 57.7787C192.675 58.5031 193.437 60.0101 193.625 61.2576C193.874 62.8906 192.828 64.104 191.895 65.3056C189.887 66.8278 187.768 68.0219 185.362 68.8021C181.395 70.0882 177.125 69.9375 173.399 67.9839C169.812 66.0805 167.134 62.8211 165.962 58.932C164.599 54.4676 165.006 48.976 167.275 44.8645C169.281 41.2314 172.496 39.1063 176.418 37.986Z" fill="#668AFE"/>
<path d="M176.626 46.387C177.129 46.4545 177.728 46.5014 178.199 46.6903C178.94 46.987 179.16 47.4895 179.418 48.1826C179.019 50.3146 177.659 51.089 175.989 52.2402C175.443 52.5952 175.248 52.5829 174.618 52.6283L174.162 52.086C174.012 51.4853 173.902 51.007 173.988 50.3847C174.262 48.3641 175.086 47.5887 176.626 46.387Z" fill="white"/>
<path d="M149.108 41.6514C150.6 41.7712 152.084 42.0831 153.441 42.7331C158.288 45.0553 160.95 50.596 162.479 55.4492C163.445 58.5111 164.87 63.5643 163.129 66.5538C162.463 67.6978 161.401 68.2833 160.135 68.5516C152.802 70.1056 154.729 55.0436 150.28 51.9515C149.442 51.8598 148.956 51.7875 148.228 52.2826C146.6 53.3893 145.982 56.2008 145.489 57.9941C145.074 61.6124 146.17 67.9363 144.456 70.9674C143.819 72.0945 142.378 73.1334 141.12 73.4324C140.015 73.6948 138.924 73.4314 138.017 72.7578C135.342 70.7698 131.59 56.6275 131.1 53.0525C130.849 51.2226 130.958 48.9123 132.204 47.4334C132.728 46.8116 133.458 46.4523 134.267 46.3884C136.146 46.2403 137.449 47.3349 138.774 48.4719C141.725 44.8167 144.445 42.6195 149.108 41.6514Z" fill="#668AFE"/>
<path d="M234.621 41.1989C236.238 41.1017 238.147 41.0615 239.398 42.2725C240.781 43.6105 240.767 45.8446 240.885 47.6306C243.2 45.614 245.723 43.8984 248.806 43.3577C250.758 43.0151 252.806 43.2325 254.444 44.422C257.39 46.5603 258.664 50.8283 259.071 54.2816C259.583 58.6315 259.514 65.9189 256.54 69.4729C255.82 70.3335 254.814 71.0507 253.653 71.0687C252.478 71.0867 251.473 70.3554 250.683 69.5491C249.104 67.9374 249.243 65.9348 249.247 63.8472C249.77 60.0978 249.891 56.4764 249.59 52.7009C241.991 58.5263 242.74 65.6018 238.361 69.6921C237.57 70.4311 236.541 71.0308 235.421 70.949C234.311 70.8678 233.151 69.9082 232.448 69.1085C231.65 68.2021 231.234 67.1542 231.123 65.955C230.893 63.4994 231.55 60.8108 231.638 58.3215C231.773 54.4741 231.348 50.5493 231.735 46.7209C231.995 44.1498 232.595 42.8394 234.621 41.1989Z" fill="#668AFE"/>
<path d="M272.737 47.3037C273.621 47.2513 274.507 47.2217 275.393 47.215C278.089 47.2164 280.844 48.4128 282.71 50.3579C284.464 52.1567 285.396 54.602 285.283 57.1126C285.079 60.9491 282.213 64.0167 278.797 65.47C277.579 65.9889 276.19 66.1734 275.198 67.089C275.966 68.749 281.949 68.6843 283.846 69.516C284.833 69.948 285.59 70.5752 285.901 71.6353C286.286 72.9395 285.431 74.8047 284.756 75.8838C283.936 76.4694 283.129 77.0067 282.176 77.356C279.027 78.5108 275.521 78.2383 272.494 76.8595C268.35 74.9728 265.351 71.1985 263.834 66.9672C262.386 62.9227 262.27 58.1235 264.157 54.1963C265.963 50.4411 268.937 48.6366 272.737 47.3037Z" fill="#668AFE"/>
<path d="M274.886 55.0164C275.894 55.1932 276.427 55.4135 277.255 56.0231C277.566 56.7739 277.706 56.9455 277.43 57.7567C276.987 59.0581 275.626 59.6441 274.494 60.2316C273.624 59.8087 272.857 59.3121 272.059 58.7681C271.609 57.9088 271.586 57.9157 271.796 56.9732C272.634 55.9731 273.732 55.5599 274.886 55.0164Z" fill="white"/>
<path d="M299.016 47.5426C306.21 47.8876 302.459 52.2899 305.374 54.317C307.27 55.6344 310.37 54.762 312.192 56.3868C313.072 57.172 313.366 58.3043 313.359 59.4521C313.35 60.6823 312.839 62.0607 311.895 62.886C309.757 64.7548 304.834 64.0512 302.15 63.9935C301.606 67.1639 300.899 70.2355 300.777 73.4633C303.363 73.5437 306.932 72.4906 309.282 73.5823C310.855 74.3133 311.465 75.9372 311.96 77.4759C311.376 79.2623 310.639 80.8466 308.969 81.8631C306.35 83.4581 301.299 83.4014 298.39 82.5848C295.771 81.8498 293.603 80.2888 292.341 77.8406C289.291 71.9177 293.217 59.9814 295.063 53.8737C295.893 51.1255 296.324 48.9805 299.016 47.5426Z" fill="#668AFE"/>
<path d="M198.579 32.9907C198.708 32.9835 198.836 32.9747 198.965 32.9687C200.608 32.8926 202.211 33.0047 203.441 34.2339C205.073 35.8651 205.079 38.3039 205.135 40.4484C208.119 39.8385 211.738 39.3302 214.485 40.9808C215.424 41.545 216.302 42.41 216.514 43.5273C216.722 44.6301 216.216 45.7874 215.522 46.62C213.001 49.6456 208.659 49.6815 205.061 49.9451C205.522 53.0212 206.088 56.0255 206.786 59.0567C208.168 58.5994 209.739 57.9291 211.178 57.753C212.929 57.5388 213.912 58.1773 215.274 59.1959C216.022 60.2373 216.559 61.2747 216.446 62.599C216.328 63.9986 215.286 65.2552 214.219 66.0895C211.929 67.8818 208.786 68.3019 205.966 67.9587C203.152 67.6161 200.783 66.3492 199.078 64.0639C195.023 58.6311 195.595 48.0812 195.659 41.5595C195.676 39.8955 195.468 38.1119 195.753 36.4689C196.063 34.692 197.221 33.9733 198.579 32.9907Z" fill="#668AFE"/>
<path d="M122.441 58.696C123.195 58.6443 123.992 58.5643 124.745 58.6525C125.95 58.7941 126.84 59.5581 127.552 60.492C129.729 63.3447 131.052 68.5911 130.492 72.1658C130.231 73.8374 129.056 74.6614 127.755 75.5741C127.434 75.6154 127.137 75.6458 126.813 75.6426C125.192 75.626 124.117 75.2731 123.006 74.0637C120.615 71.4602 119.591 66.9242 119.872 63.4654C120.055 61.2031 120.75 60.1637 122.441 58.696Z" fill="#668AFE"/>
<path d="M221.364 60.2693C223.642 59.373 226.217 60.4833 227.13 62.7554C228.041 65.0276 226.948 67.6098 224.682 68.5371C222.394 69.4732 219.782 68.3675 218.861 66.0733C217.941 63.7793 219.064 61.1743 221.364 60.2693Z" fill="#668AFE"/>
<path d="M119.262 45.7018C121.595 45.239 123.862 46.7523 124.329 49.0842C124.796 51.416 123.286 53.6855 120.955 54.1568C118.618 54.6294 116.342 53.1154 115.873 50.7775C115.405 48.4396 116.923 46.1656 119.262 45.7018Z" fill="#668AFE"/>
<path d="M149.375 142.312C170.636 131.679 193.584 129.069 216.945 132.403C223.473 133.334 229.964 134.526 236.233 136.611C244.307 139.296 252.423 143.026 259.411 147.903C262.011 149.717 266.024 153.894 268.807 154.98C270.482 155.634 272.337 154.85 273.872 154.168C276.692 157.431 279.53 160.677 282.387 163.907C281.37 166.443 281.892 168.968 282.942 171.391C284.749 175.557 287.77 179.267 290.246 183.067C292.352 186.302 294.059 189.944 295.425 193.549C299.759 204.999 303.41 219.108 305.266 231.175C308.473 252.021 309.315 295.575 301.735 315.209C298.862 322.65 294.619 328.606 288.766 333.959C287.29 325.689 285.5 317.624 282.479 309.761C278.877 300.39 269.173 284.591 268.817 275.254C268.653 270.955 270.772 267.191 273.164 263.775C275.9 259.874 279.054 256.209 281.372 252.034C288.12 239.872 292.772 221.063 290.413 207.237C288.269 194.68 279.812 184.649 269.647 177.529C256.497 168.318 241.083 165.014 225.281 167.8C215.702 169.489 208.418 174.517 199.581 177.956L199.084 177.767C193.895 175.783 189.121 172.834 183.959 170.776C169.173 164.88 153.254 165.74 138.792 172.047C138.486 172.18 138.182 172.316 137.881 172.457C135.205 165.843 148.984 147.345 149.375 142.312Z" fill="#424752"/>
<path d="M109.793 334.057C105.661 329.4 101.225 324.744 98.6728 318.98C89.3295 297.881 89.993 255.442 93.4686 232.458C95.2747 220.513 98.3565 208.008 102.683 196.727C110.722 175.77 128.374 151.656 149.375 142.312C148.984 147.345 135.205 165.843 137.881 172.457C125.278 179.287 113.956 188.373 109.64 202.67C105.123 217.636 110.264 238.559 117.591 252.049C122.848 261.727 132.844 267.878 129.357 280.144C128.087 284.607 121.832 294.356 123.921 298.367C124.388 299.264 125.409 300.038 126.159 300.706C124.348 304.674 122.755 309.226 120.554 312.973C120.145 312.97 119.739 312.976 119.33 312.979C118.348 312.986 117.544 313.006 116.674 313.523C111.327 316.7 111.161 328.492 109.793 334.057Z" fill="#424752"/>
<path d="M59.7301 146.332C60.8833 146.405 62.1459 146.431 63.259 146.75C72.2292 149.32 84.2771 173.969 87.8648 182.322C89.4248 185.953 90.2816 190.039 92.0874 193.51C92.1337 193.6 92.1829 193.687 92.2307 193.776C87.7708 208.47 83.6738 223.171 82.0591 238.492C81.8122 240.835 81.7238 250.154 80.8031 251.068C74.0743 244.159 67.4392 237.344 62.2699 229.139C52.6602 213.885 48.6044 189.132 47.2823 171.414C46.787 164.776 46.4604 154.674 51.2799 149.41C53.5948 146.881 56.5207 146.522 59.7301 146.332Z" fill="#424752"/>
<path d="M335.824 146.568C337.082 146.483 338.342 146.438 339.604 146.434C342.629 146.422 345.102 146.962 347.284 149.228C352.022 154.151 351.657 161.861 351.572 168.194C351.348 185.017 346.621 211.51 338.355 226.281C333.726 234.551 327.338 241.751 320.588 248.338L318.045 251.005C316.85 235.802 314.568 221.41 310.533 206.685C309.413 202.602 308.356 198.243 306.61 194.376L309.202 187.166C312.908 176.999 322.098 158.81 329.336 151.223C331.318 149.147 333.229 147.775 335.824 146.568Z" fill="#424752"/>
<path d="M160.949 356.986C167.107 356.099 176.273 357.596 181.492 361.039C182.558 361.742 184.005 362.859 184.201 364.208C184.302 364.912 184.141 365.493 183.692 366.048C178.89 371.981 153.124 372.034 150.415 362.57C150.219 361.885 150.293 361.316 150.666 360.708C152.252 358.12 158.15 357.486 160.949 356.986Z" fill="#C39E40"/>
<path d="M222.242 358.843C229.065 356.565 239.767 355.58 246.378 359.068C247.367 359.589 248.405 360.448 248.665 361.588C248.791 362.138 248.688 362.589 248.405 363.075C246.657 366.08 239.892 368.053 236.677 368.603C236.097 368.702 236.305 368.675 235.804 368.719C232.878 369.308 229.96 369.483 226.978 369.348C221.749 369.109 217.322 368.173 213.675 364.203C216.097 361.44 218.849 360.096 222.242 358.843Z" fill="#F3C651"/>
<path d="M213.675 364.203C213.675 361.175 218.978 359.746 222.242 358.843C224.154 362.648 229.821 367.096 233.821 368.555C234.445 368.782 235.151 368.775 235.804 368.719C232.878 369.308 229.96 369.483 226.978 369.348C221.749 369.109 213.675 368.555 213.675 364.203Z" fill="#C39E40"/>
</svg>
