<svg width="571" height="885" viewBox="0 0 571 885" fill="none" xmlns="http://www.w3.org/2000/svg">
<path d="M128.695 496.038C133.757 486.567 142.142 475.597 148.6 467.181C173.399 434.862 205.606 416.46 245.469 408.713C252.598 407.516 260.027 405.214 267.239 404.641C312.332 401.052 361.139 412.473 397.155 440.574C403.223 445.306 406.331 450.477 400.808 456.951L414.012 472.048C423.678 459.841 438.405 489.472 442.261 496.552C447.242 482.403 467.77 445.805 480.184 436.041C487.777 430.005 497.485 426.964 507.225 428.543C544.614 434.602 539.05 478.999 535.247 506.181C529.655 546.136 519.037 582.02 488.992 610.216C482.564 616.248 476.718 622.477 469.566 627.854C469.493 656.385 468.959 688.783 457.975 715.547C443.452 750.937 412.035 764.36 379 777.792C377.574 809.052 314.527 815.191 297.355 795.665C289.333 786.543 291.112 788.586 278.517 788.628C266.497 814.318 214.684 810.509 197.857 792.101C193.572 787.412 192.612 783.468 191.349 777.456C107.449 746.979 103.467 708.277 101.067 627.606C51.3936 587.197 38.2184 546.439 33.3581 483.572C31.9115 464.862 34.1399 440.553 53.3946 431.593C92.4787 413.405 115.771 468.713 128.695 496.038Z" fill="black"/>
<path d="M185.629 507.094C207.545 491.12 234.454 488.938 259.164 499.397C267.467 502.911 275.77 509.511 285.122 509.687C296.682 509.487 306.806 500.559 318.339 496.845C349.674 486.754 381.395 496.961 401.757 522.449C411.805 535.024 411.761 551.13 409.388 566.149C407.743 576.557 403.117 591.809 397.87 601.01C391.028 613.008 378.663 623.71 376.839 638.462C374.143 660.232 391.008 682.527 398.291 702.691C403.703 717.665 407.679 729.92 408.117 745.959C395.907 753.038 384.452 758.475 371.031 763.024C351.399 750.833 323.948 752.662 304.214 763.699C301.992 761.35 297.855 758.718 295.099 756.726C245.327 720.74 207.562 665.684 193.341 605.836C191.097 596.395 189.507 586.664 188.119 577.015L187.869 576.626C187.974 571.658 186.457 559.127 186.098 552.991L186.211 552.611C184.9 548.837 185.112 522.736 185.363 517.757C185.509 514.845 186.217 509.921 185.629 507.094Z" fill="white"/>
<path d="M186.211 552.611C191.934 549.782 198.771 547.732 204.942 550.304C211.397 552.991 222.342 556.945 225.851 563.282C229.845 570.494 224.206 577.456 217.616 580.05C208.659 583.678 196.519 581.037 188.119 577.015L187.869 576.626C187.973 571.658 186.456 559.127 186.098 552.991L186.211 552.611Z" fill="#F37280"/>
<path d="M282.116 546.561C287.425 545.58 293.093 547.289 298.2 548.555C316.223 553.022 321.181 572.125 316.199 588.218C311.333 603.936 304.274 613.304 289.935 621.337C283.754 622.823 281.22 621.964 275.894 618.404C257.986 606.429 245.393 577.63 258.5 558.118C263.879 550.107 273.291 548.09 282.116 546.561Z" fill="black"/>
<path d="M274.024 565.684C280.762 562.352 287.002 562.492 294.293 564.322C311.78 568.714 294.428 607.629 283.208 603.06C271.449 594.369 269.134 583.014 269.946 569.267C271.265 567.906 272.567 566.883 274.024 565.684Z" fill="#F3C651"/>
<path d="M274.024 565.684C275.573 568.333 275.507 578.545 276.235 582.978C277.238 589.086 283.141 598.699 283.208 603.06C271.449 594.369 269.134 583.014 269.946 569.268C271.265 567.906 272.567 566.884 274.024 565.684Z" fill="#C39E40"/>
<path d="M370.393 549.332C382.674 547.619 397.313 558.525 388.6 571.483C383.77 578.669 373.439 580.524 365.382 581.81C354.407 582.102 337.482 576.758 346.529 561.292C349.227 556.681 364.937 550.118 370.393 549.332Z" fill="#F37280"/>
<path d="M221.741 521.005C243.18 519.263 244.851 547.05 225.776 551.787C207.739 553.525 201.217 529.547 221.741 521.005Z" fill="black"/>
<path d="M342.965 520.989C354.376 520.089 359.89 526.597 362.617 536.702C360.625 543.955 359.175 547.916 351.839 551.282C332.763 555.499 323.326 528.939 342.965 520.989Z" fill="black"/>
<path d="M211.647 436.929C230.562 426.419 260.915 421.379 282.497 420.771C300.613 421.106 320.154 423.392 337.608 428.247C352.326 432.34 366.675 439.474 379.305 447.911C387.5 453.386 390.955 461.484 400.808 456.951L414.012 472.048C409.399 483.172 428.902 503.11 433.296 515.659C446.5 553.385 453.484 586.947 452.665 627.039C451.855 666.682 455.483 705.603 423.858 735.564C421.421 721.636 418.871 711.272 414.012 697.752C408.115 681.334 395.115 662.35 392.985 645.264C391.398 632.536 407.161 619.164 412.414 608.607C422.906 587.895 429.301 562.476 426.423 539.194C423.402 520.08 409.543 503.499 393.84 492.878C371.81 477.977 350.826 473.851 324.683 478.233C308.181 481.001 300.097 488.239 285.667 493.83L284.866 493.522C276.881 490.413 269.461 485.814 261.473 482.689C237.701 473.39 214.196 474.875 191.098 484.814C186.711 478.707 211.437 441.357 211.647 436.929Z" fill="#414752"/>
<path d="M185.629 507.094C186.217 509.921 185.509 514.845 185.363 517.757C185.113 522.735 184.901 548.836 186.211 552.61L186.098 552.991C186.457 559.127 187.974 571.658 187.87 576.625L188.119 577.015C189.507 586.664 191.097 596.395 193.341 605.836C207.562 665.684 245.327 720.74 295.099 756.726C297.855 758.718 301.992 761.35 304.214 763.698C299.942 766.873 298.568 767.583 295.112 771.727C288.766 771.34 281.957 771.457 275.606 771.641C268.565 763.623 260.91 759.703 250.653 757.1C232.065 752.383 216.57 753.965 199.76 763.023C185.621 757.819 176.668 753.717 163.507 746.495C163.231 733.18 166.739 722.801 168.095 709.891C168.383 707.153 165.169 704.729 163.244 703.022C165.772 698.365 169.602 689.084 171.914 684.001C174.248 684.714 177.568 685.411 179.713 684.063C184.489 681.062 191.366 661.199 192.917 656.033C200.824 629.689 182.902 618.67 172.617 600.01C163.957 581.54 156.564 556.688 162.169 536.558C164.892 526.778 176.498 511.884 185.629 507.094Z" fill="#CCCCCC"/>
<path d="M186.098 552.991C186.457 559.127 187.974 571.658 187.87 576.625C178.68 570.992 176.402 559.499 186.098 552.991Z" fill="#C15864"/>
<path d="M146.557 735.688C138.772 726.758 131.711 719.817 127.539 707.881C114.018 669.206 116.859 617.415 121.448 577.07C123.226 561.447 132.871 527.509 139.335 513.849C153.442 484.043 179.903 448.834 211.647 436.928C211.437 441.357 186.71 478.707 191.098 484.814C170.904 495.7 153.46 508.696 146.315 532.026C139.265 555.05 148.206 589.758 159.656 610.489C168.161 625.888 182.314 632.514 176.816 652.389C174.425 661.029 165.678 672.929 168.354 680.194C168.796 681.391 170.845 683.089 171.914 684.001C169.602 689.083 165.772 698.365 163.244 703.022C158.45 702.98 155.46 703.589 153.145 708.306C149.171 716.403 148.703 726.862 146.557 735.688Z" fill="#414752"/>
<path d="M68.958 444.811C81.543 445.594 86.9295 454.721 93.2145 464.559C100.601 476.332 107.16 488.487 112.822 501.174C115.225 506.557 116.657 513.424 119.342 518.322C111.145 545.339 103.505 572.577 102.649 600.975C102.586 603.067 102.594 604.7 102.239 606.768L101.424 606.876C78.6209 583.647 64.8653 566.689 57.8322 533.886C52.799 512.004 48.0079 488.145 49.935 465.634C51.0015 453.178 55.66 445.548 68.958 444.811Z" fill="#414752"/>
<path d="M496.777 445.203C503.283 444.727 509.682 444.137 514.539 449.315C521.512 456.748 521.523 468.469 521.193 478.102C520.148 508.539 514.01 541.146 500.706 568.696C495.177 579.747 481.497 594.752 472.99 603.071L469.24 607.029C467.321 582.963 464.512 561.578 457.595 538.34C455.828 532.401 454.053 524.875 451.519 519.271L456.125 506.495C461.267 492.603 468.39 479.986 476.06 467.337C481.608 458.19 486.743 449.824 496.777 445.203Z" fill="#414752"/>
<path d="M225.811 771.225C247.875 768.15 283.56 786.332 245.026 790.098C233.524 793.989 183.515 778.952 225.811 771.225Z" fill="#C39E40"/>
<path d="M319.532 774.602C328.17 771.311 353.916 767.085 361.174 778.102C363.264 781.274 356.271 785.478 353.938 786.029C347.552 788.712 341.513 789.553 334.87 790.248C324.172 790.474 315.26 790.669 307.497 782.407C311.189 778.237 314.432 776.506 319.532 774.602Z" fill="#F3C651"/>
<path d="M319.532 774.603C321.631 781.228 327.351 789.626 334.87 790.248C324.172 790.474 315.26 790.669 307.497 782.408C311.189 778.237 314.432 776.506 319.532 774.603Z" fill="#C39E40"/>
<path fill-rule="evenodd" clip-rule="evenodd" d="M288.276 199.98C287.259 202.464 283.741 202.464 282.724 199.98L260.423 145.534C259.961 144.407 258.861 143.671 257.644 143.671C210.865 143.664 168.267 143.773 142.793 191.571C117.049 239.874 139.608 264.321 186.65 380.09C187.11 381.222 188.225 382 189.447 382H285.5H381.553C382.775 382 383.89 381.222 384.35 380.09C431.392 264.321 453.951 239.874 428.207 191.571C402.733 143.773 360.135 143.664 313.356 143.671C312.139 143.671 311.039 144.407 310.577 145.534L288.276 199.98ZM204.265 352.724C204.737 353.829 205.823 354.545 207.024 354.545H285.5H363.976C365.177 354.545 366.263 353.829 366.735 352.724L374.155 335.359C375 333.379 373.548 331.18 371.396 331.18H285.5H199.604C197.452 331.18 196 333.379 196.845 335.359L204.265 352.724ZM271.199 243.616C271.336 243.964 271.405 244.335 271.405 244.709V302.478C271.405 304.135 270.062 305.478 268.405 305.478H212.742C211.085 305.478 209.747 304.125 209.412 302.502C208.048 295.879 203.004 287.733 205.044 259.331C207.223 228.983 233.771 203.232 247.877 193.501C249.407 192.445 251.469 193.153 252.147 194.884L271.199 243.616ZM187.425 221.946C176.202 244.72 176.647 262.032 177.479 276.492C177.661 279.649 173.826 280.61 172.487 277.745C159.578 250.115 155.25 230.259 166.871 203.838C178.187 178.11 205.958 171.575 223.719 171.366C226.463 171.333 227.404 174.654 225.234 176.333C215.325 184 198.931 198.599 187.425 221.946ZM299.801 243.616C299.664 243.964 299.595 244.335 299.595 244.709V302.478C299.595 304.135 300.938 305.478 302.595 305.478H358.258C359.915 305.478 361.253 304.125 361.588 302.502C362.952 295.879 367.996 287.733 365.956 259.331C363.777 228.983 337.229 203.232 323.123 193.501C321.593 192.445 319.531 193.153 318.853 194.884L299.801 243.616ZM383.575 221.946C394.798 244.72 394.353 262.032 393.521 276.492C393.339 279.649 397.174 280.61 398.513 277.745C411.422 250.115 415.75 230.259 404.129 203.838C392.813 178.11 365.042 171.575 347.281 171.366C344.537 171.333 343.596 174.654 345.766 176.333C355.675 184 372.069 198.599 383.575 221.946Z" fill="url(#paint0_radial_280_30)"/>
<path d="M288.206 85.6521C287.118 83.3793 283.882 83.3793 282.794 85.6521L268.507 115.495C268.112 116.32 268.115 117.28 268.515 118.103L282.802 147.472C283.897 149.722 287.103 149.722 288.198 147.472L302.485 118.103C302.885 117.28 302.888 116.32 302.493 115.495L288.206 85.6521Z" fill="url(#paint1_radial_280_30)"/>
<path d="M267.882 116.801L282.794 85.6521C283.882 83.3793 287.118 83.3793 288.206 85.6521L302.493 115.495C302.888 116.32 302.885 117.28 302.485 118.103L285.5 153.017M285.5 382H189.447C188.225 382 187.11 381.222 186.65 380.09C139.608 264.321 117.049 239.874 142.793 191.571C168.267 143.773 210.865 143.664 257.644 143.671C258.861 143.671 259.961 144.407 260.423 145.534L282.724 199.98C283.741 202.464 287.259 202.464 288.276 199.98L310.577 145.534C311.039 144.407 312.139 143.671 313.356 143.671C360.135 143.664 402.733 143.773 428.207 191.571C454.092 240.138 431.144 264.588 383.575 382M285.5 354.545H207.024C205.823 354.545 204.737 353.829 204.265 352.724L196.845 335.359C196 333.379 197.452 331.18 199.604 331.18H285.5H371.396C373.548 331.18 375 333.379 374.155 335.359L366.735 352.724C366.263 353.829 365.177 354.545 363.976 354.545H285.5ZM205.044 259.331C207.223 228.983 233.771 203.232 247.877 193.501C249.407 192.445 251.469 193.153 252.147 194.884L271.199 243.616C271.336 243.964 271.405 244.335 271.405 244.709V302.478C271.405 304.135 270.062 305.478 268.405 305.478H212.742C211.085 305.478 209.747 304.125 209.412 302.502C208.048 295.879 203.004 287.733 205.044 259.331ZM187.425 221.946C176.202 244.72 176.647 262.032 177.479 276.492C177.661 279.649 173.826 280.61 172.487 277.745C159.578 250.115 155.25 230.259 166.871 203.838C178.187 178.11 205.958 171.575 223.719 171.366C226.463 171.333 227.404 174.654 225.234 176.333C215.325 184 198.931 198.599 187.425 221.946ZM365.956 259.331C363.777 228.983 337.229 203.232 323.123 193.501C321.593 192.445 319.531 193.153 318.853 194.884L299.801 243.616C299.664 243.964 299.595 244.335 299.595 244.709V302.478C299.595 304.135 300.938 305.478 302.595 305.478H358.258C359.915 305.478 361.253 304.125 361.588 302.502C362.952 295.879 367.996 287.733 365.956 259.331ZM383.575 221.946C394.798 244.72 394.353 262.032 393.521 276.492C393.339 279.649 397.174 280.61 398.513 277.745C411.422 250.115 415.75 230.259 404.129 203.838C392.813 178.11 365.042 171.575 347.281 171.366C344.537 171.333 343.596 174.654 345.766 176.333C355.675 184 372.069 198.599 383.575 221.946Z" stroke="black" stroke-width="15" stroke-linecap="round" stroke-linejoin="round"/>
<defs>
<radialGradient id="paint0_radial_280_30" cx="0" cy="0" r="1" gradientUnits="userSpaceOnUse" gradientTransform="translate(464 151.5) rotate(152.893) scale(401.616 408.265)">
<stop offset="0.730669" stop-color="#22CBEE"/>
<stop offset="0.730769" stop-color="#0AA3C3"/>
</radialGradient>
<radialGradient id="paint1_radial_280_30" cx="0" cy="0" r="1" gradientUnits="userSpaceOnUse" gradientTransform="translate(464 151.5) rotate(152.893) scale(401.616 408.265)">
<stop offset="0.730669" stop-color="#22CBEE"/>
<stop offset="0.730769" stop-color="#0AA3C3"/>
</radialGradient>
</defs>
</svg>
