<svg viewBox="489 247 997 543" fill="none" xmlns="http://www.w3.org/2000/svg">
<path d="M804.519 272.247C820.121 269.991 846.791 274.532 861.888 278.548C917.535 293.353 973.332 345.423 989.192 401.072C1003.4 365.906 1020.01 347.259 1050.1 323.516C1061.58 314.453 1072.8 306.447 1086.44 300.681C1137.97 278.901 1184.08 280.718 1235.4 301.194C1248.42 306.392 1264.03 314.395 1274.95 323.068C1310.76 351.503 1354.91 410.413 1373.03 452.1C1395.7 450.776 1431.01 450.709 1451.58 461.354C1453.25 464.006 1456.25 468.705 1457.15 471.608C1466.4 501.49 1444.41 536.695 1421.02 554.052C1414.02 559.25 1406.49 562.411 1398.43 565.375C1396.12 594.337 1394.34 602.912 1378.7 628.235C1360.83 657.163 1343.08 674.059 1312.54 689.382C1322.12 727.891 1283.59 729.053 1256.67 732.122C1244.15 733.55 1234.19 731.153 1226.21 721.384C1219.11 723.663 1206.2 726.173 1198.77 726.772C1198.31 727.933 1197.83 729.087 1197.33 730.233C1192.47 741.244 1186.77 743.914 1176.26 748.017C1149.73 756.468 1111.9 769.814 1106.42 730.739C1064.68 727.447 1027.23 711.646 998.254 680.511C992.647 674.487 983.896 657.65 979.469 653.926C975.749 656.051 965.472 674.712 959.095 680.279C923.906 710.996 889.086 723.648 843.378 723.965C842.444 728.072 841.495 732.383 839.267 736.005C835.703 741.715 830.017 745.775 823.459 747.29C815.792 749.101 805.238 747.194 797.871 744.448C779.057 737.433 756.525 734.452 751.713 711.819C743.452 710.431 732.149 706.722 724.286 703.834C708.08 720.304 681.319 709.696 661.799 704.383C641.023 698.727 633.801 684.136 640.768 664.109C607.112 642.603 589.212 620.435 573.5 583.539C565.091 563.794 565.337 552.845 565.453 531.896C536.286 518.373 517.803 493.436 512.229 461.312C509.446 445.277 512.291 435.806 521.791 423.02C540.593 414.982 581.199 416.717 600.849 421.269C612.408 401.675 623.075 386.667 637.653 369.558C689.903 308.241 723.398 280.689 804.519 272.247Z" fill="black"/>
<path d="M1152.11 412.318L1153.05 411.81C1158.58 408.774 1167.94 400.807 1172.68 396.388C1212.53 359.239 1271.95 383.508 1296.5 425.467C1314.8 456.728 1296.89 482.537 1282.56 510.676C1268.45 507.022 1256.35 506.511 1243.11 514.191C1232.61 520.32 1224.99 530.401 1221.98 542.182C1216.92 561.72 1224.51 576.412 1237.8 590.068L1250.21 649.735C1253.43 663.988 1261.76 666.544 1271.46 655.088C1278.93 658.98 1308.32 663.508 1317.89 664.696C1313.04 667.616 1307.38 670.65 1302.4 673.462C1300.27 672.9 1298.1 672.465 1295.92 672.159C1280.93 669.974 1243.29 675.268 1230.71 684.866C1223.38 690.454 1222.17 694.595 1221.07 703.174C1212.94 705.248 1204.39 706.711 1196.12 708.249C1195.76 707.606 1195.39 706.973 1194.99 706.353C1184.84 690.385 1168.71 693.183 1152.45 696.209C1136.54 699.169 1123.01 702.909 1109.43 711.884C1092.8 710.767 1082.68 708.686 1066.96 703.568C1061.67 685.082 1066.9 637.752 1068.88 617.01C1069.54 609.979 1074.73 606.363 1074.29 595.034C1074.9 555.802 1067.74 555.56 1038.88 531.356C1004.03 502.134 1019.66 453.102 1048.06 424.165C1070.84 402.911 1092.06 397.038 1121.93 406.364C1128.61 408.45 1138.17 411.89 1144.88 412.89L1145.83 413.023C1148.28 413.623 1149.66 412.982 1152.11 412.318Z" fill="#FEFEFE"/>
<path d="M1066.96 703.568C1061.67 685.082 1066.9 637.752 1068.88 617.01C1069.54 609.979 1074.73 606.363 1074.29 595.034C1074.9 555.802 1067.74 555.56 1038.88 531.356C1004.03 502.134 1019.66 453.102 1048.06 424.165C1051.7 439.757 1058.94 470.738 1066.24 484.426C1047.15 489.605 1051.54 507.225 1073.46 500.282C1082.25 516.859 1089.77 525.182 1101.17 539.764C1137.32 586.016 1189.88 628.95 1245.38 648.419C1246.73 648.891 1248.8 649.439 1250.21 649.735C1253.43 663.988 1261.76 666.544 1271.46 655.088C1278.93 658.98 1308.32 663.508 1317.89 664.696C1313.04 667.616 1307.38 670.65 1302.4 673.462C1300.27 672.9 1298.1 672.465 1295.92 672.159C1280.93 669.974 1243.29 675.268 1230.71 684.866C1223.38 690.454 1222.17 694.595 1221.07 703.174C1212.94 705.248 1204.39 706.711 1196.12 708.249C1195.76 707.606 1195.39 706.973 1194.99 706.353C1184.84 690.385 1168.71 693.183 1152.45 696.209C1136.54 699.169 1123.01 702.909 1109.43 711.884C1092.8 710.767 1082.68 708.686 1066.96 703.568Z" fill="#D7D6D6"/>
<path d="M1080.35 478.699C1072.7 475.766 1060.62 472.951 1064.58 462.088C1071.15 454.017 1087.32 462.175 1095.07 465.535C1135.77 483.169 1087.1 494.2 1073.46 500.282C1051.54 507.225 1047.15 489.605 1066.24 484.426L1080.35 478.699Z" fill="black"/>
<path d="M1172.86 537.598C1146.59 535.691 1118.1 503.575 1126 476.858C1134.94 446.629 1186.48 439.808 1200.83 469.346C1209.84 487.894 1201.33 511.157 1189.89 526.743C1186.41 531.414 1181.64 534.185 1176.49 536.769L1172.86 537.598Z" fill="black"/>
<path d="M1169.71 518.754C1163.29 519.149 1157.26 511.502 1153.1 507.869C1124.08 482.514 1161.02 455.013 1183.12 474.27C1193.01 482.89 1181.87 510.134 1172.84 519.205L1169.71 518.754Z" fill="#FEB800"/>
<path d="M1238.55 423.696C1257.95 426.391 1245.04 440.119 1237.76 447.167C1247.46 447.356 1264.1 443.413 1269.18 453.146C1268.65 462.947 1257.33 464.094 1250.02 464.407C1241.15 464.717 1215.21 467.468 1209.98 460.87C1203.05 452.113 1231.73 427.573 1238.55 423.696Z" fill="black"/>
<path d="M714.242 371.277C733.763 361.7 755.032 356.692 776.67 363.199C800.706 370.428 810.602 390.545 826.078 401.016C831.085 402.795 834.179 402.562 839.362 401.354C863.759 396.324 886.777 389.967 909.614 404.751C931.04 418.622 946.069 441.733 951.142 466.625C954.333 482.283 953.879 500.457 944.743 514.116C932.579 532.301 902.121 544.067 894.077 557.991C884.227 575.043 898.484 669.245 885.239 700.138C869.906 704.039 856.952 704.414 841.101 704.086C831.43 696.392 827.446 694.971 815.939 690.316C802.54 676.741 792.768 665.948 783.173 649.096C766.142 619.182 752.751 587.555 738.577 556.226C752.714 529.783 743.763 504.23 717.904 490.147C706.207 485.513 698.733 485.565 686.725 487.768C663.271 435.273 659.374 403.737 714.242 371.277Z" fill="#FEFEFE"/>
<path d="M714.242 371.277C711.884 388.261 709.259 409.473 709.484 426.542C705.115 432.601 703.706 437.578 711.312 441.844C707.233 446.849 716.03 482.457 717.904 490.147C706.207 485.513 698.733 485.565 686.725 487.768C663.271 435.273 659.374 403.737 714.242 371.277Z" fill="#D7D6D6"/>
<path d="M737.26 427.949C731.344 421.271 723.27 414.876 730.855 406.171C743.016 399.657 776.625 442.379 760.92 446.348C752.578 448.457 720.144 444.659 711.312 441.844C703.706 437.578 705.115 432.601 709.484 426.542C715.384 424.442 729.745 427.635 737.26 427.949Z" fill="black"/>
<path d="M790.057 523.096C784.842 519.812 780.395 516.34 777.308 511.109C768.251 495.762 761.044 468.78 772.626 453.011C801.177 414.135 871.222 453.892 839.168 498.419C828.874 512.719 812.517 524.422 794.205 524.491L790.057 523.096Z" fill="black"/>
<path d="M795.661 505.811C787.17 495.505 777.96 468.676 791.45 458.348C804.237 448.558 833.237 461.158 828.735 479.629C826.063 491.902 810.769 502.605 799.768 506.756L795.661 505.811Z" fill="#FEB800"/>
<path d="M897.406 453.848C902.299 453.179 907.287 454.093 910.156 458.356C911.322 468.623 899.6 471.75 892.165 473.797C897.585 476.533 920.076 485.032 916.813 493.406C913.934 500.797 908.092 499.969 901.687 497.964C894.006 494.967 865.474 481.493 861.873 475.354C855.049 463.721 890.625 455.87 897.406 453.848Z" fill="black"/>
<path d="M726.361 313.382C811.358 266.583 913.031 296.001 960.321 380.155C979.822 414.858 990.647 486.845 990.078 526.82C989.955 553.144 986.187 579.325 978.88 604.615C972.297 627.093 958.007 656.236 939.963 671.902C933.02 677.93 916.777 686.58 908.196 691.32C908.952 669.851 910.157 647.772 910.459 626.387C910.719 607.981 908.501 587.511 908.929 569.004C937.279 545.805 968.415 533.541 971.505 491.746C973.671 462.44 964.05 434.214 945.479 411.692C913.023 372.332 879.437 371.598 833.701 383.289C813.485 361.478 793.765 342.909 761.725 341.143C749.633 340.477 730.155 343.686 718.959 348.449C720.086 338.208 723.787 323.474 726.361 313.382Z" fill="#979696"/>
<path d="M1129.08 307.194C1164.99 299.201 1224.82 309.735 1254.3 331.53C1310.89 373.374 1361.15 450.289 1375.77 519.006C1383.82 556.83 1382.31 587.521 1361.3 620.109C1358.91 623.807 1356.5 627.494 1354.08 631.167C1343.86 605.891 1328.08 576.385 1315.08 552.349C1308.15 539.536 1309.49 534.015 1298.84 521.124C1313.2 491.438 1331.68 464.256 1319.08 429.691C1301.74 382.14 1241.89 346.36 1192.13 363.305C1174.24 369.397 1159.8 381.739 1146.02 394.399C1107.07 379.862 1079.98 376.404 1044.6 402.147C1042.72 399.017 1036.85 367.814 1035.56 361.858C1063.86 331.838 1088.13 317.725 1126.9 307.374L1129.08 307.194Z" fill="#727171"/>
<path d="M604.211 601.884C599.496 593.233 589.899 576.44 587.568 567.065C575.586 518.865 599.144 456.966 625.443 417.486C649.012 382.103 689.907 334.809 726.361 313.382C723.787 323.474 720.086 338.208 718.959 348.449C693.817 355.992 668.51 379.907 657.315 403.411C641.559 436.49 657.786 465.818 669.474 496.928C657.773 507.909 658.125 514.988 650.259 526.663C634.563 549.961 617.372 577.038 604.211 601.884Z" fill="#727171"/>
<path d="M618.35 621.544C622.297 603.617 644.788 568.394 655.847 552.361C652.187 564.912 635.559 612.141 639.657 622.326C640.385 624.135 641.553 625.722 643.378 626.47C650.53 629.401 666.724 620.254 673.678 617.245C679.126 624.641 684.496 635.808 692.292 640.811C696.966 643.811 703.481 637.508 705.054 633.23C712.512 612.953 718.341 591.659 724.598 570.91C730.953 565.897 733.942 562.517 738.577 556.226C752.751 587.555 766.142 619.182 783.173 649.096C792.768 665.948 802.54 676.741 815.939 690.316C794.443 683.221 771.459 672.025 755.536 693.419C747.299 691.146 739.63 689.124 731.615 686.066C731.086 682.544 730.379 676.888 728.647 673.794C719.016 656.587 685.894 651.773 668.08 648.455C663.476 647.598 654.976 648.78 650.744 647.032C638.875 642.131 627.196 630.458 618.35 621.544Z" fill="#D7D6D6"/>
<path d="M546.55 437.261C559.2 435.501 578.811 437.176 591.707 438.586C581.156 458.493 573.913 482.547 568.495 504.403L567.775 509.182L566.089 510.07C548.177 507.421 520.653 455.726 533.455 439.943C535.276 437.699 543.755 437.505 546.55 437.261Z" fill="#727171"/>
<path d="M1381.06 470.603C1394.78 470.149 1425.65 469.919 1437.21 476.252C1450.29 483.418 1429.13 518.304 1423.78 525.539C1415.38 535.48 1410.16 539.757 1398.38 545.084C1397.35 521.594 1389.28 492.463 1381.06 470.603Z" fill="#727171"/>
<path d="M1007.19 561.411C1027.09 570.782 1035.75 576.745 1053.08 590.323L1051.56 604.848C1043.54 616.102 1036.05 621.54 1024.2 627.882C1010.66 634.734 1002.31 635.975 987.541 635.974C998.112 613.104 1003.48 586.221 1007.19 561.411Z" fill="#979696"/>
<path d="M722.313 548.754C714.22 559.561 701.507 563.318 688.76 558.828C682.083 556.519 676.644 551.574 673.711 545.148C670.327 538.047 669.93 529.887 672.61 522.492C678.749 505.699 694.56 500.171 710.744 506.277C726.76 514.725 733.366 533.601 722.313 548.754Z" fill="#D9A739"/>
<path d="M710.744 506.277C726.76 514.725 733.366 533.601 722.313 548.754C715.066 543.085 706.441 514.842 710.744 506.277Z" fill="#FFDC81"/>
<path d="M1264.23 525.468C1279.71 524.343 1293.22 535.899 1294.5 551.374C1295.78 566.848 1284.36 580.468 1268.9 581.905C1258.76 582.848 1248.89 578.273 1243.06 569.922C1237.23 561.572 1236.33 550.733 1240.71 541.538C1245.09 532.342 1254.07 526.206 1264.23 525.468Z" fill="#FFDC81"/>
<path d="M1035.56 361.858C1036.85 367.814 1042.72 399.017 1044.6 402.147C1022.5 420.338 1012.88 435.755 1003.75 462.408C1002.28 451.861 1000.09 441.299 997.847 430.893C1007.43 402.403 1015.84 384.089 1035.56 361.858Z" fill="#5B5A5A"/>
<path d="M1283.84 640.153C1289.86 643.382 1305.86 654.243 1312.62 652.062C1315.05 651.278 1316.48 649.342 1317.45 647.073C1321.73 637.011 1309.87 590.923 1307.53 577.619C1313.69 588.831 1339.45 637.898 1336.86 647.79C1335.1 654.518 1323.57 661.484 1317.89 664.696C1308.32 663.508 1278.93 658.98 1271.46 655.088L1283.84 640.153Z" fill="#FEFEFE"/>
<path d="M1046.89 636.563C1048.66 638.988 1045.39 685.538 1045.33 692.84C1037.7 687.794 1030.2 682.551 1022.84 677.117C1013.63 670.163 1009.06 664.383 1003.35 654.703C1021.29 650.916 1031.45 646.502 1046.89 636.563Z" fill="#5B5A5A"/>
<path d="M669.528 567.643C672.254 569.63 675.71 571.792 678.571 573.688C682.912 575.162 688.125 577.105 692.535 578.012C696.294 578.161 700.285 578.389 704.024 578.326C700.474 589.859 696.777 602.852 692.919 614.171C690.766 610.975 687.398 606.318 685.515 603.139C684.415 602.003 683.216 600.968 681.931 600.047C678.336 597.498 675.554 598.222 671.406 598.897C670.135 599.905 661.222 603.501 659.16 604.374C662.768 592.419 666.132 579.71 669.528 567.643Z" fill="#11A3F1"/>
<path d="M692.535 578.012C696.294 578.161 700.285 578.389 704.024 578.326C700.474 589.859 696.777 602.852 692.919 614.171C690.766 610.975 687.398 606.318 685.515 603.139C687.665 594.712 690.006 586.334 692.535 578.012Z" fill="#E5000F"/>
<path d="M669.528 567.643C672.254 569.63 675.71 571.792 678.571 573.688C676.11 582.07 673.721 590.473 671.406 598.897C670.135 599.905 661.222 603.501 659.16 604.374C662.768 592.419 666.132 579.71 669.528 567.643Z" fill="#E5000F"/>
<path d="M1283.27 596.17C1286.27 594.703 1289.42 593.271 1292.23 591.471C1294.71 603.783 1297.06 616.123 1299.26 628.489C1296.45 627.024 1290.08 623.916 1287.76 622.221C1281.29 620.636 1278.88 620.17 1273.58 625.029L1265.04 635.38C1262.45 623.235 1259.92 611.077 1257.45 598.906L1268.85 599.382C1275.25 598.749 1277.19 598.284 1283.27 596.17Z" fill="#E5000F"/>
<path d="M1257.45 598.906L1268.85 599.382C1270.3 607.411 1271.8 617.204 1273.58 625.029L1265.04 635.38C1262.45 623.235 1259.92 611.077 1257.45 598.906Z" fill="#11A3F1"/>
<path d="M1283.27 596.17C1286.27 594.703 1289.42 593.271 1292.23 591.471C1294.71 603.783 1297.06 616.123 1299.26 628.489C1296.45 627.024 1290.08 623.916 1287.76 622.221C1286.47 613.502 1284.98 604.816 1283.27 596.17Z" fill="#11A3F1"/>
<path d="M820.575 729.006C811.047 730.278 760.668 715.98 771.238 702.139C780.395 697.161 793.843 703.003 804.151 705.282C815.702 709.027 833.488 713.713 820.575 729.006Z" fill="#D9A739"/>
<path d="M820.575 729.006C814.727 724.749 802.706 714.203 802.704 706.548L804.151 705.282C815.702 709.027 833.488 713.713 820.575 729.006Z" fill="#FEB800"/>
<path d="M661.262 666.64C675.666 665.91 700.982 673.743 712.81 681.805C711.505 687.486 711.098 689.46 707.458 693.889C696.64 694.297 682.176 690.202 671.586 687.536C658.039 684.126 653.258 678.992 661.262 666.64Z" fill="#D9A739"/>
<path d="M1268.3 691.55C1278.88 689.397 1300.8 685.191 1294.69 704.708C1284.82 710.353 1246.52 718.602 1238.42 706.934C1239.17 696.128 1259.48 693.739 1268.3 691.55Z" fill="#D9A739"/>
<path d="M1268.3 691.55C1278.88 689.397 1300.8 685.191 1294.69 704.708C1286.35 702.191 1273.28 698.987 1268.3 691.55Z" fill="#FEB800"/>
<path d="M1164.6 712.756C1166.6 712.582 1175.44 711.798 1176.72 713.071C1183.51 719.782 1179.22 726.577 1171.88 729.299C1161.31 733.213 1150.45 735.141 1139.75 737.766C1137.92 738.222 1132.39 739.005 1130.81 737.819C1106.33 719.496 1155.25 714.411 1164.6 712.756Z" fill="#D9A739"/>
<path d="M1009.32 526.309C1010.63 527.345 1014.29 532.148 1015.66 533.876C1021.28 540.975 1028.54 546.685 1034.34 553.454C1025.33 549.453 1018.39 545.188 1008.62 541.511C1008.73 536.559 1009.08 531.285 1009.32 526.309Z" fill="#5B5A5A"/>
</svg>
