<?xml version="1.0" encoding="utf-8" ?><svg xmlns="http://www.w3.org/2000/svg" xmlns:xlink="http://www.w3.org/1999/xlink" width="688" height="688" viewBox="0 0 688 688"><path fill="white" transform="scale(1.72 1.72)" d="M0 0L400 0L400 400L0 400L0 0Z"/><path transform="scale(1.72 1.72)" d="M58.2021 113.064C54.9676 110.18 53.0853 106.566 52.1814 102.355C49.8391 91.4414 55.8437 67.6666 62.0348 58.2556C69.1375 47.4588 79.8202 40.6677 91.7469 36.2415C94.6217 35.1746 97.5527 34.0678 100.565 33.4587C105.283 32.5044 110.908 32.4981 115.643 33.3666C123.071 34.7287 133.288 39.2576 139.657 43.4805C143.66 46.1351 154.524 55.2035 155.24 59.6933C155.417 60.8048 155.062 61.4994 154.421 62.3765L154.525 62.5544C155.368 64.0181 156.694 67.9439 158.157 68.5785C158.679 68.7662 159.288 69.0328 159.676 69.4363C162.415 72.2798 165.046 91.803 165.077 96.2976C165.12 102.608 163.419 108.471 158.967 112.996C159.02 113.051 159.075 113.105 159.127 113.161C165.324 119.808 169.996 130.187 169.682 139.272C169.496 144.67 167.517 148.79 163.618 152.466C163.715 152.631 163.813 152.796 163.903 152.965C165.811 156.545 164.209 166.872 163.11 170.597C160.774 178.522 154.764 186.603 147.424 190.601C146.825 192.299 146.249 194.152 145.132 195.593C141.874 199.792 135.556 201.905 130.492 202.563C125.445 203.219 120.594 202.611 116.473 199.468C111.157 199.629 106.108 199.752 100.792 199.458C99.2189 200.651 97.5476 201.514 95.6489 202.071C89.6782 203.825 82.1085 202.401 76.7565 199.4C73.0627 197.329 71.1705 194.899 70.0012 190.849C64.4903 187.077 59.8803 182.806 56.6653 176.852C53.3923 170.792 52.4925 164.331 52.6237 157.543C52.6477 156.301 52.5414 154.564 52.9686 153.418C53.0026 153.327 53.0533 153.243 53.0944 153.155L53.2504 152.813C53.5846 152.099 50.7859 149.299 50.2285 148.559C48.4492 146.195 47.7906 143.01 47.603 140.111C46.9694 130.323 51.8001 120.268 58.2021 113.064Z"/><path fill="#444955" transform="scale(1.72 1.72)" d="M71.4502 115.606C70.0609 115.019 68.7393 114.453 67.5011 113.574C64.6025 111.518 59.9932 106.572 58.5815 103.31C55.0723 95.2016 60.0707 76.6033 63.3001 68.4725C67.8139 57.108 77.5791 48.4691 88.6786 43.7213C92.9518 41.8935 97.7293 39.9593 102.335 39.2978C116.93 37.2015 134.11 44.3566 144.278 54.7759C145.942 56.4819 150.2 62.5213 151.662 63.0161C152.701 63.3679 153.52 62.8342 154.421 62.3765L154.525 62.5544C155.368 64.0181 156.694 67.9439 158.157 68.5785C157.612 68.6715 157.045 68.7742 156.538 69.0038C155.308 69.561 155.048 70.7372 155.077 71.978C155.129 74.1576 155.938 76.494 156.434 78.6108C158.27 86.4364 160.806 95.4079 158.083 103.265C157.812 104.072 157.419 104.833 156.918 105.521C156.107 106.635 150.584 112.906 149.667 113.603C148.442 114.532 146.798 115.171 145.413 115.844C143.818 114.593 142.238 113.324 140.553 112.194C143.61 103.346 148.465 103.096 151.761 96.0748C154.711 89.7913 155.324 82.4268 152.929 75.8631C150.67 69.6682 146.312 64.9583 140.343 62.2039C132.99 58.8383 124.649 58.3275 116.94 60.7707C113.975 61.6829 111.15 63.0073 108.234 64.0646C105.583 63.042 103.014 61.82 100.306 60.9442C94.1478 58.9525 86.5054 58.5026 80.3212 60.705C72.8817 63.3546 67.6476 67.9717 64.2483 75.1354C60.6876 82.6392 61.9214 92.8897 66.8818 99.4979C71.2773 105.354 73.1274 103.891 76.0703 112.23C74.5129 113.331 72.9727 114.457 71.4502 115.606Z"/><path fill="white" transform="scale(1.72 1.72)" d="M70.8788 74.4216C73.1961 70.4184 76.422 67.6931 80.9399 66.5056C88.4058 64.5433 95.583 64.9465 102.616 68.1841C104.26 68.941 106.319 70.2517 108.116 70.3711C110.263 70.5138 114.503 67.938 116.675 67.1299C123.432 64.6159 134.22 64.455 140.626 68.3048C144.916 70.8824 146.391 74.1395 147.524 78.8359C148.818 84.1985 148.932 89.5603 145.948 94.4311C142.064 100.771 137.659 100.747 135.249 109.696C130.439 107.988 123.359 109.555 118.85 111.67C114.613 113.658 110.737 116.565 108.357 120.659C104.588 115.012 98.7359 111.086 92.0807 109.741C89.1541 109.137 84.9927 108.552 82.1096 109.431C81.9859 109.469 81.8599 109.499 81.7353 109.533L81.5113 109.597C80.6165 107.329 79.8034 104.87 78.3619 102.882C76.7437 100.651 74.5167 98.9734 72.6295 96.9929C69.4837 93.6918 67.8062 88.6314 68.4576 84.0984C68.5176 80.9158 69.6274 77.3146 70.8788 74.4216Z"/><path fill="#D8D7D7" transform="scale(1.72 1.72)" d="M68.4576 84.0984C68.5176 80.9158 69.6274 77.3146 70.8788 74.4216C71.6042 76.7304 71.1633 79.7914 70.0682 81.9486C69.8531 82.3725 69.611 82.7809 69.3644 83.187C69.4981 82.8899 69.8136 82.4021 69.7778 82.089C69.4503 82.6183 69.1821 83.0997 68.971 83.6863L68.4576 84.0984Z"/><path transform="scale(1.72 1.72)" d="M107.669 85.053C109.952 84.8685 112.766 85.8467 114.945 86.5387C117.169 87.2452 119.23 88.4374 120.278 90.6284C121.351 92.8713 121.011 95.4022 120.244 97.6761C119.081 101.125 116.519 104.762 113.159 106.366C112.281 106.785 110.645 107.375 109.695 107.043C109.104 106.836 108.747 106.758 108.12 106.844C106.239 107.101 104.687 107.054 102.967 106.102C99.5563 104.213 97.0589 100.347 96.0867 96.6456C95.5027 94.4221 95.4323 91.9361 96.6992 89.921C98.7849 86.6036 104.111 85.7967 107.669 85.053Z"/><path fill="#F3C651" transform="scale(1.72 1.72)" d="M107.637 91.0465C108.991 90.8921 110.866 91.2934 112.199 91.625C113.109 91.8513 114.127 92.4814 114.583 93.3211C115.109 94.2921 114.919 95.4947 114.538 96.4799C113.498 99.1699 111.371 100.77 108.814 101.869C108.754 101.893 108.697 101.927 108.634 101.94C107.945 102.079 107.078 101.659 106.479 101.336C104.242 100.129 102.267 97.5043 101.58 95.0693C101.427 94.5263 101.317 93.8237 101.635 93.3231C102.533 91.91 106.048 91.4005 107.637 91.0465Z"/><path fill="#F27280" transform="scale(1.72 1.72)" d="M83.9745 81.9637C84.5808 80.2657 85.2216 79.1673 86.9161 78.3143C88.3502 77.5923 90.1564 77.4519 91.6556 78.0543C92.7158 78.4737 93.5604 79.3054 93.9959 80.359C94.5541 81.7264 94.3044 83.221 93.6581 84.5104C93.287 85.2508 92.7101 85.9509 92.124 86.5299C92.1433 86.7884 92.1577 87.0478 92.1403 87.3069C92.0447 88.7329 91.0549 90.5461 89.9521 91.4089C88.1543 92.8155 85.6843 93.1223 83.4775 92.8407C81.0528 92.5313 78.4611 91.6079 76.9807 89.5481C76.2811 88.5747 75.8934 87.4047 76.1265 86.2061C76.3805 84.9001 77.312 83.7072 78.41 82.9885C80.0615 81.9075 82.0672 81.622 83.9745 81.9637Z"/><path transform="scale(1.72 1.72)" d="M83.9745 81.9637C84.5808 80.2657 85.2216 79.1673 86.9161 78.3143C88.3502 77.5923 90.1564 77.4519 91.6556 78.0543C92.7158 78.4737 93.5604 79.3054 93.9959 80.359C94.5541 81.7264 94.3044 83.221 93.6581 84.5104C93.287 85.2508 92.7101 85.9509 92.124 86.5299C91.4105 86.8057 90.6943 87.0854 89.9305 87.1828C88.4817 87.3674 86.796 87.0366 85.6737 86.0578C84.4202 84.9647 84.097 83.5367 83.9745 81.9637Z"/><path fill="#F27280" transform="scale(1.72 1.72)" d="M124.665 86.5756C123.937 85.9527 123.308 85.2078 122.905 84.3325C122.323 83.0691 122.125 81.7297 122.65 80.4092C123.071 79.3351 123.914 78.4802 124.982 78.0434C126.369 77.4742 128.034 77.5612 129.399 78.155C131.123 78.9048 132.003 80.0422 132.63 81.7448C134.762 81.7208 137.339 82.0028 138.976 83.519C139.929 84.4164 140.48 85.661 140.502 86.9702C140.512 88.2809 139.88 89.4708 138.964 90.3769C137.052 92.2691 133.936 93.0196 131.316 92.9312C129.456 92.8685 127.491 92.2917 126.176 90.9124C125.387 90.0851 124.557 88.4891 124.59 87.3175C124.597 87.0685 124.63 86.8217 124.665 86.5756Z"/><path transform="scale(1.72 1.72)" d="M124.665 86.5756C123.937 85.9527 123.308 85.2078 122.905 84.3325C122.323 83.0691 122.125 81.7297 122.65 80.4092C123.071 79.3351 123.914 78.4802 124.982 78.0434C126.369 77.4742 128.034 77.5612 129.399 78.155C131.123 78.9048 132.003 80.0422 132.63 81.7448C132.512 83.5159 132.29 84.907 130.867 86.1535C129.777 87.1076 128.219 87.376 126.816 87.2004C126.064 87.1063 125.369 86.8442 124.665 86.5756Z"/><path fill="#F27280" transform="scale(1.72 1.72)" d="M79.0742 117.609C83.4186 115.317 87.9213 114.439 92.7069 115.907C97.1384 117.267 101.519 120.293 103.684 124.475C104.113 125.303 104.529 126.138 104.945 126.972C106.023 127.565 107.045 128.054 108.212 128.447C110.008 127.9 111.463 127.492 112.421 125.727C113.04 124.586 113.504 123.273 114.265 122.222C116.382 119.296 120.592 116.948 123.987 115.924C128.192 114.614 132.747 115.043 136.634 117.114C139.749 118.795 142.978 121.729 143.984 125.24C144.248 126.163 144.441 127.316 143.957 128.206C141.89 132.012 117.983 135.11 121.144 149.147C121.769 151.923 123.905 154.867 126.313 156.376C127.309 157 128.319 157.391 129.5 157.165C129.046 158.278 110.969 171.976 108.384 174.157L99.2804 166.829C96.2847 164.82 93.4895 162.424 90.6464 160.202C88.6509 158.643 86.5608 157.227 84.5481 155.693C85.562 156.219 86.7772 157.011 87.9225 157.16C89.7731 157.4 91.0765 156.22 92.4589 155.191C93.444 154.085 94.4187 152.942 95.1353 151.638C96.4867 149.178 96.6835 146.481 95.8608 143.809C94.032 137.869 87.1327 135.222 82.07 132.6C79.6342 131.412 74.2737 130.305 72.7475 128.182C72.267 127.513 72.1742 126.674 72.3374 125.883C73.0547 122.408 76.3257 119.533 79.0742 117.609Z"/><path fill="#CA5E6A" transform="scale(1.72 1.72)" d="M79.0742 117.609C79.7198 119.012 82.0295 130.908 82.07 132.6C79.6342 131.412 74.2737 130.305 72.7475 128.182C72.267 127.513 72.1742 126.674 72.3374 125.883C73.0547 122.408 76.3257 119.533 79.0742 117.609Z"/><path fill="#CA5E6A" transform="scale(1.72 1.72)" d="M84.5481 155.693C85.562 156.219 86.7772 157.011 87.9225 157.16C89.7731 157.4 91.0765 156.22 92.4589 155.191C93.8648 157.709 95.526 160.102 97.1674 162.471C97.8615 163.473 98.8642 164.6 99.3896 165.686C99.545 166.008 99.4863 166.233 99.3824 166.559C99.3532 166.651 99.3144 166.739 99.2804 166.829C96.2847 164.82 93.4895 162.424 90.6464 160.202C88.6509 158.643 86.5608 157.227 84.5481 155.693Z"/><path fill="#FE9EA9" transform="scale(1.72 1.72)" d="M128.502 119.579C129.988 119.386 131.691 119.48 133.164 119.748C135.057 120.093 137.182 121.032 138.261 122.69C138.752 123.445 139.047 124.427 138.777 125.317C138.612 125.862 138.215 126.291 137.713 126.547C136.206 127.315 134.764 126.65 133.314 126.118C130.08 124.771 126.989 126.833 123.868 125.662C123.074 125.363 122.748 125.008 122.386 124.274C122.444 123.506 122.625 123.017 123.088 122.393C124.488 120.507 126.3 119.93 128.502 119.579Z"/><path fill="#FE9EA9" transform="scale(1.72 1.72)" d="M117.504 124.55C119.023 124.082 120.632 124.943 121.087 126.466C121.541 127.989 120.667 129.59 119.14 130.031C117.632 130.467 116.055 129.605 115.606 128.101C115.157 126.597 116.004 125.013 117.504 124.55Z"/><path fill="#444955" transform="scale(1.72 1.72)" d="M154.659 116.493C155.772 116.778 157.198 119.123 157.86 120.068C161.95 125.905 165.526 134.259 164.17 141.509C163.586 144.629 161.923 147.221 159.294 149.007C152.177 153.842 141.886 152.792 133.876 151.21C132.49 150.897 131.064 150.622 129.7 150.222C128.638 149.91 127.595 149.442 127.07 148.404C126.451 147.181 126.97 145.701 127.37 144.493C132.727 139.631 138.459 136.273 145.31 133.928C147.571 133.154 149.982 132.663 152.159 131.67C152.881 131.341 153.387 130.987 153.632 130.194C154.591 127.095 151.808 127.928 150.822 126.397C150.235 125.485 149.551 121.793 148.582 119.931C150.76 119.069 152.705 117.763 154.659 116.493Z"/><path fill="#444955" transform="scale(1.72 1.72)" d="M80.156 151.853C78.9857 152.045 77.8103 152.206 76.6311 152.334C70.4503 152.958 62.0277 152.516 57.0243 148.329C54.4457 146.171 53.1451 143.245 52.8775 139.926C52.1826 131.309 56.8601 122.664 62.2892 116.299C64.0534 117.64 66.0648 118.747 68.0723 119.672C66.9961 121.886 66.3566 124.22 65.7689 126.598C64.9838 127.09 64.1361 127.581 63.7113 128.443C63.465 128.943 63.3575 129.475 63.5444 130.012C64.3708 132.386 72.6226 133.993 75.0374 135.171L75.3008 135.301C81.5366 137.975 84.7692 139.794 89.8328 144.465C90.228 145.673 90.7616 147.132 90.1074 148.345C89.441 149.58 88.1113 150.152 86.8169 150.492C84.7055 151.045 82.3214 151.554 80.156 151.853Z"/><path fill="#444955" transform="scale(1.72 1.72)" d="M75.3008 135.301C81.5366 137.975 84.7692 139.794 89.8328 144.465C90.228 145.673 90.7616 147.132 90.1074 148.345C89.441 149.58 88.1113 150.152 86.8169 150.492C84.7055 151.045 82.3214 151.554 80.156 151.853C79.9818 148.123 74.0807 138.993 75.3008 135.301Z"/><path fill="#D8D7D7" transform="scale(1.72 1.72)" d="M80.2105 159.193C86.61 164.914 93.777 170.066 100.535 175.375C101.574 176.191 104.696 178.196 105.281 179.1L104.687 179.466C104.724 180.486 105.349 181.052 106.073 181.724C109.352 184.77 113.303 187.058 116.943 189.606C115.912 190.906 115.28 192.245 114.729 193.8C110.606 193.496 106.628 193.534 102.502 193.787C101.941 191.938 100.994 190.413 99.6498 189.031C95.1334 184.386 87.6996 182.808 81.4644 182.746C81.2085 180.169 80.8736 176.962 79.8681 174.576C79.3963 173.457 78.8983 173.103 77.8011 172.624L77.3803 172.166C77.1415 170.754 76.6445 168.748 77.0857 167.365L77.7914 167.087C78.4282 166.873 78.9341 166.81 79.241 166.133C80.0975 164.244 79.9013 161.261 80.2105 159.193Z"/><path fill="white" transform="scale(1.72 1.72)" d="M136.627 159.189C137.279 168.073 136.983 174.003 135.468 182.749C128.601 182.888 121.945 184.715 116.943 189.606C113.303 187.058 109.352 184.77 106.073 181.724C105.349 181.052 104.724 180.486 104.687 179.466L105.281 179.1C106.775 179.686 108.969 179.942 110.492 179.352C113.386 178.23 132.545 162.396 136.627 159.189Z"/><path fill="#444955" transform="scale(1.72 1.72)" d="M72.4709 185.693C70.6395 184.477 68.9381 183.076 67.3936 181.512C59.5372 173.658 58.3139 165.928 58.2611 155.32C63.2224 157.161 69.2089 158.214 74.5205 157.831C74.1038 160.082 73.8054 162.326 73.7306 164.616C73.8521 164.754 73.9733 164.892 74.0991 165.026C75.2832 166.29 75.9619 167.026 77.7914 167.087L77.0857 167.365C76.6445 168.748 77.1415 170.754 77.3803 172.166L77.8011 172.624C77.2698 172.666 76.6748 172.686 76.182 172.906C75.4579 173.229 74.9352 173.934 74.6843 174.669C73.8932 176.984 74.6251 181.618 75.6166 183.836L72.4709 185.693Z"/><path fill="#444955" transform="scale(1.72 1.72)" d="M158.385 155.526L158.52 155.534L158.781 155.858C158.795 159.76 158.808 163.625 157.907 167.452C156.275 174.389 150.987 182.028 144.823 185.801L142.405 184.301C142.212 184.217 141.821 184.083 141.65 183.936C140.883 183.279 141.639 180.748 141.807 179.866C143.23 172.58 143.332 165.098 142.108 157.776C147.69 158.135 153.085 157.19 158.385 155.526Z"/><path fill="#CCA745" transform="scale(1.72 1.72)" d="M81.72 188.579C86.5433 188.548 91.4476 190.083 95.5937 192.475C94.9481 193.984 94.0848 195.372 93.2473 196.779C92.293 196.895 91.3127 196.913 90.3523 196.971C87.3776 196.859 84.1104 196.521 81.2753 195.604C78.6437 194.753 77.5847 193.406 76.3582 190.989C78.1198 189.68 79.5618 188.942 81.72 188.579Z"/><path fill="#F3C651" transform="scale(1.72 1.72)" d="M122.03 192.755C123.805 190.374 129.001 189.303 131.764 188.881C133.5 188.616 136.641 188.176 138.149 189.288C138.83 189.79 139.405 190.586 139.928 191.249L140.072 190.285C140.563 190.442 140.494 190.499 140.751 190.914C140.239 192.492 137.751 194.202 136.296 194.938C133.847 196.176 131.149 196.6 128.45 196.889C128.403 196.897 128.357 196.909 128.31 196.915C126.755 197.1 124.577 197.349 123.293 196.269C122.168 195.324 122.147 194.108 122.03 192.755Z"/><path fill="#CCA745" transform="scale(1.72 1.72)" d="M122.03 192.755C123.74 193.724 127.028 195.043 128.04 196.704L128.45 196.889C128.403 196.897 128.357 196.909 128.31 196.915C126.755 197.1 124.577 197.349 123.293 196.269C122.168 195.324 122.147 194.108 122.03 192.755Z"/></svg>