<?xml version="1.0" encoding="utf-8" ?><svg xmlns="http://www.w3.org/2000/svg" xmlns:xlink="http://www.w3.org/1999/xlink" width="400" height="400" viewBox="0 0 400 400"><path fill="white" d="M0 0L400 0L400 400L0 400L0 0Z"/><path d="M71.9479 88.0177C71.2847 87.7983 70.1437 87.5155 69.8903 86.7853C68.7365 83.4599 69.5804 79.1534 69.5366 75.642C69.4165 66.0212 69.6615 58.0152 73.3844 48.8489C89.1843 9.9468 153.657 8.76852 172.867 45.2852C175.222 49.7681 176.899 57.2393 177.886 62.2335C179.456 78.8627 176.382 97.4322 179.996 113.764C186.371 117.229 191.824 122.209 193.605 129.471C195.356 136.617 197.272 150.035 193.659 156.671C192.167 159.412 189.893 160.549 187.14 161.538C191.704 184.243 193.114 191.948 179.015 212.886C177.579 215.018 174.011 219.923 172.32 221.654C179.758 225.27 181.746 232.492 180.248 240.285C177.967 242.966 176.71 243.043 173.318 243.315C171.112 243.491 168.877 243.668 166.663 243.649C162.684 243.614 143.411 242.668 141.196 240.61C140.721 240.168 140.351 239.559 139.993 239.021C131.995 240.812 123.788 240.995 115.659 240.272C113.313 240.064 110.498 239.098 108.212 239.259C106.935 239.349 105.486 241.508 103.855 241.845C98.6684 242.917 73.2502 244.815 69.4524 242.298C68.0384 241.36 67.3517 239.856 67.0814 238.23C66.4613 234.499 67.7108 228.783 70.0176 225.744C71.3627 223.971 73.4106 222.574 75.3786 221.587C69.9563 216.049 62.6401 203.649 59.6217 196.567C55.6484 187.246 57.9797 171.041 60.7043 161.41C49.0651 158.677 52.0163 142.823 53.081 134.046C54.2398 124.492 59.3836 118.236 67.7752 113.764C68.5657 108.675 68.9585 103.793 69.3036 98.6641C69.4175 96.9709 70.1682 96.7098 71.556 95.8956C71.1684 92.9577 72.2043 90.2413 71.9479 88.0177Z"/><path fill="#474D59" d="M75.377 85.4557C75.1858 78.1935 75.7716 70.1947 75.5865 62.8554C75.7601 60.7342 76.728 58.5397 77.1949 56.5494C81.3595 38.7958 97.073 28.313 114.244 25.6424C122.871 24.3006 124.521 24.076 133.312 25.6285C144.038 27.5231 152.266 30.8011 160.276 38.4693C166.513 44.3556 168.114 49.09 170.613 56.8468C172.697 63.3184 171.882 64.2767 172.075 70.4875C172.511 84.5096 171.378 98.1821 173.569 112.129C169.029 110.806 164.423 110.282 159.739 109.779C157.649 109.555 154.494 109.344 152.493 108.904C152.354 100.732 156.539 97.4651 159.792 90.7887C165.029 80.0395 168.595 65.1768 158.431 56.0026C146.343 45.0919 135.65 50.2132 123.73 56.6647C117.019 52.4614 108.163 48.024 100.165 50.1773C77.9823 56.1494 80.1356 78.8177 90.0243 94.54C92.9591 99.2062 95.3927 103.337 95.2228 108.994C87.3411 110.038 82.3595 110.306 74.1859 111.928C74.5556 108.896 75.0323 105.746 75.2325 102.709C75.4395 99.5688 75.4007 96.1039 71.556 95.8956C71.1684 92.9577 72.2043 90.2413 71.9479 88.0177C73.3749 87.09 74.0779 86.5611 75.377 85.4557Z"/><path fill="white" d="M161.581 158.652C162.051 159.712 162.523 163.483 162.707 164.688C163.958 172.869 164.28 180.687 162.808 188.901C161.267 197.156 158.998 205.768 154.894 213.149C153.785 215.143 150.757 218.361 149.473 220.409C149.397 220.53 146.438 222.579 146.06 222.835C142.197 225.455 140.919 228.415 140.19 232.929C129.472 234.91 118.377 234.773 107.641 232.992C106.427 226.446 103.821 223.473 97.9343 220.589C97.1493 217.933 94.6945 215.967 93.1155 213.526C91.5722 211.141 90.9314 209.632 89.8924 207.063C85.309 194.708 82.7485 182.157 84.4813 169.007C84.8248 166.4 85.2153 163.684 85.3587 161.073C98.3823 185.756 129.223 192.491 150.942 173.798C155.214 170.122 159.646 164.077 161.581 158.652Z"/><path fill="white" d="M103.055 55.8281C112.03 55.1005 116.5 60.7525 123.856 62.9321C130.372 61.1483 136.49 54.9478 143.692 55.7546C161.605 57.761 161.431 75.382 154.372 87.9981C150.358 95.1721 146.746 99.8006 146.398 107.899L146.167 107.995C142.064 103.683 130.711 101.036 124.71 100.682C129.184 98.933 131.095 96.065 132.867 91.7645C133.96 87.6229 134.359 84.5765 133.34 80.3333C131.294 71.8182 119.01 70.6836 115.147 78.3062C113.163 82.3756 113.553 87.5004 114.851 91.7068C116.202 96.0861 118.737 98.6544 122.692 100.681C114.378 100.659 108.345 102.398 101.314 106.859C101.007 99.8656 96.4475 93.6962 93.1706 87.6907C86.6487 75.7386 85.9033 58.4271 103.055 55.8281Z"/><path d="M96.7767 71.6241C96.5514 69.4357 96.8167 67.5567 98.272 65.8573C102.51 60.909 111.762 63.6019 111.947 70.4192C112.002 72.4435 110.839 73.3389 109.198 74.0659C108.518 73.8601 107.765 73.497 107.102 73.2079C106.875 73.7991 106.579 74.6535 106.301 75.1992L105.389 74.3621C104.739 75.8587 104.025 78.2209 102.644 78.8139C101.732 78.5665 102.033 78.6705 101.326 77.7592C101.212 77.2063 100.936 76.918 100.604 76.4597C101.177 75.1298 101.826 74.1529 101.716 72.7555C100.796 73.2868 100.105 73.474 99.0269 73.5256L98.7582 73.4302C97.6275 72.8976 97.5121 72.6704 96.7767 71.6241Z"/><path fill="#FEE0F1" d="M101.716 72.7555C102.107 71.6908 102.842 68.7347 104.555 69.5495C106.084 70.2763 106.256 72.0023 107.102 73.2079C106.875 73.7991 106.579 74.6535 106.301 75.1992L105.389 74.3621C104.739 75.8587 104.025 78.2209 102.644 78.8139C101.732 78.5665 102.033 78.6705 101.326 77.7592C101.212 77.2063 100.936 76.918 100.604 76.4597C101.177 75.1298 101.826 74.1529 101.716 72.7555Z"/><path fill="#FFA0B4" d="M101.326 77.7592C101.728 76.0963 103.125 72.0258 105.141 71.9437L105.676 72.5984C105.683 73.3557 105.58 73.6177 105.389 74.3621C104.739 75.8587 104.025 78.2209 102.644 78.8139C101.732 78.5665 102.033 78.6705 101.326 77.7592Z"/><path d="M138.161 73.8994C136.295 73.1364 135.631 71.8027 135.841 69.8383C136.827 60.6076 152.331 61.3668 150.958 71.4184C150.462 72.1669 150.308 72.7017 149.599 72.9566L148.554 73.5544C147.503 73.4652 146.926 73.1895 145.945 72.8271C145.984 74.0823 146.038 74.2257 146.628 75.3375L145.926 76.1599C145.994 77.237 146.322 78.3342 145.208 78.7855C143.614 78.1099 142.45 74.7562 141.831 73.1524L140.69 73.0502C139.716 73.8846 139.376 73.7434 138.161 73.8994Z"/><path fill="#FFA0B4" d="M145.47 71.4699C145.629 71.9081 145.816 72.3839 145.945 72.8271C145.984 74.0823 146.038 74.2257 146.628 75.3375L145.926 76.1599C145.994 77.237 146.322 78.3342 145.208 78.7855C143.614 78.1099 142.45 74.7562 141.831 73.1524C141.809 72.1926 141.664 72.5909 142.159 71.8806C142.992 71.7275 143.445 72.0939 144.226 72.4987C144.905 72.091 144.98 72.0715 145.47 71.4699Z"/><path fill="#FEE0F1" d="M145.47 71.4699C145.629 71.9081 145.816 72.3839 145.945 72.8271C145.984 74.0823 146.038 74.2257 146.628 75.3375L145.926 76.1599C145.426 74.6206 145.081 73.8457 144.226 72.4987C144.905 72.091 144.98 72.0715 145.47 71.4699Z"/><path fill="#FBEAF2" d="M140.69 73.0502C141.502 71.5839 142.276 68.9256 144.19 69.3827C145.031 70.0489 145.086 70.4645 145.47 71.4699C144.98 72.0715 144.905 72.091 144.226 72.4987C143.445 72.0939 142.992 71.7275 142.159 71.8806C141.664 72.5909 141.809 72.1926 141.831 73.1524L140.69 73.0502Z"/><path fill="#FFA0B4" d="M99.0269 73.5256C100.105 73.474 100.796 73.2868 101.716 72.7555C101.826 74.1529 101.177 75.1298 100.604 76.4597C100.075 77.7737 99.9392 78.5345 98.7419 79.2115C97.7005 79.1084 97.9749 79.2879 97.3204 78.6902C96.9521 76.6412 98.713 75.4743 99.0269 73.5256Z"/><path fill="#FFA0B4" d="M145.945 72.8271C146.926 73.1895 147.503 73.4652 148.554 73.5544C149.568 75.6394 150.321 76.5955 150.046 78.9147L149.683 79.405C148.027 79.1862 147.14 76.7017 146.628 75.3375C146.038 74.2257 145.984 74.0823 145.945 72.8271Z"/><path fill="#FFA0B4" d="M96.7767 71.6241C97.5121 72.6704 97.6275 72.8976 98.7582 73.4302C96.7479 74.527 97.1601 76.733 94.9271 76.5437C93.9189 75.214 95.4937 72.4758 96.7767 71.6241Z"/><path fill="#FFA0B4" d="M149.599 72.9566C150.308 72.7017 150.462 72.1669 150.958 71.4184C152.328 72.4389 153.681 74.4537 152.504 76.0827C150.734 76.487 150.078 74.3206 149.599 72.9566Z"/><path fill="#FFA0B4" d="M140.69 73.0502C141.231 74.8212 142.666 76.6835 140.852 77.8975C138.901 77.8642 138.994 74.4043 138.161 73.8994C139.376 73.7434 139.716 73.8846 140.69 73.0502Z"/><path fill="#FFA0B4" d="M107.102 73.2079C107.765 73.497 108.518 73.8601 109.198 74.0659C109.022 75.6047 108.472 77.2229 106.878 77.78C105.772 77.322 106.095 76.2268 106.301 75.1992C106.579 74.6535 106.875 73.7991 107.102 73.2079Z"/><path fill="#474D59" d="M144.083 115.065C146.48 114.902 150.782 115.01 153.248 115.24C162.903 116.143 177.547 116.953 184.431 124.693C189.679 131.368 189.749 141.989 189.469 150.145C189.113 160.538 178.885 150.371 177.877 157.269C177.699 158.49 179.887 160.273 180.755 161.099C186.929 184.134 185.342 194.629 170.81 213.873C169.114 215.934 168.024 217.686 166.585 219.933C163.83 218.41 161.63 218.238 158.51 218.491C166.654 207.875 170.491 185.454 169.632 172.189C169.477 169.794 167.151 155.492 167.365 155.006C171.679 154.683 172.925 151.268 169.448 149.146C157.943 142.124 143.159 135.372 139.498 121.011C138.619 117.564 140.811 115.568 144.083 115.065Z"/><path fill="#474D59" d="M96.5665 115.106C99.0742 114.849 102.785 114.81 105.251 115.436C109.232 116.447 108.501 121.301 107.204 124.275C102.367 135.371 90.9952 141.9 80.8886 147.508C76.806 149.773 72.5851 152.036 68.3111 153.879C63.2521 156.16 58.3327 156.745 58.2114 149.472C58.0885 142.103 58.2108 130.107 63.4592 124.458C70.5928 116.78 86.6414 115.759 96.5665 115.106Z"/><path fill="#65CAFE" d="M114.348 119.338C120.455 121.343 126.486 126.506 133.246 122.305L133.522 122.494C131.966 129.815 132.165 130.03 138.88 133.543C139.097 133.657 140.078 135.001 140.292 135.298C134.73 140.365 125.948 139.911 121.766 146.977C121.036 148.21 120.734 149.886 121.263 151.159C124.423 158.76 132.495 154.195 137.956 156.017C138.56 156.219 138.518 156.439 138.654 156.885C136.863 161.389 120.326 153.661 116.816 167.967C117.321 174.289 122.718 174.255 126.459 178.045L126.707 178.299C118.971 178.669 115.023 178.051 107.875 175.119C107.499 169.278 108.189 160.86 102.455 157.471C100.337 156.219 98.5856 155.917 96.786 154.087C103.906 149.416 112.292 147.695 117.772 140.32C122.637 133.774 119.957 128.253 113.883 123.958C114.122 122.305 114.238 121.007 114.348 119.338Z"/><path fill="#474D59" d="M80.5115 154.605L80.6888 154.868L80.5087 155.642C77.0118 171.349 76.741 185.266 81.4534 200.737C82.6795 204.763 84.1478 209.337 85.8747 213.207C86.2464 214.04 88.4527 217.385 89.0411 218.308L88.9514 218.551C86.4889 217.896 83.2514 218.573 81.1587 220.032C80.4161 218.907 79.693 217.762 78.967 216.625C73.0198 208.744 65.2408 197.732 63.7054 187.676C62.5558 180.147 65.0811 168.438 66.9691 160.989C72.2568 158.809 75.4748 157.27 80.5115 154.605Z"/><path fill="#B4EB46" d="M144.295 139.687C145.046 140.16 145.678 140.797 146.35 141.374C150.007 144.518 154.088 147.084 158.194 149.593C154.785 164.232 146.351 172.266 132.579 177.252C130.998 173.627 129.553 172.195 126.123 170.313C124.672 169.531 124.085 169.133 122.759 168.143C127.726 162.31 132.063 165.704 138.536 164.251C142.626 163.333 145.77 159.477 144.352 155.008C141.463 145.899 131.061 151.123 127.602 149.449C127.698 147.282 137.382 144.43 139.392 143.25C141.756 141.861 142.239 141.648 144.295 139.687Z"/><path fill="#F3C652" d="M157.89 224.538C162.327 224.067 168.217 225.713 171.826 228.392C174.373 230.282 174.421 233.959 174.688 236.936C170.365 237.546 167.544 237.846 163.189 237.453C158.171 237.058 150.782 236.73 146.017 236C146.43 227.456 150.463 226.405 157.89 224.538Z"/><path fill="#F3C652" d="M85.6999 224.567C89.8508 224.107 95.2004 225.242 98.5092 227.963C101.133 230.12 101.512 232.845 101.761 236.066C97.9865 236.548 92.7375 236.835 88.9394 237.046C82.1728 237.824 79.6632 237.852 73.0443 236.894C73.2574 234.414 73.2902 232.037 74.6675 229.864C76.6967 226.664 82.1587 225.319 85.6999 224.567Z"/><path fill="#B4EB46" d="M111.397 129.634C120.735 136.362 101.93 144.747 97.2825 146.808C94.1857 148.181 90.7098 150.838 91.0354 154.646C91.5317 160.449 97.2781 160.7 100.546 163.702C101.357 166.298 101.451 168.688 101.694 171.385C100.07 170.587 97.2237 167.585 96.0121 166.239C91.9435 161.722 89.6059 156.436 88.0382 150.634C89.329 149.562 93.7561 146.859 95.3629 145.805C102.74 140.963 106.622 136.974 111.397 129.634Z"/><path fill="white" d="M121.351 106.831C124.342 106.523 128.294 107.089 131.256 107.672L132.13 109.545C133.127 110.314 133.811 110.701 134.895 111.331C133.199 113.566 131.479 116.134 129.167 117.698C123.819 117.99 120.538 114.915 115.248 113.268C116.281 110.417 116.713 109.692 118.656 107.358C119.521 107.102 120.456 106.979 121.351 106.831Z"/><path fill="#F3C652" d="M123.365 79.2865C126.554 79.2835 127.867 81.0752 127.911 84.1368C127.97 88.2531 127.036 91.4525 124.121 94.3452C122.256 94.0213 120.581 90.5166 120.292 88.7617C119.714 85.2589 118.88 80.2675 123.365 79.2865Z"/></svg>