<svg width="400" height="400" viewBox="0 0 400 400" fill="none" xmlns="http://www.w3.org/2000/svg">
<path d="M208.767 72.1096C211.044 72.0799 215.539 72.5127 217.857 72.7395C232.999 74.2217 248.644 77.7319 261.898 85.4652C267.368 88.6565 274.861 93.4071 279.44 97.8041C296.259 113.956 311.025 137.643 317.88 159.793C320.114 167.143 322.068 174.575 323.736 182.074C324.488 185.498 325.198 190.577 326.092 193.694L326.178 193.986C329.673 196.131 336.63 202.58 339.616 205.503C343.459 209.216 346.887 213.335 349.84 217.787C358.888 231.542 367.361 253.906 368.187 270.672C368.343 275.368 366.856 280.426 363.348 283.703C350.167 296.019 331.306 288.295 320.362 277.331C313.315 288.23 303.955 297.444 292.946 304.319C287.925 307.426 273.504 314.964 267.74 313.433C266.934 313.74 267.407 319.452 267.176 320.886C265.087 333.941 245.835 331.881 236.17 331.34C227.401 330.85 222.318 328.994 220.234 320.105C217.257 319.83 213.248 319.784 210.187 319.658C207.11 319.539 201.7 319.946 198.511 320.102C197.835 323.576 195.421 328.549 191.663 329.556C181.546 332.27 151.98 335.886 151.418 319.635C151.356 317.841 151.759 315.427 151.012 313.682C148.281 313.831 147.128 313.482 144.516 312.784C127.112 308.129 107.533 292.871 98.517 277.39L97.7636 278.03C89.5763 284.935 80.5779 290.938 69.3779 289.873C56.9599 288.691 48.9688 280.324 50.7039 267.645C53.444 247.621 61.3049 226.818 73.9529 210.946C79.0199 204.587 86.4303 198.794 92.6322 193.684C93.2183 191.601 93.8497 187.711 94.2963 185.473C95.1131 181.352 96.0514 177.256 97.1101 173.19C104.001 146.324 113.722 126.433 131.941 105.386C152.842 81.2418 178.302 74.4854 208.767 72.1096Z" fill="black"/>
<path d="M140.48 142.444C149.218 134.88 162.983 128.305 174.715 128.935C183.956 129.431 192.373 134.906 200.462 138.759C207.015 141.88 211.126 142.533 217.63 139.078C233.671 130.556 245.437 124.454 263.469 133.195C271.454 137.066 278.728 141.587 284.757 148.604C291.495 156.323 292.726 167.452 291.657 177.256C290.807 185.056 290.323 189.345 286.865 196.694C282.795 205.346 272.649 213.603 272.53 223.27C272.402 233.667 281.127 246.825 284.259 256.861C285.451 260.679 286.119 265.362 286.836 269.306C288.491 278.399 290.278 287.041 290.32 296.334C283.911 300.732 277.576 303.896 269.991 305.653C268.793 305.93 267.599 306.124 266.795 307.029C266.369 307.509 266.071 307.741 265.479 307.822L265.364 307.633C263.434 304.5 260.558 302.474 257.003 301.756C250.431 300.43 234.531 299.699 228.451 301.432C222.721 303.634 221.263 306.244 219.907 312.038C212.89 311.629 205.855 311.625 198.837 312.027C196.675 301.692 189.764 300.054 180.183 300.447C170.988 300.825 158.792 299.135 153.237 307.804C150.004 305.275 145.226 305.059 141.077 303.294C136.12 301.186 133.024 299.497 128.503 296.579C128.381 291.697 128.944 287.542 129.608 282.757C130.172 278.698 132.997 269.473 129.514 266.562C129.665 266.258 129.701 266.134 129.775 265.806C130.396 263.035 131.705 260.087 132.74 257.443C133.609 256.035 135.543 254.141 136.142 252.556C139.368 244.027 146.409 232.436 146.263 223.377C146.107 213.729 136.588 205.871 132.365 197.581C127.35 187.735 126.597 177.172 126.935 166.31C127.014 164.022 127.869 161.544 128.411 159.408C130.367 151.703 134.466 147.376 140.48 142.444Z" fill="#FEFEFE"/>
<path d="M140.48 142.444C140.935 143.479 141.79 152.023 142.239 154.385C144.847 168.714 148.909 182.739 154.362 196.244C155.047 197.914 156.508 201.715 157.576 203.003L158.205 205.124C159.319 208.224 165.389 218.205 167.47 221.589C178.82 240.024 191.264 257.764 204.734 274.712C207.937 278.747 224.779 299.553 228.451 301.432C222.721 303.634 221.263 306.244 219.907 312.038C212.89 311.629 205.855 311.625 198.837 312.027C196.675 301.692 189.764 300.054 180.183 300.447C170.988 300.825 158.792 299.135 153.237 307.804C150.004 305.275 145.226 305.059 141.077 303.294C136.12 301.186 133.024 299.497 128.503 296.579C128.381 291.697 128.944 287.542 129.608 282.757C130.172 278.698 132.997 269.473 129.514 266.562C129.665 266.258 129.701 266.134 129.775 265.806C130.396 263.035 131.705 260.087 132.74 257.443C133.609 256.035 135.543 254.141 136.142 252.556C139.368 244.027 146.409 232.436 146.263 223.377C146.107 213.729 136.588 205.871 132.365 197.581C127.35 187.735 126.597 177.172 126.935 166.31C127.014 164.022 127.869 161.544 128.411 159.408C130.367 151.703 134.466 147.376 140.48 142.444Z" fill="#D1D1D0"/>
<path d="M157.146 169.916C154.867 158.63 167.812 148.403 177.442 154.589C185.767 159.936 180.211 172.153 171.843 175.782C165.143 177.108 160.215 176.93 157.146 169.916Z" fill="black"/>
<path d="M164.757 162.377C166.76 162 168.69 163.316 169.069 165.319C169.449 167.321 168.135 169.252 166.134 169.635C164.128 170.018 162.192 168.701 161.812 166.695C161.431 164.689 162.751 162.755 164.757 162.377Z" fill="#FEFEFE"/>
<path d="M174.242 159.064C175.721 158.839 177.107 159.845 177.352 161.322C177.596 162.798 176.609 164.197 175.136 164.462C174.165 164.637 173.175 164.275 172.546 163.516C171.916 162.757 171.743 161.717 172.095 160.795C172.446 159.873 173.266 159.211 174.242 159.064Z" fill="#FEFEFE"/>
<path d="M157.146 169.916C160.215 176.93 165.143 177.108 171.843 175.782C171.183 176.381 169.995 177.451 169.178 177.602C164.518 178.465 160.466 176.753 160.189 183.589C160.036 187.369 160.678 201.633 159.305 204.426C158.799 204.837 158.793 204.859 158.205 205.124L157.576 203.003C156.967 197.299 158.404 188.382 158.253 182.213C158.141 177.618 156.714 174.047 157.146 169.916Z" fill="#68CCFE"/>
<path d="M205.828 166.097C243.748 162.92 235.201 203.991 213.085 209.921C206.918 210.512 203.069 210.126 197.893 206.045C188.146 198.359 182.528 183.513 190.686 172.684C194.114 168.135 200.293 166.67 205.828 166.097Z" fill="black"/>
<path d="M206.647 174.108C218.018 173.729 227.685 175.814 222.668 191.1C221.392 194.986 216.194 200.379 212.292 201.944C208.17 202.357 205.932 202.457 202.612 199.644C198.612 196.112 195.195 191.48 194.804 185.987C194.193 177.406 198.912 174.601 206.647 174.108Z" fill="#FEC043"/>
<path d="M243.1 173.569C241.965 172.738 240.084 170.641 239.422 169.415C230.475 152.844 252.387 146.568 260.201 160.563C262.208 164.158 262.423 166.907 261.344 170.848C261.27 174.859 258.721 176.852 257.976 180.458C257.073 184.821 257.82 190.105 255.82 194.295L255.447 194.516C252.544 192.294 256.037 181.266 250.804 179.187C248.256 178.174 244.236 176.17 243.1 173.569Z" fill="black"/>
<path d="M261.344 170.848C261.27 174.859 258.721 176.852 257.976 180.458C257.073 184.821 257.82 190.105 255.82 194.295L255.447 194.516C252.544 192.294 256.037 181.266 250.804 179.187C248.256 178.174 244.236 176.17 243.1 173.569C250.522 177.563 256.083 178.551 261.344 170.848Z" fill="#68CCFE"/>
<path d="M245.711 163.358C247.024 163.058 248.396 163.497 249.292 164.503C250.188 165.509 250.465 166.922 250.015 168.192C249.565 169.462 248.46 170.386 247.131 170.603C245.162 170.926 243.293 169.627 242.91 167.669C242.526 165.711 243.766 163.803 245.711 163.358Z" fill="#FEFEFE"/>
<path d="M251.962 159.632C253.344 159.148 254.856 159.884 255.327 161.27C255.799 162.657 255.049 164.161 253.659 164.621C252.285 165.074 250.804 164.336 250.338 162.967C249.872 161.598 250.597 160.109 251.962 159.632Z" fill="#FEFEFE"/>
<path d="M146.637 102C184.503 70.1541 250.792 73.3403 282.476 112.598C290.347 122.351 299.064 134.523 304.043 146.001C318.019 178.221 323.079 214.364 320.484 249.296C319.261 265.771 312.425 278.534 299.828 289.21C299.325 289.638 299.057 289.835 298.486 290.188L298.39 289.885C297.873 288.209 297.744 286.645 297.475 284.909C295.944 275.039 294.355 264.989 292.122 255.262C291.479 252.465 289.534 248.598 288.345 245.889L284.015 235.813C281.415 229.81 278.562 224.175 282.234 217.965C285.158 213.021 288.988 208.83 291.909 203.909C294.115 200.258 295.858 196.346 297.096 192.264C299.344 184.827 299.919 175.55 299.912 167.802C299.906 161.495 297.452 153.04 293.942 147.653C288.916 139.941 280.202 133.165 272.242 128.615C259.772 122.26 248.419 118.472 234.527 122.665C225.086 125.514 218.148 130.933 209.387 133.745C202.993 131.563 198.488 128.77 192.424 125.838C176.947 118.353 164.264 119.873 149.106 127.301C146.429 128.627 143.835 130.116 141.338 131.757C138.939 125.811 147.432 104.945 146.637 102Z" fill="#5C5B5C"/>
<path d="M129.514 266.562C120.685 261.13 122.904 287.487 119.855 289.795C117.274 288.466 111.025 281.34 109.054 278.851C105.116 273.827 102.2 268.08 100.474 261.934C96.7005 248.732 97.0851 221.897 98.717 208.249C101.295 187.836 105.948 164.933 114.583 146.213C120.922 132.471 134.834 111.369 146.637 102C147.432 104.945 138.939 125.811 141.338 131.757C133.224 137.732 126.27 143.167 122.198 152.795C118.475 161.599 118.472 167.815 119.115 177.115C119.828 188.318 122.588 198.227 129.099 207.477C131.675 211.138 137.764 218.14 138.193 222.49C138.916 229.824 132.2 240.35 129.734 247.346C128.746 250.147 126.068 253.272 128.078 256.223C129.17 257.747 131.127 257.296 132.74 257.443C131.705 260.087 130.396 263.035 129.775 265.806C129.701 266.134 129.665 266.258 129.514 266.562Z" fill="#5C5B5C"/>
<path d="M90.6983 205.486C90.866 205.795 89.6882 220.677 89.7138 222.906C89.8896 238.201 88.7557 255.324 94.8009 269.709C87.3984 277.862 76.2956 284.534 65.0555 280.785C60.31 278.45 57.8981 275.485 58.4865 269.89C60.3655 252.018 67.6182 233.386 77.922 218.709C81.143 214.12 86.619 209.247 90.6983 205.486Z" fill="#5C5B5C"/>
<path d="M327.647 205.366C328.972 206.198 330.27 207.539 331.431 208.6C337.579 214.218 342.465 220.367 346.498 227.653C351.839 237.301 362.882 264.204 359.724 274.819C358.873 277.682 356.731 279.151 354.243 280.511C342.97 285.405 331.677 277.487 324.001 269.81C325.599 265.616 326.782 261.276 327.532 256.852C329.654 244.293 329.761 217.834 327.647 205.366Z" fill="#5C5B5C"/>
<path d="M232.808 308.585C239.142 308.288 244.705 308.262 250.995 308.958C258.287 309.766 259.612 310.71 259.612 318.402C259.612 321.357 257.556 322.367 255.111 322.934C249.751 324.405 235.533 323.983 230.11 322.093C227.294 321.111 227.162 312.797 228.748 310.607C229.928 308.979 230.953 309.026 232.808 308.585Z" fill="#FEC043"/>
<path d="M255.111 322.934C249.751 324.405 235.533 323.983 230.11 322.093C227.294 321.111 227.162 312.797 228.748 310.607C229.928 308.979 230.953 309.026 232.808 308.585C233.707 312.043 239.202 315.136 242.154 316.742C246.087 318.883 250.128 320.925 254.423 322.216C254.682 322.294 254.968 322.733 255.111 322.934Z" fill="#D29E37"/>
<path d="M171.453 308.605C174.763 308.178 179.052 308.504 182.413 308.401C184.191 308.347 188.179 308.723 189.519 309.965C191.694 311.98 191.328 319.369 189.488 321.637C187.793 323.301 181.025 323.427 178.695 323.544C173.835 323.908 169.666 323.764 164.556 323.225C158.115 322.545 158.097 315.647 160.627 311.291C161.891 309.113 168.714 308.887 171.453 308.605Z" fill="#D29E37"/>
</svg>
