<svg width="1920" height="1080" viewBox="0 0 1920 1080" fill="none" xmlns="http://www.w3.org/2000/svg">
<path d="M950.77 288.202C953.406 287.562 958.603 287.807 961.496 287.773C1005.53 287.257 1043.07 304.067 1078.66 329.324C1108.85 350.743 1126.09 383.48 1143.29 415.651C1145.83 412.705 1149.27 408.328 1153.27 408.363C1160.25 408.425 1167.34 408.708 1174.32 408.76L1219.43 408.799C1243.41 408.795 1268.15 408.548 1292.15 409.074C1294.93 409.385 1302.66 410.069 1304.36 412.493C1311.29 422.394 1309.22 441.901 1309.19 453.51C1309 472.965 1309.01 492.422 1309.23 511.876C1304.83 520.357 1272.65 563.413 1265.13 569.851C1259.24 574.892 1217.69 569.552 1208.28 572.46C1199.33 575.229 1189.79 581.282 1181.39 585.916C1175.94 623.401 1170.72 643.791 1144.7 670.934C1119.33 697.4 1102.26 707.374 1067.54 718.323C1068.18 753.668 1043.5 750.853 1016.56 749.979C998.983 749.52 985.798 748.883 976.385 732.579C968.416 733.395 953.943 733.435 946.016 732.456C944.696 734.8 941.157 740.067 939.023 741.866C925.64 751.551 901.355 750.365 885.111 750.483C862.78 750.645 854.062 738.388 854.926 718.258C841.701 714.337 828.995 709.795 816.799 702.94C793.033 689.581 765.366 662.469 753.694 637.655C751.171 632.292 747.644 619.463 745.872 613.306C714.206 608.089 690.032 590.524 675.287 561.33C668.041 546.984 667.985 536.59 673.289 521.801C688.873 508.315 728.155 499.213 748.487 497.508C760.002 450.482 787.211 391.396 817.644 353.466C838.807 327.09 882.315 302.777 914.676 293.566C925.376 290.521 939.466 289.276 950.77 288.202Z" fill="black"/>
<path d="M829.768 433.463C855.05 396.536 900.624 378.716 939.839 406.357C959.67 420.787 972.396 413.096 990.369 401.773C1050.23 364.029 1139.65 452.171 1093.96 510.204C1083.45 523.561 1064.86 540.277 1068.93 558.44C1076.38 591.748 1103.42 650.947 1100.56 683.979C1097.04 685.865 1093.04 688.129 1089.47 689.836C1080.59 694.397 1071.22 697.224 1061.7 700.104C1061.14 699.852 1060.58 699.615 1060.01 699.393C1044.23 693.367 1004.92 690.388 988.787 697.206C980.614 700.662 977.873 705.652 975.139 713.546C965.496 713.971 956.875 714.102 947.259 713.457L946.908 712.527C939.876 694.419 925.573 693.643 908.024 693.374C890.943 693.113 877.1 694.067 861.192 700.441C843.815 694.962 837.535 692.581 821.469 683.937C820.53 663.729 831.443 631.446 836.551 611.223C839.793 598.385 856.593 558.067 853.272 545.732C848.858 529.339 820.156 508.19 816.354 485.884C812.832 465.224 819.4 450.133 829.768 433.463Z" fill="#FEFEFE"/>
<path d="M829.768 433.463C855.325 547.127 931.601 642.716 1044.08 678.706C1059.28 683.57 1073.44 688.349 1089.47 689.836C1080.59 694.397 1071.22 697.224 1061.7 700.104C1061.14 699.852 1060.58 699.615 1060.01 699.393C1044.23 693.367 1004.92 690.388 988.787 697.206C980.614 700.662 977.873 705.652 975.139 713.546C965.496 713.971 956.875 714.102 947.259 713.457L946.908 712.527C939.876 694.419 925.573 693.643 908.024 693.374C890.943 693.113 877.1 694.067 861.192 700.441C843.815 694.962 837.535 692.581 821.469 683.937C820.53 663.729 831.443 631.446 836.551 611.223C839.793 598.385 856.593 558.067 853.272 545.732C848.858 529.339 820.156 508.19 816.354 485.884C812.832 465.224 819.4 450.133 829.768 433.463Z" fill="#DCDCDB"/>
<path d="M954.862 454.108C1021.27 448.144 1009.22 526.544 966.956 540.895C929.759 547.03 889.486 466.227 954.862 454.108Z" fill="black"/>
<path d="M960.19 471.231C991.002 472.161 988.059 493.993 975.005 512.993C955.99 540.67 930.958 498.261 940.369 480.894C943.543 475.038 949.271 473.669 955.359 471.977L960.19 471.231Z" fill="#FFB800"/>
<path d="M955.359 471.977C953.716 467.777 953.656 469.243 954.451 465.097C958.55 460.913 962.158 461.794 966.949 464.791L968.125 466.732C966.688 471.144 964.453 470.948 960.19 471.231L955.359 471.977Z" fill="black"/>
<path d="M909.451 434.944C924.117 434.428 922.918 448.904 918.128 458.234C914.662 465.076 908.54 470.197 901.193 472.399C889.699 475.857 880.06 472.201 870.109 466.904C863.521 462.369 857.575 457.789 861.597 448.887C870.934 442.197 883.296 457.008 894.081 456.256C905.603 455.452 900.582 443.259 908.773 435.572L909.451 434.944Z" fill="black"/>
<path d="M1014.27 434.843C1031.7 434.67 1022.11 448.649 1031.58 454.89C1041.49 460.699 1053.48 447.435 1062.12 446.749C1072.26 445.945 1071.22 456.763 1065.51 462.996C1057.69 469.199 1048.5 473.457 1038.37 473.5C1030.03 473.596 1022 470.257 1016.19 464.265C1008.27 456.128 1005.29 443.35 1014.27 434.843Z" fill="black"/>
<path d="M823.505 377.965C840.413 348.385 885.213 322.01 917.808 312.289C974.347 295.426 1043.99 317.429 1084.43 359.4C1109.36 385.27 1129.7 428.911 1142.36 462.259C1144.76 469.024 1143.73 502.822 1143.93 512.343C1107.12 563.147 1084.76 572.4 1162.86 571.835C1160.99 617.525 1151.81 638.338 1119.91 669.088C1111.85 633.429 1102.57 599.064 1090.31 564.65C1088.86 560.579 1087.4 555.669 1086.35 551.509C1106.31 524.825 1130.85 501.001 1125.03 464.391C1117.02 414.021 1065.23 367.292 1012.7 374.608C991.904 377.505 979.076 386.975 961.107 396.166C949.234 389.749 940.301 384.136 927.505 379.317C889.817 365.125 855.001 379.57 827.073 406.676C823.861 403.141 823.796 383.778 823.505 377.965Z" fill="#8F8E8E"/>
<path d="M823.505 377.965C823.796 383.778 823.861 403.141 827.073 406.676C811.371 424.987 801.318 440.347 797.094 464.816C791.019 500.009 816.133 524.84 835.998 551.779C823.892 590.575 810.072 628.69 802.577 669.037C778.321 646.496 767.342 630.849 761.755 597.233C749.433 523.084 782.023 438.209 823.505 377.965Z" fill="#8F8E8E"/>
<path d="M1162.61 428.131L1290.12 428.123L1290.11 499.851C1249.99 499.799 1203.41 500.101 1163.63 497.811C1161.96 475.349 1162.55 450.814 1162.61 428.131Z" fill="#00A5FE"/>
<path d="M739.304 517.773C740.669 517.409 742.037 517.57 743.464 517.622C744.261 519.381 741.869 534.414 741.531 538.046C739.839 556.479 739.959 575.033 741.888 593.443C727.728 589.91 722.6 586.709 711.396 577.601C703.682 570.408 681.059 545.271 690.719 534.301C698.398 525.581 727.676 519.781 739.304 517.773Z" fill="#8F8E8E"/>
<path d="M1049.16 720.779C1048.96 723.803 1048.84 724.601 1048.02 727.517C1042.99 734.29 1022.75 730.773 1014.74 731.079C1007.18 731.368 989.088 728.474 993.896 716.99C996.584 710.57 1015.42 711.681 1021.53 711.596C1030.82 711.562 1046.36 709.558 1049.16 720.779Z" fill="#DD9F00"/>
<path d="M1021.53 711.596C1030.82 711.562 1046.36 709.558 1049.16 720.779C1042.25 721.651 1024.2 718.832 1021.53 711.596Z" fill="#FFB800"/>
<path d="M888.295 711.838C894.4 711.025 918.441 710.826 924.586 713.943C926.287 714.764 928.648 716.543 928.919 718.654C930.172 728.44 923.591 729.094 917.049 730.197C904.443 730.947 867.216 738.79 874.531 716.796C877.808 712.604 883.061 712.578 888.295 711.838Z" fill="#DD9F00"/>
<path d="M1166.21 545.612C1180.66 545.411 1219.86 544.295 1232.8 545.719C1233.14 547.863 1231.78 549.49 1230.62 551.825C1214.21 551.887 1177.87 552.744 1163.24 550.703C1163.51 548.955 1165.09 547.207 1166.21 545.612Z" fill="#DCDCDB"/>
<path d="M1250.57 531.032C1256.19 531.098 1265.46 529.797 1270.02 532.062L1270.29 533.644L1267.72 537.027C1262.34 537.045 1253.52 538.242 1249.16 536.416L1248.57 534.968L1250.57 531.032Z" fill="#DCDCDB"/>
<path d="M1243.86 545.161L1261.59 544.987L1256.39 551.929C1253.43 552.025 1250.47 552.084 1247.51 552.105C1244.5 552.102 1242.61 552.178 1240.65 550.198C1241.26 547.578 1241.93 547.209 1243.86 545.161Z" fill="#DCDCDB"/>
<path d="M1224.84 530.873C1229.08 530.974 1236.54 529.818 1239.73 531.519C1240.6 534.103 1239.98 533.925 1238.46 537.015C1234.38 537.019 1225.43 537.993 1222.68 536.346C1222.33 533.638 1223.04 533.64 1224.84 530.873Z" fill="#DCDCDB"/>
<path d="M1154.16 530.656C1157.55 530.54 1162.38 529.995 1165.3 531.303C1165.51 534.295 1164.39 534.641 1162.21 537.651L1148.89 537.762L1154.16 530.656Z" fill="#DCDCDB"/>
<path d="M1177.36 530.695C1180.87 530.571 1186.76 529.911 1189.58 531.394C1189.75 534.231 1188.92 534.397 1187.04 537.167C1183.38 537.31 1177.71 537.944 1174.61 536.583C1174.18 533.846 1175.23 533.62 1177.36 530.695Z" fill="#DCDCDB"/>
<path d="M1200.87 530.804C1204.56 530.649 1210.6 529.906 1213.63 531.407C1214.07 533.997 1213.12 534.333 1211.37 537.088C1207.39 537.096 1202.14 538.06 1198.63 536.709L1198.12 535.081L1200.87 530.804Z" fill="#DCDCDB"/>
<path d="M1255.25 519.605C1260.65 519.372 1275.03 518.359 1279.63 520.423L1279.88 522.859C1274.4 523.098 1260.47 524.095 1255.73 522.316L1255.25 519.605Z" fill="#DCDCDB"/>
<path d="M1142.74 545.707C1146.5 545.691 1151.26 544.744 1154.54 546.037L1154.89 547.673L1152.4 551.343C1149.02 551.486 1143.65 552.082 1140.78 550.741L1140.43 549.252L1142.74 545.707Z" fill="#DCDCDB"/>
<path d="M1163.93 517.629C1167.5 517.597 1170.92 517.344 1174.34 518.328L1175.15 519.856L1172.94 522.827C1169.64 522.96 1165.03 523.444 1162.05 522.439L1161.6 520.993L1163.93 517.629Z" fill="#DCDCDB"/>
<path d="M1230.57 519.591C1235.19 519.246 1242.65 518.202 1246.64 520.124L1246.96 522.867C1242.63 523.092 1234.34 523.992 1230.87 522.106L1230.57 519.591Z" fill="#DCDCDB"/>
<path d="M1207.21 519.454C1211.47 519.187 1217.8 518.203 1221.37 520.164L1221.16 522.982C1217.44 523.089 1210.05 523.862 1207.09 522.061L1207.21 519.454Z" fill="#DCDCDB"/>
<path d="M1184.04 519.608C1188.01 519.265 1194.42 518.248 1197.82 520.082L1197.87 522.514C1193.78 522.859 1187.91 523.828 1184.31 522.123L1184.04 519.608Z" fill="#DCDCDB"/>
<path d="M1210.83 447.841V446.165L1215.77 438.364H1217.17V440.75H1216.31L1212.99 446.017V446.108H1219.88V447.841H1210.83ZM1216.38 450V447.33L1216.41 446.58V438.364H1218.39V450H1216.38ZM1226 450.222C1225.06 450.222 1224.26 449.985 1223.59 449.511C1222.92 449.034 1222.41 448.347 1222.05 447.449C1221.69 446.547 1221.52 445.462 1221.52 444.193C1221.52 442.924 1221.7 441.845 1222.06 440.955C1222.42 440.061 1222.93 439.379 1223.6 438.909C1224.27 438.439 1225.07 438.205 1226 438.205C1226.93 438.205 1227.73 438.439 1228.4 438.909C1229.07 439.379 1229.59 440.061 1229.94 440.955C1230.3 441.848 1230.48 442.928 1230.48 444.193C1230.48 445.466 1230.3 446.553 1229.94 447.455C1229.59 448.352 1229.07 449.038 1228.4 449.511C1227.74 449.985 1226.93 450.222 1226 450.222ZM1226 448.443C1226.73 448.443 1227.3 448.085 1227.72 447.369C1228.15 446.65 1228.36 445.591 1228.36 444.193C1228.36 443.269 1228.26 442.492 1228.07 441.864C1227.87 441.235 1227.6 440.761 1227.25 440.443C1226.9 440.121 1226.48 439.96 1226 439.96C1225.28 439.96 1224.7 440.32 1224.28 441.04C1223.86 441.756 1223.65 442.807 1223.65 444.193C1223.64 445.121 1223.74 445.902 1223.93 446.534C1224.12 447.167 1224.39 447.644 1224.74 447.966C1225.1 448.284 1225.51 448.443 1226 448.443ZM1232.16 447.841V446.165L1237.1 438.364H1238.5V440.75H1237.64L1234.32 446.017V446.108H1241.21V447.841H1232.16ZM1237.71 450V447.33L1237.73 446.58V438.364H1239.72V450H1237.71ZM1190.37 469V460.273H1192.34V461.756H1192.44C1192.62 461.256 1192.92 460.866 1193.34 460.585C1193.76 460.301 1194.26 460.159 1194.85 460.159C1195.44 460.159 1195.94 460.303 1196.34 460.591C1196.75 460.875 1197.04 461.263 1197.2 461.756H1197.3C1197.49 461.271 1197.81 460.884 1198.27 460.597C1198.73 460.305 1199.28 460.159 1199.91 460.159C1200.72 460.159 1201.37 460.413 1201.88 460.92C1202.39 461.428 1202.64 462.169 1202.64 463.142V469H1200.58V463.46C1200.58 462.919 1200.44 462.523 1200.15 462.273C1199.86 462.019 1199.51 461.892 1199.09 461.892C1198.59 461.892 1198.21 462.047 1197.93 462.358C1197.65 462.665 1197.51 463.064 1197.51 463.557V469H1195.49V463.375C1195.49 462.924 1195.36 462.564 1195.09 462.295C1194.82 462.027 1194.46 461.892 1194.03 461.892C1193.73 461.892 1193.46 461.968 1193.22 462.119C1192.98 462.267 1192.79 462.477 1192.64 462.75C1192.5 463.019 1192.43 463.333 1192.43 463.693V469H1190.37ZM1204.73 469V460.273H1206.79V469H1204.73ZM1205.76 459.034C1205.44 459.034 1205.16 458.926 1204.92 458.71C1204.69 458.491 1204.57 458.227 1204.57 457.92C1204.57 457.61 1204.69 457.347 1204.92 457.131C1205.16 456.911 1205.44 456.801 1205.76 456.801C1206.09 456.801 1206.37 456.911 1206.6 457.131C1206.84 457.347 1206.96 457.61 1206.96 457.92C1206.96 458.227 1206.84 458.491 1206.6 458.71C1206.37 458.926 1206.09 459.034 1205.76 459.034ZM1210.96 463.886V469H1208.9V460.273H1210.87V461.756H1210.97C1211.17 461.267 1211.49 460.879 1211.93 460.591C1212.37 460.303 1212.92 460.159 1213.57 460.159C1214.17 460.159 1214.7 460.288 1215.14 460.545C1215.6 460.803 1215.94 461.176 1216.19 461.665C1216.44 462.153 1216.56 462.746 1216.56 463.443V469H1214.5V463.761C1214.5 463.178 1214.35 462.722 1214.05 462.392C1213.75 462.062 1213.33 461.898 1212.8 461.898C1212.44 461.898 1212.12 461.977 1211.84 462.136C1211.57 462.292 1211.35 462.517 1211.19 462.812C1211.04 463.108 1210.96 463.466 1210.96 463.886ZM1222.51 469.17C1221.64 469.17 1220.88 468.989 1220.25 468.625C1219.61 468.258 1219.13 467.739 1218.79 467.068C1218.45 466.394 1218.28 465.6 1218.28 464.688C1218.28 463.79 1218.45 463.002 1218.79 462.324C1219.13 461.642 1219.61 461.112 1220.23 460.733C1220.85 460.35 1221.57 460.159 1222.41 460.159C1222.94 460.159 1223.45 460.246 1223.93 460.42C1224.41 460.591 1224.83 460.856 1225.2 461.216C1225.57 461.576 1225.86 462.034 1226.08 462.591C1226.29 463.144 1226.39 463.803 1226.39 464.568V465.199H1219.24V463.812H1224.42C1224.42 463.419 1224.33 463.068 1224.17 462.761C1224 462.451 1223.77 462.206 1223.47 462.028C1223.17 461.85 1222.83 461.761 1222.43 461.761C1222.01 461.761 1221.64 461.864 1221.33 462.068C1221.01 462.269 1220.76 462.534 1220.58 462.864C1220.41 463.189 1220.32 463.547 1220.32 463.938V465.148C1220.32 465.655 1220.41 466.091 1220.59 466.455C1220.78 466.814 1221.04 467.091 1221.37 467.284C1221.71 467.473 1222.1 467.568 1222.54 467.568C1222.84 467.568 1223.11 467.527 1223.36 467.443C1223.6 467.356 1223.81 467.229 1223.99 467.062C1224.16 466.896 1224.3 466.689 1224.39 466.443L1226.31 466.659C1226.19 467.167 1225.96 467.61 1225.62 467.989C1225.28 468.364 1224.85 468.655 1224.32 468.864C1223.79 469.068 1223.19 469.17 1222.51 469.17ZM1232.49 460.273V461.864H1227.48V460.273H1232.49ZM1228.71 458.182H1230.77V466.375C1230.77 466.652 1230.81 466.864 1230.9 467.011C1230.98 467.155 1231.1 467.254 1231.24 467.307C1231.38 467.36 1231.53 467.386 1231.7 467.386C1231.83 467.386 1231.95 467.377 1232.06 467.358C1232.17 467.339 1232.25 467.322 1232.31 467.307L1232.65 468.915C1232.54 468.953 1232.38 468.994 1232.18 469.04C1231.98 469.085 1231.73 469.112 1231.44 469.119C1230.93 469.134 1230.46 469.057 1230.05 468.886C1229.64 468.712 1229.31 468.443 1229.07 468.08C1228.83 467.716 1228.71 467.261 1228.71 466.716V458.182ZM1240.24 463.886V469H1238.18V460.273H1240.15V461.756H1240.25C1240.45 461.267 1240.77 460.879 1241.21 460.591C1241.65 460.303 1242.2 460.159 1242.85 460.159C1243.45 460.159 1243.98 460.288 1244.43 460.545C1244.88 460.803 1245.23 461.176 1245.47 461.665C1245.72 462.153 1245.84 462.746 1245.84 463.443V469H1243.78V463.761C1243.78 463.178 1243.63 462.722 1243.33 462.392C1243.03 462.062 1242.62 461.898 1242.09 461.898C1241.73 461.898 1241.41 461.977 1241.12 462.136C1240.85 462.292 1240.63 462.517 1240.47 462.812C1240.32 463.108 1240.24 463.466 1240.24 463.886ZM1251.74 469.17C1250.89 469.17 1250.15 468.983 1249.52 468.608C1248.9 468.233 1248.41 467.708 1248.07 467.034C1247.73 466.36 1247.56 465.572 1247.56 464.67C1247.56 463.769 1247.73 462.979 1248.07 462.301C1248.41 461.623 1248.9 461.097 1249.52 460.722C1250.15 460.347 1250.89 460.159 1251.74 460.159C1252.59 460.159 1253.33 460.347 1253.95 460.722C1254.58 461.097 1255.06 461.623 1255.4 462.301C1255.75 462.979 1255.92 463.769 1255.92 464.67C1255.92 465.572 1255.75 466.36 1255.4 467.034C1255.06 467.708 1254.58 468.233 1253.95 468.608C1253.33 468.983 1252.59 469.17 1251.74 469.17ZM1251.75 467.523C1252.21 467.523 1252.6 467.396 1252.91 467.142C1253.22 466.884 1253.45 466.54 1253.6 466.108C1253.76 465.676 1253.84 465.195 1253.84 464.665C1253.84 464.131 1253.76 463.648 1253.6 463.216C1253.45 462.78 1253.22 462.434 1252.91 462.176C1252.6 461.919 1252.21 461.79 1251.75 461.79C1251.28 461.79 1250.88 461.919 1250.57 462.176C1250.26 462.434 1250.02 462.78 1249.87 463.216C1249.72 463.648 1249.64 464.131 1249.64 464.665C1249.64 465.195 1249.72 465.676 1249.87 466.108C1250.02 466.54 1250.26 466.884 1250.57 467.142C1250.88 467.396 1251.28 467.523 1251.75 467.523ZM1262.02 460.273V461.864H1257.01V460.273H1262.02ZM1258.25 458.182H1260.3V466.375C1260.3 466.652 1260.34 466.864 1260.43 467.011C1260.51 467.155 1260.63 467.254 1260.77 467.307C1260.91 467.36 1261.06 467.386 1261.23 467.386C1261.36 467.386 1261.48 467.377 1261.59 467.358C1261.7 467.339 1261.78 467.322 1261.84 467.307L1262.18 468.915C1262.07 468.953 1261.92 468.994 1261.71 469.04C1261.51 469.085 1261.26 469.112 1260.97 469.119C1260.46 469.134 1259.99 469.057 1259.58 468.886C1259.17 468.712 1258.84 468.443 1258.6 468.08C1258.36 467.716 1258.24 467.261 1258.25 466.716V458.182ZM1208.98 479.273V480.864H1203.82V479.273H1208.98ZM1205.11 488V478.449C1205.11 477.862 1205.23 477.373 1205.47 476.983C1205.72 476.593 1206.05 476.301 1206.46 476.108C1206.87 475.915 1207.33 475.818 1207.84 475.818C1208.19 475.818 1208.51 475.847 1208.78 475.903C1209.06 475.96 1209.27 476.011 1209.4 476.057L1208.99 477.648C1208.9 477.621 1208.79 477.595 1208.66 477.568C1208.53 477.538 1208.38 477.523 1208.22 477.523C1207.83 477.523 1207.56 477.616 1207.4 477.801C1207.25 477.983 1207.17 478.244 1207.17 478.585V488H1205.11ZM1214.07 488.17C1213.21 488.17 1212.48 487.983 1211.85 487.608C1211.23 487.233 1210.74 486.708 1210.4 486.034C1210.06 485.36 1209.88 484.572 1209.88 483.67C1209.88 482.769 1210.06 481.979 1210.4 481.301C1210.74 480.623 1211.23 480.097 1211.85 479.722C1212.48 479.347 1213.21 479.159 1214.07 479.159C1214.92 479.159 1215.66 479.347 1216.28 479.722C1216.91 480.097 1217.39 480.623 1217.73 481.301C1218.08 481.979 1218.25 482.769 1218.25 483.67C1218.25 484.572 1218.08 485.36 1217.73 486.034C1217.39 486.708 1216.91 487.233 1216.28 487.608C1215.66 487.983 1214.92 488.17 1214.07 488.17ZM1214.08 486.523C1214.54 486.523 1214.93 486.396 1215.24 486.142C1215.55 485.884 1215.78 485.54 1215.93 485.108C1216.09 484.676 1216.16 484.195 1216.16 483.665C1216.16 483.131 1216.09 482.648 1215.93 482.216C1215.78 481.78 1215.55 481.434 1215.24 481.176C1214.93 480.919 1214.54 480.79 1214.08 480.79C1213.6 480.79 1213.21 480.919 1212.9 481.176C1212.59 481.434 1212.35 481.78 1212.2 482.216C1212.05 482.648 1211.97 483.131 1211.97 483.665C1211.97 484.195 1212.05 484.676 1212.2 485.108C1212.35 485.54 1212.59 485.884 1212.9 486.142C1213.21 486.396 1213.6 486.523 1214.08 486.523ZM1225.56 484.33V479.273H1227.61V488H1225.62V486.449H1225.53C1225.33 486.937 1225.01 487.337 1224.56 487.648C1224.11 487.958 1223.56 488.114 1222.9 488.114C1222.33 488.114 1221.83 487.987 1221.39 487.733C1220.95 487.475 1220.61 487.102 1220.36 486.614C1220.12 486.121 1219.99 485.527 1219.99 484.83V479.273H1222.05V484.511C1222.05 485.064 1222.2 485.504 1222.51 485.83C1222.81 486.155 1223.21 486.318 1223.7 486.318C1224 486.318 1224.3 486.244 1224.58 486.097C1224.86 485.949 1225.1 485.729 1225.28 485.438C1225.46 485.142 1225.56 484.773 1225.56 484.33ZM1231.79 482.886V488H1229.73V479.273H1231.69V480.756H1231.8C1232 480.267 1232.32 479.879 1232.76 479.591C1233.2 479.303 1233.75 479.159 1234.4 479.159C1235 479.159 1235.53 479.288 1235.97 479.545C1236.42 479.803 1236.77 480.176 1237.02 480.665C1237.27 481.153 1237.39 481.746 1237.39 482.443V488H1235.33V482.761C1235.33 482.178 1235.18 481.722 1234.88 481.392C1234.58 481.062 1234.16 480.898 1233.63 480.898C1233.27 480.898 1232.95 480.977 1232.67 481.136C1232.4 481.292 1232.18 481.517 1232.02 481.812C1231.86 482.108 1231.79 482.466 1231.79 482.886ZM1242.72 488.153C1242.03 488.153 1241.42 487.977 1240.88 487.625C1240.33 487.273 1239.91 486.761 1239.59 486.091C1239.28 485.42 1239.12 484.606 1239.12 483.648C1239.12 482.678 1239.28 481.86 1239.6 481.193C1239.92 480.523 1240.35 480.017 1240.9 479.676C1241.44 479.331 1242.05 479.159 1242.72 479.159C1243.23 479.159 1243.65 479.246 1243.98 479.42C1244.31 479.591 1244.58 479.797 1244.77 480.04C1244.96 480.278 1245.11 480.504 1245.22 480.716H1245.3V476.364H1247.37V488H1245.34V486.625H1245.22C1245.11 486.837 1244.96 487.062 1244.76 487.301C1244.56 487.536 1244.29 487.737 1243.96 487.903C1243.63 488.07 1243.22 488.153 1242.72 488.153ZM1243.29 486.466C1243.73 486.466 1244.1 486.348 1244.4 486.114C1244.71 485.875 1244.94 485.544 1245.1 485.119C1245.26 484.695 1245.34 484.201 1245.34 483.636C1245.34 483.072 1245.26 482.581 1245.1 482.165C1244.95 481.748 1244.72 481.424 1244.41 481.193C1244.11 480.962 1243.73 480.847 1243.29 480.847C1242.83 480.847 1242.45 480.966 1242.14 481.205C1241.84 481.443 1241.61 481.773 1241.45 482.193C1241.29 482.614 1241.22 483.095 1241.22 483.636C1241.22 484.182 1241.29 484.669 1241.45 485.097C1241.61 485.521 1241.84 485.856 1242.15 486.102C1242.46 486.345 1242.84 486.466 1243.29 486.466Z" fill="white"/>
</svg>
