<?xml version="1.0" encoding="UTF-8"?>
<!-- Generator: visioncortex VTracer 0.6.4 -->
<svg version="1.1" xmlns="http://www.w3.org/2000/svg" width="512" height="512">
<path d="M0 0 C25.81950877 21.51502676 41.76326588 50.69570345 46 84 C46.29317127 88.85582229 46.34697375 93.70259471 46.37890625 98.56640625 C46.39514303 99.93539037 46.41232907 101.30436351 46.43040466 102.67332458 C46.47562437 106.24456634 46.5106542 109.81582459 46.54260254 113.38720703 C46.5948909 119.10364064 46.66049829 124.8199094 46.73081779 130.53614616 C46.75325855 132.50945148 46.76949043 134.48282435 46.78553772 136.45619202 C47.08612611 163.67980578 57.82243246 178.77707714 76 198 C78.37054753 200.63507215 80.68444781 203.31660041 83 206 C83.87011719 206.99128906 84.74023438 207.98257813 85.63671875 209.00390625 C108.54316081 235.22801754 137.18844629 271.28740611 136.30859375 308.29296875 C135.60741965 314.44377449 133.24918818 319.1934525 128.6875 323.375 C122.92564246 327.76034612 117.48736115 329.69900926 110.25390625 329.47265625 C103.18624299 328.44602089 96.60329819 325.62069223 90 323 C89.10249023 322.64711914 88.20498047 322.29423828 87.28027344 321.93066406 C81.50546706 319.65634648 75.74639321 317.34513756 70 315 C70.144375 315.79535156 70.28875 316.59070313 70.4375 317.41015625 C71.93589266 327.13930302 72.22411925 336.79487474 72.25 346.625 C72.26353516 348.57031616 72.26353516 348.57031616 72.27734375 350.55493164 C72.20333829 374.92585438 72.20333829 374.92585438 67 383 C65.31970703 383.58394531 65.31970703 383.58394531 63.60546875 384.1796875 C60.47467874 385.43273225 59.34084071 386.57207037 57.96875 389.65234375 C57.45230882 391.07123954 56.96318573 392.50033762 56.5 393.9375 C56.23703125 394.65357422 55.9740625 395.36964844 55.703125 396.10742188 C54.41198205 399.81259006 53.7288661 402.27476079 55 406 C55.33 406.33 55.66 406.66 56 407 C57.33900256 414.53188939 53.08919227 419.95411013 49 426 C46.43370379 429.42321599 43.77400117 432.74325058 41 436 C41.66 436.639375 42.32 437.27875 43 437.9375 C44.00333957 438.95505118 45.00283155 439.97640058 46 441 C46.62777344 441.63164062 47.25554687 442.26328125 47.90234375 442.9140625 C54.09652736 449.45302792 60.14232565 457.41829597 60.625 466.75 C60.13506866 472.89641131 57.57521676 477.90118292 52.9375 481.9375 C48.58263591 484.99517053 45.54165572 485.13489778 40.32885742 485.17700195 C39.31853203 485.18685875 39.31853203 485.18685875 38.28779602 485.19691467 C36.06035241 485.21661339 33.83297611 485.2283025 31.60546875 485.23828125 C30.84342951 485.24235678 30.08139027 485.2464323 29.29625893 485.25063133 C25.26285703 485.27147739 21.22948901 485.28578546 17.19604492 485.29516602 C13.03643905 485.30622799 8.8773685 485.34062906 4.71795177 485.38033772 C1.51368739 485.40651844 -1.6904497 485.4148591 -4.89481163 485.41844749 C-6.42777815 485.42330966 -7.96073912 485.43491323 -9.49360085 485.45348549 C-11.64305344 485.47790985 -13.79112412 485.47690695 -15.94067383 485.4699707 C-17.16184402 485.47583694 -18.38301422 485.48170319 -19.64118958 485.48774719 C-23.65591331 484.90475203 -25.77107183 483.39043052 -29 481 C-32.20467407 479.93177531 -33.22247017 480.05735841 -36.421875 480.7421875 C-37.28296875 480.92136719 -38.1440625 481.10054688 -39.03125 481.28515625 C-39.9284375 481.47980469 -40.825625 481.67445313 -41.75 481.875 C-43.51524128 482.24921051 -45.28086118 482.62163996 -47.046875 482.9921875 C-47.82901367 483.16089355 -48.61115234 483.32959961 -49.41699219 483.50341797 C-55.57629526 484.68754107 -61.51404227 485.16902869 -67.765625 485.203125 C-68.59850037 485.20882507 -69.43137573 485.21452515 -70.28948975 485.22039795 C-72.05105336 485.22980709 -73.81263425 485.23636559 -75.57421875 485.24023438 C-78.20085812 485.24982065 -80.82667276 485.28083215 -83.453125 485.3125 C-97.22759226 485.39793749 -110.51165152 483.98291142 -123.875 480.5625 C-127.41547003 479.79765978 -127.6859977 479.81029028 -131 481.8125 C-131.66 482.534375 -132.32 483.25625 -133 484 C-135.87148026 485.43574013 -138.34831898 485.14318603 -141.55761719 485.16113281 C-142.23102142 485.16609772 -142.90442566 485.17106262 -143.59823608 485.17617798 C-145.83112606 485.19080895 -148.06394492 485.19760426 -150.296875 485.203125 C-151.84906008 485.20887712 -153.40124514 485.21463484 -154.95343018 485.22039795 C-158.21179536 485.23091158 -161.47013586 485.2367514 -164.72851562 485.24023438 C-168.89589942 485.24571004 -173.06295499 485.26971638 -177.23023605 485.29820633 C-180.43879128 485.31687019 -183.64726819 485.32204037 -186.85587311 485.32357025 C-188.39161212 485.3265905 -189.92734996 485.33459783 -191.46303558 485.34775543 C-193.61720881 485.36488967 -195.77059019 485.36291787 -197.92480469 485.35644531 C-199.14899109 485.36009094 -200.37317749 485.36373657 -201.63446045 485.36749268 C-206.95504585 484.78652308 -210.08094963 482.96082539 -213.75 479.125 C-217.19916492 474.33449317 -218.60000783 470.47895361 -218.43359375 464.5859375 C-216.82409738 454.98695917 -210.1867931 446.27438284 -203 440 C-200.22265625 438.7265625 -200.22265625 438.7265625 -198 438 C-198.47308594 437.36835938 -198.94617188 436.73671875 -199.43359375 436.0859375 C-212.14843957 418.88495699 -221.90096014 401.92760865 -227 381 C-227.16516113 380.34854004 -227.33032227 379.69708008 -227.50048828 379.02587891 C-230.12218229 368.23274154 -230.28454711 357.36146027 -230.3125 346.3125 C-230.31801376 345.27017212 -230.31801376 345.27017212 -230.32363892 344.20678711 C-230.35095343 334.30812527 -229.5409374 324.78279145 -228 315 C-228.9787207 315.38857178 -229.95744141 315.77714355 -230.96582031 316.17749023 C-234.60267459 317.620624 -238.24083433 319.06044097 -241.87939453 320.49926758 C-243.45299421 321.122063 -245.02624002 321.74575329 -246.59912109 322.37036133 C-248.86202695 323.268805 -251.12619235 324.16400636 -253.390625 325.05859375 C-254.09181458 325.3377916 -254.79300415 325.61698944 -255.51544189 325.90464783 C-263.16859954 328.92003209 -270.63182259 330.71259451 -278.73046875 328.12890625 C-285.52496653 324.9937749 -290.02818563 320.94362875 -293.375 314.25 C-298.09309149 289.71592428 -282.38131259 261.33824876 -269.078125 241.61328125 C-263.43789791 233.42373279 -257.47589783 225.54994918 -251 218 C-250.51418457 217.43071777 -250.02836914 216.86143555 -249.52783203 216.27490234 C-243.92622573 209.71814372 -238.25933104 203.24198883 -232.375 196.9375 C-212.88195139 175.79635107 -205.00003525 159.80064286 -204.75390625 130.80859375 C-204.72939354 128.81076574 -204.70486958 126.8129378 -204.67970943 124.81511784 C-204.61969534 119.96121472 -204.56826438 115.10723741 -204.52319336 110.25317383 C-204.49734418 107.50757033 -204.46646078 104.76210517 -204.43040466 102.01661682 C-204.3970535 99.45334063 -204.37092214 96.88995615 -204.35340881 94.32652283 C-204.07747792 74.78819404 -204.07747792 74.78819404 -199.625 68.8125 C-197 67 -197 67 -194.94897461 66.63012695 C-192.86211888 66.18775239 -192.86211888 66.18775239 -191.94750977 64.29760742 C-191.13190276 61.93295283 -190.32469013 59.57003622 -189.5625 57.1875 C-189.26923828 56.36701172 -188.97597656 55.54652344 -188.67382812 54.70117188 C-187.92966147 52.44673089 -187.2969565 50.3559898 -187 48 C-188.19980849 45.6008001 -188.19980849 45.6008001 -190 44 C-190.25483717 31.25814165 -177.12702852 18.20165753 -168.78051758 9.37353516 C-153.4712675 -6.25396808 -134.87932359 -16.79729721 -114 -23 C-113.31083496 -23.21172852 -112.62166992 -23.42345703 -111.91162109 -23.64160156 C-73.92269429 -34.85611048 -30.44970085 -24.68037656 0 0 Z " fill="#675D67" transform="translate(335,27)"/>
<path d="M0 0 C5.89511346 4.22245151 10.17417831 9.61199442 12.2578125 16.6171875 C13.46569255 24.18677574 14.51027229 33.92047536 10.41796875 40.63671875 C8.0703125 42.8046875 8.0703125 42.8046875 5.58984375 44.703125 C0.30762158 49.03861724 -2.24530452 56.31560058 -3.015625 62.984375 C-3.04914063 63.81195313 -3.08265625 64.63953125 -3.1171875 65.4921875 C-3.16617188 66.31460938 -3.21515625 67.13703125 -3.265625 67.984375 C-2.27407575 72.97171972 1.35548419 75.99515031 5.37646484 78.76708984 C6.52066895 79.40598145 7.66487305 80.04487305 8.84375 80.703125 C9.46375885 81.04977203 10.0837677 81.39641907 10.7225647 81.75357056 C12.025174 82.47714229 13.33126596 83.194477 14.640625 83.90576172 C16.63156006 84.99150449 18.60471752 86.10543874 20.578125 87.22265625 C21.85319954 87.92623471 23.12921198 88.62811668 24.40625 89.328125 C25.55270996 89.96024902 26.69916992 90.59237305 27.88037109 91.24365234 C33.0550114 93.3480709 36.75188312 93.2076534 41.9140625 91.18359375 C43.20358785 90.53174394 44.48463691 89.86292079 45.7578125 89.1796875 C46.78297974 88.64758667 46.78297974 88.64758667 47.82885742 88.10473633 C52.82151666 85.4763879 57.7184445 82.68369333 62.5703125 79.8046875 C63.19808594 79.432229 63.82585937 79.05977051 64.47265625 78.67602539 C70.20013369 75.24881834 70.20013369 75.24881834 73.2578125 69.6171875 C74.22845576 60.32141169 71.73527931 52.94535912 66.05078125 45.63671875 C64.39451522 43.65711535 64.39451522 43.65711535 62.74536133 42.40478516 C60.1839699 40.24626221 58.51080411 38.6448357 57.69458008 35.3293457 C57.48511949 32.64861081 57.47720728 30.05441318 57.5703125 27.3671875 C57.59029297 26.42858887 57.61027344 25.48999023 57.63085938 24.52294922 C58.01584509 15.15441971 60.2809476 9.17162954 67.1328125 2.6796875 C73.78945473 -2.55670639 79.55663151 -4.02096215 87.97265625 -3.7890625 C95.02618893 -2.91680638 100.25902761 0.21406049 105.1328125 5.3046875 C114.32622448 17.10615962 113.4420511 31.27973836 111.7578125 45.5546875 C108.80113926 60.07297267 102.0039518 73.79285123 94.93969727 86.68920898 C88.00556739 99.35266832 88.46231363 109.84710418 91.4453125 123.8046875 C91.67089844 124.89257568 91.89648438 125.98046387 92.12890625 127.10131836 C93.89389982 135.39740096 96.05039642 143.47138396 98.60795593 151.55529785 C99.19588599 153.4207047 99.77336716 155.28939688 100.34960938 157.15844727 C102.68317827 164.71676368 105.10953224 172.23718656 107.6328125 179.734375 C108.07481995 181.04863716 108.07481995 181.04863716 108.52575684 182.38945007 C109.73868361 185.99196953 110.95324685 189.59391364 112.17382812 193.19384766 C116.03804137 204.60237873 119.63209978 216.02550554 122.73542786 227.66543579 C123.2698923 229.66232046 123.8160767 231.65568205 124.36572266 233.6484375 C127.00358062 243.23377919 129.24011036 252.88515303 131.2578125 262.6171875 C131.48726562 263.68066406 131.71671875 264.74414062 131.953125 265.83984375 C137.55399015 295.77686241 130.61200448 328.85160248 113.73144531 354.18286133 C109.57572414 360.21110363 105.39125097 365.55737269 99.0078125 369.3046875 C89.86903822 375.23955093 82.71615414 383.88558071 80.2578125 394.6171875 C77.69567696 395.26449554 75.13312765 395.91008038 72.5703125 396.5546875 C71.84908203 396.73708984 71.12785156 396.91949219 70.38476562 397.10742188 C46.65521449 403.06689819 20.95617056 402.20849435 -2.7421875 396.6171875 C-3.4326416 396.47901611 -4.1230957 396.34084473 -4.83447266 396.19848633 C-9.3928492 395.16718739 -9.3928492 395.16718739 -11.0546875 392.55078125 C-11.2815625 391.72707031 -11.5084375 390.90335937 -11.7421875 390.0546875 C-14.80725693 381.04130536 -21.16095573 374.23905519 -28.7421875 368.6171875 C-30.44375 367.8128125 -30.44375 367.8128125 -32.1796875 366.9921875 C-45.14870425 359.9636274 -53.63930695 336.4982021 -57.75 323.1171875 C-58.07742187 321.9621875 -58.40484375 320.8071875 -58.7421875 319.6171875 C-59.04898438 318.5446875 -59.35578125 317.4721875 -59.671875 316.3671875 C-68.36359913 283.91808407 -59.54053121 249.75592045 -49.7421875 218.6171875 C-49.34432304 217.34458819 -48.94653806 216.07196402 -48.54882812 214.79931641 C-44.61586417 202.25044625 -40.52728093 189.76385701 -36.14111328 177.36523438 C-31.91720784 165.42412984 -28.36565928 153.47042042 -25.36669922 141.16503906 C-24.78137059 138.7770447 -24.17520845 136.3957057 -23.55859375 134.015625 C-17.84470659 111.89751617 -17.60754194 98.66895505 -28.71533203 78.48535156 C-32.49247189 71.48216568 -35.15423364 64.12555046 -37.7421875 56.6171875 C-38.103125 55.59367187 -38.4640625 54.57015625 -38.8359375 53.515625 C-42.74544219 41.01195051 -44.38585798 24.2999698 -39.0703125 11.984375 C-35.12614063 4.95446867 -29.73191931 -0.52914813 -21.88671875 -2.95703125 C-14.0533214 -4.51229593 -6.97197178 -3.96797108 0 0 Z " fill="#E9F5FE" transform="translate(220.7421875,96.3828125)"/>
<path d="M0 0 C8.19753599 6.17327579 12.8001796 15.40053879 16 25 C16.07056698 27.74082159 16.09336154 30.44846977 16.0625 33.1875 C16.041875 35.765625 16.02125 38.34375 16 41 C21.28 41 26.56 41 32 41 C31.896875 38.6075 31.79375 36.215 31.6875 33.75 C31.49888275 21.50361935 36.36976066 11.84504191 44.80859375 3.1328125 C54.33096499 -5.79560802 64.0990296 -8.52137352 76.82421875 -8.26953125 C87.45170378 -7.77955181 96.24208623 -3.12262004 104 4 C113.35559978 14.9291193 116.39016669 26.54550608 116.3125 40.6875 C116.30686035 41.75822754 116.3012207 42.82895508 116.29541016 43.93212891 C116.17655798 51.67399512 115.40290599 58.60993065 113 66 C112.5811428 67.4046833 112.16324513 68.80965293 111.74609375 70.21484375 C108.1464298 81.95978793 103.06986952 92.6104276 97.15625 103.34765625 C96.33640625 104.87712891 96.33640625 104.87712891 95.5 106.4375 C94.77296875 107.73494141 94.77296875 107.73494141 94.03125 109.05859375 C91.12917825 117.33609385 93.78984157 126.09765911 95.625 134.375 C95.89425293 135.61000244 96.16350586 136.84500488 96.44091797 138.11743164 C98.53953767 147.49171344 101.1299268 156.59191848 104.23095703 165.67724609 C105.11792633 168.35617495 105.93368778 171.05259991 106.75 173.75390625 C108.48851268 179.4413028 110.34426389 185.08267258 112.2421875 190.71875 C112.53529816 191.59020157 112.82840881 192.46165314 113.13040161 193.35951233 C114.34569329 196.96925287 115.56251234 200.57845461 116.78564453 204.18554688 C133.68209562 254.06423483 148.03887085 306.88175018 123.79956055 356.90673828 C121.38715469 361.71808227 118.81622081 366.41060312 116 371 C119.83129096 371.64451624 123.1784069 371.77324063 127 371 C133.56082682 366.29401113 137.80500659 358.58304122 141.90673828 351.73583984 C143.8940932 348.45869067 145.60323733 345.87430928 149 344 C152.42335626 344.12011776 154.95416069 344.39273847 157.9375 346.125 C159.69351833 349.22385588 159.82292878 351.62479935 159 355 C155.2067421 363.16125184 149.80794075 370.18132671 144 377 C144.66 377.639375 145.32 378.27875 146 378.9375 C147.00333957 379.95505118 148.00283155 380.97640058 149 382 C149.62777344 382.63164062 150.25554687 383.26328125 150.90234375 383.9140625 C157.09652736 390.45302792 163.14232565 398.41829597 163.625 407.75 C163.13506866 413.89641131 160.57521676 418.90118292 155.9375 422.9375 C151.58263591 425.99517053 148.54165572 426.13489778 143.32885742 426.17700195 C142.65530716 426.18357315 141.9817569 426.19014435 141.28779602 426.19691467 C139.06035241 426.21661339 136.83297611 426.2283025 134.60546875 426.23828125 C133.84342951 426.24235678 133.08139027 426.2464323 132.29625893 426.25063133 C128.26285703 426.27147739 124.22948901 426.28578546 120.19604492 426.29516602 C116.03643905 426.30622799 111.8773685 426.34062906 107.71795177 426.38033772 C104.51368739 426.40651844 101.3095503 426.4148591 98.10518837 426.41844749 C96.57222185 426.42330966 95.03926088 426.43491323 93.50639915 426.45348549 C91.35694656 426.47790985 89.20887588 426.47690695 87.05932617 426.4699707 C85.22757088 426.47877007 85.22757088 426.47877007 83.35881042 426.48774719 C79.34408669 425.90475203 77.22892817 424.39043052 74 422 C70.79532593 420.93177531 69.77752983 421.05735841 66.578125 421.7421875 C65.71703125 421.92136719 64.8559375 422.10054688 63.96875 422.28515625 C63.0715625 422.47980469 62.174375 422.67445313 61.25 422.875 C59.48475872 423.24921051 57.71913882 423.62163996 55.953125 423.9921875 C55.17098633 424.16089355 54.38884766 424.32959961 53.58300781 424.50341797 C47.42370474 425.68754107 41.48595773 426.16902869 35.234375 426.203125 C34.40149963 426.20882507 33.56862427 426.21452515 32.71051025 426.22039795 C30.94894664 426.22980709 29.18736575 426.23636559 27.42578125 426.24023438 C24.79914188 426.24982065 22.17332724 426.28083215 19.546875 426.3125 C5.77240774 426.39793749 -7.51165152 424.98291142 -20.875 421.5625 C-24.41547003 420.79765978 -24.6859977 420.81029028 -28 422.8125 C-28.66 423.534375 -29.32 424.25625 -30 425 C-32.87148026 426.43574013 -35.34831898 426.14318603 -38.55761719 426.16113281 C-39.23102142 426.16609772 -39.90442566 426.17106262 -40.59823608 426.17617798 C-42.83112606 426.19080895 -45.06394492 426.19760426 -47.296875 426.203125 C-48.84906008 426.20887712 -50.40124514 426.21463484 -51.95343018 426.22039795 C-55.21179536 426.23091158 -58.47013586 426.2367514 -61.72851562 426.24023438 C-65.89589942 426.24571004 -70.06295499 426.26971638 -74.23023605 426.29820633 C-77.43879128 426.31687019 -80.64726819 426.32204037 -83.85587311 426.32357025 C-85.39161212 426.3265905 -86.92734996 426.33459783 -88.46303558 426.34775543 C-90.61720881 426.36488967 -92.77059019 426.36291787 -94.92480469 426.35644531 C-96.14899109 426.36009094 -97.37317749 426.36373657 -98.63446045 426.36749268 C-103.95504585 425.78652308 -107.08094963 423.96082539 -110.75 420.125 C-114.19916492 415.33449317 -115.60000783 411.47895361 -115.43359375 405.5859375 C-113.82409738 395.98695917 -107.1867931 387.27438284 -100 381 C-97.22265625 379.7265625 -97.22265625 379.7265625 -95 379 C-95.47308594 378.36835938 -95.94617188 377.73671875 -96.43359375 377.0859375 C-109.14843957 359.88495699 -118.90096014 342.92760865 -124 322 C-124.16516113 321.34854004 -124.33032227 320.69708008 -124.50048828 320.02587891 C-127.12218229 309.23274154 -127.28454711 298.36146027 -127.3125 287.3125 C-127.31801376 286.27017212 -127.31801376 286.27017212 -127.32363892 285.20678711 C-127.35095343 275.30812527 -126.5409374 265.78279145 -125 256 C-125.9787207 256.38857178 -126.95744141 256.77714355 -127.96582031 257.17749023 C-131.60267459 258.620624 -135.24083433 260.06044097 -138.87939453 261.49926758 C-140.45299421 262.122063 -142.02624002 262.74575329 -143.59912109 263.37036133 C-145.86202695 264.268805 -148.12619235 265.16400636 -150.390625 266.05859375 C-151.09181458 266.3377916 -151.79300415 266.61698944 -152.51544189 266.90464783 C-160.16859954 269.92003209 -167.63182259 271.71259451 -175.73046875 269.12890625 C-182.52496653 265.9937749 -187.02818563 261.94362875 -190.375 255.25 C-195.09309149 230.71592428 -179.38131259 202.33824876 -166.078125 182.61328125 C-160.43789791 174.42373279 -154.47589783 166.54994918 -148 159 C-147.51418457 158.43071777 -147.02836914 157.86143555 -146.52783203 157.27490234 C-140.92622573 150.71814372 -135.25933104 144.24198883 -129.375 137.9375 C-109.88195139 116.79635107 -102.00003525 100.80064286 -101.75390625 71.80859375 C-101.72939354 69.81076574 -101.70486958 67.8129378 -101.67970943 65.81511784 C-101.61969534 60.96121472 -101.56826438 56.10723741 -101.52319336 51.25317383 C-101.49734418 48.50757033 -101.46646078 45.76210517 -101.43040466 43.01661682 C-101.3970535 40.45334063 -101.37092214 37.88995615 -101.35340881 35.32652283 C-101.06222715 14.7083058 -101.06222715 14.7083058 -96.75 9.6875 C-94 8 -94 8 -90.9375 7.9375 C-87.46744163 9.1926275 -86.02255323 9.88837964 -84 13 C-83.38591849 17.31586868 -83.93331598 21.49757594 -84.50390625 25.79663086 C-85.21270708 32.17447982 -85.15579523 38.55065027 -85.17578125 44.9609375 C-85.19418206 47.76817069 -85.21698166 50.57536556 -85.23950195 53.38256836 C-85.24498613 54.11119992 -85.25047031 54.83983149 -85.25612068 55.59054279 C-85.57421766 96.92467509 -87.28175136 138.14185122 -94 179 C-94.22186373 180.38305638 -94.44319232 181.76619867 -94.6640625 183.14941406 C-97.90920723 203.39253256 -101.80888031 223.39399723 -106.55810547 243.34448242 C-114.86500814 279.12593114 -113.55399547 317.65986846 -95 350 C-94.4225 351.01578125 -93.845 352.0315625 -93.25 353.078125 C-91.6014718 355.81040784 -89.86126141 358.40852089 -88 361 C-87.32324219 361.95519531 -86.64648438 362.91039062 -85.94921875 363.89453125 C-81.90677866 369.15751439 -81.90677866 369.15751439 -75.98046875 371.62109375 C-73.24427506 371.62460619 -70.69561331 371.45346766 -68 371 C-68.87011719 369.5459375 -68.87011719 369.5459375 -69.7578125 368.0625 C-82.16635719 346.93522888 -88.18797744 325.32420773 -88.18530273 300.74902344 C-88.18746776 298.53300117 -88.20560861 296.31749566 -88.22460938 294.1015625 C-88.28141692 280.19784369 -86.79499182 266.83439039 -83.4375 253.3125 C-83.17630371 252.24966797 -82.91510742 251.18683594 -82.64599609 250.09179688 C-78.29106563 232.81296245 -72.61889484 215.92380159 -67.07421875 199 C-66.72560791 197.93523437 -66.37699707 196.87046875 -66.01782227 195.7734375 C-64.27258065 190.44547958 -62.52198793 185.1194033 -60.76025391 179.796875 C-52.61510883 155.31858879 -52.61510883 155.31858879 -46.625 130.25 C-46.46128906 129.46625 -46.29757813 128.6825 -46.12890625 127.875 C-45.6781916 125.5873391 -45.31267905 123.3103367 -45 121 C-44.8971167 120.29198242 -44.7942334 119.58396484 -44.68823242 118.85449219 C-44.11538399 111.49616705 -47.62239271 106.03860973 -51.0625 99.75 C-56.98408389 88.43305262 -61.56537176 77.29050185 -65 65 C-65.35707031 63.77667969 -65.71414062 62.55335938 -66.08203125 61.29296875 C-69.99976243 45.92616015 -70.15815964 26.88940668 -62.375 12.75 C-55.76517456 2.77045964 -47.48547425 -3.8445499 -36.0625 -7.64453125 C-22.82012186 -9.92683506 -11.06328753 -7.3099648 0 0 Z M-46.53125 15.9296875 C-49.15554627 19.62882851 -50.6061299 23.71347475 -52 28 C-52.33 28.99 -52.66 29.98 -53 31 C-54.31636463 58.85794922 -44.37257041 80.88666864 -31.875 105.1875 C-27.63247649 113.97558442 -30.18531534 124.86438299 -32.125 134 C-32.34728271 135.07797852 -32.56956543 136.15595703 -32.79858398 137.26660156 C-34.76930635 146.519242 -37.31224825 155.53718126 -40.21508789 164.53588867 C-41.0883845 167.27746959 -41.91784589 170.03081225 -42.75 172.78515625 C-44.50254721 178.49620765 -46.37180145 184.16251015 -48.27734375 189.82421875 C-48.57282608 190.70282562 -48.86830841 191.5814325 -49.17274475 192.48666382 C-50.3991265 196.12944004 -51.62702905 199.77168045 -52.86108398 203.41186523 C-56.52159732 214.22016105 -59.96337681 225.02907633 -62.91040039 236.05493164 C-63.97400451 240.00050385 -65.22768046 243.86691632 -66.5 247.75 C-73.58521243 270.90252485 -77.30273508 297.10978302 -72 321 C-71.8546582 321.68707031 -71.70931641 322.37414062 -71.55957031 323.08203125 C-67.44692731 342.09377018 -58.78048563 366.99350334 -41.859375 378.44921875 C-40.81523437 379.06216797 -40.81523437 379.06216797 -39.75 379.6875 C-30.61122572 385.62236343 -23.45834164 394.26839321 -21 405 C-2.29391557 409.94666674 14.61761636 411.41073965 34 411 C34.74523926 410.98598145 35.49047852 410.97196289 36.25830078 410.95751953 C47.26172248 410.68349337 58.55381436 408.48206188 69 405 C69.99744905 402.97361524 69.99744905 402.97361524 70.75 400.5 C74.41431713 390.77012763 81.95224079 381.85894072 91.4375 377.375 C104.24713355 370.43281765 112.93196967 346.88403247 117.0078125 333.71484375 C118.65994146 327.52911683 119.90795669 321.3087637 121 315 C121.18433594 314.0821875 121.36867188 313.164375 121.55859375 312.21875 C123.82873001 295.664836 121.49202414 279.18570032 118 263 C117.70319336 261.61022949 117.70319336 261.61022949 117.40039062 260.19238281 C115.23471146 250.22254914 112.704213 240.50758884 109.31323242 230.88085938 C107.98291342 227.0278434 106.85683046 223.12289944 105.7421875 219.203125 C103.27118188 210.66609118 100.40636681 202.29166138 97.46630859 193.90682983 C90.53683218 174.08286668 84.36067081 154.26759494 80.0625 133.6875 C79.85044922 132.69129639 79.63839844 131.69509277 79.41992188 130.66870117 C77.74276441 122.14911331 76.14475483 112.44710832 79.9375 104.3125 C80.39382813 103.31476563 80.85015625 102.31703125 81.3203125 101.2890625 C82.52936065 98.92157753 83.76401123 96.59523255 85.0546875 94.2734375 C89.62431354 86.02944271 93.39257015 77.85400832 96.5 68.9375 C97.00720581 67.49250122 97.00720581 67.49250122 97.5246582 66.01831055 C101.8649004 53.13002476 103.93649508 36.15210691 98.9375 23.1875 C95.26149529 15.88697525 90.26192167 10.67321888 82.58203125 7.6640625 C74.37364646 5.55298018 66.58954069 6.14236195 59.22265625 10.3828125 C52.73947557 15.09992463 47.90358485 21.33738041 46.61938477 29.38525391 C45.50100257 40.62765297 45.50100257 40.62765297 48.83984375 51.01953125 C51.14702698 53.21699383 51.14702698 53.21699383 53.66796875 55.0859375 C58.3286988 58.91132732 60.84691818 65.14234435 62 71 C62.38046313 75.08997862 62.4232784 78.78660192 61.0625 82.6875 C55.44566824 88.98515986 46.9553773 92.83049922 39.625 96.8125 C38.73683594 97.30169922 37.84867187 97.79089844 36.93359375 98.29492188 C31.02932711 101.52395726 26.91775451 103.45064125 20 103 C16.9296875 101.81005859 16.9296875 101.81005859 13.875 100.1484375 C12.75609375 99.54386719 11.6371875 98.93929687 10.484375 98.31640625 C9.33453125 97.67574219 8.1846875 97.03507812 7 96.375 C5.85015625 95.75753906 4.7003125 95.14007813 3.515625 94.50390625 C-11.30256245 86.3948751 -11.30256245 86.3948751 -14 81 C-14.95666965 71.26772606 -12.76582995 63.69892422 -6.79296875 56.01953125 C-5 54 -5 54 -3.48754883 52.78759766 C-0.9261574 50.62907471 0.74700839 49.0276482 1.56323242 45.7121582 C1.77269301 43.03142331 1.78060522 40.43722568 1.6875 37.75 C1.66751953 36.81140137 1.64753906 35.87280273 1.62695312 34.90576172 C1.24196741 25.53723221 -1.0231351 19.55444204 -7.875 13.0625 C-19.81757569 3.65050726 -36.09412745 4.55716246 -46.53125 15.9296875 Z " fill="#010101" transform="translate(232,86)"/>
<path d="M0 0 C25.81950877 21.51502676 41.76326588 50.69570345 46 84 C46.29317127 88.85582229 46.34697375 93.70259471 46.37890625 98.56640625 C46.39514303 99.93539037 46.41232907 101.30436351 46.43040466 102.67332458 C46.47562437 106.24456634 46.5106542 109.81582459 46.54260254 113.38720703 C46.5948909 119.10364064 46.66049829 124.8199094 46.73081779 130.53614616 C46.75325855 132.50945148 46.76949043 134.48282435 46.78553772 136.45619202 C47.08612611 163.67980578 57.82243246 178.77707714 76 198 C78.37054753 200.63507215 80.68444781 203.31660041 83 206 C83.87011719 206.99128906 84.74023438 207.98257813 85.63671875 209.00390625 C108.54316081 235.22801754 137.18844629 271.28740611 136.30859375 308.29296875 C135.60741965 314.44377449 133.24918818 319.1934525 128.6875 323.375 C122.92564246 327.76034612 117.48736115 329.69900926 110.25390625 329.47265625 C103.18624299 328.44602089 96.60329819 325.62069223 90 323 C89.10249023 322.64711914 88.20498047 322.29423828 87.28027344 321.93066406 C81.50546706 319.65634648 75.74639321 317.34513756 70 315 C70.144375 315.79535156 70.28875 316.59070313 70.4375 317.41015625 C71.93589266 327.13930302 72.22411925 336.79487474 72.25 346.625 C72.26353516 348.57031616 72.26353516 348.57031616 72.27734375 350.55493164 C72.20664686 373.83630153 72.20664686 373.83630153 67 383 C64 385 64 385 61.0625 384.875 C57.44653658 383.8418676 56.08940735 383.13411103 54 380 C53.71195019 376.37057242 53.65417739 373.44400867 54.49780273 369.92138672 C55.17307695 365.9931751 55.22123261 362.139905 55.2734375 358.16015625 C55.29216164 356.86073593 55.29216164 356.86073593 55.31126404 355.5350647 C55.61095094 329.66233527 53.05177656 306.11815271 46.953125 280.91967773 C44.39274996 270.03108281 42.78219967 258.96045056 41.05493164 247.91577148 C40.87401222 246.76002625 40.87401222 246.76002625 40.68943787 245.58093262 C40.45239332 244.06606583 40.21602749 242.55109267 39.98036194 241.03601074 C39.39818647 237.33837253 38.75140665 233.6754616 37.94921875 230.01953125 C36.53401276 223.22046805 35.95410267 216.28498879 35.25 209.38354492 C35.00577317 206.99398572 34.75354128 204.60538353 34.5 202.21679688 C34.06179709 198.04297295 33.65221476 193.86690802 33.2565918 189.68884277 C33.08423044 187.88265644 32.90724047 186.07690635 32.72583008 184.27160645 C30.69647033 163.84550471 30.61690198 143.45341344 30.48431396 122.94921875 C30.45272148 118.16830261 30.41335161 113.38756753 30.36405945 108.60680008 C30.34446977 106.41641725 30.33578289 104.22618659 30.32775879 102.03573608 C30.11841845 74.64066565 22.95515548 47.63327789 4 27 C3.32839844 26.18917969 2.65679687 25.37835938 1.96484375 24.54296875 C-15.14487233 4.32804104 -40.91625999 -8.00126999 -67 -11 C-98.04138411 -13.37220602 -126.75896484 -4.7999249 -150.65234375 15.22265625 C-159.03735659 22.57372766 -165.45933714 30.36316042 -171.44921875 39.72119141 C-173.68059358 43.17821322 -175.81765562 46.32603844 -179 49 C-181.9375 49.5625 -181.9375 49.5625 -185 49 C-187.9375 46.9375 -187.9375 46.9375 -190 44 C-190.67174364 32.5803581 -178.81354808 20.60770378 -171.61669922 12.42773438 C-155.91282681 -4.79128002 -136.23671651 -16.39405116 -114 -23 C-112.96625244 -23.31759277 -112.96625244 -23.31759277 -111.91162109 -23.64160156 C-73.92269429 -34.85611048 -30.44970085 -24.68037656 0 0 Z " fill="#000000" transform="translate(335,27)"/>
<path d="M0 0 C1.69490767 1.64354684 3.35187426 3.31014955 5 5 C5.77923828 5.76763672 5.77923828 5.76763672 6.57421875 6.55078125 C12.81852764 13.11531111 16.82509014 21.03912133 21 29 C21.49757813 29.928125 21.99515625 30.85625 22.5078125 31.8125 C25.34351515 37.51957451 27.09648036 43.43079712 28.75 49.5625 C28.96108398 50.34214111 29.17216797 51.12178223 29.38964844 51.92504883 C31.92934223 61.8700977 32.1414776 71.73249176 32.16924858 81.96045303 C32.18072238 85.67301181 32.21182995 89.38543526 32.23974609 93.09790039 C32.24799172 94.26536993 32.24799172 94.26536993 32.25640392 95.45642471 C32.43003768 119.54078154 32.68687519 143.5597991 34.875 167.5625 C34.95618073 168.46173187 35.03736145 169.36096375 35.1210022 170.28744507 C36.7610165 188.00942438 38.81751017 205.74617323 42.25878906 223.21435547 C43.0388585 227.19846506 43.74464596 231.19015361 44.4296875 235.19140625 C44.6673935 236.57026015 44.90526877 237.94908488 45.14331055 239.32788086 C45.26265961 240.01945282 45.38200867 240.71102478 45.50497437 241.42355347 C47.50227126 252.96900023 49.57318332 264.47003555 52.26318359 275.87915039 C55.86205092 291.46327954 57.45849925 306.53906801 57.28125 322.53027344 C57.2494908 325.42135286 57.24020019 328.31188659 57.234375 331.203125 C57.22522428 333.0599025 57.21485476 334.9166745 57.203125 336.7734375 C57.19887512 337.62859955 57.19462524 338.4837616 57.19024658 339.36483765 C57.14201186 343.37716769 56.95311946 347.07955158 56 351 C55.43433462 356.23161786 55.43433462 356.23161786 57.375 360.9375 C59.02249424 362.05923484 59.02249424 362.05923484 61 363 C59.27068234 370.00897689 57.16032658 376.50288191 54 383 C52.948125 382.896875 51.89625 382.79375 50.8125 382.6875 C45.96869519 383.08453318 45.15149267 384.41943086 42 388 C40.70289876 389.86392393 39.45330813 391.76169275 38.25 393.6875 C29.57323485 406.75941161 29.57323485 406.75941161 25 410 C21.08900947 410.51167104 17.78764418 410.03363748 14 409 C15.30787001 405.49464281 16.90404381 402.23906907 18.6652832 398.94091797 C41.56727109 355.45613085 34.83139739 309.53705804 20.9375 264.3125 C17.03089062 251.81662573 12.73839148 239.45731083 8.45532227 227.08676147 C4.10839055 214.50985391 0.20106975 201.92242041 -3 189 C-3.37610004 187.53867456 -3.75366607 186.07772551 -4.1328125 184.6171875 C-5.12863938 180.75413589 -6.07411608 176.88048239 -7 173 C-7.30035156 171.75347656 -7.60070312 170.50695312 -7.91015625 169.22265625 C-8.6898422 165.82467609 -9.38060781 162.43047984 -10 159 C-10.15339844 158.2265625 -10.30679687 157.453125 -10.46484375 156.65625 C-11.0947671 150.73276027 -8.30733937 146.33334086 -5.48583984 141.34741211 C7.43174312 118.46027715 18.43670896 89.23836744 12.140625 62.640625 C11.21743635 59.6837454 10.20880362 56.84966957 9 54 C7.93364756 50.80094268 8.00941032 48.2322947 8.11621094 44.89477539 C8.53201256 30.56243531 5.59102805 17.63669305 0.734375 4.1875 C0 2 0 2 0 0 Z " fill="#544D55" transform="translate(334,48)"/>
<path d="M0 0 C0.33 0 0.66 0 1 0 C0.37360958 10.08340604 -0.59196964 20.09727803 -1.8125 30.125 C-1.89992462 30.8477713 -1.98734924 31.5705426 -2.0774231 32.31521606 C-3.39627111 43.12179389 -5.11374821 53.75082517 -7.44824219 64.38574219 C-8.80927233 70.83437527 -9.96514243 77.32752286 -11.16186523 83.80834961 C-11.74223599 86.87964772 -12.36829838 89.93890616 -13 93 C-13.17772949 94.01690918 -13.35545898 95.03381836 -13.53857422 96.08154297 C-13.74111816 97.05365723 -13.94366211 98.02577148 -14.15234375 99.02734375 C-14.31597412 99.889646 -14.47960449 100.75194824 -14.64819336 101.64038086 C-16.78477824 105.36985401 -20.13629772 106.39104332 -24 108 C-24.68116379 108.29318619 -25.36232758 108.58637238 -26.06413269 108.88844299 C-28.18127227 109.78196742 -30.30948265 110.64044643 -32.4453125 111.48828125 C-33.2188205 111.79573776 -33.99232849 112.10319427 -34.78927612 112.41996765 C-36.41023819 113.06156991 -38.03208729 113.70093534 -39.65478516 114.33813477 C-41.30776215 114.99014417 -42.95815893 115.64873153 -44.60595703 116.3137207 C-47.00535283 117.28200238 -49.41161228 118.23092201 -51.8203125 119.17578125 C-52.91740036 119.62405022 -52.91740036 119.62405022 -54.03665161 120.08137512 C-58.40975214 121.76554423 -61.3408877 122.36081275 -66 121 C-68.375 119.5 -68.375 119.5 -70 117 C-73.13167917 93.1209463 -53.79245202 64.96597643 -40 47 C-34.95346779 40.54077918 -29.61849199 34.37978293 -24.10546875 28.31640625 C-18.87389136 22.56070052 -13.82168224 16.64635219 -8.75 10.75 C-8.23010498 10.14704102 -7.71020996 9.54408203 -7.17456055 8.92285156 C-5.10919747 6.5162254 -3.0936811 4.12626583 -1.203125 1.578125 C-0.80609375 1.05734375 -0.4090625 0.5365625 0 0 Z " fill="#423E42" transform="translate(127,219)"/>
<path d="M0 0 C7.45898566 7.21837322 14.20970595 15.15787609 21 23 C21.42120117 23.4842041 21.84240234 23.9684082 22.27636719 24.46728516 C25.88333215 28.61767943 29.45272498 32.79850094 33 37 C33.50225098 37.59200195 34.00450195 38.18400391 34.52197266 38.79394531 C50.58247668 57.84452035 64.2355811 79.53553169 70 104 C70.18949219 104.69222656 70.37898438 105.38445312 70.57421875 106.09765625 C71.61529433 110.74906735 71.92603925 115.34923438 69.5625 119.5625 C65.66964923 121.74629433 62.30164328 121.64056421 58 121 C52.3494709 119.22742398 46.91037085 117.00307561 41.4375 114.75 C39.95691759 114.1562104 38.47580063 113.56375184 36.99414062 112.97265625 C34.17749068 111.8459489 31.38107077 110.68248267 28.59326172 109.48632812 C25.19694607 107.99928461 25.19694607 107.99928461 22.33251953 107.24804688 C19.88118337 106.46970084 18.71330306 105.93436515 17 104 C14.9605857 98.79601909 13.99227903 93.48358614 13 88 C12.7006834 86.48981356 12.39843059 84.98020614 12.09326172 83.47119141 C11.15425455 78.76107499 10.29015159 74.03890118 9.4375 69.3125 C9.28559204 68.47894989 9.13368408 67.64539978 8.97717285 66.78659058 C6.84184633 55.06123484 4.831554 43.3366205 3.32373047 31.51171875 C2.95105251 28.62023248 2.55593292 25.73216285 2.16015625 22.84375 C1.87702286 20.75007853 1.59445967 18.65632986 1.3125 16.5625 C1.18069336 15.59578369 1.04888672 14.62906738 0.91308594 13.63305664 C0.31066977 9.05363835 -0.1623788 4.63166201 0 0 Z " fill="#423E42" transform="translate(384,219)"/>
<path d="M0 0 C0.99 0.495 0.99 0.495 2 1 C-2.75145229 17.73011359 -11.3733437 41.17558759 -27.125 50.3125 C-27.95773437 50.75722656 -28.79046875 51.20195312 -29.6484375 51.66015625 C-36.8628784 55.77070979 -41.3611041 62.71094227 -45 70 C-45.22429687 71.04414063 -45.44859375 72.08828125 -45.6796875 73.1640625 C-47 76 -47 76 -50.51953125 77.42578125 C-51.94476846 77.74795115 -53.37643227 78.04267783 -54.8125 78.3125 C-55.88081055 78.54549805 -55.88081055 78.54549805 -56.97070312 78.78320312 C-58.97495973 79.21520293 -60.9873983 79.60871652 -63 80 C-64.31484375 80.28230469 -64.31484375 80.28230469 -65.65625 80.5703125 C-86.66375212 84.42168789 -109.35771105 82.86906595 -130 78 C-130.68900391 77.86255371 -131.37800781 77.72510742 -132.08789062 77.58349609 C-135.07982344 76.90807266 -136.66005816 76.51663478 -138.3828125 73.8984375 C-138.62773437 73.06570313 -138.87265625 72.23296875 -139.125 71.375 C-140.79561019 66.37769648 -143.08411243 62.35805125 -146 58 C-144.83984375 58.0721875 -143.6796875 58.144375 -142.484375 58.21875 C-96.25717595 61.01452968 -52.67694328 52.17035711 -17.15625 20.9765625 C-10.53441539 14.91472255 -4.41660201 7.82287023 0 0 Z " fill="#D6EAFC" transform="translate(348,415)"/>
<path d="M0 0 C2.41024583 3.61536874 2.46911499 6.53545171 2.7109375 10.734375 C2.81971045 12.34010112 2.92868739 13.94581344 3.0378418 15.55151367 C3.09225433 16.39797455 3.14666687 17.24443542 3.20272827 18.11654663 C5.60323695 54.81222336 11.51421115 90.7925421 19.00390625 126.7734375 C19.1631105 127.53849106 19.32231476 128.30354462 19.48634338 129.09178162 C20.22303316 132.61579606 20.97144343 136.13668062 21.74145508 139.65356445 C24.88365138 154.31934829 26.34680687 168.65885735 26.26074219 183.64404297 C26.24976836 185.9231076 26.26085411 188.20142394 26.2734375 190.48046875 C26.27211968 191.94271006 26.26956516 193.40495091 26.265625 194.8671875 C26.26336914 196.16769043 26.26111328 197.46819336 26.25878906 198.80810547 C26 202 26 202 24 205 C23.75765625 203.75347656 23.5153125 202.50695312 23.265625 201.22265625 C22.20524232 195.80929282 21.11005081 190.40337964 20 185 C19.85578613 184.29101562 19.71157227 183.58203125 19.56298828 182.8515625 C15.09190146 161.26027779 7.51559505 140.36099506 0.3125 119.5625 C-4.32921566 106.15940134 -8.58738682 92.77640155 -12 79 C-12.37610004 77.53867456 -12.75366607 76.07772551 -13.1328125 74.6171875 C-14.12863938 70.75413589 -15.07411608 66.88048239 -16 63 C-16.45052734 61.13021484 -16.45052734 61.13021484 -16.91015625 59.22265625 C-17.6898422 55.82467609 -18.38060781 52.43047984 -19 49 C-19.15339844 48.2265625 -19.30679687 47.453125 -19.46484375 46.65625 C-20.09322484 40.74726288 -17.3279385 36.34183344 -14.49243164 31.37597656 C-9.90255162 23.29746795 -6.47193316 14.71836821 -2.92626953 6.14379883 C-2.02308061 4.05341877 -1.03847019 2.02608006 0 0 Z " fill="#665C66" transform="translate(343,158)"/>
<path d="M0 0 C0.79792969 0.54011719 1.59585938 1.08023437 2.41796875 1.63671875 C3.04058594 2.04277344 3.66320312 2.44882812 4.3046875 2.8671875 C8.4111091 5.89787145 11.2718514 10.05771836 13.41796875 14.63671875 C13.79296875 17.57421875 13.79296875 17.57421875 13.41796875 19.63671875 C11.65307623 21.40161127 9.12902017 20.77350234 6.73657227 20.78198242 C5.52183731 20.78836227 4.30710236 20.79474213 3.05555725 20.80131531 C1.71933024 20.80284388 0.38310269 20.80395789 -0.953125 20.8046875 C-2.31453996 20.80789848 -3.67595456 20.81126243 -5.03736877 20.81477356 C-7.8947937 20.82077091 -10.75218836 20.82261285 -13.60961914 20.82202148 C-17.27627376 20.82191984 -20.94273481 20.83557133 -24.60934353 20.85279369 C-27.42227576 20.86389694 -30.23516096 20.86594121 -33.04811287 20.86541176 C-34.40014373 20.86659444 -35.75217572 20.87103228 -37.1041851 20.87874413 C-38.99317826 20.88850948 -40.88222786 20.8844107 -42.77124023 20.87963867 C-44.38554176 20.8817762 -44.38554176 20.8817762 -46.03245544 20.88395691 C-48.58203125 20.63671875 -48.58203125 20.63671875 -50.58203125 18.63671875 C-50.58203125 12.68128552 -45.84346358 7.99530092 -41.9453125 3.9296875 C-30.34982768 -6.74680785 -13.52685583 -8.00416711 0 0 Z " fill="#FAB240" transform="translate(365.58203125,476.36328125)"/>
<path d="M0 0 C0.70705078 0.00563965 1.41410156 0.0112793 2.14257812 0.01708984 C11.53322717 0.23482528 18.32994735 2.87224265 25.1875 9.3125 C32.74044507 17.59590397 32.74044507 17.59590397 33.1875 23.3125 C31.1875 25.3125 31.1875 25.3125 28.63792419 25.55973816 C27.56172318 25.55831314 26.48552216 25.55688812 25.37670898 25.55541992 C24.15882187 25.55849655 22.94093475 25.56157318 21.68614197 25.56474304 C20.35195731 25.55784583 19.01777453 25.5505789 17.68359375 25.54296875 C16.32121321 25.54177702 14.95883184 25.54132377 13.59645081 25.5415802 C10.74076192 25.54001523 7.88519838 25.5317238 5.02954102 25.51831055 C1.36174113 25.50130453 -2.30592114 25.49749665 -5.97375584 25.49825573 C-8.78664982 25.49798436 -11.59951347 25.49250881 -14.41239738 25.48525429 C-15.76524564 25.48206351 -17.11809735 25.48009926 -18.47094917 25.47936058 C-20.35767979 25.47720227 -22.24439769 25.46767275 -24.13110352 25.45776367 C-25.20650894 25.45395187 -26.28191437 25.45014008 -27.38990784 25.44621277 C-29.8125 25.3125 -29.8125 25.3125 -30.8125 24.3125 C-30.68061523 17.85014628 -28.28514777 13.90213856 -23.8125 9.3125 C-16.32658041 3.12478689 -9.8398531 -0.08192076 0 0 Z " fill="#FAB240" transform="translate(163.8125,471.6875)"/>
<path d="M0 0 C5.25496506 3.44459535 9.58654918 8.08909126 12 13.9375 C12 15.2575 12 16.5775 12 17.9375 C8.47333715 19.98539848 4.92663284 21.99576835 1.375 24 C0.37597656 24.58072266 -0.62304688 25.16144531 -1.65234375 25.75976562 C-2.62558594 26.30439453 -3.59882813 26.84902344 -4.6015625 27.41015625 C-5.49182129 27.91812744 -6.38208008 28.42609863 -7.29931641 28.94946289 C-11.50410593 30.48777271 -14.51487905 29.60025863 -18.51708984 27.81420898 C-19.32355957 27.35860596 -20.1300293 26.90300293 -20.9609375 26.43359375 C-21.84394531 25.94052734 -22.72695312 25.44746094 -23.63671875 24.93945312 C-24.54035156 24.42318359 -25.44398438 23.90691406 -26.375 23.375 C-27.30183594 22.85486328 -28.22867188 22.33472656 -29.18359375 21.79882812 C-31.46034654 20.51962166 -33.73213523 19.23237762 -36 17.9375 C-34.92021834 10.31551183 -31.57594748 6.15154284 -25.87890625 1.234375 C-18.61401716 -3.78005988 -7.77859151 -4.02158473 0 0 Z " fill="#F9B140" transform="translate(268,144.0625)"/>
<path d="M0 0 C2.9375 2.0625 2.9375 2.0625 5 5 C5.06641554 8.85210127 4.87229157 10.99848005 2.3125 13.9375 C-0.73602877 15.33817538 -2.67926952 15.4842732 -6 15 C-8.375 13.4375 -8.375 13.4375 -10 11 C-10.56783945 7.02512383 -10.62340519 4.93510779 -8.375 1.5625 C-5.24316508 -0.49791771 -3.68455227 -0.6767545 0 0 Z " fill="#0A0B0B" transform="translate(209,116)"/>
<path d="M0 0 C1.9375 1.125 1.9375 1.125 3 3 C3.5 6.4375 3.5 6.4375 3 10 C0.9375 12.5 0.9375 12.5 -2 14 C-5.80284671 14 -8.01930006 13.7968187 -11 11.375 C-12.46981805 7.88418213 -11.98413921 5.60851044 -11 2 C-7.79952331 -1.93904824 -4.62362797 -1.17692348 0 0 Z " fill="#090909" transform="translate(310,117)"/>
</svg>
