<svg width="1920" height="1080" viewBox="0 0 1920 1080" fill="none" xmlns="http://www.w3.org/2000/svg">
<path d="M940.796 278.803C947.62 277.847 959.349 278.194 966.439 278.323C1037.92 279.632 1094.94 310.934 1131.28 372.845C1154.61 412.578 1163.71 436.104 1163.27 481.47C1169.15 482.905 1177.08 484.646 1181.4 489.101C1197.64 505.86 1198.53 539.783 1199.4 561.124C1200.38 584.955 1194.23 613.35 1178.63 631.605C1171.13 640.377 1159.58 650.362 1152 659.892C1146.52 666.394 1140.12 672.248 1135.45 679.379C1128.63 689.77 1131.5 720.126 1114.85 720.734C1099.37 721.299 1083.71 721.112 1068.45 721.105L977.185 721.046C944.14 721.704 910.435 720.676 877.268 721.094C854.297 721.383 830.567 721.148 807.558 720.92C805.365 720.898 799.338 720.288 797.789 718.844C788.919 710.568 789.076 688.335 783.428 677.689C779.57 671.001 772.818 666.959 767.344 661.708C760.842 655.471 755.342 647.809 748.658 641.815C733.119 627.881 723.219 609.443 719.603 588.887C716.953 573.761 717.55 558.857 718.82 543.711C720.657 521.788 722.701 506.708 735.512 488.313C743.446 485.95 751.399 483.654 759.37 481.423C758.803 425.452 777.815 387.784 812.306 343.516C843.237 303.818 891.037 283.591 940.796 278.803Z" fill="black"/>
<path d="M973.704 588.482L1142.51 588.409L1125.72 649.253C1123.86 656.071 1119.1 671.722 1117.95 678.128C1115.35 686.869 1112.79 695.191 1110.85 704.127L808.657 704.126C797.421 667.317 787.204 625.882 776.692 588.373L908.323 588.395C929.994 588.411 952.133 588.933 973.704 588.482Z" fill="#474647"/>
<path d="M973.704 588.482L1142.51 588.409L1125.72 649.253C1123.86 656.071 1119.1 671.722 1117.95 678.128C1091.41 676.98 1065.28 665.986 1041.8 653.838C1035.24 650.44 1028.56 644.257 1021.26 640.685L1020.48 640.311C1016.88 628.805 1010.6 628.585 999.926 627.644L1003.36 626.453C1003.49 624.013 985.908 606.013 983.056 602.238C979.489 597.518 976.746 593.856 973.704 588.482Z" fill="#595959"/>
<path d="M946.545 666.999C927.438 688.265 895.91 689.219 881.7 664.203C855.588 618.233 921.394 577.802 950.433 627.868C966.539 626.631 984.319 628.918 999.926 627.644C1010.6 628.585 1016.88 628.805 1020.48 640.311C1020.84 643.366 1021.03 646.44 1021.03 649.516C1021.26 670.223 1001.83 667.147 986.519 667.487C973.361 667.779 959.736 667.227 946.545 666.999Z" fill="#FEFEFE"/>
<path d="M907.978 611.46C915.878 610.687 932.594 611.3 935.351 620.625C934.917 621.094 934.421 621.628 933.864 622.229C924.473 619.801 918.361 615.858 908.059 618.119C900.954 619.636 894.783 624.001 890.986 630.195C887.173 636.497 886.054 644.068 887.879 651.204C892.286 668.653 908.768 674.236 924.954 669.873C929.422 667.13 933.922 662.796 939.15 664.509L938.866 666.487C923.349 686.006 890.725 679.264 882.928 655.249C880.012 646.442 880.825 636.825 885.18 628.632C890.54 618.592 897.632 614.667 907.978 611.46Z" fill="#FF8D00"/>
<path d="M902.722 633.154C910.71 637.332 902.356 645.021 906.932 651.124C910.836 646.044 909.965 639.6 913.817 636.706C919.561 637.049 916.004 649.659 920.862 653.296C930.982 648.278 919.114 639.784 926.317 633.471C932.61 640.201 932.594 647.446 928.471 655.908C925.222 662.577 917.531 657.506 913.04 654.932C910.728 655.981 910.172 656.468 908.117 658.008C896.285 659.324 898.567 639.71 902.722 633.154Z" fill="black"/>
<path d="M979.708 636.423C986.479 635.715 990.407 636.945 991.036 644.293C988.913 650.393 985.004 650.279 980.056 653.156C984.684 655.578 987.211 652.218 991.125 655.351C986.999 669.89 960.016 653.672 979.708 636.423Z" fill="black"/>
<path d="M949.373 635.832C952.313 637.248 954.104 637.917 957.306 637.147C968.918 634.355 970.995 654.472 965.574 659.996L963.962 659.545C961.662 656.591 961.895 653.255 961.664 649.462C961.624 647.334 961.334 644.608 959.68 643.323C955.159 646.374 955.715 656.857 949.458 659.256L948.093 657.784C947.521 650.636 948.409 642.922 949.373 635.832Z" fill="black"/>
<path d="M999.185 634.054L1001.92 635.083C1005.66 642.743 1006.16 636.822 1010.87 640.346C1009.59 644.661 1004.06 645.927 1002.03 650.931L1002.83 652.585C1006.19 654.532 1008.21 653.944 1012.1 653.497L1012.19 656.727C1003.88 667.83 990.447 651.367 999.185 634.054Z" fill="black"/>
<path d="M938.129 635.834L941.584 636.922C944.813 640.725 943.782 653.271 941.711 657.541C938.351 656.665 939.211 657.402 937.337 655.073C936.188 648.112 937.349 642.87 938.129 635.834Z" fill="black"/>
<path d="M820.704 449.812C825.178 450.388 829.815 450.848 834.312 451.356C836.86 451.604 839.781 451.487 841.538 453.059C848.169 471.143 847.348 484.84 868.888 495.028C880.426 500.626 893.755 501.244 905.761 496.738C910.513 494.958 915.807 491.904 919.526 488.401C919.913 487.82 920.137 487.499 920.637 486.993C928.649 478.895 931.197 472.128 933.9 461.649C934.421 457.773 933.976 456.104 936.115 453.41C948.544 449.049 974.776 450.469 987.838 453.254C988.266 456.176 988.769 460.391 989.413 463.138C992.544 473.73 993.589 476.735 1000.54 485.762C1008.64 494.428 1019.83 499.556 1031.68 500.035C1061.84 500.992 1075.84 478.578 1080.75 452.142C1086.81 451.52 1093.5 450.971 1099.48 450.187C1105.5 467.322 1107.17 482.308 1098.94 498.131C1086.02 522.937 1073.89 534.236 1049.75 546.615C1045.33 548.88 1037.05 568.984 1027.63 569.809C1002.98 573.344 971.959 571.077 947.059 571.067C939.851 572.315 903.179 572.251 895.515 569.919C884.208 566.479 880.653 554.338 873.237 546.97C868.548 542.311 859.68 538.99 853.497 535.637C839.89 528.258 827.773 511.436 820.88 497.754C812.743 481.604 814.833 466.196 820.704 449.812Z" fill="#FEFEFE"/>
<path d="M933.9 461.649C934.421 457.773 933.976 456.104 936.115 453.41C948.544 449.049 974.776 450.469 987.838 453.254C988.266 456.176 988.769 460.391 989.413 463.138C992.544 473.73 993.589 476.735 1000.54 485.762C998.116 510.121 987.115 534.223 961.858 541.782L957.966 541.603C934.524 535.516 922.248 510.702 919.526 488.401C919.913 487.82 920.137 487.499 920.637 486.993C928.649 478.895 931.197 472.128 933.9 461.649Z" fill="black"/>
<path d="M958.318 523.411C947.322 516.593 931.592 494.273 940.165 481.029C949.084 467.251 977.733 468.043 981.767 486.383C984.362 498.177 971.902 518.581 961.754 523.218L958.318 523.411Z" fill="#FFB800"/>
<path d="M933.9 461.649C934.421 457.773 933.976 456.104 936.115 453.41C948.544 449.049 974.776 450.469 987.838 453.254C988.266 456.176 988.769 460.391 989.413 463.138C988.424 463 981.877 459.508 980.28 458.812C963.104 451.333 950.102 452.1 933.9 461.649Z" fill="#FEFEFE"/>
<path d="M820.704 449.812C825.178 450.388 829.815 450.848 834.312 451.356C849.279 491.513 874.777 548.762 913.205 570.519C921.235 570.54 939.871 570.11 947.059 571.067C939.851 572.315 903.179 572.251 895.515 569.919C884.208 566.479 880.653 554.338 873.237 546.97C868.548 542.311 859.68 538.99 853.497 535.637C839.89 528.258 827.773 511.436 820.88 497.754C812.743 481.604 814.833 466.196 820.704 449.812Z" fill="#DCDCDC"/>
<path d="M827.887 351.258C853.59 323.818 871.03 312.565 907.591 302.374C964.581 286.489 1038.72 296.077 1082.43 338.531C1115.25 370.399 1145.26 421.255 1146.38 468.257C1146.59 480.332 1145.68 501.848 1136.7 510.318C1125.42 520.956 1111.66 531.28 1100.89 542.534C1093.85 549.897 1084.97 562.842 1078.7 571.467L1057.41 571.543C1083.36 555.941 1100.94 536.668 1116.66 511.061C1122.52 501.518 1128.09 491.715 1130.79 480.753C1137.01 455.585 1127.19 423.573 1113.87 402.062C1098.72 377.586 1068.1 355.681 1040.03 349.223C992.009 338.173 894.084 335.322 850.942 362.465C842.847 367.559 835.583 373.787 828.036 379.631C824.933 383.921 812.424 394.176 808.647 401.579C798.093 422.406 784.435 455.696 791.587 479.56C803.08 517.903 831.629 551.187 865.106 571.518L839.635 571.234C831.205 561.569 823.27 551.08 814.452 540.921C807.484 530.933 787.241 516.774 782.611 506.34C759.261 453.714 799.408 386.658 827.887 351.258Z" fill="#474647"/>
<path d="M959.97 415.208C971.242 412.323 976.804 407.543 986.754 402.223C999.56 395.778 1016.39 390.737 1030.75 393.294C1056.92 397.955 1075.37 413.415 1090.8 433.973C1085.9 434.786 1079.63 435.256 1074.58 435.777C1060.59 423.968 1017.3 428.85 999.177 430.679C995.322 432.751 994.585 433.532 991.393 436.549C969.653 432.946 953.047 433.185 931.367 436.519L925.35 431.305C915.172 428.896 874.567 425.992 862.987 430.62C861.172 431.345 861.087 432.538 860.644 434.099C862.39 439.314 867.324 441.321 872.034 443.972L862.106 446.625C860.168 449.956 858.096 454.653 856.398 458.219C854.426 440.741 848.931 445.802 846.275 440.649C849.838 438.835 854.665 437.347 856.645 434.344C856.806 431.869 857.142 432.55 855.89 431.062C853.023 431.468 850.142 434.053 847.647 435.865L829.261 433.765C845.788 411.305 861.934 400.186 888.751 392.991C910.007 391.439 922.45 396.231 940.624 406.62C947.51 410.556 952.183 413.274 959.97 415.208Z" fill="#FEFEFE"/>
<path d="M940.016 358.536C966.756 356.473 1019.9 360.153 1045.4 368.522C1066.77 375.537 1093.59 397.496 1103.62 418.819C1073.9 383.576 1038.62 364.118 992.578 379.243C979.018 384.201 972.378 388.517 959.972 395.881C912.322 366.72 874.028 363.685 830.438 403.535L829.149 403.443C833.989 391.7 871.423 368.295 885.115 366.111C902.435 363.348 922.467 359.71 940.016 358.536Z" fill="#939293"/>
<path d="M744.901 505.285C753.32 509.071 760.671 516.115 767.701 522.198C755.16 544.235 748.072 570.78 746.333 596.022L745.21 611.37C731.013 583.885 731.004 531.929 744.901 505.285Z" fill="#474647"/>
<path d="M1170.44 506.15L1171.71 506.224C1176.84 508.905 1179.21 523.192 1179.85 528.787C1182.53 552.277 1184.95 577.271 1177.18 600.063L1175.41 587.671C1171.81 560.435 1167.06 543.448 1153.34 519.421C1159.51 513.195 1163.15 510.444 1170.44 506.15Z" fill="#474647"/>
<path d="M1140.2 532.252L1141.26 532.806C1148.22 542.916 1152.81 559.986 1155.86 571.676C1145.16 571.065 1131.68 571.425 1120.78 571.416L1101.84 571.294L1140.2 532.252Z" fill="#939293"/>
<path d="M780.923 533.212C793.853 542.548 807.079 558.226 815.967 571.42L804.609 571.416L766.987 571.408C770.374 556.432 774.121 546.792 780.923 533.212Z" fill="#939293"/>
<path d="M1158.46 594.276L1159.09 595.015C1161.47 604.771 1160.21 617.766 1158.38 627.552C1155.63 630.148 1151.97 632.949 1148.97 635.368L1148.27 635.373L1147.49 634.291C1150.79 621.131 1154.82 607.405 1158.46 594.276Z" fill="#939293"/>
<path d="M762.6 604.516C764.823 606.252 769.905 627.457 771.011 631.603C769.691 631.132 767.639 630.155 766.289 629.559C761.169 624.206 762.468 611.791 762.6 604.516Z" fill="#939293"/>
</svg>
