<svg width="1920" height="1080" viewBox="0 0 1920 1080" fill="none" xmlns="http://www.w3.org/2000/svg">
<path d="M973.886 201.529C982.217 202.481 988.212 204.815 999.634 205.62C1017.73 207.695 1037.46 203.925 1054.86 210.228C1065.97 214.25 1060.96 225.52 1060.14 232.823C1057.17 259.421 1045.51 280.862 1033.88 304.514C1054.59 314.667 1081.86 329.817 1097.03 347.523C1131.7 388.011 1158.39 445.843 1171.48 497.435C1188.76 498.446 1232.39 510.021 1246.68 521.84C1259.62 556.453 1230.78 588.586 1202.35 604.733C1193.54 609.739 1183.98 611.641 1174.12 613.447C1166.12 641.344 1162.29 649.683 1142.08 671.264C1117.96 697.033 1098.74 708.163 1065.1 718.266C1067.79 758.812 1028.25 750.215 1001.48 749.113C988.399 748.575 980.405 743.717 974.268 732.598C965.979 733.396 954.262 733.411 946.019 732.462C944.699 734.799 941.151 740.072 939.023 741.866C925.639 751.553 901.355 750.364 885.111 750.483C862.792 750.647 854.06 738.392 854.927 718.266L840.469 713.665C835.814 715.433 831.033 716.845 826.165 717.891C809.782 721.24 785.975 720.819 771.995 711.079C758.67 701.348 749.471 686.742 742.527 672.006C738.47 663.394 731.317 651.639 738.2 642.604C741.495 638.277 747.808 637.957 752.883 637.236L745.872 613.306C732.001 611.081 725.74 609.153 713.572 602.695C703.745 632.103 689.785 608.078 674.341 599.192C649.411 584.849 665.676 569.896 669.639 549.494C670.346 545.857 669.438 537.155 669.606 532.549C652.069 536.599 650.605 538.014 640.396 522.721C634.185 514.462 615.038 491.072 641.725 490.413C656.348 490.052 677.039 502.593 687.285 513.213C708.501 504.934 725.514 499.443 748.487 497.508C755.921 466.748 769.206 434.948 783.625 406.791C782.637 407.227 777.75 409.319 776.722 409.573C738.201 416.547 697.475 427.74 658.118 420.956C640.676 417.95 585.939 344.418 588.066 324.29C588.823 317.129 624.541 315.718 633.679 313.398C660.699 306.359 665.382 299.166 678.247 327.813C689.344 352.521 701.617 374.83 724.328 389.82C731.967 375.532 736.396 369.244 753.922 372.65C768.651 375.512 791.167 368.574 803.955 372.439C826.292 339.612 840.585 328.44 875.988 309.452C825.606 290.04 785.417 322.47 734.364 317.78C718.91 317.036 711.353 317.522 705.457 301.69C699.866 286.674 698.881 278.194 699.136 262.376C699.708 226.901 717.393 240.988 739.191 242.809C761.25 244.652 787.024 233.362 809.093 230.971C826.048 229.236 866.85 229.939 875.262 248.048C880.818 260.008 886.565 288.546 889.613 302.823C908.412 294.257 921.18 290.854 941.641 289.265C954.09 261.973 958.217 240.899 965.92 211.941C967.697 205.263 968.051 204.821 973.886 201.529Z" fill="black"/>
<path d="M829.739 433.789C860.17 393.237 900.054 378.908 944.948 408.937C948.857 411.551 954.63 413.903 959.1 415.346C968.44 413.273 978.81 407.313 987.325 402.203C1034.79 373.722 1091.63 414.75 1103.07 461.962C1112.98 502.841 1078.19 516.557 1066.64 546.211C1062.84 555.962 1081.04 601.428 1083.89 612.567C1088.65 633.677 1099.19 663.424 1098.62 683.823L1087.71 689.586C1077.15 694.808 1069.72 697.172 1058.36 700.179C1038.83 693.092 991.672 686.122 976.363 705.397C975.344 706.68 973.423 711.664 972.716 713.46C963.454 714.15 956.498 713.964 947.265 713.473L946.913 712.536C939.886 694.423 925.573 693.642 908.024 693.374C890.942 693.113 877.1 694.067 861.191 700.441C843.815 694.962 837.535 692.58 821.47 683.937C820.536 663.869 831.277 632.048 836.292 612.056C839.631 598.743 857.048 557.157 853.171 545.029C848.09 529.134 820.703 508.223 816.568 486.777C812.443 465.383 819.242 451.029 829.739 433.789Z" fill="#FEFEFE"/>
<path d="M821.47 683.937C820.536 663.869 831.277 632.048 836.292 612.056C839.631 598.743 857.048 557.157 853.171 545.029C848.09 529.134 820.703 508.223 816.568 486.777C812.443 465.383 819.242 451.029 829.739 433.789C852.081 525.385 898.886 600.098 980.644 649.917C1005.71 665.189 1058.21 687.342 1087.71 689.586C1077.15 694.808 1069.72 697.172 1058.36 700.179C1038.83 693.092 991.672 686.122 976.363 705.397C975.344 706.68 973.423 711.664 972.716 713.46C963.454 714.15 956.498 713.964 947.265 713.473L946.913 712.536C939.886 694.423 925.573 693.642 908.024 693.374C890.942 693.113 877.1 694.067 861.191 700.441C843.815 694.962 837.535 692.58 821.47 683.937Z" fill="#DCDCDB"/>
<path d="M958.079 541.805C924.733 531.199 902.103 476.637 938.979 458.684C950.513 453.197 963.746 452.485 975.801 456.702C1018.17 471.749 997.024 527.205 968.677 539.424C966.483 540.373 964.223 541.16 961.914 541.78L958.079 541.805Z" fill="black"/>
<path d="M955.929 471.804C995.083 470.191 983.748 504.509 963.537 522.671C949.414 526.179 931.673 493.306 940.408 481.043C945.437 473.982 948.146 473.906 955.929 471.804Z" fill="#FFB800"/>
<path d="M1026.53 399.312C1038.37 400.723 1033.31 403.897 1038.58 410.342C1042.85 415.558 1054.24 415.352 1052.53 426.589C1051.26 434.975 1046.95 431.915 1042.02 435.905C1041.17 439.139 1041.83 441.206 1044.56 442.933C1063.19 454.702 1063.2 466.134 1046.29 482.16C1046.66 491.75 1047.44 493.602 1038.72 498.246C1035.91 497.601 1031.39 496.74 1030.76 493.808C1028.41 482.951 1012.46 487.707 1011.9 474.627C1014.23 469.916 1019.6 468.583 1024.43 466.782C1025.68 464.586 1024.93 458.825 1023.09 457.646C1003.31 444.919 998.586 433.342 1019.99 415.275C1019.5 406.588 1018.97 404.312 1026.53 399.312Z" fill="black"/>
<path d="M887.915 397.46C900.715 396.792 897.382 401.841 899.948 410.109C900.373 411.476 905.27 414.725 906.639 416.147C912.897 422.649 911.591 436.402 900.242 435.213C898.844 435.065 897.163 434.543 896.629 436.22C895.248 440.203 896.719 442.133 899.417 444.986C914.554 460.994 907.206 472.396 889.845 481.897C888.544 490.526 887.964 492.337 879.814 495.817C867.724 490.303 875.437 490.405 870.166 482.65C867.906 479.324 854.349 474.535 859.344 465.208C863.106 462.14 868.375 461.878 873.065 461.596C875.049 459.352 874.73 456.899 875.212 453.408C855.941 438.565 858.986 420.341 881.157 410.915C882.384 403.749 882.521 402.136 887.915 397.46Z" fill="black"/>
<path d="M823.503 377.968C840.844 347.676 886.255 321.4 918.635 312.163C968.515 299.089 1016.81 310.746 1058.59 339.869C1065.26 344.517 1077.64 353.536 1082.76 359.98C1139.81 431.725 1186.16 548.501 1145.19 637.341C1141.23 645.94 1123.9 662.767 1117.45 668.987C1109.76 628.372 1096.29 590.875 1083.97 551.826C1104.2 524.36 1128.96 501.062 1122.58 463.368C1114.14 413.441 1062.14 366.861 1009.92 374.693C991.43 377.466 975.848 386.345 959.98 395.875C909.75 365.664 871.58 363.988 827.073 406.676C823.861 403.152 823.794 383.775 823.503 377.968Z" fill="#908F8F"/>
<path d="M823.503 377.968C823.794 383.775 823.861 403.152 827.073 406.676C811.277 425.565 801.474 439.623 797.072 464.89C790.971 499.91 816.212 524.942 836.013 551.799C823.88 590.516 810.056 628.779 802.577 669.038C778.516 646.671 767.556 631.237 761.883 597.928C749.221 523.591 781.916 438.362 823.503 377.968Z" fill="#908F8F"/>
<path d="M982.289 222.275C1006.16 225.464 1020.83 223.997 1042.91 225.242C1042.13 228.562 1041.07 232.663 1040.71 236.019C1038.64 255.486 1028.74 273.185 1020.6 290.692L1017 297.098C998.803 290.578 981.429 289.149 962.293 287.559C965.045 281.823 966.633 278.046 968.801 272.065C972.822 256.783 979.031 237.002 982.289 222.275Z" fill="#B1DB84"/>
<path d="M968.801 272.065C976.606 265.625 983.592 261.547 994.312 262.433C1001.71 263.06 1008.54 266.663 1013.24 272.417C1018.31 278.587 1019.23 283.018 1020.6 290.692L1017 297.098C998.803 290.578 981.429 289.149 962.293 287.559C965.045 281.823 966.633 278.046 968.801 272.065Z" fill="#0D8A5B"/>
<path d="M610.531 335.231C630.006 330.933 635.168 332.774 657.345 325.513C664.821 344.099 675.196 361.228 685.126 378.655C692.822 389.216 698.567 394.526 709.527 401.91C687.775 405.564 671.295 410.553 653.192 395.468C636.593 379.953 621.029 355.567 610.531 335.231Z" fill="#B1DB84"/>
<path d="M685.126 378.655C692.822 389.216 698.567 394.526 709.527 401.91C687.775 405.564 671.295 410.553 653.192 395.468C654.773 393.484 656.175 391.496 657.61 389.408C664.253 379.739 676.219 382.043 685.126 378.655Z" fill="#0D8A5B"/>
<path d="M768.498 258.343C783.23 255.927 797.662 250.674 812.926 248.668C829.2 248.25 844.575 248.554 859.601 255.874C862.136 266.173 865.012 277.106 867.338 287.399C846.303 284.894 839.861 283.455 818.258 286.454C805.066 289.713 792.953 292.585 779.603 295.212C766.035 285.647 762.91 273.7 768.498 258.343Z" fill="#0D8A5B"/>
<path d="M812.926 248.668C829.2 248.25 844.575 248.554 859.601 255.874C862.136 266.173 865.012 277.106 867.338 287.399C846.303 284.894 839.861 283.455 818.258 286.454C819.342 280.355 824.59 267.606 820.602 260.93C818.232 256.963 814.587 253.395 812.926 248.668Z" fill="#B1DB84"/>
<path d="M739.303 517.773C740.669 517.409 742.036 517.57 743.464 517.622C744.26 519.378 741.866 534.408 741.529 538.045C739.842 556.478 739.963 575.032 741.887 593.441C727.73 589.911 722.598 586.707 711.397 577.602C702.278 569.097 693.417 557.817 689.176 545.961C682.15 526.315 726.088 520.055 739.303 517.773Z" fill="#908F8F"/>
<path d="M1175.68 517.173C1186.63 517.717 1221.78 526.807 1229.65 533.37C1236.53 545.802 1220.43 565.902 1211.82 574.535C1201.38 584.823 1192.28 589.949 1178.11 593.388C1180.9 566.125 1179.78 544.087 1175.68 517.173Z" fill="#908F8F"/>
<path d="M717.491 257.166C736.366 262.731 749.411 262.367 768.498 258.343C762.91 273.7 766.035 285.647 779.603 295.212C757.709 300.786 745.838 299.884 724.032 298.494C717.044 282.574 717.377 274.278 717.491 257.166Z" fill="#B1DB84"/>
<path d="M1020.66 711.645C1029.39 711.537 1040.32 710.604 1046.56 717.731C1046.01 721.177 1047.52 723.643 1045.48 727.85C1040.01 733.69 980.02 735.669 992.622 715.597C995.616 710.829 1014.91 711.691 1020.66 711.645Z" fill="#DD9F00"/>
<path d="M1020.66 711.645C1029.39 711.537 1040.32 710.604 1046.56 717.731C1046.28 719.204 1046.08 719.231 1045.16 720.456C1038.43 721.727 1024.59 717.517 1020.66 711.645Z" fill="#FFB800"/>
<path d="M888.295 711.838C894.339 711.034 918.548 710.901 924.614 713.947C926.336 714.879 928.818 716.757 929.018 718.957C929.883 728.45 923.514 729.104 917.049 730.197C904.443 730.947 867.216 738.789 874.531 716.796C877.808 712.604 883.061 712.578 888.295 711.838Z" fill="#DD9F00"/>
<path d="M788.636 682.154C797.457 690.069 803.53 695.062 813.617 701.407C800.548 701.132 787.321 701.987 777.634 691.951C776.215 690.472 774.827 688.962 773.474 687.423C781.784 687.377 782.765 687.761 788.636 682.154Z" fill="#B1DB84"/>
<path d="M771.923 664.728C777.238 670.326 783.151 676.844 788.636 682.154C782.765 687.761 781.784 687.377 773.474 687.423C769.715 683.093 768.164 680.68 765.171 675.904C766.394 670.153 767.791 668.57 771.923 664.728Z" fill="#0D8A5B"/>
<path d="M765.171 675.904C762.737 671.433 753.956 658.193 758.706 654.113C765.099 655.383 767.819 659.821 771.923 664.728C767.791 668.57 766.394 670.153 765.171 675.904Z" fill="#B1DB84"/>
<path d="M745.404 389.672C754.353 391.676 761.143 390.978 768.508 392.572L765.745 393.79C760.794 395.002 744.792 400.121 742.973 393.978L745.404 389.672Z" fill="#B1DB84"/>
<path d="M681.424 573.189C683.16 574.621 695.363 588.552 697.921 591.304L697.733 593.625C692.715 590.062 684.509 585.133 680.921 580.273C679.322 578.108 680.632 575.785 681.424 573.189Z" fill="#B1DB84"/>
<path d="M1232.86 327.338C1237 326.814 1242.58 326.798 1246.16 328.748C1258.51 335.469 1293.32 344.655 1299 357.205C1299.74 365.266 1289.9 384.32 1286.77 394.269C1279 418.391 1273.74 443.25 1271.06 468.452C1269.52 481.837 1269.79 494.035 1269.73 507.395C1269.71 512.273 1264.08 513.613 1260.07 514.181C1242.75 508.579 1201.73 482.38 1191.92 467.612C1189.58 431.395 1204.22 389.32 1216.59 355.673C1220.46 345.159 1223.29 333.777 1232.86 327.338Z" fill="black"/>
<path d="M1240.05 345.893C1253.01 351.867 1266.09 356.68 1278.79 363.004C1273.11 378.5 1268.6 390.865 1264.13 406.719C1261.82 415.583 1259.16 424.964 1257.75 433.97C1254.32 450.399 1252.29 472.887 1250.78 489.795C1235.21 481.313 1223.6 472.399 1209.9 461.035C1210.24 448.347 1211.63 438.974 1213.96 426.542C1216.4 415.094 1219.33 403.755 1222.74 392.555C1228.36 376.945 1234.13 361.391 1240.05 345.893Z" fill="#0D8A5B"/>
<path d="M1240.05 345.893C1253.01 351.867 1266.09 356.68 1278.79 363.004C1273.11 378.5 1268.6 390.865 1264.13 406.719L1263.89 406.247C1254.42 388.196 1241.16 383.331 1222.74 392.555C1228.36 376.945 1234.13 361.391 1240.05 345.893Z" fill="#B1DB84"/>
<path d="M1213.96 426.542C1224.14 441.756 1239.02 447.25 1254.94 436.126C1255.91 435.451 1256.85 434.731 1257.75 433.97C1254.32 450.399 1252.29 472.887 1250.78 489.795C1235.21 481.313 1223.6 472.399 1209.9 461.035C1210.24 448.347 1211.63 438.974 1213.96 426.542Z" fill="#B1DB84"/>
<path d="M1278.13 586.298C1319.43 587.065 1332.95 642.153 1341.27 674.404C1345.34 690.179 1324.42 691.52 1314.24 692.799C1307.24 693.679 1300.7 695.228 1293.45 695.286C1281.68 690.835 1282.55 679.859 1279.53 669.068C1274.02 648.988 1265.31 632.247 1247.27 620.857C1238.75 615.481 1225.02 607.539 1229.56 595.982C1235.92 588.754 1266.24 587.928 1278.13 586.298Z" fill="black"/>
<path d="M1259.91 607.089C1280.87 605.425 1288.97 599.963 1302.61 621.046C1306.33 627.78 1308.56 633.203 1311.54 640.323C1304.31 645.669 1300.76 647.677 1291.7 647.144C1289.05 641.476 1285.34 635.466 1282.17 630.014C1274.81 618.966 1269.85 615.592 1259.91 607.089Z" fill="#B1DB84"/>
<path d="M1282.17 630.014C1288.97 622.119 1292.5 622.007 1302.61 621.046C1306.33 627.78 1308.56 633.203 1311.54 640.323C1304.31 645.669 1300.76 647.677 1291.7 647.144C1289.05 641.476 1285.34 635.466 1282.17 630.014Z" fill="#0D8A5B"/>
<path d="M1291.7 647.144C1300.76 647.677 1304.31 645.669 1311.54 640.323C1315.54 651.079 1319.26 661.941 1322.68 672.898C1314.95 673.834 1307.23 674.563 1299.7 676.536C1298.23 664.129 1296.25 658.931 1291.7 647.144Z" fill="#B1DB84"/>
<path d="M1166.25 217.622C1180.76 216.514 1209.39 232.612 1225.31 236.777C1234.05 239.062 1269.05 246.952 1273.17 253.037C1275.35 256.256 1268.87 296.058 1266.61 300.347C1264.86 301.615 1261.66 303.213 1259.44 302.812C1232.65 297.923 1205.65 289.903 1179.38 282.632C1165.51 279.008 1161.67 267.866 1161.5 254.65C1161.32 241.295 1154.77 227.439 1166.25 217.622Z" fill="black"/>
<path d="M1205.89 249.55C1212.92 251.891 1225.78 256.599 1232.56 258.121C1240.02 259.882 1247.48 261.59 1254.97 263.245C1253.19 270.6 1252.14 275.246 1251.25 282.728L1225.21 276.154C1216.6 273.627 1209.38 271.493 1200.61 269.745C1200.78 260.586 1201.75 257.756 1205.89 249.55Z" fill="#0D8A5B"/>
<path d="M1232.56 258.121C1240.02 259.882 1247.48 261.59 1254.97 263.245C1253.19 270.6 1252.14 275.246 1251.25 282.728L1225.21 276.154C1225.65 274.876 1227.98 272.235 1229 270.526C1232.21 265.17 1231.05 263.474 1232.41 258.627L1232.56 258.121Z" fill="#B1DB84"/>
<path d="M1178.18 238.111C1187.46 242.153 1196.35 246.093 1205.89 249.55C1201.75 257.756 1200.78 260.586 1200.61 269.745C1193.73 267.956 1187.87 266.393 1181.13 264.118C1179.9 256.67 1179.04 245.822 1178.18 238.111Z" fill="#B1DB84"/>
<path d="M1215.34 656.404C1230.14 655.786 1230.86 669.945 1226.24 680.311C1214.87 705.809 1196.69 730.62 1170.09 741.591C1148.64 750.439 1123.49 752.269 1101.81 743.467C1098.46 742.189 1094.45 740.727 1092.35 737.722C1090.89 735.633 1090.35 733.761 1091 731.275C1092.4 725.92 1097.94 722.585 1102.33 720.181C1128.79 705.699 1126.45 714.725 1145.66 719.95L1146.69 720.222C1162.05 704.66 1161.73 682.849 1169.69 663.873C1170.48 662.721 1171.77 660.609 1173.34 660.533C1188.41 659.803 1200.43 659.899 1215.34 656.404Z" fill="black"/>
<path d="M1184.4 678.822C1192.76 678.447 1199.28 677.88 1207.61 676.682C1200.82 690.098 1193.58 702.434 1182.31 712.681L1175.31 707.587C1178.34 698.22 1181.76 688.251 1184.4 678.822Z" fill="#B1DB84"/>
<path d="M1175.31 707.587L1182.31 712.681C1178.25 715.94 1173.54 719.053 1169.23 722.033C1172.07 716.336 1173.21 713.535 1175.31 707.587Z" fill="#0D8A5B"/>
<path d="M1107.6 287.057C1122.61 283.897 1122.21 303.29 1126.09 312.866C1127.63 316.677 1128.93 319.39 1130.92 323.013C1137.46 321.252 1147.16 318.487 1153.09 315.014C1157.8 311.99 1162.94 303.221 1168.2 301.604C1181.41 297.546 1183.18 318.092 1187.27 325.902C1191.04 333.078 1194.95 338.664 1197.49 346.108C1198.83 350.065 1198.26 355.455 1196.01 358.91C1191.48 365.179 1184.73 366.416 1177.85 367.61C1162.11 367.867 1139.45 362.577 1125.24 353.29C1106.89 340.886 1072.53 323.312 1062.83 303.432C1055.78 288.995 1097.66 289.518 1107.6 287.057Z" fill="black"/>
<path d="M1167.86 326.726C1171.46 335.706 1174.06 341.089 1179.58 349.215C1167.64 349.04 1163.51 348.63 1151.94 345.357C1147.59 343.943 1143.21 341.912 1139 340.075L1149.18 336.593C1156.31 333.878 1161.8 331.725 1167.86 326.726Z" fill="#B1DB84"/>
<path d="M1139 340.075L1149.18 336.593C1150.7 340.12 1151.43 341.52 1151.94 345.357C1147.59 343.943 1143.21 341.912 1139 340.075Z" fill="#0D8A5B"/>
<path d="M1103.41 306.988L1104.4 307.06C1106.22 309.254 1108.08 317.362 1108.98 320.577L1102.75 316.35L1091.24 308.641L1103.41 306.988Z" fill="#B1DB84"/>
<path d="M642.243 603.68C642.689 603.751 643.133 603.828 643.577 603.911C652.205 605.53 654.309 613.277 656.1 621.205C661.921 646.966 669.887 660.089 690.958 676.262C694.681 679.119 703.363 684.916 705.99 688.718C706.523 698.512 697.172 708.276 694.408 717.936C691.785 727.1 687.158 732.718 677.31 728.79C655.316 715.028 625.88 680.938 612.603 658.218C611.189 655.954 609.523 650.587 611.159 648.212C618.608 637.399 630.84 609.123 642.243 603.68Z" fill="black"/>
<path d="M664.662 677.398C671.907 684.974 675.751 688.768 684.736 694.571L678.819 707.083C670.131 699.719 664.816 695.505 657.237 686.872C661.596 684.166 662.887 681.933 664.662 677.398Z" fill="#B1DB84"/>
<path d="M640.495 634.635C643.676 644.408 645.728 650.47 650.785 659.373C645.567 661.878 644.547 662.522 641.294 667.686C636.787 661.742 634.173 657.939 630.341 651.544C633.747 646.178 637.203 640.131 640.495 634.635Z" fill="#B1DB84"/>
<path d="M650.785 659.373C655.116 666.051 659.169 671.577 664.662 677.398C662.887 681.933 661.596 684.166 657.237 686.872C651.412 680.264 646.594 674.697 641.294 667.686C644.547 662.522 645.567 661.878 650.785 659.373Z" fill="#0D8A5B"/>
</svg>
