<svg width="1920" height="1080" viewBox="0 0 1920 1080" fill="none" xmlns="http://www.w3.org/2000/svg">
<path d="M950.805 288.203C955.667 286.986 967.713 288.165 973.003 288.375C1014.08 290.002 1069.85 317.35 1097.03 347.523C1131.14 385.387 1158.67 447.765 1171.53 497.446C1177.17 497.79 1186.29 499.436 1192.14 500.334C1199.55 475.621 1206.85 450.819 1213.36 425.829C1214.66 419.302 1218.45 411.83 1226.54 414.858C1233.97 417.639 1233.26 432.159 1234.17 438.777C1236.31 454.503 1241.16 473.826 1235.72 489.191C1231.78 500.314 1220.25 496.538 1211.95 499.887C1209.95 502.331 1210.38 501.125 1210.47 504.476C1224.11 511.431 1233.34 510.952 1246.68 521.836C1259.62 556.451 1230.78 588.586 1202.35 604.733C1193.53 609.742 1183.98 611.64 1174.12 613.442C1166.08 641.324 1162.33 649.601 1142.24 671.09C1118.03 696.994 1098.86 708.109 1065.1 718.261C1067.79 758.815 1028.26 750.214 1001.48 749.113C988.396 748.575 980.403 743.715 974.265 732.593C965.986 733.398 954.256 733.414 946.023 732.456C938.053 746.479 929.375 748.086 914.276 749.419C906.557 750.694 891.95 750.951 883.994 750.615C862.291 749.698 854.043 737.974 854.926 718.258C816.788 706.786 793.911 691.593 768.354 660.664C754.426 643.809 751.795 633.89 745.873 613.307C714.206 608.086 690.033 590.527 675.287 561.33C668.041 546.983 667.986 536.591 673.289 521.801C684.224 512.627 698.974 508.679 712.472 504.271L705.634 480.11C687.173 480.358 675.409 471.693 669.306 453.482C667.351 447.648 669.022 440.948 675.967 439.69C688.893 437.348 688.023 463.863 699.257 460.993C699.55 456.095 693.636 442.482 694.877 439.256C699.393 427.514 712.494 431.436 713.692 443.302C713.93 445.661 716.503 452.432 717.413 454.262C726.868 452.398 718.179 435.269 725.657 426.635C727.575 425.553 728.729 425.129 730.963 425.431C750.523 428.071 739.458 458.745 730.925 467.378C728.627 469.703 725.536 472.099 722.874 474.062L730.376 500.128C737.11 498.845 741.662 498.108 748.483 497.509C760.008 450.476 787.207 391.403 817.644 353.466C838.805 327.091 882.317 302.776 914.676 293.566C925.394 290.516 939.485 289.276 950.805 288.203Z" fill="black"/>
<path d="M962.013 414.972L962.475 414.82C995.7 403.678 1010.1 378.826 1052.83 400.684C1086.68 417.997 1116.98 459.674 1099.13 498.042C1091.13 515.1 1067.83 533.524 1065.85 549.904C1002.39 577.254 952.071 585.457 885.201 561.286C874.226 557.4 864.907 553.364 854.255 548.736C854.162 548.218 853.654 545.544 853.532 545.336C828.323 502.203 795.145 489.218 829.775 433.457C853.295 399.098 895.231 380.36 933.041 402.357C940.335 406.6 949.655 412.141 957.454 414.855L957.925 415.015L962.013 414.972Z" fill="#FEFEFE"/>
<path d="M829.775 433.457C831.034 438.838 834.565 454.55 837.416 459.049L837.065 459.748C839.793 467.731 842.661 476.748 845.699 484.53L847.436 485.167C844.83 494.198 878.262 551.818 885.201 561.286C874.226 557.4 864.907 553.364 854.255 548.736C854.162 548.218 853.654 545.544 853.532 545.336C828.323 502.203 795.145 489.218 829.775 433.457Z" fill="#DCDCDC"/>
<path d="M845.699 484.53C834.433 479.759 828.119 470.799 837.065 459.748C839.793 467.731 842.661 476.748 845.699 484.53Z" fill="#DC83A0"/>
<path d="M877.834 447.692C869.85 441.642 861.128 431.747 875.678 427.657C882.495 425.741 920.345 450.528 908.955 460.539C905.003 464.013 890.505 464.563 884.038 465.22C873.231 466.53 841.02 474.098 851.072 452.43C858.933 448.272 868.884 448.347 877.834 447.692Z" fill="black"/>
<path d="M837.416 459.049C842.866 455.254 844.974 454.57 851.072 452.43C841.02 474.098 873.231 466.53 884.038 465.22C884.068 485.256 863.351 489.73 847.436 485.167L845.699 484.53C842.661 476.748 839.793 467.731 837.065 459.748L837.416 459.049Z" fill="#FE99BA"/>
<path d="M963.435 540.775C955.058 544.35 943.272 535.508 937.919 529.751C922.398 514.69 910.627 478.815 931.558 463.416C959.313 442.996 1003.84 455.928 999.485 495.929C1033.09 517.346 1021.3 562.116 980.993 545.296C971.675 541.408 972.89 535.671 963.435 540.775Z" fill="black"/>
<path d="M990.513 516.311C979.445 513.104 980.135 491.57 999.485 495.929C1033.09 517.346 1021.3 562.116 980.993 545.296C971.675 541.408 972.89 535.671 963.435 540.775C958.299 532.742 959.297 530.739 963.71 522.756C964.716 521.588 967.228 519.333 968.45 518.164C976.783 518.983 977.99 521.17 984.386 526.598C987.274 521.156 989.968 525.557 993.351 521.572C993.19 519.02 992.234 518.337 990.513 516.311Z" fill="black"/>
<path d="M990.513 516.311L992.935 514.47C997.716 515.895 1000.84 522.838 1000.51 527.605C996.592 533.66 989.678 529.241 984.386 526.598C987.274 521.156 989.968 525.557 993.351 521.572C993.19 519.02 992.234 518.337 990.513 516.311Z" fill="#FE7E62"/>
<path d="M963.71 522.756C949.29 526.229 930.625 492.15 941.286 479.307C949.328 469.618 967.774 469.421 976.506 476.855C990.296 488.595 976.849 507.641 968.45 518.164C967.228 519.333 964.716 521.588 963.71 522.756Z" fill="#FFB800"/>
<path d="M1034.09 464.774C1028.08 463.926 1018.12 464.608 1013.64 460.207C1002.83 449.595 1040.24 426.604 1046.74 427.25C1048.94 427.455 1050.96 428.524 1052.37 430.223C1058.65 437.95 1050.37 443.477 1044.91 447.686C1055.89 448.433 1065.64 447.533 1073.52 454.825C1107.02 470.149 1063.92 496.928 1043.78 483.614C1036.18 478.587 1033.74 473.479 1034.09 464.774Z" fill="black"/>
<path d="M1073.52 454.825C1107.02 470.149 1063.92 496.928 1043.78 483.614C1036.18 478.587 1033.74 473.479 1034.09 464.774C1043.54 465.358 1063.94 471.307 1071.72 464.165C1074.08 462.005 1073.68 457.922 1073.52 454.825Z" fill="#FE99BA"/>
<path d="M962.079 306.467C972.9 307.539 989.945 308.926 999.967 311.789C1028.91 320.056 1068.98 342.062 1087.8 365.746C1113.15 397.644 1129.94 434.471 1144.23 472.077C1130.97 495.988 1126.65 504.682 1106 523.24C1118.75 503.012 1126.49 489.573 1122.73 464.546C1115.44 416.072 1067.15 371.568 1017.24 373.833C996.35 374.78 977.412 385.493 959.962 395.891C909.872 365.52 871.409 364.153 827.073 406.674C823.852 402.713 823.911 384.851 823.389 378.152C839.472 347.078 888.11 321.413 920.091 311.81C930.222 308.768 947.106 307.547 957.953 306.45L962.079 306.467Z" fill="#919090"/>
<path d="M871.099 575.58L882.503 579.766C888.502 581.72 894.515 583.632 900.542 585.502C906.118 586.914 911.833 588.497 917.506 589.351L935.594 592.107C941.679 592.756 948.209 593.65 954.293 593.514L972.225 593.536C976.958 593.374 983.715 592.455 988.571 591.946L1006.61 589.121C1011.19 588.457 1017.79 586.618 1022.43 585.474C1028.08 583.857 1034.59 581.576 1040.27 579.751C1042.89 578.937 1044.87 577.739 1046.93 578.562C1049.37 594.014 1051.14 608.884 1053.81 624.44L1046.48 629.879C1040.24 634.068 1036.29 636.29 1029.6 639.744C1022.9 643.126 1019.96 644.19 1012.78 646.453L995.488 651.447C989.371 652.303 982.799 653.11 976.755 654.142C971.935 654.582 963.334 654.451 958.281 654.506C950.007 654.53 944.634 654.003 936.369 653.076C930.001 651.837 924.126 650.382 917.839 648.82C911.006 646.628 904.104 644.232 897.293 641.938C890.347 639.226 886.098 637.415 879.505 633.958C873.396 630.502 870.09 628.077 864.475 623.879C867.308 607.094 869.562 592.47 871.099 575.58Z" fill="#42AFF3"/>
<path d="M1040.27 579.751C1042.89 578.937 1044.87 577.739 1046.93 578.562C1049.37 594.014 1051.14 608.884 1053.81 624.44L1046.48 629.879C1040.24 634.068 1036.29 636.29 1029.6 639.744C1022.9 643.126 1019.96 644.19 1012.78 646.453L995.488 651.447C993.525 646.188 989.418 600.548 988.571 591.946L1006.61 589.121C1011.19 588.457 1017.79 586.618 1022.43 585.474C1028.08 583.857 1034.59 581.576 1040.27 579.751Z" fill="#7DD2FE"/>
<path d="M1040.27 579.751C1042.89 578.937 1044.87 577.739 1046.93 578.562C1049.37 594.014 1051.14 608.884 1053.81 624.44L1046.48 629.879C1040.24 634.068 1036.29 636.29 1029.6 639.744C1026.87 627.627 1024.42 599.325 1022.43 585.474C1028.08 583.857 1034.59 581.576 1040.27 579.751Z" fill="#7DD2FE"/>
<path d="M1040.27 579.751C1042.89 578.937 1044.87 577.739 1046.93 578.562C1049.37 594.014 1051.14 608.884 1053.81 624.44L1046.48 629.879C1045.43 615.615 1041.95 594.651 1040.27 579.751Z" fill="#42AFF3"/>
<path d="M1006.61 589.121C1011.19 588.457 1017.79 586.618 1022.43 585.474C1024.42 599.325 1026.87 627.627 1029.6 639.744C1022.9 643.126 1019.96 644.19 1012.78 646.453C1010.46 627.372 1008.4 608.259 1006.61 589.121Z" fill="#42AFF3"/>
<path d="M972.225 593.536C976.958 593.374 983.715 592.455 988.571 591.946C989.418 600.548 993.525 646.188 995.488 651.447C989.371 652.303 982.799 653.11 976.755 654.142C971.935 654.582 963.334 654.451 958.281 654.506L957.357 643.795L957.208 643.336C955.993 627.365 953.956 609.32 954.293 593.514L972.225 593.536Z" fill="#7DD2FE"/>
<path d="M972.225 593.536C976.958 593.374 983.715 592.455 988.571 591.946C989.418 600.548 993.525 646.188 995.488 651.447C989.371 652.303 982.799 653.11 976.755 654.142L976.543 653.582C974.828 635.722 972.488 611.11 972.225 593.536Z" fill="#42AFF3"/>
<path d="M957.357 643.795C964.199 648.354 969.082 653.644 976.543 653.582L976.755 654.142C971.935 654.582 963.334 654.451 958.281 654.506L957.357 643.795Z" fill="#42AFF3"/>
<path d="M871.099 575.58L882.503 579.766C888.502 581.72 894.515 583.632 900.542 585.502L900.154 591.003C899.406 601.176 899.142 635.133 897.293 641.938C890.347 639.226 886.098 637.415 879.505 633.958C873.396 630.502 870.09 628.077 864.475 623.879C867.308 607.094 869.562 592.47 871.099 575.58Z" fill="#42AFF3"/>
<path d="M871.099 575.58L882.503 579.766C881.618 598.017 880.049 615.632 879.505 633.958C873.396 630.502 870.09 628.077 864.475 623.879C867.308 607.094 869.562 592.47 871.099 575.58Z" fill="#1195DC"/>
<path d="M900.542 585.502C906.118 586.914 911.833 588.497 917.506 589.351C917.158 596.222 916.82 602.723 916.825 609.606L917.011 610.099C917.042 623.165 917.77 635.976 917.839 648.82C911.006 646.628 904.104 644.232 897.293 641.938C899.142 635.133 899.406 601.176 900.154 591.003L900.542 585.502Z" fill="#1195DC"/>
<path d="M900.542 585.502C906.118 586.914 911.833 588.497 917.506 589.351C917.158 596.222 916.82 602.723 916.825 609.606C912.131 605.318 904.58 596.115 900.154 591.003L900.542 585.502Z" fill="#42AFF3"/>
<path d="M917.011 610.099C922.765 615.67 929.206 622.221 935.505 626.99L935.676 627.685C935.715 636.153 935.946 644.619 936.369 653.076C930.001 651.837 924.126 650.382 917.839 648.82C917.77 635.976 917.042 623.165 917.011 610.099Z" fill="#42AFF3"/>
<path d="M917.506 589.351L935.594 592.107C935.283 603.732 935.253 615.363 935.505 626.99C929.206 622.221 922.765 615.67 917.011 610.099L916.825 609.606C916.82 602.723 917.158 596.222 917.506 589.351Z" fill="#7DD2FE"/>
<path d="M935.676 627.685C942.882 632.862 950.06 638.079 957.208 643.336L957.357 643.795L958.281 654.506C950.007 654.53 944.634 654.003 936.369 653.076C935.946 644.619 935.715 636.153 935.676 627.685Z" fill="#1195DC"/>
<path d="M769.125 493.805C770.984 495.438 778.306 508.903 780.896 512.148C796.086 531.18 813.572 545.801 834.009 558.645C826.152 581.596 817.886 604.81 812.443 628.468C810.708 636.008 808.713 643.555 806.752 651.038C804.989 657.39 803.858 662.565 802.573 669.034C794.778 661.412 780.512 647.615 775.384 637.961C752.121 594.168 757.414 539.12 769.125 493.805Z" fill="#919090"/>
<path d="M1150.94 497.583C1151.4 498.058 1152.3 499.378 1152.46 500.046C1163.18 543.298 1165.95 592.415 1146.97 633.816C1143.62 641.127 1125.96 663.485 1119.77 665.547L1117.82 664.522C1115.23 660.81 1113.79 653.586 1112.59 648.963C1104.09 613.463 1097.79 594.311 1086.55 559.83C1111.75 546.271 1136.24 522.227 1150.94 497.583Z" fill="#919090"/>
<path d="M1175.68 517.172C1186.63 517.717 1221.78 526.807 1229.65 533.37C1236.53 545.795 1220.44 565.892 1211.83 574.524C1201.39 584.818 1192.29 589.948 1178.11 593.388C1180.9 566.136 1179.78 544.076 1175.68 517.172Z" fill="#919090"/>
<path d="M739.303 517.771C740.669 517.411 742.038 517.571 743.464 517.622C744.26 519.379 741.868 534.412 741.53 538.045C739.84 556.477 739.959 575.03 741.888 593.438C727.673 589.903 722.559 586.677 711.324 577.534C702.347 569.145 693.165 557.655 689.218 545.893C682.615 526.22 726.084 520.055 739.303 517.771Z" fill="#919090"/>
<path d="M1052.84 681.112C1089.89 648.132 1065.22 612.506 1065.18 571.048C1065.18 571.048 1066.48 569.801 1066.75 569.546L1069.26 569.208C1074.91 574.927 1098.86 667.312 1098.76 678.189C1098.74 680.067 1098.7 681.945 1098.62 683.822L1087.72 689.576C1078.44 694.367 1068.62 697.299 1058.71 700.437C1047.13 695.649 1043.49 695.09 1031.05 694.146C1039.68 689.859 1045.05 686.634 1052.84 681.112Z" fill="#FEFEFE"/>
<path d="M1031.05 694.146C1039.68 689.859 1045.05 686.634 1052.84 681.112C1063.55 685.289 1076.26 688.731 1087.72 689.576C1078.44 694.367 1068.62 697.299 1058.71 700.437C1047.13 695.649 1043.49 695.09 1031.05 694.146Z" fill="#DCDCDC"/>
<path d="M850.625 566.784C850.988 567.051 852.771 568.772 852.766 569.108C851.896 626.55 821.083 660.395 887.179 694.22C877.198 694.984 872.743 695.878 863.687 699.434L861.606 700.127C848.556 698.048 832.951 690.058 821.473 683.938C820.141 653.293 842.33 597.877 850.625 566.784Z" fill="#DCDCDC"/>
<path d="M862.571 645.129C865.416 646.982 868.626 648.802 871.617 650.436C915.097 673.817 966.026 679.169 1013.42 665.337C1016.98 670.152 1023.68 672.486 1029.42 673.276C1029.97 673.354 1030.51 673.42 1031.05 673.474C992.813 696.51 899.826 696.471 868.662 658.07C866.239 655.085 863.996 648.903 862.571 645.129Z" fill="#1195DC"/>
<path d="M823.389 378.152C823.911 384.851 823.852 402.713 827.073 406.674C811.255 425.146 799.419 443.063 796.817 467.911C794.708 488.043 800.002 499.277 809.145 516.271C792.689 499.597 788.144 489.624 776.889 469.099C791.549 431.789 800.665 411.104 823.389 378.152Z" fill="#919090"/>
<path d="M1020.68 711.646C1029.41 711.537 1040.33 710.607 1046.56 717.733C1046 721.197 1047.45 722.693 1045.65 727.575C1039.96 734.438 1018 730.627 1009.93 730.913C1001.97 731.194 984.861 726.354 992.622 715.601C996.151 710.711 1015.14 711.694 1020.68 711.646Z" fill="#DD9F00"/>
<path d="M1020.68 711.646C1029.41 711.537 1040.33 710.607 1046.56 717.733C1046.28 719.204 1046.08 719.229 1045.16 720.453C1038.46 721.723 1024.57 717.53 1020.68 711.646Z" fill="#FFB800"/>
<path d="M888.316 711.836C894.365 711.038 918.64 710.929 924.634 713.938C926.365 714.873 928.837 716.74 929.035 718.951C929.888 728.442 923.524 729.101 917.047 730.197C908.832 730.72 875.563 736.186 873.431 724.426C871.48 713.661 880.353 712.936 888.316 711.836Z" fill="#DD9F00"/>
<path d="M1013.42 665.337C1030.7 660.176 1039.54 655.992 1055 646.398C1049.49 660.894 1044.94 665.602 1031.05 673.474C1030.51 673.42 1029.97 673.354 1029.42 673.276C1023.68 672.486 1016.98 670.152 1013.42 665.337Z" fill="#42AFF3"/>
<path d="M945.043 707.597C954.915 708.125 964.553 707.528 974.396 707.994L973.501 713.231C967.874 714.11 953.461 715.195 948.029 712.765C946.22 711.956 945.821 709.644 945.043 707.597Z" fill="#DCDCDC"/>
</svg>
