<?xml version="1.0" encoding="utf-8" ?><svg xmlns="http://www.w3.org/2000/svg" xmlns:xlink="http://www.w3.org/1999/xlink" width="400" height="400" viewBox="0 0 400 400"><path d="M221.673 76.1143C223.918 76.1315 226.162 76.2244 228.401 76.393C238.003 77.178 242.146 78.6548 250.758 80.8358C271.973 85.6928 288.732 96.9547 302.366 113.886C310.719 124.258 320.487 138.344 326.155 150.575C333.07 165.498 337.422 184.68 338.948 200.99C339.845 210.572 339.018 222.437 338.23 232.102C355.719 244.018 384.869 278.799 360.255 298.429C348.831 307.54 328.294 298.328 315.254 295.984C306.066 307.396 299.625 313.362 286.885 321.264C275.826 328.123 264.433 333.072 251.181 333.078C247.829 333.08 245.713 333.085 242.348 332.294C237.908 342.777 230.647 343.833 220.18 342.14C212.389 340.88 206.049 339.394 199.553 334.641C195.136 330.691 194.383 328.113 193.318 322.575C187.774 320.468 180.249 319.311 175.038 317.321C173.909 318.604 172.723 319.874 171.371 320.982C162.253 328.456 149.035 323.214 139.53 319.183C136.068 317.714 132.578 315.356 130.268 312.512C127.322 308.884 127.396 304.636 127.892 300.277C108.096 291.997 99.2299 276.596 90.9906 257.691C80.2006 232.932 85.1574 213.309 89.4785 187.985C87.0389 184.834 85.2571 181.277 83.1978 178.007C76.3222 167.207 71.6256 156.045 69.664 143.317C67.9374 132.113 65.3952 117.489 73.4845 108.033C75.9643 105.134 80.4767 103.164 84.3221 103.266C95.0091 103.55 106.295 108.314 114.515 115.096C117.497 117.615 119.966 120.316 122.653 123.078C123.093 123.531 124.364 124.354 124.757 124.049C126.654 122.576 129.601 119.339 131.205 117.73C135.973 112.895 141.081 108.407 146.489 104.3C153.868 98.8104 160.704 95.3862 168.847 91.369C185.766 83.0217 202.649 77.0205 221.673 76.1143Z"/><path fill="#FEFEFE" d="M159.147 135.035C168.906 126.605 179.239 122.992 192.377 123.821C203.439 124.519 217.349 132.976 224.843 141.037C227.102 143.466 229.538 147.654 233.466 147.917C237.392 148.18 242.118 145.648 246.283 144.913C250.606 144.15 253.46 144.115 257.644 143.962C271.344 143.459 283.232 148.029 292.407 158.337C300.064 166.939 304.384 179.788 303.56 191.292C302.759 202.462 295.305 216.735 286.718 223.809C277.208 231.644 271.258 235.33 270.177 249.049C269.498 257.66 270.88 265.885 271.189 274.211C271.654 286.71 273.046 308.698 267.525 319.796C260.266 323.102 250.914 323.755 243.144 322.338C241.263 313.037 228.728 311.287 221.09 309.003C218.977 308.371 216.649 307.8 214.501 307.281C205.768 306.265 201.855 306.379 195.861 313.252C192.155 311.512 181.684 308.507 177.598 308.12C176.226 299.175 171.455 295.607 162.943 292.833C156.15 290.62 148.885 288.257 141.757 287.786C137.823 287.525 135.109 288.657 132.296 291.358C124.195 288.025 118.249 283.505 112.892 276.593C113.673 264.164 128.267 243.41 135.368 232.962C140.629 225.221 147.942 216.607 150.323 207.121C152.951 197.365 146.987 189.237 145.223 180.239C142.048 164.042 145.949 145.685 159.147 135.035Z"/><path fill="#C1C0C0" d="M159.147 135.035C159.531 137.731 157.646 147.496 157.464 150.943C156.633 166.695 157.05 182.279 160.906 197.668C166.081 219.989 174.756 240.448 185.756 260.501C191.604 271.161 197.731 281.731 204.117 292.086C205.668 294.6 214.215 305.847 214.501 307.281C205.768 306.265 201.855 306.379 195.861 313.252C192.155 311.512 181.684 308.507 177.598 308.12C176.226 299.175 171.455 295.607 162.943 292.833C156.15 290.62 148.885 288.257 141.757 287.786C137.823 287.525 135.109 288.657 132.296 291.358C124.195 288.025 118.249 283.505 112.892 276.593C113.673 264.164 128.267 243.41 135.368 232.962C140.629 225.221 147.942 216.607 150.323 207.121C152.951 197.365 146.987 189.237 145.223 180.239C142.048 164.042 145.949 145.685 159.147 135.035Z"/><path d="M216.873 168.35C222.094 167.913 226.352 167.968 231.05 170.656C245.127 178.711 248.99 191.982 240.164 206.02C236.196 212.331 231.002 217.211 223.306 218.958C217.378 219.647 208.035 217.437 203.438 213.54C193.527 205.14 192.764 185.451 200.987 175.663C205.1 170.767 210.691 168.85 216.873 168.35Z"/><path fill="#FEC043" d="M216.459 178.334C218.356 178.095 221.689 178.225 223.535 178.799C241.425 184.368 235.754 201.759 222.656 209.061C214.176 213.584 206.863 205.588 205.747 197.579C204.447 188.245 206.143 180.037 216.459 178.334Z"/><path d="M185.926 133.334C191.806 132.293 199.419 135.297 202.625 140.458C204.4 143.282 204.95 146.706 204.148 149.944C202.545 156.572 195.554 161.898 188.416 160.191C183.91 159.114 179.23 153.037 184.657 149.58C186.508 148.402 189.897 149.803 191.958 150.57C201.677 143.011 178.805 137.583 176.296 154.088C176.573 159.606 180.224 163.195 185.832 163.607C189.086 163.845 194.711 161.954 195.793 166.756C196.678 170.687 192.74 173.066 189.402 173.514C171.586 175.646 159.439 156.763 170.797 142.065C174.879 136.782 179.493 134.198 185.926 133.334Z"/><path d="M273.881 159.557C281.163 159.036 286.045 163.228 288.061 170.086C289.532 175.222 288.892 180.733 286.284 185.395C283.367 190.606 278.519 194.461 272.785 196.128C250.734 202.362 242.199 169.997 254.293 167.541C262.016 167.949 258.118 174.546 258.835 178.764C259.322 181.531 260.897 183.987 263.208 185.585C265.05 186.846 267.328 187.299 269.513 186.84C275.268 185.681 280.273 179.252 278.745 173.319C278.34 171.746 276.899 168.55 274.629 169.46C269.137 171.435 274.613 175.857 272.814 178.914C271.372 181.363 268.331 181.983 266.027 180.434C260.96 177.026 260.991 170.215 264.194 165.574C266.654 162.011 269.722 160.31 273.881 159.557Z"/><path fill="#414651" d="M178.245 98.1224C192.446 91.1527 209.988 85.4811 225.996 86.2451C233.16 86.5869 244.087 88.676 251.062 90.8511C258.264 93.5419 266.189 96.0005 272.706 100.13C287.192 109.308 297.737 123.095 306.981 137.191C314.83 149.162 320.424 159.791 323.843 173.795C325.838 181.968 327.982 190.166 328.75 198.624C330.28 217.02 328.904 239.397 322.55 256.829C315.908 275.05 309.784 291.387 294.216 303.864C288.912 308.114 285.099 310.381 279.835 314.093C282.627 302.81 281.515 280.943 280.787 268.972C280.346 261.724 279.24 253.281 280.662 246.048C282.376 237.333 292.221 233.6 297.946 226.757C302.387 221.448 303.913 219.108 307.179 212.983C316.708 195.11 315.362 176.322 305.172 159.064C298.722 148.14 286.305 138.572 273.946 135.578C262.988 132.924 245.771 133.366 235.254 137.88C227.458 128.356 216.979 121.089 205.511 116.622C192.871 111.697 177.081 113.177 165.02 119.198C164.885 115.004 172.307 106.479 174.837 102.734C175.873 101.2 177.472 100.048 178.245 98.1224Z"/><path fill="#414651" d="M105.709 265.915C100.697 255.824 95.1332 243.008 94.6089 231.615C92.1279 177.701 127.142 117.671 178.245 98.1224C177.472 100.048 175.873 101.2 174.837 102.734C172.307 106.479 164.885 115.004 165.02 119.198C164.783 119.322 164.547 119.448 164.312 119.575C140.079 132.62 130.925 154.792 135.298 181.682C136.6 189.686 142.985 198.492 140.059 206.491C137.322 213.976 131.705 220.696 127.231 227.203C119.066 239.329 109.944 251.824 105.709 265.915Z"/><path fill="#414651" d="M83.2349 113.296C83.9134 113.264 84.5926 113.251 85.2718 113.256C92.3535 113.351 102.271 117.701 107.592 122.206C110.941 125.041 114.721 129.087 117.87 132.27C110.544 141.536 104.326 151.627 99.3424 162.337C97.0785 166.733 95.2321 171.467 93.4913 176.088C90.9497 170.314 86.5885 165.005 84.1485 158.665C80.8671 150.138 72.1395 117.625 83.2349 113.296Z"/><path fill="#414651" d="M336.53 242.874C337.497 243.38 342.909 248.876 343.828 249.931C350.739 258.029 360.278 268.763 359.67 280.122C359.155 289.733 352.63 292.755 343.937 292.247C335.423 291.511 328.929 288.481 320.699 286.775C326.474 276.104 334.64 254.684 336.53 242.874Z"/><path fill="#C19133" d="M229.327 332.567C226.06 333.249 220.739 332.066 217.323 331.455C212.845 330.601 207.186 329.139 204.457 325.173C202.74 322.664 202.792 319.076 205.771 317.583C208.922 316.004 214.181 317.332 217.449 318.323C223.368 319.842 236.644 321.442 232.624 329.588C231.652 331.557 231.555 332.002 229.327 332.567Z"/><path fill="#FEC043" d="M229.327 332.567C228.797 332.546 228.243 332.55 227.724 332.436C225.799 332.013 218.785 322.608 217.39 320.489C216.934 319.796 216.699 319.343 216.873 318.532L217.449 318.323C223.368 319.842 236.644 321.442 232.624 329.588C231.652 331.557 231.555 332.002 229.327 332.567Z"/><path fill="#C19133" d="M141.061 297.702C143.079 297.706 149.466 299.044 151.642 299.804C156.175 301.499 164.259 302.435 167.015 306.871C168.671 309.537 166.118 312.869 163.625 314.152C157.417 316.304 147.178 311.85 141.513 309.044C136.168 306.397 136.355 300.855 141.061 297.702Z"/><path d="M73.5011 226.03C79.6629 225.537 79.6937 229.384 79.5736 234.153C79.3198 244.232 81.1709 254.73 85.4661 263.889C86.6139 266.613 89.095 269.36 90.0257 272.113C90.8913 274.673 88.4312 276.975 86.292 277.751C75.0137 276.826 69.7949 248.098 69.7422 238.925C69.7169 234.524 68.8914 228.294 73.5011 226.03Z"/><path d="M333.512 146.039C342.514 144.772 347.223 161.678 348.458 168.539C349.134 172.294 349.623 175.872 346.047 178.249C337.729 180.521 339.078 167.507 336.831 162.711C335.243 159.321 334.09 157.034 331.975 153.902C330.026 151.016 330.147 147.834 333.512 146.039Z"/><path d="M62.8986 260.34C63.5556 260.224 64.552 260.121 65.2056 260.205C66.2543 260.341 67.2218 260.841 67.9394 261.618C69.4946 263.336 70.4929 267.161 72.4366 269.781C74.7243 273.239 78.1177 275.621 80.7124 278.777C83.2428 281.855 81.784 284.753 78.898 286.639C78.2698 286.758 77.2564 286.998 76.6432 286.814C71.3238 284.93 66.7185 278.838 63.6229 274.364C60.8427 270.346 57.5072 263.651 62.8986 260.34Z"/><path d="M352.135 156.327C358.7 155.307 360.151 162.074 360.801 167.053C361.248 170.477 360.779 173.521 357.994 175.771C355.37 176.369 354.57 176.005 352.437 174.666C350.941 171.74 350.825 167.387 349.996 164.112C349.139 160.728 348.84 158.287 352.135 156.327Z"/></svg>