<svg width="1920" height="1080" viewBox="0 0 1920 1080" fill="none" xmlns="http://www.w3.org/2000/svg">
<path d="M748.483 497.509C760.666 449.001 788.982 386.434 821.783 348.714C842.064 325.39 885.314 301.574 915.021 293.451C925.949 290.462 945.652 288.264 957.381 287.72C960.341 292.259 958.042 294.457 960.037 299.205C961.697 293.932 960.002 290.912 962.358 287.765C996.941 287.072 1029.44 300.688 1059 317.718C1118.08 351.763 1154.86 432.617 1171.53 497.449C1192.37 499.107 1230.43 508.387 1246.68 521.836C1259.62 556.452 1230.78 588.585 1202.35 604.733C1193.54 609.739 1183.98 611.641 1174.12 613.447C1166.09 641.274 1162.32 649.64 1142.25 671.082C1118.18 696.801 1098.75 708.259 1065.11 718.318C1067.73 758.825 1028.24 750.207 1001.48 749.113C988.394 748.578 980.396 743.708 974.261 732.585C965.996 733.402 954.242 733.41 946.02 732.451C944.698 734.796 941.159 740.065 939.023 741.866C925.64 751.551 901.354 750.365 885.111 750.483C862.78 750.645 854.062 738.388 854.926 718.258C841.701 714.337 828.995 709.795 816.799 702.94C793.033 689.581 765.366 662.468 753.693 637.655C751.171 632.293 747.644 619.463 745.873 613.307C714.206 608.086 690.033 590.526 675.287 561.33C668.041 546.984 667.986 536.591 673.289 521.801C688.871 508.317 728.154 499.213 748.483 497.509Z" fill="black"/>
<path d="M959.116 415.352C968.459 413.266 978.823 407.303 987.325 402.203C1034.77 373.746 1091.61 414.708 1103.07 461.962C1113.05 503.085 1077.86 516.615 1066.45 546.683C1063.08 555.596 1081.8 603.821 1084.45 614.712C1088.89 630.278 1091.59 644.74 1095.76 658.901C1067.15 650.813 1054.27 643.939 1028.47 631.494C978.146 607.222 939.399 578.506 900.652 538.421C890.005 527.406 878.52 516.502 868.628 504.398C854.587 490.541 834.339 461.283 823.029 445.144C826.871 437.52 830.283 432.348 835.537 425.731C862.761 394.408 899.732 381.786 937.232 404.491C944.325 408.786 951.22 412.74 959.116 415.352Z" fill="#FEFEFE"/>
<path d="M823.029 445.144C826.871 437.52 830.283 432.348 835.537 425.731C843.362 449.76 851.73 471.461 863.605 493.833C865.269 496.966 867.325 501.102 868.628 504.398C854.587 490.541 834.339 461.283 823.029 445.144Z" fill="#D4D4D3"/>
<path d="M958.086 541.772C934.849 534.617 913.004 502.121 921.831 478.101C938.09 433.856 1017.69 454.58 997.255 505.328C990.955 520.974 978.943 537.44 961.927 541.63L958.086 541.772Z" fill="black"/>
<path d="M958.319 523.412C941.445 512.917 923.793 477.7 954.733 472.184C961.648 470.951 969.915 472.176 975.704 476.405C979.164 478.907 981.481 482.686 982.142 486.904C983.909 498.365 971.651 518.606 961.753 523.218L958.319 523.412Z" fill="#FFB800"/>
<path d="M880.283 436.047C883.497 435.601 884.914 435.791 889.216 435.839C901.094 435.97 919.542 454.932 908.321 465.48C902.553 470.902 895.127 460.835 891.457 455.476C888.297 453.811 887.67 453.64 884.575 454.07C878.644 458.135 879.104 467.104 871.347 468.739C852.14 462.908 866.744 441.953 880.283 436.047Z" fill="black"/>
<path d="M1027.82 436.145C1038.73 434.76 1049.56 437.408 1054.65 447.59C1062.8 463.879 1047.06 480.7 1038 454.275C1025.81 451.304 1024.11 468.587 1013.28 467C997.315 458.316 1017.78 440.663 1027.82 436.145Z" fill="black"/>
<path d="M825.477 374.54C847.69 343.01 892.218 317.117 929.739 309.686C977.852 300.158 1022.24 314.268 1061.93 342.167C1110.85 376.567 1147.74 466.696 1157.5 523.933C1163.6 559.675 1162.8 612.6 1140.94 643.682C1137.61 648.417 1124.25 663.624 1119.23 665.67C1111.77 653.359 1107.24 623.56 1102.44 608.496C1096.43 589.648 1089.94 570.696 1083.98 551.853C1104.14 524.09 1129.04 501.307 1122.56 463.239C1114.06 413.258 1061.82 366.65 1009.56 374.74C991.312 377.564 975.626 386.443 959.97 395.88C934.784 380.694 910.569 368.616 879.814 375.799C863.254 379.667 844.21 390.542 831.746 402.074C828.766 399.313 826.347 379.948 825.477 374.54Z" fill="#979696"/>
<path d="M794.346 427.649C821.616 476.07 861.706 521.576 901.646 559.855C906.069 564.094 920.13 576.362 922.745 580.227C973.627 622.513 1042.61 662.29 1107.4 676.923C1104.8 679.334 1100.48 682.778 1097.26 684.199C1091.24 688.355 1077.69 694.717 1070.5 696.534C1067.24 697.814 1062.23 699.179 1058.75 700.237C1044.3 694.218 1025.73 692.425 1007.89 684.995C936.692 655.353 877.588 602.224 827.089 545.02C809.947 525.601 792.818 503.737 781.059 480.484C777.558 473.562 776.778 469.067 779.492 462.29L788.012 441.814C790.073 436.931 791.966 432.408 794.346 427.649Z" fill="url(#paint0_linear_311_131)"/>
<path d="M779.492 462.29C837.047 553.776 919.81 634.896 1019.64 679.592C1035.33 686.616 1053.9 691.632 1070.5 696.534C1067.24 697.814 1062.23 699.179 1058.75 700.237C1044.3 694.218 1025.73 692.425 1007.89 684.995C936.692 655.353 877.588 602.224 827.089 545.02C809.947 525.601 792.818 503.737 781.059 480.484C777.558 473.562 776.778 469.067 779.492 462.29Z" fill="#0F90D5"/>
<path d="M794.346 427.649C821.616 476.07 861.706 521.576 901.646 559.855C906.069 564.094 920.13 576.362 922.745 580.227C921.674 591.53 945.303 609.614 949.421 618.57C935.115 611.208 896.752 576.98 883.915 564.615C846.681 528.082 814.434 486.792 788.012 441.814C790.073 436.931 791.966 432.408 794.346 427.649Z" fill="#0F90D5"/>
<path d="M922.745 580.227C973.627 622.513 1042.61 662.29 1107.4 676.923C1104.8 679.334 1100.48 682.778 1097.26 684.199C1049.29 675.975 987.238 649.061 949.421 618.57C945.303 609.614 921.674 591.53 922.745 580.227Z" fill="#12ACFE"/>
<path d="M844.924 586.466C856.696 596.621 867.74 608.954 879.508 619.435C913.451 649.722 951.476 675.097 992.47 694.82C980.527 699.013 977.165 701.357 972.876 713.483L962.925 714.014C957.946 714.058 952.292 713.682 947.265 713.464L946.912 712.53C939.859 694.413 925.6 693.644 908.024 693.372C890.941 693.108 877.1 694.067 861.189 700.439C843.825 694.962 837.531 692.571 821.472 683.941C820.535 661.414 837.224 608.394 844.924 586.466Z" fill="#D4D4D3"/>
<path d="M769.427 492.559C772.324 494.94 790.332 524.166 795.675 530.771C806.856 544.59 818.226 557.313 829.985 570.638C826.07 583.506 820.712 596.867 817.185 609.736C813.113 624.594 809.935 639.543 805.792 654.501C804.477 659.198 803.553 664.242 802.578 669.04C794.777 661.423 780.371 647.462 775.295 637.823C751.81 593.226 757.631 538.541 769.427 492.559Z" fill="#7E7D7D"/>
<path d="M1175.68 517.173C1186.63 517.718 1221.78 526.809 1229.65 533.373C1236.53 545.794 1220.43 565.894 1211.83 574.524C1201.39 584.818 1192.29 589.948 1178.11 593.388C1180.9 566.127 1179.78 544.085 1175.68 517.173Z" fill="#979696"/>
<path d="M739.313 517.768C740.671 517.411 742.046 517.57 743.465 517.62C744.269 519.403 741.895 534.223 741.545 537.964C739.84 556.422 739.955 575.004 741.888 593.44C727.738 589.919 722.599 586.702 711.398 577.609C703.734 570.453 681.183 545.346 690.581 534.42C698.067 525.719 727.905 519.746 739.313 517.768Z" fill="#7E7D7D"/>
<path d="M888.309 711.838C894.247 711.045 919.976 710.779 925.563 714.423C927.203 715.469 929.357 717.629 929.284 719.848C928.989 728.761 923.344 729.14 917.052 730.199C908.83 730.722 875.564 736.19 873.434 724.425C871.486 713.658 880.343 712.934 888.309 711.838Z" fill="#D59A00"/>
<path d="M1046.92 721.231C1046.7 723.46 1046.32 724.96 1045.81 727.147C1041.67 732.654 1033.23 731.892 1026.79 731.56C1017.99 731.105 983.276 733.271 992.232 715.422C998.137 710.968 1013.37 711.7 1020.99 711.631C1030.44 711.559 1044.29 709.789 1046.92 721.231Z" fill="#D59A00"/>
<path d="M1020.99 711.631C1030.44 711.559 1044.29 709.789 1046.92 721.231C1039.58 720.657 1024.52 718.63 1020.99 711.631Z" fill="#FFB800"/>
<path d="M825.477 374.54C826.347 379.948 828.766 399.313 831.746 402.074C822.673 412.276 818.691 415.076 811.23 427.385C807.475 421.035 805.687 417.371 803.056 410.554C809.04 398.374 818.081 386.239 825.477 374.54Z" fill="#7E7D7D"/>
<path d="M1217.29 405.319C1227.73 404.575 1255.25 407.556 1257.43 420.536C1260.53 439.117 1230.45 450.469 1215.89 453.554C1158.44 457.584 1165.5 411.124 1217.29 405.319Z" fill="black"/>
<path d="M1223 423.249C1227.81 423.335 1232.5 424.471 1237.23 425.435C1228.1 431.449 1220.91 434.566 1210.11 436.32C1205.75 436.133 1200.07 436.437 1197.01 433.288L1197.25 431.524C1203.32 425.104 1214.8 423.967 1223 423.249Z" fill="#FEDC81"/>
<path d="M695.417 405.315C707.94 403.932 723.888 404.511 734.186 412.045C763.892 433.777 750.427 446.804 722.505 452.529C685.61 455.856 635.033 415.044 695.417 405.315Z" fill="black"/>
<path d="M696.185 423.046C703.978 422.384 725.791 422.671 729.373 431.095L728.638 432.633L724.762 433.855C716.215 435.495 695.004 433.43 691.147 425.289L691.894 423.997L696.185 423.046Z" fill="#FEDC81"/>
<path d="M1143.73 241.041C1172.43 238.226 1157.38 277.025 1148.28 289.271C1138.37 302.609 1130.17 308.64 1114.06 311.702C1089.28 312.026 1094.94 289.232 1102.39 273.602C1110.62 256.344 1126.26 246.91 1143.73 241.041Z" fill="black"/>
<path d="M1139.76 261.431L1140.97 261.84C1141.61 263.688 1141.18 264.947 1140.35 266.784C1134.79 279.11 1128.94 287.87 1116.43 293.198L1115.74 292.882C1110.87 282.366 1131.69 265.837 1139.76 261.431Z" fill="#FEDC81"/>
<path d="M958.925 173.533C975.925 174.386 980.349 186.181 984.433 201.175C990.27 222.605 986.509 245.291 966.662 258.039C934.772 260.532 931.019 190.496 958.925 173.533Z" fill="black"/>
<path d="M962.988 195.62C971.187 207.074 970.828 225.539 963.786 237.63C953.404 227.427 957.792 207.301 962.988 195.62Z" fill="#FEDC81"/>
<path d="M777.301 239.976C796.398 242.321 817.681 258.158 825.73 275.572C831.675 288.434 834.138 304.588 818.949 311.65C798.012 310.46 779.606 296.715 771.408 277.728C764.942 262.751 759.328 248.163 777.301 239.976Z" fill="black"/>
<path d="M784.374 260.381C798.138 264.955 809.935 277.773 811.893 292.361C796.462 288.905 788.207 274.475 784.374 260.381Z" fill="#FEDC81"/>
<path d="M957.381 287.72L962.358 287.765C960.002 290.912 961.697 293.932 960.037 299.205C958.042 294.457 960.341 292.259 957.381 287.72Z" fill="black"/>
<defs>
<linearGradient id="paint0_linear_311_131" x1="961.921" y1="544.839" x2="898.077" y2="604.044" gradientUnits="userSpaceOnUse">
<stop stop-color="#FF0012"/>
<stop offset="1" stop-color="#CD0010"/>
</linearGradient>
</defs>
</svg>
