<svg width="638" height="638" viewBox="0 0 638 638" fill="none" xmlns="http://www.w3.org/2000/svg" xmlns:xlink="http://www.w3.org/1999/xlink">
<path fill-rule="evenodd" clip-rule="evenodd" d="M529.869 107.426L318.497 318.798L440.081 45.7158C386.493 21.8568 329.637 15.0384 275.59 22.9287C210.214 32.326 151.672 62.8784 107.125 107.426L318.497 318.798L45.415 197.214C21.5569 250.8 14.7381 307.653 22.6271 361.699C32.0234 427.078 62.5763 485.622 107.125 530.17L318.497 318.798L196.913 591.88C250.513 615.744 307.381 622.56 361.438 614.662C426.801 605.259 485.33 574.71 529.869 530.17L318.497 318.798L591.579 440.382C615.442 386.784 622.259 329.918 614.362 275.862C604.96 210.497 574.41 151.966 529.869 107.426ZM614.362 275.862C611.148 253.863 605.498 232.33 597.568 211.673L318.497 318.798L318.497 19.8723C303.928 19.8723 289.602 20.9146 275.59 22.9287C253.581 26.1417 232.039 31.7935 211.372 39.7269L318.497 318.798L19.5715 318.798C19.5715 333.365 20.6135 347.689 22.6271 361.699C25.8399 383.71 31.4921 405.254 39.4261 425.923L318.497 318.798L318.497 617.723C333.078 617.723 347.415 616.679 361.438 614.662C383.435 611.448 404.966 605.798 425.622 597.869L318.497 318.798L617.423 318.798C617.423 304.218 616.379 289.883 614.362 275.862Z" fill="#C000FE"/>
<path d="M196.913 591.88L318.497 318.798L107.125 530.17C122.775 545.821 140.153 559.744 158.948 571.629C170.933 579.171 183.599 585.952 196.913 591.88Z" fill="#F3C651"/>
<path d="M39.4261 425.923L318.497 318.798L19.5715 318.798C19.5715 333.365 20.6135 347.689 22.6271 361.699C25.8399 383.71 31.4921 405.254 39.4261 425.923Z" fill="#F3C651"/>
<path d="M65.6751 159.234C58.1296 171.223 51.3451 183.895 45.415 197.214L318.497 318.798L107.125 107.426C91.4784 123.072 77.5584 140.445 65.6751 159.234Z" fill="#F3C651"/>
<path d="M211.372 39.7269L318.497 318.798L318.497 19.8723C303.928 19.8723 289.602 20.9146 275.59 22.9287C253.581 26.1417 232.039 31.7935 211.372 39.7269Z" fill="#F3C651"/>
<path d="M440.081 45.7158L318.497 318.798L529.869 107.426C514.218 91.7739 496.838 77.8497 478.042 65.9638C466.059 58.4231 453.393 51.6427 440.081 45.7158Z" fill="#F3C651"/>
<path d="M597.568 211.673L318.497 318.798L617.423 318.798C617.423 304.218 616.379 289.883 614.362 275.862C611.148 253.863 605.498 232.33 597.568 211.673Z" fill="#F3C651"/>
<path d="M591.579 440.382L318.497 318.798L529.869 530.17C545.525 514.515 559.452 497.131 571.34 478.329C578.877 466.35 585.654 453.689 591.579 440.382Z" fill="#F3C651"/>
<path d="M425.622 597.869L318.497 318.798L318.497 617.723C333.078 617.723 347.415 616.679 361.438 614.662C383.435 611.448 404.966 605.798 425.622 597.869Z" fill="#F3C651"/>
<path d="M440.081 45.7158L318.497 318.798M440.081 45.7158C386.493 21.8568 329.637 15.0384 275.59 22.9287M440.081 45.7158C453.393 51.6427 466.059 58.4231 478.042 65.9638M591.579 440.382L318.497 318.798M591.579 440.382C615.442 386.784 622.259 329.918 614.362 275.862M591.579 440.382C585.654 453.689 578.877 466.35 571.34 478.329M196.913 591.88L318.497 318.798M196.913 591.88C250.513 615.744 307.381 622.56 361.438 614.662M196.913 591.88C183.599 585.952 170.933 579.171 158.948 571.629M45.415 197.214L318.497 318.798M45.415 197.214C21.5569 250.8 14.7381 307.653 22.6271 361.699M45.415 197.214C51.3451 183.895 58.1296 171.223 65.6751 159.234M318.497 318.798L211.372 39.7269M318.497 318.798L597.568 211.673M318.497 318.798L425.622 597.869M318.497 318.798L39.4261 425.923M318.497 318.798L617.423 318.798M318.497 318.798L19.5715 318.798M318.497 318.798L529.869 107.426M318.497 318.798L318.497 19.8723M318.497 318.798L318.497 617.723M318.497 318.798L529.869 530.17M318.497 318.798L107.125 530.17M318.497 318.798L107.125 107.426M211.372 39.7269C232.039 31.7935 253.581 26.1417 275.59 22.9287M211.372 39.7269C152.566 62.3003 100.85 103.345 65.6751 159.234M597.568 211.673C605.498 232.33 611.148 253.863 614.362 275.862M597.568 211.673C574.992 152.86 533.94 101.139 478.042 65.9638M425.622 597.869C404.966 605.798 383.435 611.448 361.438 614.662M425.622 597.869C484.44 575.291 536.164 534.235 571.34 478.329M39.4261 425.923C31.4921 405.254 25.8399 383.71 22.6271 361.699M39.4261 425.923C62.0015 484.734 103.052 536.454 158.948 571.629M617.423 318.798C617.423 304.218 616.379 289.883 614.362 275.862M617.423 318.798C617.423 377.454 600.528 432.165 571.34 478.329M318.497 617.723C333.078 617.723 347.415 616.679 361.438 614.662M318.497 617.723C259.833 617.723 205.116 600.824 158.948 571.629M19.5715 318.798C19.5715 333.365 20.6135 347.689 22.6271 361.699M19.5715 318.798C19.5715 260.127 36.474 205.405 65.6751 159.234M318.497 19.8723C303.928 19.8723 289.602 20.9146 275.59 22.9287M318.497 19.8723C377.159 19.8723 431.875 36.7701 478.042 65.9638M529.869 107.426C574.41 151.966 604.96 210.497 614.362 275.862M529.869 107.426C514.218 91.7739 496.838 77.8497 478.042 65.9638M529.869 530.17C485.33 574.71 426.801 605.259 361.438 614.662M529.869 530.17C545.525 514.515 559.452 497.131 571.34 478.329M107.125 530.17C62.5763 485.622 32.0234 427.078 22.6271 361.699M107.125 530.17C122.775 545.821 140.153 559.744 158.948 571.629M107.125 107.426C151.672 62.8784 210.214 32.326 275.59 22.9287M107.125 107.426C91.4784 123.072 77.5584 140.445 65.6751 159.234" stroke="black" stroke-width="5"/>
<circle cx="318.497" cy="317.798" r="192.5" stroke="black" stroke-width="5"/>
<path d="M330.17 184.912C332.415 184.929 334.659 185.022 336.898 185.191C346.5 185.976 350.643 187.453 359.255 189.634C380.47 194.491 397.229 205.753 410.863 222.684C419.216 233.056 428.984 247.142 434.652 259.373C441.567 274.296 445.919 293.478 447.445 309.788C448.342 319.37 447.515 331.235 446.727 340.9C464.216 352.816 493.366 387.597 468.752 407.227C457.328 416.338 436.791 407.126 423.751 404.782C414.563 416.194 408.122 422.16 395.382 430.062C384.323 436.921 372.93 441.87 359.678 441.876C356.326 441.878 354.21 441.883 350.845 441.092C346.405 451.575 339.144 452.631 328.677 450.938C320.886 449.678 314.546 448.192 308.05 443.439C303.633 439.489 302.88 436.911 301.815 431.373C296.271 429.266 288.746 428.109 283.535 426.119C282.406 427.402 281.22 428.672 279.868 429.78C270.75 437.254 257.532 432.012 248.027 427.981C244.565 426.512 241.075 424.154 238.765 421.31C235.819 417.682 235.893 413.434 236.389 409.075C216.593 400.795 207.727 385.394 199.488 366.489C188.698 341.73 193.654 322.107 197.976 296.783C195.536 293.632 193.754 290.075 191.695 286.805C184.819 276.005 180.123 264.843 178.161 252.115C176.434 240.911 173.892 226.287 181.982 216.831C184.461 213.932 188.974 211.962 192.819 212.064C203.506 212.348 214.792 217.112 223.012 223.894C225.994 226.413 228.463 229.114 231.15 231.876C231.59 232.329 232.861 233.152 233.254 232.847C235.151 231.374 238.098 228.137 239.702 226.528C244.47 221.693 249.578 217.205 254.986 213.098C262.365 207.608 269.201 204.184 277.344 200.167C294.263 191.82 311.146 185.818 330.17 184.912Z" fill="black"/>
<path d="M267.644 243.833C277.403 235.403 287.736 231.79 300.874 232.619C311.936 233.317 325.846 241.774 333.34 249.835C335.599 252.264 338.035 256.452 341.963 256.715C345.889 256.978 350.615 254.446 354.78 253.711C359.103 252.948 361.957 252.913 366.141 252.76C379.841 252.257 391.729 256.827 400.904 267.135C408.561 275.737 412.881 288.586 412.057 300.09C411.256 311.26 403.802 325.533 395.215 332.607C385.705 340.442 379.755 344.128 378.674 357.847C377.995 366.458 379.377 374.683 379.686 383.009C380.151 395.508 381.543 417.496 376.022 428.594C368.763 431.9 359.411 432.553 351.641 431.136C349.76 421.835 337.225 420.085 329.587 417.801C327.474 417.169 325.146 416.598 322.998 416.079C314.265 415.063 310.352 415.177 304.358 422.05C300.652 420.31 290.181 417.305 286.095 416.918C284.723 407.973 279.952 404.405 271.44 401.631C264.647 399.418 257.382 397.055 250.254 396.584C246.32 396.323 243.606 397.455 240.793 400.156C232.692 396.823 226.746 392.303 221.389 385.391C222.17 372.962 236.764 352.208 243.865 341.76C249.126 334.019 256.439 325.405 258.82 315.919C261.448 306.163 255.484 298.035 253.72 289.037C250.545 272.84 254.446 254.483 267.644 243.833Z" fill="#FEFEFE"/>
<path d="M267.644 243.833C268.028 246.529 266.143 256.294 265.961 259.741C265.13 275.493 265.547 291.077 269.403 306.466C274.578 328.787 283.253 349.246 294.253 369.299C300.101 379.959 306.228 390.529 312.614 400.884C314.165 403.398 322.712 414.645 322.998 416.079C314.265 415.063 310.352 415.177 304.358 422.05C300.652 420.31 290.181 417.305 286.095 416.918C284.723 407.973 279.952 404.405 271.44 401.631C264.647 399.418 257.382 397.055 250.254 396.584C246.32 396.323 243.606 397.455 240.793 400.156C232.692 396.823 226.746 392.303 221.389 385.391C222.17 372.962 236.764 352.208 243.865 341.76C249.126 334.019 256.439 325.405 258.82 315.919C261.448 306.163 255.484 298.035 253.72 289.037C250.545 272.84 254.446 254.483 267.644 243.833Z" fill="#C1C0C0"/>
<path d="M325.37 277.148C330.591 276.711 334.849 276.766 339.547 279.454C353.624 287.509 357.487 300.78 348.661 314.818C344.693 321.129 339.499 326.009 331.803 327.756C325.875 328.445 316.532 326.235 311.935 322.338C302.024 313.938 301.261 294.249 309.484 284.461C313.597 279.565 319.188 277.648 325.37 277.148Z" fill="black"/>
<path d="M324.956 287.132C326.853 286.893 330.186 287.023 332.032 287.597C349.922 293.166 344.251 310.557 331.153 317.859C322.673 322.382 315.36 314.386 314.244 306.377C312.944 297.043 314.64 288.835 324.956 287.132Z" fill="#FEC043"/>
<path d="M294.423 242.132C300.303 241.091 307.916 244.095 311.122 249.256C312.897 252.08 313.447 255.504 312.645 258.742C311.042 265.37 304.051 270.696 296.913 268.989C292.407 267.912 287.727 261.835 293.154 258.378C295.005 257.2 298.394 258.601 300.455 259.368C310.174 251.809 287.302 246.381 284.793 262.886C285.07 268.404 288.721 271.993 294.329 272.405C297.583 272.643 303.208 270.752 304.29 275.554C305.175 279.485 301.237 281.864 297.899 282.312C280.083 284.444 267.936 265.561 279.294 250.863C283.376 245.58 287.99 242.996 294.423 242.132Z" fill="black"/>
<path d="M382.378 268.355C389.66 267.834 394.542 272.026 396.558 278.884C398.029 284.02 397.389 289.531 394.781 294.193C391.864 299.404 387.016 303.259 381.282 304.926C359.231 311.16 350.696 278.795 362.79 276.339C370.513 276.747 366.615 283.344 367.332 287.562C367.819 290.329 369.394 292.785 371.705 294.383C373.547 295.644 375.825 296.097 378.01 295.638C383.765 294.479 388.77 288.05 387.242 282.117C386.837 280.544 385.396 277.348 383.126 278.258C377.634 280.233 383.11 284.655 381.311 287.712C379.869 290.161 376.828 290.781 374.524 289.232C369.457 285.824 369.488 279.013 372.691 274.372C375.151 270.809 378.219 269.108 382.378 268.355Z" fill="black"/>
<path d="M286.742 206.92C300.943 199.95 318.485 194.279 334.493 195.043C341.657 195.385 352.584 197.474 359.559 199.649C366.761 202.34 374.686 204.798 381.203 208.928C395.689 218.106 406.234 231.893 415.478 245.989C423.327 257.96 428.921 268.589 432.34 282.593C434.335 290.766 436.479 298.964 437.247 307.422C438.777 325.818 437.401 348.195 431.047 365.627C424.405 383.848 418.281 400.185 402.713 412.662C397.409 416.912 393.596 419.179 388.332 422.891C391.124 411.608 390.012 389.741 389.284 377.77C388.843 370.522 387.737 362.079 389.159 354.846C390.873 346.131 400.718 342.398 406.443 335.555C410.884 330.246 412.41 327.906 415.676 321.781C425.205 303.908 423.859 285.12 413.669 267.862C407.219 256.938 394.802 247.37 382.443 244.376C371.485 241.722 354.268 242.164 343.751 246.678C335.955 237.154 325.476 229.887 314.008 225.42C301.368 220.495 285.578 221.975 273.517 227.996C273.382 223.802 280.804 215.277 283.334 211.532C284.37 209.998 285.969 208.846 286.742 206.92Z" fill="#414651"/>
<path d="M214.206 374.713C209.194 364.622 203.63 351.806 203.106 340.413C200.625 286.499 235.639 226.469 286.742 206.92C285.969 208.846 284.37 209.998 283.334 211.532C280.804 215.277 273.382 223.802 273.517 227.996C273.28 228.12 273.044 228.246 272.809 228.373C248.576 241.418 239.422 263.59 243.795 290.48C245.097 298.484 251.482 307.29 248.556 315.289C245.819 322.774 240.202 329.494 235.728 336.001C227.563 348.127 218.441 360.622 214.206 374.713Z" fill="#414651"/>
<path d="M191.732 222.094C192.41 222.062 193.09 222.049 193.769 222.054C200.85 222.149 210.768 226.499 216.089 231.004C219.438 233.839 223.218 237.885 226.367 241.068C219.041 250.334 212.823 260.425 207.839 271.135C205.575 275.531 203.729 280.265 201.988 284.886C199.447 279.112 195.085 273.803 192.645 267.463C189.364 258.936 180.636 226.423 191.732 222.094Z" fill="#414651"/>
<path d="M445.027 351.672C445.994 352.178 451.406 357.674 452.325 358.729C459.236 366.827 468.775 377.561 468.167 388.92C467.652 398.531 461.127 401.553 452.434 401.045C443.92 400.309 437.426 397.279 429.196 395.573C434.971 384.902 443.137 363.482 445.027 351.672Z" fill="#414651"/>
<path d="M337.824 441.365C334.557 442.047 329.236 440.864 325.82 440.253C321.342 439.399 315.683 437.937 312.954 433.971C311.237 431.462 311.289 427.874 314.268 426.381C317.419 424.802 322.678 426.13 325.946 427.121C331.865 428.64 345.141 430.24 341.121 438.386C340.149 440.355 340.052 440.8 337.824 441.365Z" fill="#C19133"/>
<path d="M337.824 441.365C337.294 441.344 336.74 441.348 336.221 441.234C334.296 440.811 327.282 431.406 325.887 429.287C325.431 428.594 325.196 428.141 325.37 427.33L325.946 427.121C331.865 428.64 345.141 430.24 341.121 438.386C340.149 440.355 340.052 440.8 337.824 441.365Z" fill="#FEC043"/>
<path d="M249.558 406.5C251.576 406.504 257.963 407.842 260.139 408.602C264.672 410.297 272.756 411.233 275.512 415.669C277.168 418.335 274.615 421.667 272.122 422.95C265.914 425.102 255.675 420.648 250.01 417.842C244.665 415.195 244.852 409.653 249.558 406.5Z" fill="#C19133"/>
<path d="M181.998 334.828C188.16 334.335 188.191 338.182 188.071 342.951C187.817 353.03 189.668 363.528 193.963 372.687C195.111 375.411 197.592 378.158 198.523 380.911C199.388 383.471 196.928 385.773 194.789 386.549C183.511 385.624 178.292 356.896 178.239 347.723C178.214 343.322 177.388 337.092 181.998 334.828Z" fill="black"/>
<path d="M442.009 254.837C451.011 253.57 455.72 270.476 456.955 277.337C457.631 281.092 458.12 284.67 454.544 287.047C446.226 289.319 447.575 276.305 445.328 271.509C443.74 268.119 442.587 265.832 440.472 262.7C438.523 259.814 438.644 256.632 442.009 254.837Z" fill="black"/>
<path d="M171.396 369.138C172.053 369.022 173.049 368.919 173.703 369.003C174.751 369.139 175.719 369.639 176.437 370.416C177.992 372.134 178.99 375.959 180.934 378.579C183.221 382.037 186.615 384.419 189.21 387.575C191.74 390.653 190.281 393.551 187.395 395.437C186.767 395.556 185.754 395.796 185.14 395.612C179.821 393.728 175.216 387.636 172.12 383.162C169.34 379.144 166.004 372.449 171.396 369.138Z" fill="black"/>
<path d="M460.632 265.125C467.197 264.105 468.648 270.872 469.298 275.851C469.745 279.275 469.276 282.319 466.491 284.569C463.867 285.167 463.067 284.803 460.934 283.464C459.438 280.538 459.322 276.185 458.493 272.91C457.636 269.526 457.337 267.085 460.632 265.125Z" fill="black"/>
<g id="Repeat group 1_inner" data-figma-trr="r16u15.3-0f">
<circle cx="274.145" cy="64.9186" r="14.3585" transform="rotate(-10 274.145 64.9186)" stroke="black" stroke-width="5"/>
</g>
<use xlink:href="#Repeat%20group%201_inner" transform="translate(146.328 -97.7735) rotate(22.5)"/>
<use xlink:href="#Repeat%20group%201_inner" transform="translate(318.935 -132.107) rotate(45)"/>
<use xlink:href="#Repeat%20group%201_inner" transform="translate(491.541 -97.7735) rotate(67.5)"/>
<use xlink:href="#Repeat%20group%201_inner" transform="translate(637.869 9.19268e-05) rotate(90)"/>
<use xlink:href="#Repeat%20group%201_inner" transform="translate(735.643 146.329) rotate(112.5)"/>
<use xlink:href="#Repeat%20group%201_inner" transform="translate(769.976 318.935) rotate(135)"/>
<use xlink:href="#Repeat%20group%201_inner" transform="translate(735.643 491.541) rotate(157.5)"/>
<use xlink:href="#Repeat%20group%201_inner" transform="translate(637.869 637.869) rotate(-180)"/>
<use xlink:href="#Repeat%20group%201_inner" transform="translate(491.541 735.643) rotate(-157.5)"/>
<use xlink:href="#Repeat%20group%201_inner" transform="translate(318.934 769.976) rotate(-135)"/>
<use xlink:href="#Repeat%20group%201_inner" transform="translate(146.328 735.643) rotate(-112.5)"/>
<use xlink:href="#Repeat%20group%201_inner" transform="translate(-8.1789e-05 637.869) rotate(-90)"/>
<use xlink:href="#Repeat%20group%201_inner" transform="translate(-97.7736 491.541) rotate(-67.5)"/>
<use xlink:href="#Repeat%20group%201_inner" transform="translate(-132.107 318.934) rotate(-45)"/>
<use xlink:href="#Repeat%20group%201_inner" transform="translate(-97.7736 146.328) rotate(-22.5)"/>
</svg>
