<svg width="576" height="576" viewBox="0 0 576 576" fill="none" xmlns="http://www.w3.org/2000/svg">
<path d="M212 52.7866C214.354 48.2753 215.901 46.4632 220.109 42.9183C230.121 34.4856 249.904 37.0773 247.298 53.6815C246.557 58.4021 241.97 63.0272 237.624 65.5837C245.064 67.439 261.917 77.2173 250.991 85.1121C252.25 87.0129 253.617 92.1136 254.355 94.5178C257.693 95.355 258.379 96.1672 260.585 98.658C264.805 117.77 267.975 142.326 245.139 151.134C263.253 162.279 254.268 188.299 248.888 204.187C247.178 209.231 243.14 214.75 239.715 218.778C245.454 223.349 245.291 224.762 249.371 230.592C255.201 217.274 272.868 203.03 285.434 195.822C290.56 181.031 295.349 171.307 311.857 166.923C316.901 168.514 317.752 169.272 321.792 172.782C331.554 160.096 333.169 161.858 347.363 162.628C352.412 162.902 363.971 158.65 369.814 158.989C386.706 157.439 404.589 158.521 420.516 164.76C426.423 167.074 433.189 169.047 433.402 176.413C434.724 177.622 444.766 184.238 446.522 185.161C454.49 183.908 459.28 192.104 463.2 197.63C484.678 227.903 491.743 279.587 472.363 312.382C459.282 334.519 458.146 337.643 454.054 362.609C462.968 362.224 471.833 364.227 478.465 370.332C491.891 382.688 483.065 400.727 472.702 411.698C466.545 418.233 458.997 416.655 453.054 424.518C450.384 428.046 440.545 430.903 436.192 430.946C422.004 431.08 409.184 419.855 408.973 405.315C408.828 395.417 412.673 392.951 416.663 385.173C420.682 377.339 417.951 376.514 426.289 370.271C423.773 359.631 423.842 355.798 423.835 344.903C409.608 369.065 378.727 387.519 351.265 390.999C348.623 391.334 337.723 392.187 336.1 393.537C334.435 398.375 339.722 405.39 340.066 410.777C340.784 422.046 336.673 431.232 328.85 439.225C325.648 442.498 319.732 445.722 318.18 450.208C316.674 456.981 323.844 464.008 315.014 469.448C314.953 472.575 315.016 475.238 315.152 478.362L318.323 480.108C326.698 498.926 303.836 528.948 290.272 540.608C287.033 543.392 282.265 542.301 278.536 541.589C274.107 538.043 270.885 533.13 267.742 528.462C253.212 534.646 221.817 526.883 207.86 519.943C202.17 533.498 194.508 559.834 181.147 533.926C177.762 537.921 167.062 552.539 161.776 544.671C158.778 540.207 162.031 524.454 163.427 519.274C159.054 518.931 149.362 518.754 148.268 513.832C146.678 506.674 160.101 500.651 164.281 497.354C169.343 493.361 170.972 490.937 176.96 489.662C173.756 481.657 173.108 470.176 172.72 461.706C154.318 460.22 146.71 448.283 146.074 431.017C145.872 425.544 146.818 418.154 145.572 413.002C140.403 391.887 134.316 371.009 129.22 349.878C123.788 327.354 134.695 323.528 154.234 320.023L154.079 319.656C151.364 313.1 140.632 270.319 141.132 264.497C141.311 262.412 142.913 260.963 144.365 259.647C143.899 256.449 143.526 253.022 142.838 249.885C134.649 248.132 138.094 233.719 139.906 228.437C146.249 224.51 159.268 222.346 166.794 221.294C157.816 216.376 149.047 209.256 149.191 198.065C149.34 186.476 160.148 183.304 169.736 183.643C169.45 170.664 168.085 148.49 182.189 142.167C172.812 132.063 176.556 132.309 175.927 120.847C174.682 98.146 162.804 84.3892 190.25 74.2498C184.189 70.0404 177.582 65.3968 176.772 57.3353C175.952 48.6337 182.865 43.0691 190.98 42.9854C199.894 42.8937 205.837 46.9055 212 52.7866ZM162.992 195.633C155.378 200.245 167.634 208.538 171.448 210.785L172.507 210.819C173.16 209.125 171.169 197.514 170.527 195.357C167.776 195.32 165.711 195.228 162.992 195.633ZM205.781 67.6873C206.37 66.7165 206.364 66.6836 205.949 65.4608C203.528 58.3304 196.547 54.2884 189.443 54.6311C185.58 61.0124 201.353 66.6546 205.781 67.6873ZM233.287 49.7459C228.647 50.6246 222.459 54.4933 221.937 59.5936L222.327 60.1815L223.488 59.8719C227.209 58.3982 234.748 55.3042 235.919 51.0888L235.506 50.2095C234.555 49.8872 234.294 49.7191 233.287 49.7459ZM236.998 197.806C236.4 199.768 235.812 201.528 235.009 203.436C234.068 205.67 232.616 207.439 231.462 209.483C230.525 211.144 227.93 213.325 228.662 214.823L229.463 215.041C231.189 213.512 237.345 202.084 238.262 199.009L236.998 197.806Z" fill="black"/>
<path d="M412.979 174.822C418.726 176.437 422.111 177.995 427.427 180.775C430.104 179.225 431.027 178.447 433.402 176.413C434.724 177.622 444.766 184.238 446.522 185.161C440.706 191.714 445.664 193.533 450.228 199.397C469.977 224.776 474.296 253.591 470.615 284.839C466.829 279.388 464.83 276.932 459.065 273.651C462.268 260.721 456.606 251.743 443.786 248.325C445.38 233.018 438.812 220.752 425.295 212.788C418.275 208.651 409.704 208.124 401.921 210.488C400.569 196.47 393.207 184.351 376.97 185.485C374.448 185.661 371.456 186.68 368.708 187.02C367.356 186.356 367.809 186.741 367.145 184.95C369.089 183.746 372.527 181.46 374.475 180.705C386.026 176.232 400.926 177.599 412.979 174.822Z" fill="#B40000"/>
<path d="M149.625 236.52C156.685 234.772 165.748 232.681 172.868 231.449C175.326 238.932 179.332 243.268 186.76 237.437C187.587 242.457 188.332 253.641 188.528 258.817L188.574 259.153C187.603 264.007 187.109 265.69 183.164 269.006C181.461 268.364 177.891 267.484 176.008 266.962C167.942 266.811 166.86 267.378 159.37 270.204C157.988 265.334 157.493 265.178 152.592 263.785C151.464 260.028 147.823 260.228 144.365 259.647C143.899 256.449 143.526 253.022 142.838 249.885C149.931 246.111 149.391 244.219 149.625 236.52Z" fill="#B40000"/>
<path d="M176.008 266.962C174.201 264.93 171.46 261.979 171.622 259.173C171.972 253.104 180.758 253.977 184.786 254.002C187.204 255.76 187.712 255.993 188.528 258.817L188.574 259.153C187.603 264.007 187.109 265.69 183.164 269.006C181.461 268.364 177.891 267.484 176.008 266.962Z" fill="#E28083"/>
<path d="M163.869 241.526C174.896 241.83 170.266 259.221 158.873 256.286C151.247 251.679 147.495 241.484 159.885 242.354C162.064 242.507 161.85 242.665 163.869 241.526Z" fill="#E28083"/>
<path d="M226.06 76.8979C230.175 76.4406 233.24 76.3578 237.295 77.4865C242.605 79.1623 245.488 84.2313 250.991 85.1121C252.25 87.0129 253.617 92.1136 254.355 94.5178L250.054 97.7765C250.378 104.591 251.927 112.905 252.075 118.73C248.75 114.092 247.885 113.59 242.99 110.757C239.457 110.236 237.883 110.032 234.36 110.257C230.608 111.652 228.583 112.74 225.391 115.083C224.741 109.652 223.912 104.77 222.958 99.3768C222.281 97.3374 221.054 91.0719 220.533 88.6934C219.521 84.5809 219.061 81.6549 218.453 77.482L226.06 76.8979Z" fill="#C000FE"/>
<path d="M226.059 76.8979C230.175 76.4406 233.24 76.3578 237.295 77.4865C235.9 88.0213 225.902 86.764 226.059 76.8979Z" fill="#E281FE"/>
<path d="M234.36 110.257C230.685 98.8035 248.305 100.126 242.989 110.756C239.457 110.236 237.883 110.032 234.36 110.257Z" fill="#E281FE"/>
<path d="M220.533 88.6934C231.339 87.621 231.936 97.3757 222.958 99.3768C222.28 97.3374 221.053 91.0719 220.533 88.6934Z" fill="#E281FE"/>
<path d="M238.118 89.2802C239.942 88.6041 241.99 88.9767 243.46 90.2522C244.93 91.5278 245.586 93.503 245.175 95.4047C244.762 97.3063 243.345 98.8317 241.478 99.3836C238.724 100.198 235.821 98.6823 234.914 95.9568C234.008 93.2315 235.424 90.278 238.118 89.2802Z" fill="#E281FE"/>
<path d="M282.046 465.507C292.758 466.378 297.408 466.335 307.688 463.369C309.516 468.792 310.299 467.638 315.014 469.448C314.953 472.575 315.016 475.238 315.152 478.362C310.51 480.378 309.316 483.358 308.024 487.847C305.208 489.022 302.24 490.436 299.769 492.218C298.581 487.01 296.476 479.446 292.101 476.007C288.192 472.931 285.475 474.56 281.537 475.018C280.8 473.676 281.807 467.427 282.046 465.507Z" fill="#434953"/>
<path d="M360.186 171.964C376.106 169.399 397.963 168.345 412.979 174.822C400.927 177.599 386.027 176.231 374.475 180.705C372.527 181.46 369.089 183.746 367.145 184.95C366.403 180.126 363.642 175.374 360.186 171.964Z" fill="#830707"/>
<path d="M283.261 454.359C292.309 454.779 296.886 454.55 305.689 452.937C306.628 456.748 307.361 459.42 307.689 463.369C297.408 466.335 292.758 466.378 282.047 465.507C282.174 462.629 282.916 457.383 283.261 454.359Z" fill="#373940"/>
<path d="M172.868 231.449C177.573 230.533 181.967 229.621 186.74 229.122L186.76 237.437C179.332 243.268 175.326 238.932 172.868 231.449Z" fill="#E28083"/>
<path d="M152.592 263.785C157.493 265.178 157.988 265.334 159.37 270.204L154.31 274.606C153.488 270.846 153.086 267.591 152.592 263.785Z" fill="#E28083"/>
<path d="M188.574 259.153C189.406 263.891 189.411 268.852 190.348 273.118C188.455 272.034 184.9 270.161 183.164 269.006C187.109 265.69 187.603 264.007 188.574 259.153Z" fill="#B40000"/>
<path d="M273.301 261.373C286.502 226.459 324.123 241.561 335.058 269.031C340.409 282.477 343.478 283.638 357.341 287.009C368.842 290.695 380.597 299.705 385.606 310.597C393.822 328.459 379.382 344.607 363.391 350.508C351.442 354.915 340.525 356.918 328.63 362.365C311.686 370.128 305.497 373.792 299.349 391.763C294.604 391.983 292.229 392.321 287.743 393.87C286.096 394.85 278.071 397.413 275.73 398.22C275.041 385.169 274.851 372.1 274.551 359.037C274.188 343.291 273.607 324.403 260.522 313.446C262.922 307.214 265.308 299.401 266.496 292.823C268.633 280.989 268.145 272.572 273.301 261.373Z" fill="#FEFEFE"/>
<path d="M260.522 313.447C262.922 307.214 265.308 299.401 266.496 292.823C268.633 280.989 268.145 272.572 273.301 261.373C273.841 268.178 272.986 274.289 273.075 280.976C273.208 290.674 273.278 301.059 273.85 310.723C274.145 315.716 278.761 322.741 279.995 327.681C285.205 347.169 286.904 367.765 286.74 387.898C286.725 389.796 286.645 391.5 287.074 393.378L287.743 393.87C286.096 394.85 278.071 397.413 275.73 398.22C275.041 385.169 274.851 372.1 274.551 359.037C274.188 343.291 273.607 324.403 260.522 313.447Z" fill="#C3C2C2"/>
<path d="M308.572 300.081C316.305 300.043 331.567 311.901 329.503 320.533C328.036 326.66 318.283 332.9 313.116 335.992C283.612 348.678 291.354 306.511 308.572 300.081Z" fill="black"/>
<path d="M309.82 309.671C314.98 312.901 316.279 314.015 320.265 318.622C317.677 321.674 314.064 324.138 310.788 326.415C308.643 327.651 306.844 328.749 304.328 328.507C299.113 325.36 307.538 312.849 309.82 309.671Z" fill="#F3C15D"/>
<path d="M290.707 267.335C293.55 263.912 295.528 262.71 300.105 262.142C312.639 260.58 317.992 274.77 311.01 283.673C309.01 286.224 305.12 286.487 302.824 284.085C300.678 281.74 301.731 276.659 302.293 273.681C300.454 274.201 298.066 274.947 296.253 275.353C290.943 274.452 289.95 272.325 290.707 267.335Z" fill="black"/>
<path d="M354.223 322.892C354.543 321.418 354.862 321.126 354.484 319.896C351.716 319.96 341.158 322.931 341.84 316.231C342.587 308.863 354.39 305.525 360.011 309.077C367.628 313.227 368.132 321.13 364.312 328.203C358.333 333.689 354.39 330.139 354.223 322.892Z" fill="black"/>
<path d="M274.821 274.387C273.972 262.61 282.404 260.763 290.707 267.335C289.95 272.325 290.943 274.452 296.253 275.353C295.564 275.673 295.446 276.006 295.131 276.693C289.145 289.801 279.811 282.065 274.821 274.387Z" fill="#E28083"/>
<path d="M364.312 328.203C376.202 350.011 345.569 346.296 346.964 330.378C347.293 326.64 351.299 324.644 354.223 322.892C354.39 330.139 358.333 333.689 364.312 328.203Z" fill="#E28083"/>
<path d="M311.877 179.342C313.05 181.047 314.49 183.196 316.076 184.559C327.151 194.073 329.901 173.903 339.262 173.499C343.689 173.309 348.876 176.996 351.943 179.787C355.86 183.948 355.656 187.989 357.961 192.95C364.523 207.077 378.18 190.988 386.552 200.145C393.996 208.286 385.615 216.168 396.999 222.253C407.585 221.882 414.705 217.273 424.937 226.531C430.29 231.641 432.676 237.809 432.411 245.142C432.627 248.873 432.068 253.666 435.02 256.47C437.905 259.21 441.81 259.233 445.052 261.138C453.34 266.007 442.512 274.189 448.322 280.102C450.484 282.302 453.247 283.645 455.713 285.48C473.847 298.963 455.567 327.45 436.503 326.696C419.282 326.014 412.169 305.933 409.565 291.623C408.789 288.445 408.504 284.718 406.962 281.804C403.049 274.248 393.314 276.768 389.814 268.459C388.251 265.125 386.107 259.965 385.211 256.433C381.757 242.692 377.549 245.986 366.637 249.81C358.777 252.566 350.28 250.373 344.106 244.765C337.272 238.557 336.034 228.684 328.912 223.362C324.327 219.935 312.637 226.001 312.717 216.315C312.857 209.747 313.848 207.503 307.874 203.402C300.27 202.323 295.237 199.467 299.273 190.698C301.741 185.341 306.293 181.325 311.877 179.342Z" fill="#FEFEFE"/>
<path d="M311.877 179.342C313.05 181.047 314.49 183.196 316.076 184.559C327.151 194.073 329.901 173.903 339.262 173.499C343.689 173.309 348.876 176.996 351.943 179.787C349.071 181.421 346.289 181.159 343.496 182.735C340.132 184.634 337.086 190.919 333.427 191.927C321.05 195.338 313.116 184.566 307.874 203.402C300.27 202.323 295.237 199.467 299.273 190.698C301.741 185.341 306.293 181.325 311.877 179.342Z" fill="#C3C2C2"/>
<path d="M209.654 323.562C219.14 321.421 231.86 318.662 241.457 318.669C247.682 318.674 250.664 320.781 254.742 325.056C259.254 328.436 260.333 333.531 261.59 338.866C262.246 343.03 262.454 346.409 262.72 350.597L262.806 355.8C263.525 363.194 263.16 372.1 263.516 379.744L263.793 390.524C263.949 393.079 264.038 400.867 264.487 402.78C254.71 407.668 249.253 408.958 239.888 415.84C234.439 421.07 231.334 425.176 232.033 433.042C229.186 433.038 227.472 431.995 224.409 431.888C223.1 427.852 222.229 424.081 221.238 419.964C220.054 415.945 219.181 411.573 218.276 407.464C217.518 403.501 216.935 400.126 216.409 396.116C215.745 392.783 215.518 389.921 215.21 386.553C214.52 382.502 214.061 373.966 213.585 369.493C213.495 366.442 212.757 360.874 212.424 357.656C211.735 354.033 211.388 350.751 210.984 347.101C210.405 343.663 210.126 341.208 209.861 337.729C209.267 334.703 209.566 326.884 209.654 323.562Z" fill="#658AFE"/>
<path d="M209.654 323.562C219.14 321.421 231.86 318.662 241.457 318.669C247.682 318.674 250.664 320.781 254.742 325.056C259.254 328.436 260.333 333.531 261.59 338.866C262.246 343.03 262.454 346.409 262.72 350.597C255.904 351.336 254.527 349.857 247.994 349.826C243.875 349.809 236.506 355.94 233.283 356.097C224.659 356.515 221.792 353.253 213.054 356.796L212.424 357.656C211.735 354.033 211.388 350.751 210.984 347.101C210.405 343.663 210.126 341.208 209.861 337.729C209.267 334.703 209.566 326.884 209.654 323.562Z" fill="#B6C7FE"/>
<path d="M250.818 336.745C255.26 338.359 256.947 339.104 261.59 338.867C262.246 343.03 262.454 346.409 262.72 350.597C255.904 351.336 254.527 349.857 247.994 349.826C243.875 349.809 236.506 355.94 233.283 356.097C224.659 356.515 221.792 353.253 213.054 356.796L212.424 357.657C211.736 354.033 211.389 350.751 210.984 347.101C213.088 346.267 218.017 343.179 221.079 341.807C234.65 346.056 238.715 343.384 250.818 336.745Z" fill="#658AFE"/>
<path d="M209.654 323.562C219.14 321.421 231.86 318.662 241.457 318.669C247.682 318.674 250.664 320.781 254.742 325.056C252.934 325.184 250.442 325.134 248.875 325.394C244.839 326.061 236.964 331.67 233.341 331.958C226.181 332.526 217.426 326.98 210.639 333.979C209.646 335.002 209.84 336.218 209.861 337.729C209.267 334.703 209.566 326.884 209.654 323.562Z" fill="#658AFE"/>
<path d="M253.66 388.642C257.719 389.645 259.563 390.334 263.793 390.524C263.949 393.079 264.038 400.866 264.487 402.78C254.709 407.668 249.253 408.958 239.888 415.84C234.439 421.069 231.334 425.176 232.033 433.042C229.186 433.038 227.472 431.995 224.409 431.888C223.099 427.851 222.228 424.081 221.238 419.964C220.054 415.945 219.181 411.572 218.276 407.464C217.518 403.501 216.935 400.126 216.409 396.116C218.51 395.249 220.495 394.215 222.527 393.196C242.27 395.013 234.115 398.472 253.66 388.642Z" fill="#658AFE"/>
<path d="M246.33 405.397C253.624 402.394 256.834 400.394 264.487 402.78C254.709 407.668 249.253 408.958 239.888 415.84C234.439 421.069 231.334 425.176 232.033 433.042C229.186 433.038 227.472 431.995 224.409 431.888C223.099 427.851 222.228 424.081 221.238 419.964C220.054 415.945 219.181 411.573 218.276 407.464C231.741 409.391 228.039 399.913 246.33 405.397Z" fill="#B6C7FE"/>
<path d="M221.238 419.964C229.195 420.129 235.329 414.119 239.888 415.84C234.438 421.07 231.334 425.176 232.033 433.042C229.186 433.038 227.472 431.995 224.409 431.888C223.099 427.852 222.228 424.081 221.238 419.964Z" fill="#658AFE"/>
<path d="M212.424 357.656L213.053 356.796C221.792 353.253 224.659 356.515 233.283 356.097C236.506 355.939 243.875 349.808 247.994 349.826C254.527 349.857 255.904 351.336 262.72 350.597L262.806 355.8C262.801 357.819 263.115 360.96 261.926 362.29C258.664 363.532 252.695 362.401 249.381 361.514C245.164 363.698 238.695 367.207 234.195 367.803C224.181 369.126 223.756 364.936 213.585 369.493C213.495 366.442 212.756 360.874 212.424 357.656Z" fill="#B6C7FE"/>
<path d="M237.458 383.997C243.365 381.227 248.342 376.779 255.768 377.056C257.786 377.131 262.046 378.196 263.516 379.744L263.793 390.524C259.563 390.334 257.72 389.646 253.66 388.642C234.115 398.472 242.27 395.013 222.527 393.196C220.495 394.215 218.51 395.249 216.409 396.116C215.745 392.783 215.518 389.921 215.21 386.553L215.277 383.869C218.281 378.721 232.865 382.991 237.458 383.997Z" fill="#B6C7FE"/>
<path d="M139.97 344.817C139.614 342.533 138.807 338.983 139.792 336.955C145.45 331.262 179.38 327.985 189.001 326.352L189.055 334.308C189.22 338.051 189.312 342.29 189.59 345.985L190.799 359.229C191.402 363.042 191.971 367.084 192.706 370.857L194.997 383.989L197.281 395.016L200.512 411.784C186.423 407.72 171.45 409.357 157.527 413.268C156.752 410.442 155.985 407.665 155.301 404.812C154.169 400.353 153.094 395.954 152.049 391.473C151.693 389.526 150.684 386.149 150.146 384.13C149.016 380.855 147.718 375.581 146.754 372.109C145.51 367.402 144.212 362.652 143.109 357.914C141.793 354.155 140.708 348.71 139.97 344.817Z" fill="#B6C7FE"/>
<path d="M139.97 344.817C139.614 342.533 138.807 338.983 139.792 336.955C145.45 331.262 179.38 327.985 189.001 326.352L189.055 334.308C189.22 338.051 189.312 342.29 189.59 345.985L190.799 359.229C181.794 360.548 177.603 367.034 169.487 367.863C169.133 367.901 162.217 365.072 160.616 364.712C152.033 366.928 152.571 369.362 146.754 372.109C145.51 367.402 144.212 362.652 143.109 357.914C141.793 354.155 140.708 348.71 139.97 344.817Z" fill="#B6C7FE"/>
<path d="M189.59 345.985L190.799 359.228C181.794 360.548 177.603 367.033 169.488 367.863C169.133 367.901 162.217 365.072 160.616 364.712C152.033 366.928 152.572 369.362 146.754 372.109C145.51 367.402 144.212 362.652 143.109 357.914C146.472 356.147 149.603 352.851 153.89 350.504C156.047 351.457 158.311 352.967 160.636 353.65C172.597 357.166 177.217 346.816 189.59 345.985Z" fill="#658AFE"/>
<path d="M139.97 344.817C139.614 342.533 138.807 338.983 139.792 336.955C145.45 331.262 179.38 327.985 189.001 326.352L189.055 334.308C177.658 334.944 174.936 339.324 165.029 342.994C159.903 340.147 156.827 338.054 150.639 339.593C146.945 340.512 142.276 344.169 139.97 344.817Z" fill="#658AFE"/>
<path d="M175.177 392.153C183.525 389.404 185.252 384.586 194.997 383.989L197.281 395.016L200.512 411.784C186.423 407.72 171.45 409.357 157.527 413.268C156.752 410.442 155.985 407.665 155.301 404.812C154.169 400.353 153.094 395.954 152.049 391.473C163.749 386.889 162.804 385.062 175.177 392.153Z" fill="#B6C7FE"/>
<path d="M197.281 395.016L200.512 411.784C186.423 407.72 171.45 409.357 157.527 413.268C156.752 410.442 155.985 407.665 155.301 404.812C158.194 402.716 159.836 401.038 163.149 398.84C173.795 405.404 177.576 405.49 188.512 398.701C191.87 396.617 193.525 395.986 197.281 395.016Z" fill="#658AFE"/>
<path d="M160.407 377.092C166.386 379.582 172.294 381.433 178.404 378.076C183.017 375.542 187.377 371.542 192.706 370.857L194.997 383.989C185.252 384.586 183.525 389.404 175.178 392.153C162.804 385.062 163.749 386.89 152.049 391.473C151.693 389.526 150.684 386.149 150.146 384.13C152.615 383.08 157.771 378.922 160.407 377.092Z" fill="#658AFE"/>
<path d="M206.241 461.736C215.518 459.207 226.027 458.658 235.447 456.226C241.335 454.706 246.79 452.352 252.687 451.068C253.862 450.812 255.19 451.971 256.156 452.515C261.273 452.586 266.218 453.196 271.296 453.845C271.137 456.822 270.638 463.519 270.107 466.297C269.189 474.023 269.28 480.516 268.72 488.025C247.981 477.103 252.195 498.735 257.689 510.355C258.714 512.038 260.638 516.196 261.71 518.226C257.517 518.174 253.434 519.119 250.292 518.943C233.018 517.986 226.235 516.443 213.856 503.856C203.526 493.352 205.767 476.137 206.241 461.736Z" fill="#FEFEFE"/>
<path d="M206.241 461.736C215.518 459.207 226.027 458.658 235.447 456.226C241.335 454.706 246.79 452.352 252.687 451.068C253.862 450.812 254.93 451.35 256.378 451.591C258.814 451.995 266.218 453.196 271.296 453.845C271.137 456.822 270.638 463.52 270.107 466.297L269.656 464.988C259.163 460.962 242.127 468.647 232.146 471.747C227.581 473.165 216.076 475.118 211.274 475.647C211.626 477.143 211.986 478.634 212.358 480.122C217.573 500.94 235.227 514.381 256.902 510.993L257.689 510.355C258.714 512.038 260.638 516.196 261.71 518.226C257.517 518.174 253.434 519.119 250.292 518.943C233.018 517.986 226.235 516.443 213.856 503.856C203.526 493.352 205.767 476.137 206.241 461.736Z" fill="#C3C2C2"/>
<path d="M314.395 399.954C323.814 398.468 330.272 407.648 328.777 416.113C323.044 448.559 284.955 444.189 261.729 441.008C258.437 440.23 237.327 434.621 244.828 427.411C257.027 415.686 278.396 409.703 294.08 403.664C297.902 402.192 309.779 400.722 314.395 399.954Z" fill="#434953"/>
<path d="M342.684 257.926C353.204 263.077 363.012 264.556 373.979 259.511C376.136 267.312 380.954 280.141 389.071 283.257C391.045 284.015 395.708 285.031 396.718 286.544C398.153 288.692 397.879 292.897 398.535 295.495C399.472 299.212 401.087 303.207 402.282 306.749C406.533 319.368 408.433 323.562 418.636 332.297C404.768 357.098 379.978 374.488 352.254 379.428C341.053 381.422 337.916 379.188 327.233 384.59C324.801 386.001 323.275 387.598 321.376 389.579C320.986 389.987 313.735 389.358 312.194 389.511L311.611 389.574C319.205 380.984 320.093 380.115 330.438 374.595C344.964 366.846 360.292 365.918 374.691 358.132C411.69 338.128 405.248 297.685 370.349 279.735C363.284 276.103 357.548 274.597 349.851 272.451C347.409 268.441 345.259 262.555 342.684 257.926Z" fill="#434953"/>
<path d="M443.459 381.957C447.778 377.741 451.053 373.427 457.52 373.971C481.709 376.003 473.82 394.526 462.004 405.56L461.149 406.345C447.474 398.459 452.73 411.217 445.412 415.885C431.946 426.108 413.931 411.78 422.945 396.311C435.511 393.401 429.435 390.458 430.21 382.495C430.363 380.916 434.826 379.786 436.408 379.324C438.667 380.462 441.057 381.164 443.459 381.957Z" fill="#FEFEFE"/>
<path d="M422.945 396.311C435.511 393.401 429.435 390.457 430.21 382.495C430.363 380.916 434.826 379.786 436.408 379.324C438.667 380.462 441.057 381.164 443.459 381.957C437.592 389.127 425.49 402.551 436.813 411.395C439.084 413.17 442.725 414.6 445.412 415.885C431.946 426.108 413.931 411.78 422.945 396.311Z" fill="#C3C2C2"/>
<path d="M218.016 225.967C225.29 225.602 232.119 224.9 236.515 232.07C238.877 236.502 239.573 239.497 240.167 244.537C241.076 247.81 241.192 250.264 241.478 253.618C232.841 251.182 229.874 252.146 221.542 254.877C216.346 258.166 213.314 260.432 209.496 265.468C207.21 263.386 205.095 261.707 204.3 258.643C204.15 257.23 204.225 255.227 204.236 253.761C204.046 249.783 203.791 239.274 204.304 235.536C204.055 233.127 204.104 229.797 204.071 227.3C207.935 226.688 214.153 226.118 218.016 225.967Z" fill="#B40000"/>
<path d="M204.072 227.3C207.935 226.688 214.154 226.118 218.017 225.967C219.033 226.329 219.968 226.429 220.263 227.559C223.255 238.995 211.571 248.184 204.304 235.536C204.056 233.127 204.104 229.797 204.072 227.3Z" fill="#E28083"/>
<path d="M240.167 244.537C238.638 252.292 230.464 252.421 226.524 246.437C219.143 235.226 230.216 235.958 235.977 232.406L236.515 232.07C238.878 236.502 239.573 239.497 240.167 244.537Z" fill="#E28083"/>
<path d="M204.236 253.761C206.619 250.683 210.671 250.79 214.284 250.963C218.17 251.149 219.333 251.693 221.542 254.877C216.346 258.166 213.315 260.432 209.496 265.468C207.211 263.386 205.095 261.707 204.301 258.643C204.15 257.23 204.226 255.227 204.236 253.761Z" fill="#E28083"/>
<path d="M157.809 426.308C164.738 421.109 182.304 420.463 190.837 421.284C195.875 421.769 209.08 426.612 202.446 433.512C199.334 441.487 183.081 448.362 174.972 449.589C162.617 451.458 157.926 440.698 156.407 430.549C156.069 428.288 156.56 427.855 157.809 426.308Z" fill="#434953"/>
<path d="M202.446 433.512C199.334 441.487 183.081 448.362 174.972 449.589C162.617 451.458 157.926 440.698 156.407 430.549C156.069 428.288 156.56 427.855 157.809 426.308C163.825 432.689 164.305 441.213 176.148 442.181C186.789 443.05 193.879 436.079 202.446 433.512Z" fill="#373940"/>
<path d="M223.876 267.452C228.07 264.146 230.688 264.252 235.954 263.85C239.416 265.434 240.378 265.669 242.423 268.954C245.456 289.01 224.511 300.788 208.538 306.924C208.826 298.602 210.664 296.644 211.365 291.106C211.787 289.493 212.517 287.495 213.054 285.879C213.731 280.023 218.526 270.483 223.876 267.452Z" fill="#B40000"/>
<path d="M223.876 267.452C228.07 264.146 230.688 264.252 235.953 263.85C239.416 265.434 240.378 265.669 242.422 268.954C239.826 283.432 224.783 281.674 223.876 267.452Z" fill="#E28083"/>
<path d="M213.054 285.879C214.602 285.052 216.208 284.233 217.743 283.421C225.069 279.544 228.24 286.274 226.12 292.718C223.046 302.066 213.563 298.91 211.365 291.106C211.787 289.493 212.517 287.495 213.054 285.879Z" fill="#E28083"/>
<path d="M159.731 289.509C160.296 281.763 166.638 278.363 173.744 278.689C181.141 279.896 188.56 284.931 190.944 292.281C192.201 295.361 192.488 297.066 192.42 300.439L192.461 311.338C179.631 311.107 159.667 305.366 159.731 289.509Z" fill="#B40000"/>
<path d="M192.42 300.439C190.302 318.678 161.416 292.773 184.317 292.11C187.18 292.027 187.896 291.65 190.944 292.281C192.201 295.361 192.488 297.066 192.42 300.439Z" fill="#E28083"/>
<path d="M159.73 289.509C160.296 281.763 166.637 278.363 173.744 278.689C173.819 287.767 169.773 298.335 159.73 289.509Z" fill="#E28083"/>
<path d="M183.723 154.954C184.236 153.923 184.378 153.243 185.772 152.89C190.558 151.679 198.964 151.858 203.835 152.385C203.683 156.297 203.562 158.875 202.984 162.782L201.544 170.557L199.956 178.4L198.425 188.033C197.755 191.753 196.678 195.59 195.662 199.238C191.677 193.113 186.857 191.029 181.624 186.412C181.441 185.799 181.285 185.277 181.157 184.848C181.346 182.968 181.07 177.699 181.011 175.575C181.123 172.386 181.175 169.094 181.537 165.932C181.86 162.366 182.655 158.372 183.723 154.954Z" fill="#DCFEF0"/>
<path d="M183.723 154.954C184.236 153.923 184.378 153.243 185.772 152.89C190.558 151.679 198.964 151.858 203.836 152.385C203.683 156.297 203.562 158.875 202.984 162.782L201.544 170.557C197.699 170.321 185.333 167.148 181.537 165.932C181.86 162.366 182.656 158.372 183.723 154.954Z" fill="#DCFEF0"/>
<path d="M183.724 154.954C184.236 153.923 184.378 153.243 185.773 152.89C190.558 151.679 198.964 151.858 203.836 152.385C203.684 156.297 203.562 158.875 202.984 162.782C202.911 161.536 202.893 161.324 202.603 160.117C201.3 159.16 187.189 156.107 183.724 154.954Z" fill="#B5FCE1"/>
<path d="M181.537 165.932C185.332 167.148 197.699 170.321 201.544 170.557L199.956 178.4L199.697 177.652C198.164 176.771 183.458 173.388 181.567 173.814L181.011 175.575C181.123 172.386 181.175 169.094 181.537 165.932Z" fill="#B5FCE1"/>
<path d="M181.157 184.848C184.814 185.846 194.55 187.961 198.425 188.033C197.755 191.753 196.678 195.59 195.662 199.238C191.677 193.113 186.857 191.028 181.624 186.412C181.441 185.799 181.285 185.277 181.157 184.848Z" fill="#B5FCE1"/>
<path d="M198.275 82.9821C201.45 81.8103 203.657 80.9794 206.987 80.2096C207.491 82.5575 208.119 85.1754 208.414 87.5306C211.267 97.6366 212.443 106.713 214.291 116.8C210.746 113.886 208.711 112.944 204.631 110.924C203.708 110.966 202.789 110.777 201.957 110.376C194.662 110.491 193.251 110.364 186.17 112.646C185.709 108.596 185.19 104.586 185.032 100.512L184.696 98.4595C184.125 94.9395 183.954 93.4368 183.959 89.8843C188.478 87.2625 193.444 84.9629 198.275 82.9821Z" fill="#C000FE"/>
<path d="M201.958 110.376C199.422 109.153 198.195 106.232 199.096 103.565C199.998 100.898 202.745 99.3203 205.503 99.886C208.26 100.452 210.163 102.983 209.943 105.79C209.722 108.596 207.445 110.798 204.632 110.924C203.709 110.966 202.789 110.777 201.958 110.376Z" fill="#E281FE"/>
<path d="M184.696 98.4595C185.031 95.6113 187.372 91.6469 190.549 92.4161C201.775 95.1341 193.319 109.542 185.033 100.512L184.696 98.4595Z" fill="#E281FE"/>
<path d="M198.275 82.9821C201.45 81.8103 203.657 80.9794 206.987 80.2096C207.491 82.5575 208.119 85.1754 208.414 87.5306C202.423 91.7508 199.33 89.637 198.275 82.9821Z" fill="#E281FE"/>
<path d="M218.934 154.469C226.553 156.468 236.215 157.473 241.933 163.135C244.229 167.121 244.515 170.301 244.132 174.891C242.968 184.451 241.324 189.825 238.263 199.009L236.998 197.806C238.229 187.241 234.076 178.619 223.28 175.975C219.945 175.61 217.825 176.102 214.599 176.835C215.608 172.054 216.479 167.236 217.375 162.432C217.906 159.889 218.573 157.004 218.934 154.469Z" fill="#DCFEF0"/>
<path d="M244.132 174.891C242.968 184.451 241.324 189.825 238.263 199.009L236.998 197.806C238.229 187.241 234.076 178.619 223.28 175.975C223.853 175.645 224.915 174.903 225.579 174.955C231.638 175.425 238.17 174.651 244.132 174.891Z" fill="#B5FCE1"/>
<path d="M218.934 154.469C226.553 156.468 236.215 157.473 241.932 163.135C237.611 164.611 221.917 163.337 217.375 162.432C217.906 159.889 218.573 157.004 218.934 154.469Z" fill="#B5FCE1"/>
<path d="M286.14 488.179C290.728 492.808 283.316 519.727 304.936 502.375C301.126 509.196 290.19 526.494 283.808 530.617C276.774 521.828 270.688 511.348 266.479 500.924C283.334 516.423 281.338 498.841 285.89 488.73L286.14 488.179Z" fill="#F3C15D"/>
<path d="M175.945 503.625C178.125 502.289 179.713 501.407 181.999 500.266C186.56 506.336 189.708 510.19 196.422 514.224C195.013 516.887 194.342 518.471 193.258 521.297C192.488 523.343 191.676 525.371 190.871 527.403C185.444 521.006 181.391 519.516 174.044 524.654C176.338 516.441 178.877 512.274 169.836 507.781L175.945 503.625Z" fill="#F3C15D"/>
<path d="M175.945 503.625C178.125 502.289 179.713 501.407 181.999 500.266C186.56 506.336 189.708 510.19 196.422 514.224C195.013 516.887 194.342 518.471 193.258 521.297C186.359 516.983 179.328 511.194 175.945 503.625Z" fill="#6D5A25"/>
<path d="M296.909 213.332C304.349 213.07 299.747 220.847 303.283 225.983C305.222 228.802 307.662 228.949 309.684 230.612L309.506 230.585L309.473 230.326L308.933 230.07C307.951 230.485 302.686 228.988 299.781 229.14C294.511 229.416 292.161 229.557 287.028 231.082C282.841 232.656 279.825 234.729 276.077 237.094C282.649 225.161 286.327 221.859 296.909 213.332Z" fill="#434953"/>
<path d="M184.328 462.756C187.85 463.362 191.168 463.321 194.727 463.384C193.276 474.131 194.534 491.082 198.259 501.316L198.084 501.368C196.767 500.89 194.857 498.154 193.956 496.984C186.215 486.965 184.83 474.971 184.328 462.756Z" fill="#373940"/>
<path d="M210.072 200.719C214.096 179.122 233.657 188.244 222.484 202.965C217.707 208.51 214.694 209.721 208.006 212.343C208.75 208.619 209.375 204.505 210.072 200.719Z" fill="#B5FCE1"/>
<path d="M210.072 200.719C212.973 199.884 216.28 200.342 219.244 200.657C220.299 201.42 221.404 202.25 222.484 202.965C217.707 208.51 214.694 209.721 208.006 212.343C208.75 208.619 209.375 204.505 210.072 200.719Z" fill="#DCFEF0"/>
<path d="M442.042 337.881L447.467 336.354C444.076 348.735 443.801 353.368 442.915 365.875C442.498 367.45 440.066 369.716 438.87 370.975C434.942 358.166 434.515 351.776 436.359 338.641L442.042 337.881Z" fill="#830707"/>
<path d="M442.042 337.881L447.467 336.354C444.076 348.735 443.801 353.368 442.915 365.875L441.935 366.07C439.742 363.771 442.96 343.822 442.042 337.881Z" fill="#B40000"/>
<path d="M194.197 122.356C204.588 121.119 208.273 125.014 210.9 134.563C206.232 135.073 201.375 135.416 196.68 135.099C192.268 133.536 188.796 129.047 190.425 124.262C191.418 122.954 192.566 122.843 194.197 122.356Z" fill="#E281FE"/>
<path d="M194.197 122.356C204.588 121.119 208.273 125.014 210.9 134.563C206.232 135.073 201.375 135.416 196.68 135.099C198.461 134.591 201.831 131.805 202.052 129.924C202.666 124.718 198.091 123.131 194.197 122.356Z" fill="#C000FE"/>
<path d="M237.694 121.763C244.018 123.221 243.395 128.912 240.119 133.202C237.98 135.559 236.175 137.075 233.346 138.631C231.334 139.589 228.884 140.2 226.709 140.829C227.301 137.04 227.61 134.922 228.778 131.214C230.545 126.385 232.101 122.677 237.694 121.763Z" fill="#C000FE"/>
<path d="M237.694 121.763C244.018 123.221 243.396 128.912 240.119 133.202C233.518 129.783 234.147 127.306 237.694 121.763Z" fill="#E281FE"/>
<path d="M228.778 131.214C234.396 134.183 231.649 133.958 233.346 138.631C231.334 139.589 228.884 140.2 226.709 140.829C227.301 137.04 227.61 134.922 228.778 131.214Z" fill="#E281FE"/>
<path d="M224.409 431.888C227.472 431.995 229.186 433.038 232.033 433.042C233.63 437.88 234.966 440.103 238.892 443.322C235.719 444.234 233.539 444.726 230.287 445.322C227.218 440.189 226.156 437.568 224.409 431.888Z" fill="#B6C7FE"/>
<path d="M204.301 258.643C205.095 261.707 207.21 263.386 209.496 265.468C207.116 269.138 205.712 272.102 203.904 276.011C203.911 270.909 203.719 263.521 204.301 258.643Z" fill="#B40000"/>
<path d="M238.262 199.009C237.345 202.084 231.189 213.512 229.463 215.041L228.662 214.823C227.93 213.324 230.525 211.144 231.462 209.483C232.616 207.439 234.068 205.67 235.009 203.436C235.812 201.528 236.401 199.768 236.998 197.806L238.262 199.009Z" fill="#96ADA0" fill-opacity="0.988235"/>
<path d="M241.981 299.577C242.242 300.827 240.18 305.048 239.522 307.083C237.484 307.19 235.492 307.407 233.464 307.609C233.503 306.516 240.017 301.78 241.981 299.577Z" fill="#A85C5D"/>
<path d="M183.063 201.951C186.076 203.552 187.108 208.281 186.842 211.454L185.794 211.582C184.122 210.214 183.478 204.353 183.063 201.951Z" fill="#B5FCE1"/>
<path d="M317.432 233.515C319.478 233.445 321.165 233.762 323.184 234.048C324.289 235.62 325.219 237.31 326.185 238.975C322.245 236.241 322.007 235.686 317.432 233.515Z" fill="#434953"/>
<path d="M120.993 29.2308C133.371 29.0071 136.054 40.5603 136.024 50.596C148.629 52.8725 163.206 68.5696 164.337 81.2347C165.635 95.79 148.241 110.771 134.276 111.668C120.783 109.444 104.891 95.3042 104.027 81.346C98.3536 81.272 95.6061 80.9753 91.5046 77.0462C87.9575 60.9113 93.9946 47.8975 111.985 48.2464C112.013 39.918 111.751 32.0883 120.993 29.2308ZM106.947 59.8763C104.464 61.6882 100.606 66.0594 102.129 69.305C103.136 69.4742 103.174 69.5865 104.091 69.2073C105.978 68.8642 108.119 68.5361 109.953 68.0433C109.499 65.9182 109.042 61.6702 107.999 60.264L106.947 59.8763ZM123.623 45.8714C123.541 46.5303 123.479 47.1286 123.452 47.7425C123.441 47.988 123.436 48.2361 123.437 48.4915C123.441 49.1303 123.487 49.8152 123.591 50.6224L124.106 51.0364C124.183 50.7457 124.263 50.4617 124.341 50.1829C124.885 48.2309 125.347 46.5373 124.419 44.6058L123.846 44.1341C123.765 44.7779 123.688 45.3442 123.623 45.8714Z" fill="black"/>
<path d="M120.808 74.1418C127.548 80.5348 137.392 89.8931 143.126 96.6932C140.692 98.2098 139.731 98.8068 137.089 99.8359C128.402 101.489 119.268 88.9718 114.926 82.7171C116.899 79.779 118.99 77.2298 120.808 74.1418Z" fill="#F3C15D"/>
<path d="M134.036 62.6721C141.998 62.2697 148.251 72.6621 152.195 78.5349C153.387 80.3103 153.421 86.9313 150.997 88.0323L150.386 87.428C143.977 79.9896 136.631 74.3836 130.222 67.0987C128.584 65.2358 132.782 63.3324 134.036 62.6721Z" fill="#FE8000"/>
</svg>
