<svg width="1920" height="1080" viewBox="0 0 1920 1080" fill="none" xmlns="http://www.w3.org/2000/svg">
<path d="M942.722 201.822C944.374 201.741 946.027 201.673 947.681 201.618C979.177 200.605 1015.32 201.517 1047.23 201.513L1243.57 201.505L1435.03 201.517C1468.26 201.521 1501.52 201.38 1534.73 201.711C1547.54 201.839 1550.01 204.07 1550.02 217.174C1550.07 302.259 1550.06 387.837 1550.05 472.867V558.531C1550.06 573.939 1550.33 590.026 1549.64 605.422C1549.48 609.051 1548.11 610.493 1545.61 613.045C1538.44 616.351 1432.98 615.003 1414.15 615.001L1173.51 615.041C1168.8 632.135 1167.6 637.685 1157.95 652.569C1153.43 659.172 1146.86 665.945 1141.49 671.819C1118.4 697.058 1097.46 708.539 1065.1 718.266C1067.8 758.81 1028.24 750.216 1001.48 749.113C988.404 748.574 980.404 743.72 974.271 732.603C965.974 733.394 954.268 733.411 946.019 732.462C944.699 734.799 941.151 740.072 939.023 741.866C925.64 751.551 901.354 750.365 885.111 750.483C862.782 750.645 854.063 738.389 854.926 718.26C841.703 714.337 828.994 709.794 816.799 702.94C793.036 689.583 765.366 662.467 753.694 637.657C751.171 632.295 747.644 619.464 745.873 613.307C714.206 608.086 690.033 590.526 675.287 561.33C668.041 546.983 667.986 536.591 673.289 521.801C688.871 508.317 728.153 499.213 748.483 497.509C760.052 451.46 783.791 399.164 811.857 361.028C839.807 323.049 890.278 296.533 936.479 289.39C936.517 272.5 936.468 255.611 936.334 238.722C936.3 229.814 935.99 220.169 936.881 211.321C937.394 206.227 938.894 204.74 942.722 201.822Z" fill="black"/>
<path d="M954.315 219.346L1532.23 219.347L1532.28 485.291L1532.27 551.57C1532.27 563.466 1533.02 584.943 1530.64 595.767C1525.77 598.974 1243.95 597.148 1214.61 597.152C1230.96 584.658 1246.05 566.152 1249.92 545.394C1251.61 536.294 1249.77 530.216 1246.71 521.864C1239.41 515.555 1225.96 509.1 1216.53 507.347L1248 447.9L1253.3 437.864C1259.19 426.872 1286.24 382.009 1283.55 371.982C1282.97 369.796 1281.72 368.359 1279.59 367.554C1277.17 366.637 1274.44 367.014 1272.23 368.265C1265 372.35 1238.76 427.656 1232.66 438.77L1227.82 447.891L1199.1 502.128C1191.03 499.986 1179.85 498.206 1171.55 497.53C1159.6 449.165 1128.92 381.155 1094.46 344.836C1074.32 323.604 1031.76 300.203 1003.3 293.055C989.4 289.563 968.695 287.774 954.316 287.704L954.315 219.346Z" fill="#9ABE89"/>
<path d="M1227.82 447.891C1218.56 447.985 1177.73 451.095 1175.68 442.48C1176.45 441.098 1177.56 439.279 1179.06 438.862C1185.71 437.013 1229.07 437.329 1232.66 438.77L1227.82 447.891Z" fill="#FEFEFE"/>
<path d="M1253.3 437.864C1260.87 437.708 1276.4 435.995 1281.88 440.734C1282.9 443.87 1282.89 442.553 1281.88 445.7C1276.91 449.718 1256.09 447.988 1248 447.9L1253.3 437.864Z" fill="#FEFEFE"/>
<path d="M1165.31 281.866C1229.96 282.678 1296.14 282.066 1360.89 282.02L1418.03 281.916C1425.42 281.901 1451.24 280.591 1455.81 284.342C1456.58 288.348 1456.43 287.043 1455.11 291.143C1447.73 292.302 1423.55 291.778 1414.92 291.781L1334.16 291.805L1224.43 291.808C1206.36 291.806 1187.66 291.965 1169.55 291.561C1167.38 291.513 1166.15 290.479 1164.77 288.913C1163.71 285.84 1164.29 284.859 1165.31 281.866Z" fill="#FEFEFE"/>
<path d="M1158 346.932C1197.5 345.424 1245.96 346.844 1286.23 346.766L1328.36 346.692C1334.67 346.687 1348.61 344.958 1351.87 350.24C1351.27 354.294 1351.58 352.994 1348.93 356.426C1335.5 356.976 1319.16 356.532 1305.52 356.539L1222.99 356.62C1203.8 356.636 1178.75 357.154 1159.13 356.025C1157.16 355.911 1156.34 354.353 1155.47 352.961C1155.87 349.081 1155.64 350.32 1158 346.932Z" fill="#FEFEFE"/>
<path d="M1262 530.795C1311.28 529.229 1393.1 531.108 1445.09 531.411C1446.95 531.421 1447.84 533.427 1448.5 534.922C1447.67 538.642 1448.23 537.244 1445.39 540.501C1388.02 543.091 1326.66 539.003 1268.93 540.65C1264.53 540.776 1260.9 540.721 1258.87 536.623C1259.69 532.659 1259.23 533.974 1262 530.795Z" fill="#FEFEFE"/>
<path d="M1328.22 437.817L1412.49 437.769C1424.17 437.763 1437.71 437.377 1449.37 438.335C1452.16 438.564 1452.83 439.797 1454.09 441.623C1453.73 445.383 1453.89 444.233 1451.58 447.562C1447.04 447.977 1442.36 447.94 1437.79 447.902C1402.25 447.606 1366.63 448.595 1331.12 447.701C1328.3 447.63 1327.63 446.515 1326.1 444.603C1325.75 441.352 1326.54 440.521 1328.22 437.817Z" fill="#FEFEFE"/>
<path d="M1066.96 282.226C1090.23 280.899 1116.52 282.486 1139.99 282.052C1143.21 281.993 1145.15 282.725 1147.01 285.411C1147.15 288.859 1146.9 288.164 1145.14 291.576C1121.93 293.431 1093.85 290.917 1070.33 291.564C1067.56 291.641 1066.41 290.142 1064.83 288.24C1064.98 284.459 1064.84 285.657 1066.96 282.226Z" fill="#FEFEFE"/>
<path d="M1386.12 346.997C1406.92 346.138 1430.29 346.829 1451.22 347.062C1454.4 347.097 1455.48 348.198 1457.04 350.636C1457.19 353.362 1456.54 353.857 1454.97 356.302C1434.03 357.673 1410.71 356.22 1389.57 356.422C1386.72 356.449 1385.73 355.323 1384.11 353.355C1384.06 349.545 1384.09 350.63 1386.12 346.997Z" fill="#FEFEFE"/>
<path d="M959.966 415.189C977.073 411.97 992.598 394.931 1014.49 393.115C1057.72 389.529 1098.11 427.4 1104.25 468.975C1107.56 491.413 1093.98 507.448 1081.21 523.677C1079.25 514.909 1078.71 506.463 1078.09 497.528C1086.51 487.836 1086.04 481.564 1076.24 473.087C1073.32 472.484 1072.57 472.156 1069.84 473.217C1066.58 477.426 1070.42 481.194 1073.54 484.498C1070.31 487.111 1064.37 482.718 1060.15 485.123C1058.65 488.267 1059.97 490.426 1061.88 493.179L1068.51 498.088C1068.84 512.387 1070.02 519.792 1073.53 533.69C1070.5 536.81 1066.04 541.625 1066.38 546.231C1069.47 588.409 1100.04 641.905 1098.62 683.824C1083.52 692.435 1074.94 695.127 1058.75 700.425C1057.23 699.817 1055.72 699.227 1054.19 698.655C1038.64 692.758 1002.31 690.409 986.557 697.296C978.192 700.954 975.779 705.499 972.764 713.52C963.463 714.105 956.538 713.984 947.27 713.508C941.501 698.129 931.887 694.438 915.735 693.501C897.055 692.417 878.674 693.385 861.185 700.484C844.748 694.62 836.957 692.386 821.456 683.925C820.754 661.54 830.825 634.229 836.232 612.219C841.065 592.548 854.36 567.274 853.446 546.594C853.014 536.817 828.789 513.739 824.109 503.642C797.032 461.665 839.124 407.808 880.205 395.397C898.996 389.72 916.104 393.347 933.003 402.389C942.056 407.234 949.836 412.725 959.966 415.189Z" fill="#FEFEFE"/>
<path d="M981.388 457.93C981.307 451.185 981.953 445.665 984.077 439.199C987.983 426.998 996.743 416.944 1008.29 411.403C1020.17 405.485 1033.93 404.583 1046.47 408.901C1059.06 413.216 1069.4 422.381 1075.2 434.358C1081.27 447.102 1080.96 460.004 1076.24 473.087C1073.32 472.484 1072.57 472.156 1069.84 473.217C1066.58 477.426 1070.42 481.194 1073.54 484.498C1070.31 487.111 1064.37 482.718 1060.15 485.123C1058.65 488.267 1059.97 490.426 1061.88 493.179C1041.74 508.374 1020.89 507.809 1000.3 494.138C995.646 515.418 982.465 536.814 959.991 541.935C959.212 541.783 958.436 541.613 957.664 541.428C911.724 530.301 897.108 435.571 981.388 457.93Z" fill="black"/>
<path d="M1022.71 416.762C1043.98 412.419 1064.75 426.171 1069.05 447.456C1073.35 468.742 1059.56 489.478 1038.27 493.739C1017.03 497.989 996.363 484.243 992.072 463.015C987.782 441.788 1001.49 421.094 1022.71 416.762Z" fill="#FEDC81"/>
<path d="M1024.19 422.3C1042.01 418.847 1059.26 430.429 1062.82 448.224C1066.37 466.018 1054.89 483.343 1037.12 487C1019.2 490.687 1001.7 479.09 998.118 461.151C994.534 443.211 1006.23 425.781 1024.19 422.3Z" fill="black"/>
<path d="M1028.07 431.801C1040.71 430.443 1052.08 439.558 1053.49 452.195C1054.91 464.833 1045.85 476.239 1033.22 477.714C1020.5 479.199 1009.01 470.064 1007.58 457.344C1006.15 444.624 1015.34 433.169 1028.07 431.801Z" fill="#FEFEFE"/>
<path d="M1027.08 439.567C1032.35 438.488 1037.53 441.8 1038.76 447.041C1039.99 452.282 1036.82 457.55 1031.62 458.93C1028.12 459.858 1024.39 458.81 1021.89 456.194C1019.38 453.577 1018.5 449.805 1019.58 446.348C1020.66 442.89 1023.53 440.292 1027.08 439.567Z" fill="black"/>
<path d="M956.759 471.821C994.165 470.265 983.251 507 962.263 523.471C948.245 523.418 918.268 479.851 956.759 471.821Z" fill="#FEB800"/>
<path d="M894.602 439.56C899.957 438.537 905.137 442.017 906.215 447.361C907.294 452.705 903.868 457.921 898.535 459.054C895.036 459.798 891.407 458.605 889.032 455.93C886.657 453.255 885.901 449.511 887.054 446.124C888.206 442.737 891.089 440.231 894.602 439.56Z" fill="black"/>
<path d="M954.311 306.97C956.96 306.516 968.575 307.181 971.854 307.342C1002.52 308.884 1031.07 321.96 1056.74 338.634C1104.39 369.585 1129.1 431.479 1147.89 482.797C1151.81 493.491 1154.51 508.611 1156.81 519.877C1142.35 545.55 1116.24 576.621 1089.3 544.713C1099.79 527.741 1116.91 512.919 1121.66 492.052C1135.68 430.517 1066.1 361.042 1004.59 375.705C987.296 379.828 974.979 386.929 959.979 395.879C931.632 378.664 906.651 367.13 873.312 377.736C862.13 381.518 851.572 386.94 841.983 393.825C819.545 410.165 802.196 435.516 797.433 463.236C790.932 501.065 815.256 523.331 836.01 551.809C823.856 590.584 810.087 628.708 802.573 669.029C774.522 643.008 763.816 623.792 759.998 583.927C752.923 510.049 788.607 421.366 834.131 363.748C851.37 341.928 893.454 319.022 920.044 311.806C929.801 309.158 943.905 307.925 954.311 306.97Z" fill="#979696"/>
<path d="M1158.17 536.865C1160.91 540.652 1160.63 561.013 1160.72 566.641C1161.09 590.585 1155.32 622.069 1141.91 642.206C1136.31 650.601 1124.86 661.699 1117.48 669.1C1116.03 659.98 1111.67 644.858 1109.22 635.375C1102.86 606.926 1094.04 582.908 1085.09 555.36C1087.28 557.578 1089.63 559.633 1092.13 561.508C1117.87 580.987 1143.05 556.791 1158.17 536.865Z" fill="#979696"/>
<path d="M1175.68 517.167C1186.66 517.736 1221.76 526.8 1229.65 533.373C1236.52 545.815 1220.43 565.899 1211.82 574.537C1201.38 584.823 1192.27 589.95 1178.11 593.388C1180.9 566.122 1179.78 544.084 1175.68 517.167Z" fill="#979696"/>
<path d="M739.301 517.773C740.665 517.499 742.019 517.573 743.429 517.554C744.255 519.031 742.225 533.113 741.911 536.252C739.908 555.262 739.902 574.429 741.895 593.44C726.781 589.803 722.018 586.025 710.31 576.547C701.663 568.499 682.806 545.643 689.967 533.795C698.21 526.878 728.025 519.676 739.301 517.773Z" fill="#979696"/>
<path d="M1005.31 711.918C1014.79 711.671 1024.31 711.164 1033.76 711.835C1048.31 712.867 1053.91 729.972 1035.23 731.71C1024.95 730.947 1014.61 731.469 1004.26 730.501C995.546 729.686 986.2 723.792 993.307 714.478C996.527 712.486 1001.42 712.341 1005.31 711.918Z" fill="#FEB800"/>
<path d="M888.167 711.844C894.348 711.027 918.54 710.882 924.649 713.922C926.384 714.856 928.86 716.731 929.053 718.947C929.881 728.445 923.548 729.108 917.057 730.198C909.276 730.671 875.879 736.008 873.486 724.872C871.154 714.018 879.896 713.017 888.167 711.844Z" fill="#FEB800"/>
</svg>
