<?xml version="1.0" encoding="utf-8" ?><svg xmlns="http://www.w3.org/2000/svg" xmlns:xlink="http://www.w3.org/1999/xlink" width="400" height="400" viewBox="0 0 400 400"><path fill="white" d="M0 0L400 0L400 400L0 400L0 0Z"/><path d="M54.5034 86.2488C56.7903 81.9702 60.5782 77.0146 63.4957 73.2124C74.6989 58.612 89.2485 50.2985 107.257 46.7989C110.478 46.2583 113.834 45.2184 117.092 44.9592C137.463 43.3381 159.512 48.4977 175.783 61.1924C178.524 63.3303 179.928 65.6662 177.433 68.591L183.398 75.4113C187.765 69.8963 194.418 83.2824 196.16 86.4812C198.41 80.0889 207.684 63.5558 213.292 59.1448C216.722 56.4179 221.108 55.0442 225.508 55.7573C242.399 58.4945 239.885 78.5511 238.167 90.8309C235.641 108.881 230.844 125.092 217.271 137.83C214.367 140.555 211.726 143.369 208.495 145.798C208.462 158.687 208.221 173.323 203.259 185.414C196.698 201.402 182.505 207.466 167.581 213.534C166.937 227.656 138.455 230.429 130.697 221.608C127.073 217.487 127.877 218.41 122.187 218.429C116.757 230.035 93.35 228.314 85.7481 219.998C83.8123 217.88 83.3785 216.098 82.8082 213.382C44.9055 199.614 43.1066 182.13 42.0223 145.686C19.5818 127.431 13.6298 109.018 11.4341 80.617C10.7806 72.1647 11.7873 61.183 20.4858 57.1351C38.1424 48.9186 48.6647 73.9044 54.5034 86.2488Z"/><path fill="white" d="M80.2238 91.2434C90.1246 84.0271 102.281 83.0413 113.444 87.7662C117.195 89.3537 120.946 92.3355 125.171 92.4148C130.393 92.3245 134.967 88.2911 140.177 86.6134C154.333 82.0546 168.663 86.6659 177.862 98.18C182.401 103.861 182.381 111.137 181.309 117.922C180.566 122.624 178.476 129.514 176.106 133.671C173.015 139.091 167.429 143.926 166.605 150.59C165.387 160.425 173.006 170.497 176.296 179.606C178.741 186.371 180.537 191.907 180.735 199.153C175.219 202.351 170.044 204.807 163.981 206.862C155.112 201.355 142.711 202.181 133.796 207.167C132.792 206.106 130.923 204.917 129.678 204.017C107.193 187.76 90.1322 162.888 83.7077 135.851C82.6943 131.586 81.976 127.19 81.3487 122.831L81.2361 122.655C81.2831 120.411 80.5978 114.75 80.4358 111.978L80.4868 111.806C79.8948 110.101 79.9906 98.3097 80.1037 96.0605C80.1699 94.745 80.4894 92.5206 80.2238 91.2434Z"/><path fill="#F37280" d="M80.4868 111.806C83.0721 110.528 86.1608 109.602 88.9489 110.764C91.8647 111.978 96.8096 113.764 98.3948 116.627C100.199 119.885 97.6517 123.03 94.6746 124.202C90.6278 125.841 85.1438 124.648 81.3487 122.831L81.2361 122.655C81.2831 120.411 80.5978 114.75 80.4358 111.978L80.4868 111.806Z"/><path d="M123.813 109.073C126.211 108.63 128.772 109.402 131.079 109.974C139.221 111.992 141.461 120.622 139.21 127.892C137.012 134.993 133.823 139.225 127.345 142.854C124.553 143.525 123.408 143.137 121.002 141.529C112.912 136.119 107.223 123.109 113.144 114.294C115.574 110.675 119.826 109.764 123.813 109.073Z"/><path fill="#F3C651" d="M120.157 117.712C123.201 116.207 126.02 116.27 129.314 117.097C137.214 119.081 129.375 136.661 124.306 134.597C118.994 130.671 117.948 125.541 118.315 119.331C118.911 118.716 119.499 118.254 120.157 117.712Z"/><path fill="#C39E40" d="M120.157 117.712C120.857 118.909 120.827 123.522 121.156 125.525C121.609 128.284 124.276 132.627 124.306 134.597C118.994 130.671 117.948 125.541 118.315 119.331C118.911 118.716 119.499 118.254 120.157 117.712Z"/><path fill="#F37280" d="M163.693 110.325C169.241 109.551 175.854 114.478 171.918 120.332C169.736 123.578 165.069 124.416 161.429 124.997C156.471 125.129 148.825 122.715 152.912 115.728C154.131 113.645 161.228 110.68 163.693 110.325Z"/><path d="M96.538 97.5278C106.223 96.7409 106.978 109.294 98.3607 111.434C90.2125 112.219 87.2659 101.387 96.538 97.5278Z"/><path d="M151.302 97.5209C156.457 97.1141 158.948 100.054 160.18 104.619C159.28 107.896 158.625 109.685 155.311 111.206C146.693 113.111 142.43 101.112 151.302 97.5209Z"/><path fill="#414752" d="M91.9778 59.5456C100.523 54.7977 114.235 52.5211 123.985 52.2465C132.169 52.3977 140.997 53.4303 148.882 55.6235C155.531 57.4726 162.013 60.6956 167.719 64.5071C171.421 66.9803 172.982 70.6388 177.433 68.591L183.398 75.4113C181.314 80.4365 190.125 89.4436 192.11 95.1127C198.075 112.156 201.23 127.318 200.86 145.43C200.494 163.339 202.133 180.922 187.846 194.457C186.745 188.165 185.593 183.483 183.398 177.375C180.734 169.958 174.861 161.382 173.899 153.663C173.182 147.913 180.303 141.872 182.676 137.103C187.416 127.746 190.305 116.263 189.005 105.745C187.64 97.1101 181.379 89.6195 174.285 84.8214C164.333 78.0897 154.853 76.2255 143.043 78.2055C135.588 79.4556 131.936 82.7257 125.417 85.2515L125.055 85.1123C121.448 83.7077 118.096 81.6302 114.487 80.2182C103.748 76.0175 93.1294 76.6884 82.6946 81.1784C80.7125 78.4193 91.8828 61.5464 91.9778 59.5456Z"/><path fill="#CCC" d="M80.2238 91.2434C80.4894 92.5206 80.1699 94.745 80.1037 96.0605C79.9906 98.3097 79.8948 110.101 80.4868 111.806L80.4358 111.978C80.5978 114.75 81.2831 120.411 81.2361 122.655L81.3487 122.831C81.976 127.19 82.6943 131.586 83.7077 135.851C90.1322 162.888 107.193 187.76 129.678 204.017C130.923 204.917 132.792 206.106 133.796 207.167C131.866 208.601 131.245 208.922 129.684 210.794C126.817 210.619 123.741 210.672 120.872 210.755C117.691 207.133 114.233 205.362 109.599 204.186C101.202 202.055 94.2018 202.77 86.6077 206.862C80.2204 204.511 76.1757 202.658 70.2299 199.395C70.1054 193.38 71.6903 188.691 72.3028 182.859C72.4327 181.622 70.9809 180.527 70.1113 179.756C71.2532 177.652 72.9835 173.459 74.0279 171.163C75.0823 171.485 76.5824 171.8 77.5514 171.191C79.7088 169.835 82.8158 160.862 83.5164 158.528C87.0882 146.627 78.9919 141.649 74.3454 133.219C70.4335 124.875 67.0935 113.648 69.6256 104.554C70.8558 100.136 76.099 93.4075 80.2238 91.2434Z"/><path fill="#C15864" d="M80.4358 111.978C80.5978 114.75 81.2831 120.411 81.2361 122.655C77.0848 120.11 76.0556 114.918 80.4358 111.978Z"/><path fill="#414752" d="M62.5727 194.513C59.056 190.479 55.8662 187.343 53.9812 181.951C47.8729 164.479 49.1563 141.082 51.2297 122.856C52.0326 115.798 56.3898 100.466 59.3102 94.2953C65.683 80.83 77.6371 64.9239 91.9778 59.5456C91.8828 61.5464 80.7125 78.4193 82.6946 81.1784C73.5718 86.0963 65.6914 91.9671 62.4636 102.507C59.2785 112.908 63.3178 128.588 68.4903 137.953C72.3327 144.91 78.7265 147.903 76.2425 156.882C75.1624 160.785 71.2108 166.161 72.4198 169.443C72.6193 169.984 73.5452 170.751 74.0279 171.163C72.9835 173.459 71.2532 177.652 70.1113 179.756C67.9455 179.737 66.595 180.012 65.549 182.143C63.7535 185.801 63.5421 190.526 62.5727 194.513Z"/><path fill="#414752" d="M27.5167 63.1066C33.2021 63.4603 35.6355 67.5834 38.4748 72.0278C41.8117 77.3466 44.7747 82.8374 47.3328 88.569C48.4181 91.0007 49.0651 94.1031 50.2783 96.3157C46.5751 108.521 43.1236 120.826 42.7369 133.655C42.7084 134.6 42.7119 135.338 42.5519 136.272L42.1837 136.321C31.882 125.827 25.6678 118.166 22.4905 103.347C20.2167 93.4616 18.0523 82.6828 18.9229 72.5136C19.4047 66.8862 21.5092 63.4395 27.5167 63.1066Z"/><path fill="#414752" d="M220.788 63.2836C223.727 63.0687 226.618 62.8021 228.812 65.1412C231.962 68.499 231.967 73.7945 231.818 78.146C231.346 91.8965 228.573 106.627 222.563 119.073C220.065 124.065 213.885 130.844 210.042 134.602L208.348 136.39C207.481 125.518 206.212 115.857 203.087 105.359C202.289 102.676 201.487 99.276 200.342 96.7444L202.423 90.9727C204.746 84.6972 207.964 78.9971 211.429 73.2827C213.935 69.1505 216.255 65.3713 220.788 63.2836Z"/><path fill="#C39E40" d="M98.3764 210.567C108.344 209.178 124.465 217.392 107.057 219.093C101.861 220.851 79.2688 214.058 98.3764 210.567Z"/><path fill="#F3C651" d="M140.716 212.093C144.618 210.606 156.249 208.697 159.528 213.674C160.472 215.107 157.313 217.006 156.259 217.255C153.374 218.467 150.646 218.847 147.645 219.161C142.812 219.263 138.786 219.351 135.279 215.619C136.947 213.735 138.412 212.953 140.716 212.093Z"/><path fill="#C39E40" d="M140.716 212.093C141.664 215.086 144.248 218.88 147.645 219.161C142.812 219.263 138.786 219.351 135.279 215.619C136.947 213.735 138.412 212.953 140.716 212.093Z"/></svg>