<svg width="400" height="400" viewBox="0 0 400 400" fill="none" xmlns="http://www.w3.org/2000/svg">
<path d="M247.935 79.0072C237.193 75.3623 220.27 71.9786 208.765 72.1099C178.8 74.4435 152.201 81.5449 131.934 105.381C124.178 114.504 112.505 130.417 108.148 141.528C108.042 141.505 107.936 141.482 107.831 141.459C105.715 140.996 103.856 140.588 101.824 141.875C99.6911 143.226 98.2436 146.273 97.6632 148.672C84.9472 141.347 61.5349 133.344 49.375 148.612C44.9199 154.206 49.2161 170.001 51.1835 177.234C51.2939 177.64 51.3969 178.019 51.4907 178.368C57.6533 197.64 68.0299 213.132 86.1535 222.773C87.2478 223.359 88.3652 223.902 89.503 224.399L89.5412 224.766C89.9453 228.847 89.9574 234.024 89.9689 238.898C89.9744 241.265 89.9798 243.56 90.0298 245.624C90.5589 267.46 99.7726 284.415 116.721 297.844C124.041 303.644 141.988 315.198 151.518 313.401C150.244 326.488 155.255 330.564 168.054 331.574C172.572 331.93 177.05 331.817 181.565 331.442C190.161 330.764 196.617 329.715 198.514 320.1C202.221 319.909 205.928 319.748 209.637 319.619L220.21 320.075C221.515 325.498 223.68 329.204 229.633 330.395C239.322 332.335 247.921 332.135 257.366 330.6C267.627 328.934 267.543 318.384 267.514 314.705C267.508 313.982 267.505 313.524 267.582 313.452C280.113 314.07 296.124 302.756 305.16 295.075C321.662 281.046 328.791 263.382 328.921 241.993C328.962 240.673 328.967 238.504 328.974 236.112C328.985 231.731 328.999 226.59 329.232 224.488C343.449 217.2 351.551 210.082 359.499 196.075C362.467 190.903 364.904 185.444 366.773 179.781C368.887 173.227 373.718 154.889 369.688 149.202C359.32 134.572 334.046 139.785 321.376 148.562C319.015 142.48 317.144 140.54 310.582 141.293C297.776 114.598 276.707 88.7697 247.935 79.0072Z" fill="black"/>
<path d="M278.58 171.47C279.597 170.224 280.944 168.408 281.596 166.946C283.037 163.71 286.262 152.53 285.066 149.41C286.033 149.67 287.303 151.91 287.843 152.909C293.699 163.827 292.44 177.717 289.721 189.237C285.591 206.73 265.027 215.366 275.221 235.419C276.361 237.662 277.195 240.419 278.527 242.725C271.047 245.543 268.819 248.868 268.911 256.91C260.316 252.077 253.598 259.345 253.743 268.125C245.774 268.415 241.041 271.004 237.71 278.301C230.395 272.738 222.272 275.127 218.012 283.003C214.972 280.479 211.739 279.667 207.796 279.984C205.101 280.201 203.185 281.367 200.822 282.665C197.992 280.216 198.495 277.401 192.242 275.594C187.567 274.992 184.844 275.515 180.934 278.309C178.213 270.691 172.422 268.787 165.018 267.943C165.096 259.198 157.91 251.837 149.729 256.995C150.21 249.367 147.564 245.092 140.191 242.799C156.106 213.013 136.715 214.037 128.99 189.038C127.895 185.495 127.45 180.277 127.091 176.553C126.155 166.824 127.243 159.143 132.216 150.595C132.203 155.768 133.882 163.09 136.204 167.786C137.039 169.474 138.597 171.233 139.849 172.673C140.881 173.531 144.135 175.966 144.82 176.754C150.672 180.663 155.534 182.418 162.837 182.333C164.915 182.309 167.11 181.732 168.953 181.668C175.287 179.979 182.468 177.875 186.126 172.103C189.457 166.849 189.673 166.085 195.892 163.616C205.824 159.724 216.987 160.562 226.227 165.892C228.854 167.425 229.177 168.954 230.729 171.317C235.444 178.491 242.556 180.372 250.284 182.002C251.796 181.952 254.401 182.386 256.341 182.344C265.755 182.139 272.258 177.819 278.58 171.47Z" fill="#FEFEFE"/>
<path d="M132.216 150.595C132.203 155.768 133.882 163.09 136.204 167.786C137.039 169.474 138.597 171.233 139.849 172.673C140.881 173.531 144.135 175.966 144.82 176.754C143.491 177.93 144.709 180.479 144.893 182.252L145.543 182.786C145.584 184.739 152.507 203.857 153.706 206.031C162.612 222.18 170.314 240.302 179.681 256.073C182.284 260.36 184.993 264.583 187.805 268.736C188.8 270.188 192.045 274.244 192.242 275.594C187.567 274.992 184.844 275.515 180.934 278.309C178.213 270.691 172.422 268.787 165.018 267.943C165.096 259.198 157.91 251.837 149.729 256.995C150.21 249.367 147.564 245.092 140.191 242.799C156.106 213.013 136.715 214.037 128.99 189.038C127.895 185.495 127.45 180.277 127.091 176.553C126.155 166.824 127.243 159.143 132.216 150.595Z" fill="#D1D0D0"/>
<path d="M139.849 172.673C140.881 173.531 144.135 175.966 144.82 176.754C143.491 177.93 144.709 180.479 144.893 182.252C142.362 179.986 139.352 176.299 139.849 172.673Z" fill="#BD71A3"/>
<path d="M250.284 182.002C251.796 181.952 254.401 182.386 256.341 182.344C265.755 182.139 272.258 177.819 278.58 171.47C279.177 172.865 278.899 175.095 278.284 176.458C274.55 184.734 262.618 188.432 254.683 185.14C252.993 184.449 251.488 183.374 250.284 182.002Z" fill="#E892CB"/>
<path d="M144.82 176.754C150.672 180.663 155.534 182.418 162.837 182.333C164.915 182.309 167.11 181.732 168.953 181.668C162.809 188.614 152.799 186.848 145.543 182.786L144.893 182.252C144.709 180.479 143.491 177.93 144.82 176.754Z" fill="#E892CB"/>
<path d="M205.864 166.096C243.588 162.843 235.31 203.964 213.083 209.921C206.909 210.514 203.053 210.116 197.893 206.045C188.139 198.349 182.532 183.515 190.682 172.679C194.108 168.123 200.337 166.666 205.864 166.096Z" fill="black"/>
<path d="M206.676 174.11C218.062 173.693 227.668 175.88 222.669 191.09C221.388 194.988 216.205 200.373 212.294 201.944C208.125 202.361 206.187 202.511 202.612 199.644C196.614 194.831 191.61 184.712 196.952 177.7C199.083 174.903 203.301 174.322 206.676 174.11Z" fill="#FEC043"/>
<path d="M142.954 105.393C175.632 71.9389 242.755 72.5793 275.592 105.067C285.665 115.033 299.034 133.858 304.424 147.037C303.146 151.172 303.772 153.71 306.36 157.145C301.302 159.723 300.006 164.772 302.738 169.441C304.9 173.134 301.408 172.969 299.585 176.959C300.394 164.414 299.472 153.431 290.651 143.243C280.831 131.901 263.51 122.162 248.444 120.907C237.337 119.981 228.443 124.927 219.085 129.591C215.877 131.161 212.62 132.629 209.32 133.995C188.242 124.814 179.129 115.279 154.792 124.811C149.684 126.788 144.825 129.356 140.313 132.463C137.938 130.007 143.283 108.502 142.954 105.393Z" fill="#5C5B5C"/>
<path d="M346.147 148.593C351.937 147.403 358.411 149.788 362.747 153.595C363.279 170.555 354.471 192.488 342.801 204.749C340.189 207.494 336.45 210.303 333.346 212.475C332.104 213.374 330.041 214.509 328.67 215.317C328.203 209.675 328.08 204.844 326.991 199.246C325.241 190.244 323.84 181.393 321.521 172.487C320.373 168.075 320.943 165.507 318.687 161.018C328.587 153.856 333.462 150.25 346.147 148.593Z" fill="#5C5B5C"/>
<path d="M66.7845 148.587C73.4123 147.689 84.1177 150.62 89.8527 153.991C93.1794 155.946 96.867 158.697 100.037 160.997C97.9481 164.856 98.1305 168.885 97.112 172.98C95.3118 180.219 93.8455 187.398 92.6314 194.755C92.1334 197.773 91.3148 200.897 90.8339 203.932C90.4841 206.139 90.8231 213.638 89.6549 215.082C84.3659 211.985 79.4829 208.465 75.2152 204.011C64.3489 192.671 55.3269 169.352 55.988 153.661C59.1998 150.699 62.4867 149.166 66.7845 148.587Z" fill="#5C5B5C"/>
<path d="M120.691 291.05C115.719 285.946 110.372 281.171 106.382 275.133C99.154 264.195 98.3463 252.506 97.7457 239.84C96.8792 221.565 98.5959 204.412 102.125 186.533C103.423 187.862 104.2 188.374 105.761 189.337C101.882 194.443 104.1 200.873 109.238 204.124C109.119 204.342 109.008 204.564 108.905 204.789C105.469 212.307 108.515 215.512 112.808 218.797C113.259 219.142 111.867 225.149 113.125 227.407C114.91 230.611 115.325 231.274 118.612 232.809C115.475 238.656 117.504 248.229 124.353 250.399C125.53 250.773 126.527 250.757 127.729 250.902C128.448 252.671 125.263 254.107 129.799 257.651C130.191 258.674 130.327 258.965 130.437 260.044C129.208 260.81 129.027 263.734 127.913 265.455C125.243 265.871 124.197 267.776 123.614 270.261C122.038 276.988 121.267 284.158 120.691 291.05Z" fill="#5C5B5C"/>
<path d="M316.532 186.543C317.194 187.766 317.745 192.713 318.063 194.403C321.322 211.732 321.445 228.099 320.728 245.622C319.894 265.991 313.1 277.332 298.175 290.839C297.735 288.009 297.375 286.655 297.145 283.716C296.856 279.597 295.72 273.767 294.945 269.587C293.819 263.525 292.862 256.247 290.589 250.602C298.805 252.748 304.036 239.929 300.653 233.843C299.966 232.606 302.453 231.431 303.534 230.411C305.461 228.594 306.057 227.065 306.187 224.401C306.242 223.645 305.814 218.816 305.913 218.748C312.008 214.566 312.419 210.882 309.554 204.162C314.807 200.694 316.63 194.796 313.013 189.387C314.455 188.392 315.332 187.814 316.532 186.543Z" fill="#5C5B5C"/>
<path d="M171.632 128.857C187.418 128.11 196.243 140.066 209.944 141.453C213.666 141.83 226.874 134.262 231.324 132.278C234.559 130.802 237.981 129.78 241.495 129.24C254.743 127.26 267.64 134.395 277.919 141.961C274.931 141.568 267.24 141.745 263.919 141.745L237.232 141.752C235.012 141.747 232.84 141.771 230.62 141.839C221.618 142.116 224.94 151.528 226.271 157.276C222.78 156.584 219.477 155.268 216.028 154.371C206.457 151.88 200.015 154.802 191.089 157.379C191.652 153.16 196.011 142.317 187.922 141.971C175.698 141.448 163.339 141.889 151.095 141.75C147.874 141.713 144.051 141.627 140.882 141.976C149.787 135.162 160.23 129.574 171.632 128.857Z" fill="#FEFEFE"/>
<path d="M127.913 265.455C129.027 263.734 129.208 260.81 130.437 260.044C132.495 265.851 137.085 267.423 142.747 266.211C142.018 274.962 147.642 279.386 156.01 279.004C154.223 290.416 167.54 297.12 176.207 290.602C176.534 290.356 176.852 290.098 177.159 289.829C177.958 293.357 179.508 296.059 182.646 298.043C185.415 299.781 188.761 300.346 191.946 299.614C194.663 298.986 196.379 297.791 198.42 295.989C203.054 302.981 208.418 301.116 215.247 300.458C216.181 302.503 219.875 305.263 221.783 306.516C220.722 308.451 220.427 309.849 219.914 311.988C215.301 311.541 203.44 311.639 198.822 311.983C198.741 311.586 198.657 311.19 198.569 310.795C197.319 305.182 193.458 301.42 187.584 300.848C179.154 300.027 169.976 300.304 161.644 301.792C157.724 302.492 155.306 304.584 153.263 307.882C150.414 305.362 143.51 304.584 139.252 302.534C134.943 300.459 132.684 299.236 128.5 296.672C128.298 288.91 129.839 281.548 131.123 273.953C131.406 272.281 131.261 270.185 130.879 268.538C130.481 266.82 129.303 266.274 127.913 265.455Z" fill="#D1D0D0"/>
<path d="M285.875 264.224C287.843 274.317 290.333 286.594 290.302 296.67C282.835 301.231 276.348 304.379 267.811 306.263C267.004 306.441 266.704 307.554 265.468 307.87C263.865 305.651 261.992 303.083 259.111 302.381C250.994 300.402 231.504 298.513 224.673 303.381C223.509 304.222 222.526 305.288 221.783 306.516C219.875 305.263 216.181 302.503 215.247 300.458C217.736 299.259 218.818 298.231 220.486 295.968C222.784 298.422 225.958 299.869 229.317 299.994C235.755 300.189 239.642 295.735 241.714 290.138C242.439 290.419 242.113 290.346 242.542 290.661C245.016 292.483 248.753 293.311 251.714 293.042C254.988 292.774 258.015 291.195 260.108 288.663C262.162 286.142 263.15 282.918 262.862 279.68C262.843 279.484 262.82 279.288 262.793 279.093C263.814 279.087 265.043 279.114 266.053 278.997C272.548 278.244 276.914 272.777 276.09 266.265C280.321 267.01 282.324 266.855 285.875 264.224Z" fill="#FEFEFE"/>
<path d="M114.303 146.779C120.359 134.057 132.527 114.926 142.954 105.393C143.283 108.502 137.938 130.007 140.313 132.463C128.986 140.94 121.859 148.004 119.255 162.807C118.722 165.838 118.574 172.949 119.091 175.98L118.645 176.332C117.726 173.793 116.644 173.817 115.131 171.843C115.176 170.958 115.726 169.889 116.156 169.09C118.659 164.441 117.303 159.487 112.429 157.196C115.13 153.422 115.443 151.244 114.303 146.779Z" fill="#5C5B5C"/>
<path d="M138.974 145.068C144.493 145.272 150.546 145.225 156.098 145.296C161.643 151.446 167.073 159.417 172.446 165.836C174.523 168.317 176.416 171.067 178.655 173.441L175.892 174.363C172.041 175.521 167.952 176.424 164.01 177.212C162.83 175.966 160.659 173.047 159.524 171.591L151.578 161.374L143.379 150.829C142.145 149.246 140.028 146.688 138.974 145.068Z" fill="#D1D0D0"/>
<path d="M227.879 312.805C229.324 307.219 234.999 308.616 239.823 308.38C244.981 308.127 250.708 308.78 255.754 309.786C260.71 310.768 260.66 321.316 257.198 322.364C251.487 324.092 243.476 323.928 237.5 323.414C229.49 322.767 226.718 322.065 227.879 312.805Z" fill="#FEC043"/>
<path d="M237.5 323.414C229.49 322.767 226.718 322.065 227.879 312.805C228.122 315.648 227.869 314.555 230.005 316.594C231.833 318.339 235.91 320.739 237.242 322.76C237.385 322.976 237.29 323.137 237.5 323.414Z" fill="#CD9A36"/>
<path d="M171.437 308.605C171.511 308.593 171.585 308.58 171.658 308.567C176.916 308.712 184.967 307.233 189.589 310.021C191.671 311.277 191.204 320.3 189.493 321.635C187.323 323.329 181.883 323.393 179.065 323.538C174.437 323.98 164.877 324.13 160.743 321.816C158.449 320.532 158.906 313.19 160.627 311.291C162.788 308.906 168.401 308.916 171.437 308.605Z" fill="#CD9A36"/>
<path d="M233.679 146.737C238.809 146.85 243.94 146.844 249.069 146.721C249.879 147.98 254.973 154.382 256.005 155.592C259.304 159.464 266.293 169.682 269.831 172.528L266.381 174.428C263.977 175.893 262.573 176.538 260.01 177.497C256.426 173.244 252.412 169.171 248.861 164.935C243.861 158.97 238.908 152.502 233.679 146.737Z" fill="#D1D0D0"/>
<path d="M253.526 274.58L254.012 274.711C255.66 278.031 258.162 282.532 253.896 285.599C252.112 286.882 249.718 286.59 247.676 286.097C241.041 282.564 244.242 276.954 249.855 275.171C251.09 274.778 252.244 274.697 253.526 274.58Z" fill="#FEDFA4"/>
<path d="M252.038 275.966C252.85 275.759 253.711 276.006 254.289 276.613C254.868 277.219 255.075 278.09 254.831 278.892C254.586 279.694 253.929 280.301 253.11 280.481C251.873 280.754 250.646 279.984 250.353 278.751C250.06 277.519 250.81 276.279 252.038 275.966Z" fill="#FEFEFE"/>
<path d="M164.684 274.536C168.06 274.943 169.783 274.953 172.516 277.047L172.994 277.477C175.503 279.953 175.443 283.224 172.443 285.25C170.808 286.341 168.807 286.74 166.879 286.36C165.365 286.059 163.966 285.318 163.158 283.919C160.944 280.084 163.969 277.912 164.684 274.536Z" fill="#FEDFA4"/>
<path d="M172.516 277.047L172.994 277.477C174.499 287.07 162.479 277.619 172.516 277.047Z" fill="#FEFEFE"/>
<path d="M187.567 282.139C190.621 281.203 193.854 282.932 194.771 285.992C195.689 289.052 193.941 292.275 190.875 293.174C187.836 294.065 184.647 292.335 183.737 289.301C182.827 286.267 184.538 283.067 187.567 282.139Z" fill="#FEDFA4"/>
<path d="M189.778 284C190.865 283.446 192.196 283.878 192.751 284.965C193.305 286.052 192.874 287.383 191.787 287.939C190.699 288.495 189.367 288.063 188.812 286.975C188.256 285.886 188.689 284.554 189.778 284Z" fill="#FEFEFE"/>
<path d="M227.859 282.132C230.908 281.227 234.114 282.967 235.016 286.017C235.918 289.067 234.175 292.27 231.124 293.169C228.078 294.066 224.88 292.327 223.979 289.281C223.079 286.236 224.815 283.037 227.859 282.132Z" fill="#FEDFA4"/>
<path d="M230.668 284.213C231.627 283.642 232.868 283.941 233.462 284.887C234.056 285.833 233.786 287.08 232.855 287.696C232.233 288.109 231.435 288.151 230.772 287.807C230.11 287.464 229.685 286.788 229.663 286.041C229.641 285.295 230.026 284.595 230.668 284.213Z" fill="#FEFEFE"/>
<path d="M290.662 205.695C291.089 206.199 290.916 207.984 291.586 209.584C283.108 213.253 282.586 221.312 287.583 228.339C285.457 229.828 284.927 230.427 283.456 232.583C283.346 232.96 283.411 232.784 283.034 233.102C282.047 232.246 281.181 228.29 280.797 226.995C278.527 219.347 286.512 212.634 290.464 206.03L290.662 205.695Z" fill="#5C5B5C"/>
<path d="M127.743 205.373C128.418 206.146 129.342 207.63 129.985 208.533C136.953 218.313 141.174 221.442 135.79 233.347L135.523 233.237C134.546 230.968 133.193 229.665 131.105 228.465C136.483 221.984 135.371 213.199 127.255 209.592C127.731 208.066 127.783 206.939 127.743 205.373Z" fill="#5C5B5C"/>
<path d="M208.372 286.303C211.142 286.11 214.325 287.282 214.89 290.315C215.079 291.274 214.861 292.27 214.288 293.063C213.329 294.404 211.963 294.483 210.442 294.717C207.241 294.791 202.538 294.237 204.192 289.222C204.734 287.578 206.809 286.829 208.372 286.303Z" fill="#FEDFA4"/>
<path d="M209.847 288.392C210.677 288.093 211.595 288.512 211.914 289.335C212.232 290.159 211.835 291.086 211.02 291.424C210.475 291.65 209.85 291.563 209.387 291.196C208.925 290.83 208.697 290.242 208.793 289.659C208.888 289.077 209.291 288.592 209.847 288.392Z" fill="#FEFEFE"/>
<path d="M137.784 153.213C138.278 153.641 139.233 155.247 139.697 155.868C144.559 162.37 149.164 169.256 154.23 175.591C152.675 175.356 149.843 173.734 148.593 172.73C142.526 167.93 138.633 160.902 137.784 153.213Z" fill="#D1D0D0"/>
<path d="M153.92 262.006C160.406 262.068 159.844 270.738 153.903 272.634C153.671 272.595 153.439 272.552 153.207 272.506C146.699 271.193 150.525 263.904 153.92 262.006Z" fill="#FEDFA4"/>
<path d="M154.252 262.985C157.065 262.987 158.087 266.238 155.59 268.104C151.591 268.063 151.715 265.234 154.252 262.985Z" fill="#FEFEFE"/>
<path d="M269.648 269.094C264.239 279.382 254.987 264.037 264.041 261.913C265.012 261.685 266.63 263.505 267.192 264.274L268.45 267.004L269.648 269.094Z" fill="#FEDFA4"/>
<path d="M267.192 264.274L268.45 267.004C266.545 272.438 259.925 265.277 267.192 264.274Z" fill="#FEFEFE"/>
<path d="M293.015 215.977C298.281 216.2 302.491 223.39 297.871 226.769C292.469 226.921 288.323 219.649 293.015 215.977Z" fill="#FEDFA4"/>
<path d="M295.56 219.426C296.293 219.089 297.161 219.369 297.56 220.071C297.958 220.772 297.752 221.662 297.087 222.118C296.603 222.45 295.974 222.481 295.46 222.199C294.946 221.916 294.635 221.368 294.656 220.781C294.677 220.195 295.027 219.671 295.56 219.426Z" fill="#FEFEFE"/>
<path d="M124.619 216.068C126.274 216.269 126.436 216.38 127.483 217.688C127.998 219.554 127.808 221.509 126.913 223.254C125.826 225.375 122.613 227.509 120.272 226.036C117.751 224.449 119.002 221.261 120.251 219.257C121.47 217.302 122.38 216.626 124.619 216.068Z" fill="#FEDFA4"/>
<path d="M124.619 216.068C126.274 216.269 126.436 216.38 127.483 217.688C126.267 223.028 120.496 219.827 124.619 216.068Z" fill="#FEFEFE"/>
<path d="M282.178 254.532C283.515 259.883 278.222 262.751 275.819 256.981C275.236 255.573 275.247 253.989 275.85 252.59C276.649 250.759 279.406 248.344 281.495 249.336C282.105 250.244 281.831 251.628 281.834 252.973L282.178 254.532Z" fill="#FEDFA4"/>
<path d="M282.178 254.532C280.984 255.798 280.116 256.957 278.257 256.12C276.351 254.243 277.63 249.753 281.834 252.973L282.178 254.532Z" fill="#FEFEFE"/>
<path d="M137.299 249.311C143.543 249.016 144.873 254.945 141.294 259.392C138.604 260.922 137.54 259.836 136.342 257.458C136.39 255.054 136.967 252.649 136.879 250.232C136.859 249.669 136.859 249.916 137.299 249.311Z" fill="#FEDFA4"/>
<path d="M138.15 250.748C139.741 250.76 141.225 250.544 142.012 252.067C142.029 253.105 141.923 253.244 141.545 254.245C140.385 254.821 139.647 255.099 138.543 254.337C137.679 253.028 137.906 252.254 138.15 250.748Z" fill="#FEFEFE"/>
<path d="M123.935 237.592C124.959 233.691 128.037 232.418 130.006 236.607C130.381 238.341 130.684 240.987 129.563 242.429C126.285 246.644 122.224 240.98 123.935 237.592Z" fill="#FEDFA4"/>
<path d="M126.515 235.686C127.261 235.773 128.046 235.843 128.78 235.983C129.079 237.397 130.25 238.488 128.047 239.997C125.301 240.389 125.694 237.404 126.515 235.686Z" fill="#FEFEFE"/>
<path d="M123.935 237.592C124.959 233.691 128.037 232.418 130.006 236.607C129.509 236.163 129.407 236.182 128.78 235.983C128.046 235.843 127.261 235.773 126.515 235.686L126.256 235.388C124.821 235.672 125.072 236.855 123.935 237.592Z" fill="#FEDFA4"/>
<path d="M295.04 239.579C294.964 240.76 294.464 242.762 293.511 243.431C287.528 247.628 286.779 233.597 291.87 233.912C292.946 233.978 293.906 235.487 294.419 236.366C294.934 237.797 294.949 238.063 295.04 239.579Z" fill="#FEDFA4"/>
<path d="M295.04 239.579C293.761 240.789 291.953 241.891 290.699 239.974C290.317 239.385 290.192 238.666 290.35 237.982C290.852 235.72 292.753 236.04 294.419 236.366C294.934 237.797 294.949 238.063 295.04 239.579Z" fill="#FEFEFE"/>
<path d="M258.356 145.943C260.728 146.225 266.514 154.974 268.273 157.158C269.806 159.06 275.39 165.557 275.255 167.426L274.529 167.415C271.855 164.478 258.868 148.792 258.356 145.943Z" fill="#FEFEFE"/>
<path d="M112.811 191.646C114.428 191.086 116.216 191.736 117.097 193.203C117.884 194.516 117.76 196.183 116.785 197.365C115.811 198.546 114.199 198.986 112.76 198.463C111.321 197.94 110.367 196.568 110.378 195.037C110.39 193.506 111.364 192.148 112.811 191.646Z" fill="#FEDFA4"/>
<path d="M112.811 191.646C114.428 191.086 116.216 191.736 117.097 193.203L117.077 193.321C116.357 194.241 115.797 194.805 114.641 194.988C112.714 194.656 112.798 193.183 112.811 191.646Z" fill="#FEFEFE"/>
<path d="M304.033 191.537C305.398 191.262 306.8 191.797 307.635 192.913C308.597 194.198 308.593 195.965 307.625 197.247C306.658 198.528 304.959 199.016 303.459 198.443C301.959 197.87 301.018 196.375 301.151 194.775C301.284 193.174 302.459 191.855 304.033 191.537Z" fill="#FEDFA4"/>
<path d="M304.033 191.537C305.398 191.262 306.8 191.797 307.635 192.913C307.329 194.453 306.573 195.548 304.942 195.55C303.025 194.642 303.57 193.163 304.033 191.537Z" fill="#FEFEFE"/>
<path d="M304.232 208.285C304.749 209.441 305.279 211.685 303.625 212.2C299.947 213.343 294.296 205.984 299.246 204.335C300.295 204.44 300.999 204.929 301.938 205.434C303.145 206.457 303.53 206.787 304.232 208.285Z" fill="#FEDFA4"/>
<path d="M301.938 205.434C303.145 206.457 303.53 206.787 304.232 208.285C303.887 208.795 302.611 210.238 302.156 210.777C299.131 208.784 298.357 207.187 301.938 205.434Z" fill="#FEFEFE"/>
<path d="M115.938 206.057C117.375 204.992 118.53 204.463 120.336 204.314C123.252 208.894 117.158 214.533 114.296 211.137C113.437 210.119 115.029 207.138 115.938 206.057Z" fill="#FEDFA4"/>
<path d="M115.938 206.057C117.375 204.992 118.53 204.463 120.336 204.314C120.133 205.884 120.071 207.892 118.167 208.249C116.707 207.927 116.57 207.346 115.938 206.057Z" fill="#FEFEFE"/>
<path d="M112.818 182.016C112.127 183.309 110.654 183.978 109.225 183.645C107.797 183.313 106.769 182.063 106.721 180.597C106.672 179.131 107.613 177.815 109.016 177.388C110.419 176.961 111.934 177.53 112.71 178.775C113.323 179.758 113.364 180.994 112.818 182.016Z" fill="#FEDFA4"/>
<path d="M112.71 178.775C113.323 179.758 113.364 180.994 112.818 182.016C111.831 181.746 111.608 181.741 110.8 181.161C110.4 180.409 110.444 180.786 110.593 180.001C111.199 179.229 111.778 179.125 112.71 178.775Z" fill="#FEFEFE"/>
<path d="M311.213 182.812C309.465 183.885 307.181 184.216 306.03 182.129C305.58 181.294 305.493 180.31 305.789 179.409C306.512 177.177 308.482 176.948 310.433 177.666C312.222 179.253 312.583 180.758 311.213 182.812Z" fill="#FEDFA4"/>
<path d="M310.433 177.666C312.222 179.253 312.583 180.758 311.213 182.812C308.886 181.652 308.915 179.514 310.433 177.666Z" fill="#FEFEFE"/>
<path d="M107.992 163.167C109.046 163.086 109.281 162.98 110.156 163.463C111.269 164.747 110.76 165.875 109.975 167.239C105.582 172.006 101.778 166.546 107.992 163.167Z" fill="#FEDFA4"/>
<path d="M107.992 163.167C109.046 163.086 109.281 162.98 110.156 163.463C111.269 164.747 110.76 165.875 109.975 167.239C107.918 165.695 107.954 165.694 107.992 163.167Z" fill="#FEFEFE"/>
<path d="M311.898 169.281C309.464 168.433 306.386 165.311 309.075 163.243C310.613 162.908 311.301 163.467 312.587 164.27C314.15 165.939 315.177 169.123 311.898 169.281Z" fill="#FEDFA4"/>
<path d="M311.898 169.281C311.427 167.593 310.999 165.497 312.587 164.27C314.15 165.939 315.177 169.123 311.898 169.281Z" fill="#FEFEFE"/>
<path d="M313.74 153.305C308.356 155.137 310.651 144.282 314.352 148.779C315.187 150.531 315.342 151.952 313.74 153.305Z" fill="#FEDFA4"/>
<path d="M314.352 148.779C315.187 150.531 315.342 151.952 313.74 153.305C313.031 152.289 312.464 151.716 312.611 150.535C313.014 149.664 313.576 149.365 314.352 148.779Z" fill="#FEFEFE"/>
<path d="M105.324 147.633C108.839 148.321 109.372 151.09 106.725 153.396C102.704 153.932 103.583 149.884 105.324 147.633Z" fill="#FEDFA4"/>
<path d="M119.091 175.98C119.65 179.845 119.429 184.74 120.909 187.838C120.243 187.335 118.688 186.306 118.437 185.64C119.694 181.672 119.69 180.609 118.645 176.332L119.091 175.98Z" fill="#1A1B1C"/>
<path d="M299.144 182.216C299.471 182.6 300.213 185.155 300.083 185.745C299.992 186.157 299.431 186.458 299.016 186.789C298.881 186.94 298.77 186.952 298.559 187.048C298.34 186.387 298.994 183.125 299.144 182.216Z" fill="#5C5B5C"/>
</svg>
