<svg width="400" height="400" viewBox="0 0 400 400" fill="none" xmlns="http://www.w3.org/2000/svg">
<path d="M114.279 149.405C114.619 144.223 114.172 138.846 113.994 133.655C113.291 113.117 112.492 98.4213 120.386 78.953C123.466 71.3551 126.88 64.6973 132.506 58.6195C148.096 41.7761 176.044 28.7954 199.043 28.0241C219.043 27.3535 248.887 40.7866 263.428 54.269C266.879 57.4691 270.157 60.9551 272.789 64.8657C281.358 77.6011 287.021 96.7805 287.501 112.089C287.586 114.782 287.189 117.974 285.19 119.962C284.004 121.142 283.109 121.335 281.456 121.276C281.319 121.271 281.183 121.262 281.045 121.255C281.357 124.924 281.697 132.248 281.697 132.248C281.697 132.248 285.46 133.436 285.805 136.202C286.47 141.55 285.073 145.754 285.933 150C286.355 152.086 288.182 153.768 288.615 155.936C289.232 159.017 288.84 162.411 290.142 165.332C292.134 169.798 297.016 174.082 300.226 177.777C316.73 196.765 331.634 209.934 339.335 234.9C341.812 242.927 344.286 253.092 340.058 260.907C338.513 263.762 336.213 265.999 333.016 266.88C324.671 269.181 311.29 263.915 303.952 259.744C304.258 262.388 304.524 265.037 304.751 267.688C305.396 275.412 306.004 283.631 304.376 291.275C303.761 294.159 301.747 296.486 300.594 299.146C299.111 302.563 298.155 306.233 296.709 309.685C292.475 319.801 284.913 332.982 277.823 341.4C280.159 342.901 282.205 344.748 284.057 346.813C287.495 350.643 290.86 356.01 290.523 361.374C290.329 364.457 288.54 368.484 286.143 370.458C285.06 371.35 283.788 371.5 282.434 371.637C275.609 372.335 268.364 371.659 261.504 371.55C254.265 371.434 246.894 371.768 239.68 371.189C235.809 370.877 233.945 370.058 231.426 367.069C209.779 371.859 190.787 372.494 169.182 367.049C168.173 367.991 167.166 369.055 166.014 369.82C164.756 370.655 163.381 370.908 161.914 371.068C155.315 371.79 148.326 371.423 141.668 371.526C134.595 371.634 122.894 372.621 116.321 371.379C114.265 370.99 113.371 369.927 112.267 368.247C110.176 365.063 109.147 362.078 110 358.245C111.497 351.518 116.785 345.035 122.467 341.345C112.957 330.36 103.855 312.875 99.9104 298.917C98.8548 298.071 97.6371 297.193 96.8045 296.123C91.7119 289.584 94.189 268.6 95.0833 260.49C89.3274 263.268 82.7185 265.887 76.412 267.01C72.0862 267.781 67.4468 267.531 63.7895 264.839C60.6302 262.514 58.9021 259.082 58.2968 255.263C57.3588 249.344 58.8108 242.965 60.3265 237.238C66.9825 212.091 81.8786 198.724 98.1114 179.906C101.313 176.195 105.083 172.679 107.853 168.63C110.701 164.47 109.483 158.713 111.369 154.019C112.033 152.365 113.248 150.849 114.279 149.405Z" fill="black"/>
<path d="M180.377 42.4224C186.355 40.8097 192.986 38.8945 199.195 38.6748C212.221 38.214 231.173 45.8029 242.408 52.2518C259.014 61.7852 268.825 74.9561 273.777 93.5015C274.744 97.127 275.33 100.948 275.638 104.69C275.967 108.696 275.693 113.181 277.056 116.987C277.64 118.622 278.777 120.003 280.269 120.891C280.656 121.122 280.685 121.119 281.045 121.255C281.357 124.924 281.592 128.568 281.696 132.248C279.732 132.276 277.975 132.493 276.517 133.948C273.486 136.975 275.195 147.94 275.015 152.455C270.703 158.595 251.41 175.047 245.188 179.346C244.283 172.803 242.974 166.533 242.955 159.899C244.108 158.444 245.244 156.976 246.367 155.497C255.48 143.416 262.585 126.907 260.342 111.614C258.817 101.209 254.798 90.923 246.072 84.5598C236.018 77.2294 222.567 74.3962 210.581 78.0887C206.304 79.4055 202.099 81.772 197.675 82.4375L197.204 82.5042C183.549 77.1922 176.704 74.3437 161.844 78.6483C161.051 73.2825 168.901 59.0213 171.884 54.6118C173.977 51.5189 179.73 45.7539 180.377 42.4224Z" fill="#434954"/>
<path d="M125.4 154.123C124.962 147.872 125.264 141.541 124.982 135.269C124.157 116.859 122.744 102.575 129.601 84.9101C131.24 80.6881 133.032 76.4436 135.437 72.5941C142.747 60.8911 154.082 54.0294 166.125 48.1121C170.749 45.8408 175.335 43.6106 180.377 42.4224C179.73 45.7539 173.977 51.5189 171.884 54.6118C168.901 59.0213 161.051 73.2825 161.844 78.6483C151.86 82.5666 144.352 87.7653 139.995 97.8889C134.39 110.913 134.449 123.658 139.72 136.671C142.228 142.863 145.326 148.912 149.196 154.368C146.133 159.781 147.941 167.325 145.994 173.113C138.724 167.155 132.3 160.472 125.4 154.123Z" fill="#373A42"/>
<path d="M149.196 154.368C150.641 156.181 152.161 157.965 153.538 159.828C153.485 165.878 152.773 171.902 151.414 177.797L145.994 173.113C147.941 167.325 146.133 159.781 149.196 154.368Z" fill="#434954"/>
<path d="M155.457 94.2962C161.46 89.5591 169.495 86.3507 177.252 87.3055C184.429 88.1893 190.448 93.569 197.743 93.7416C200.838 93.8148 203.766 92.7953 206.58 91.6119C216.494 87.4426 222.108 85.1729 232.824 89.4254C237.001 91.0833 241.065 93.6487 243.829 97.2493C249.112 104.134 250.91 114.914 249.68 123.354C249.135 127.087 247.621 130.655 246.215 134.13C243.47 140.911 239.469 146.071 235.387 152.051C234.013 154.065 232.965 156.298 232.53 158.708C231.296 165.532 233.933 178.901 235.805 185.837C223.439 194.105 211.816 203.433 199.464 211.66C186.742 202.438 174.23 192.905 161.102 184.262C162.914 175.094 167.175 161.217 161.545 152.804C157.324 146.496 153.147 141.078 150.333 133.868C147.224 127.956 146.093 120.924 146.726 114.314C147.406 107.217 149.786 99.008 155.457 94.2962Z" fill="#FEFEFE"/>
<path d="M153.049 114.777C156.43 113.785 159.197 113.424 162.699 114.107C163.677 114.298 164.917 114.791 165.888 114.63C167.15 117.344 170.031 118.921 172.997 118.521C173.003 119.009 173.001 119.486 173.047 119.972C173.186 121.431 172.675 122.789 171.765 123.927C169.97 126.172 167.317 127.015 164.551 127.203C160.006 127.511 155.782 126.478 151.93 124.072L151.844 123.804C151.954 120.999 152.749 118.213 152.53 115.403L153.049 114.777Z" fill="#FEA3BA"/>
<path d="M155.457 94.2961C156.554 96.6551 153.083 110.612 153.05 114.776L152.53 115.403C152.75 118.213 151.954 120.999 151.844 123.804L151.93 124.072C151.312 127.221 151.8 130.984 150.333 133.868C147.224 127.956 146.093 120.924 146.726 114.314C147.406 107.216 149.786 99.0079 155.457 94.2961Z" fill="#CBCACA"/>
<path d="M152.53 115.403C152.749 118.213 151.954 120.999 151.844 123.804C151.037 122.758 150.738 121.757 150.664 120.435C150.55 118.411 151.185 116.875 152.53 115.403Z" fill="#C2707F"/>
<path d="M165.888 114.63C164.646 111.954 165.261 108.782 167.415 106.766C169.57 104.749 172.775 104.343 175.364 105.76C177.952 107.177 179.337 110.096 178.8 112.997C178.261 115.898 175.922 118.126 172.997 118.521C170.032 118.921 167.151 117.344 165.888 114.63Z" fill="black"/>
<path d="M197.926 112.465C201.528 112.69 205.387 114.429 208.471 116.219C214.834 119.913 220.333 126.149 222.18 133.384C222.804 135.827 223.116 138.928 221.707 141.141C218.096 146.816 205.275 154.112 198.789 155.673C194.516 155.677 189.71 152.61 186.15 150.424C182.29 148.052 174.974 143.814 174.025 139.143C173.125 134.719 175.215 129.766 177.581 126.127C182.232 118.97 189.602 114.183 197.926 112.465Z" fill="black"/>
<path d="M190.99 127.255C193.572 125.337 195.919 123.695 199.328 124.092C203.381 124.564 206.908 127.927 209.203 131.079C210.321 132.614 211.155 134.259 211.969 135.969C208.817 138.862 202.126 144.304 197.722 144.313L195.806 143.383C191.687 141.738 187.83 138.841 184.527 135.933C186.113 132.393 188.043 129.77 190.99 127.255Z" fill="#F3C650"/>
<path d="M190.99 127.255C191.016 127.36 191.043 127.464 191.068 127.569C191.709 130.349 191.231 133.126 192.171 135.893C193.066 138.532 195.378 140.614 195.806 143.383C191.687 141.738 187.83 138.841 184.527 135.933C186.113 132.393 188.043 129.77 190.99 127.255Z" fill="#C09D3F"/>
<path d="M224.329 117.695C221.988 117.19 219.213 116.489 217.773 114.424C217.137 113.511 216.918 112.482 217.128 111.389C217.591 108.973 219.895 107.145 221.806 105.805C224.355 104.019 228.047 101.508 231.295 102.085C232.435 102.878 233.439 103.778 233.708 105.212C234.055 107.067 233.044 108.445 232.102 109.92C234.874 110.895 236.673 111.789 238.716 113.951C240.836 114.088 242.833 114.74 244.332 116.323C245.327 117.372 245.862 118.891 245.726 120.333C245.563 122.074 244.443 123.504 243.092 124.532C239.467 127.291 233.981 127.735 229.626 126.993C227.727 126.669 225.667 125.886 224.485 124.282C223.558 123.024 223.287 121.62 223.544 120.095C223.687 119.246 223.984 118.478 224.329 117.695Z" fill="black"/>
<path d="M238.716 113.951C240.836 114.088 242.833 114.74 244.333 116.323C245.327 117.372 245.863 118.891 245.726 120.333C245.563 122.074 244.443 123.503 243.092 124.532C239.467 127.291 233.981 127.735 229.626 126.993C227.728 126.669 225.667 125.886 224.485 124.282C223.558 123.024 223.287 121.62 223.544 120.095C223.687 119.246 223.984 118.478 224.329 117.695C227.763 118.303 231.624 120.147 235.11 119.869C236.187 119.783 237.161 119.425 237.862 118.574C238.993 117.201 238.805 115.603 238.716 113.951Z" fill="#FEA3BA"/>
<path d="M199.504 292.125C203.849 297.186 208.112 299.939 214.836 300.441C223.926 301.119 234.882 299.665 244.028 298.791C249.804 298.239 255.665 297.922 261.417 297.238C261.236 301.125 260.999 304.977 260.108 308.781C258.415 316.015 251.23 334.769 245.555 339.483C244.131 340.666 242.201 341.313 240.684 342.407C236.609 345.346 234.903 349.616 232.123 353.547L230.644 356.715C226.031 356.916 221.461 358.238 216.907 358.978C211.005 359.938 205.076 360.147 199.103 360.098C194.011 360.057 188.881 359.858 183.849 359.03C179.334 358.287 174.595 356.896 170.032 356.786L169.579 356.78C166.092 348.737 162.356 343.816 154.868 339.179C153.65 333.75 148.788 330.453 145.832 325.944C140.402 317.661 136.314 306.995 134.688 297.255C139.172 297.304 146.577 299.278 150.559 297.349C152.46 296.428 153.014 294.911 153.589 293.039C155.369 293.724 156.936 294.125 158.832 294.347L161.114 295.092C162.789 295.288 164.508 295.594 166.196 295.494C167.723 298.095 169.478 299.356 172.395 300.136C178.567 301.79 187.874 300.912 193.419 297.592C195.768 296.161 197.832 294.307 199.504 292.125Z" fill="#FEFEFE"/>
<path d="M153.589 293.039C155.369 293.724 156.936 294.125 158.832 294.347L161.114 295.092C165.644 298.137 167.805 304.509 170.547 309.133C186.236 335.594 203.886 343.934 232.123 353.547L230.644 356.716C226.031 356.916 221.461 358.238 216.907 358.978C211.005 359.938 205.076 360.147 199.103 360.098C194.011 360.057 188.881 359.858 183.849 359.03C179.334 358.287 174.595 356.896 170.032 356.786L169.579 356.78C166.092 348.737 162.356 343.816 154.868 339.179C153.65 333.75 148.788 330.453 145.832 325.944C140.402 317.661 136.314 306.995 134.688 297.255C139.172 297.304 146.577 299.278 150.559 297.349C152.46 296.428 153.014 294.911 153.589 293.039Z" fill="#CBCACA"/>
<path d="M145.855 187.575C149.301 188.936 153.05 192.267 156.135 194.391C169.23 203.406 181.995 212.813 194.813 222.214C194.882 232.151 194.296 242.035 194.011 251.963C180.367 252.001 166.845 247.384 153.16 246.906C153.172 241.456 154.06 236.027 153.953 230.56C153.674 216.219 149.785 201.296 145.855 187.575Z" fill="#64E1FE"/>
<path d="M252.596 187.793C253.17 189.126 249.937 199.743 249.414 202.198C247.743 210.032 245.899 218.164 245.39 226.166C244.951 233.047 245.511 240.017 245.786 246.899C239.64 247.091 233.583 248.24 227.521 249.194C220.466 250.327 213.385 251.287 206.283 252.067L205.809 251.853C204.857 249.501 206.019 225.212 206.242 220.808C221.416 209.371 237.002 198.636 252.596 187.793Z" fill="#64E1FE"/>
<path d="M301.288 246.44C299.544 242.119 298.794 237.267 297.808 232.719C294.158 215.904 292.558 199.103 289.966 182.152C291.776 184.353 294.01 186.384 295.558 188.757C309.939 205.26 322.411 216.377 329.123 238.262C330.386 242.373 331.786 247.592 331.552 251.929C331.483 253.204 331.232 254.611 330.262 255.532C329.302 256.441 327.958 256.553 326.7 256.473C324.484 256.334 322.217 255.383 320.147 254.639C313.793 253.54 306.923 249.38 301.288 246.44Z" fill="#434954"/>
<path d="M301.288 246.44C299.544 242.119 298.794 237.267 297.808 232.719C294.158 215.904 292.558 199.103 289.966 182.152C291.776 184.353 294.01 186.384 295.558 188.757C293.79 192.102 299.463 215 300.924 219.729C303.817 229.087 307.901 239.495 314.212 247.038C315.852 248.999 319.732 252.122 320.106 254.455C320.116 254.517 320.133 254.578 320.147 254.639C313.793 253.54 306.923 249.38 301.288 246.44Z" fill="#373A42"/>
<path d="M109.103 183.334C107.624 190.551 107.101 198.04 106.11 205.343C104.234 219.155 101.819 233.482 98.015 246.908C92.3577 250.021 77.4529 257.876 71.1592 256.372C70.0934 256.118 69.5358 255.318 69.0296 254.4C68.8773 253.739 68.7433 253.068 68.7009 252.39C67.9165 239.841 78.3579 220.023 85.8095 210.234C90.0327 204.685 95.1003 199.656 99.8328 194.538C102.858 190.808 106.484 187.347 109.103 183.334Z" fill="#373A42"/>
<path d="M99.8328 194.538C100.723 195.997 100.607 196.843 100.197 198.523C99.6426 200.794 98.7953 202.963 98.1637 205.209C92.8635 224.057 85.4317 242.407 69.0296 254.4C68.8773 253.739 68.7433 253.068 68.7009 252.39C67.9165 239.841 78.3579 220.023 85.8095 210.234C90.0327 204.685 95.1004 199.656 99.8328 194.538Z" fill="#434954"/>
<path d="M284.402 273.649C286.08 273.522 287.81 273.319 289.492 273.357C290.802 273.387 292.266 273.859 293.141 274.882C295.203 277.3 293.912 283.585 293.595 286.503C282.029 286.637 270.468 285.617 258.881 286.178C244.184 286.888 229.767 289.139 214.986 289.108C214.889 289.102 214.793 289.101 214.698 289.088C210.07 288.515 207.741 284.186 205.182 280.761C218.485 280.921 232.181 278.845 245.368 277.249C258.329 275.554 271.349 274.353 284.402 273.649Z" fill="#64E1FE"/>
<path d="M105.309 273.101C120.964 273.983 136.546 275.043 152.097 277.101C153.859 283.037 156.33 288.695 158.832 294.347C156.936 294.125 155.369 293.724 153.588 293.039C153.158 291.495 152.622 290.326 151.388 289.254C149.651 287.747 147.26 286.957 145.03 286.55C140.388 285.704 135.374 285.979 130.666 285.993C122.186 285.986 113.707 286.177 105.235 286.565C105.019 282.069 105.165 277.6 105.309 273.101Z" fill="#4FB2CB"/>
<path d="M273.014 297.191C278.54 297.714 284.22 297.543 289.77 297.604C286.77 306.896 278.892 323.004 272.948 330.508C272.247 331.359 271.534 332.208 270.751 332.985C269.166 334.557 265.653 337.144 263.34 336.991C262.621 336.943 262.627 336.728 262.163 336.235C261.704 333.509 269.068 317.658 270.358 313.49C271.981 308.239 272.587 302.65 273.014 297.191Z" fill="#434954"/>
<path d="M244.874 258.208C251.548 257.411 258.168 255.893 264.802 254.793C273.564 253.338 282.113 252.564 290.988 252.419C291.6 255.587 292.246 258.748 292.927 261.902C277.184 262.604 261.476 263.947 245.843 265.929C245.105 263.331 244.886 260.903 244.874 258.208Z" fill="#DEDEDE"/>
<path d="M132.429 347.556C137.589 345.462 142.013 345.112 147.222 347.358C153.391 350.016 156.741 354.361 159.398 360.337C157.2 360.383 154.968 360.507 152.773 360.392C149.576 360.905 145.892 360.603 142.622 360.658L120.13 361.001C122.756 354.766 126.648 350.963 132.429 347.556Z" fill="#C09D3F"/>
<path d="M132.429 347.556C137.589 345.462 142.013 345.112 147.222 347.358C153.391 350.016 156.741 354.361 159.398 360.337C157.2 360.383 154.968 360.507 152.773 360.392C150.605 353.444 135.23 351.206 132.429 347.556Z" fill="#F3C650"/>
<path d="M245.63 352.445C249.545 348.712 255.078 345.735 260.612 345.804C266.097 345.874 271.444 348.997 275.128 352.901C277.437 355.349 278.938 357.962 280.186 361.059C271.511 360.918 262.659 361.053 254.013 360.337C250.27 361.149 244.845 360.372 240.948 360.256C242.264 357.428 243.577 354.815 245.63 352.445Z" fill="#F3C650"/>
<path d="M240.948 360.256C242.264 357.428 243.577 354.815 245.63 352.445C247.931 355.132 252.538 357.603 254.013 360.337C250.27 361.149 244.845 360.372 240.948 360.256Z" fill="#C09D3F"/>
<path d="M152.097 277.101C165.775 278.661 179.98 280.944 193.757 280.886C191.312 284.205 189.259 288.215 184.873 288.958C180.198 289.749 170.489 286.752 167.328 290.878C166.329 292.184 166.133 293.905 166.196 295.494C164.508 295.594 162.789 295.288 161.114 295.092L158.833 294.347C156.33 288.695 153.859 283.037 152.097 277.101Z" fill="#64E1FE"/>
<path d="M108.271 252.437C122.41 252.691 135.921 254.919 149.785 257.511L150.869 257.795C151.028 260.439 151.05 262.887 150.688 265.514L149.439 265.493C135.235 263.355 120.587 262.59 106.24 261.86C106.734 258.647 107.446 255.577 108.271 252.437Z" fill="#A8A7A7"/>
<path d="M149.785 257.511L150.869 257.795C151.028 260.439 151.05 262.887 150.688 265.514L149.439 265.493C149.152 263.158 147.904 260.228 148.744 257.959L149.785 257.511Z" fill="#DEDEDE"/>
<path d="M110.679 297.548L124.135 297.48C125.003 306.542 127.677 316.518 131.679 324.703C133.098 327.604 138.352 331.956 138.433 334.927L132.912 335.979C123.539 327.483 114.438 309.749 110.679 297.548Z" fill="#373A42"/>
<path d="M138.864 205.041C140.672 213.412 142.655 222.342 142.724 230.93C142.761 235.474 142.206 240.028 141.913 244.561L132.064 243.042C132.142 235.05 131.789 227.136 131.425 219.157C131.253 215.405 130.742 211.366 130.983 207.628C131.785 207.644 132.564 207.578 133.354 207.443C135.271 207.116 137.698 206.675 138.864 205.041Z" fill="#A8A7A7"/>
<path d="M259.962 206.583C261.603 208.023 266.053 207.096 268.239 207.442C268.222 219.327 266.916 231.108 267.098 243.04C263.788 243.568 260.474 244.071 257.157 244.549C256.062 230.976 256.949 219.89 259.962 206.583Z" fill="#A8A7A7"/>
<path d="M150.869 257.795C165.246 259.183 179.712 262.834 194.123 263.32L193.844 269.666C183.075 269.26 172.369 268.075 161.663 266.908C158.272 266.539 153.911 266.544 150.688 265.514C151.05 262.887 151.028 260.439 150.869 257.795Z" fill="#DEDEDE"/>
<path d="M205.5 263.28C218.748 262.625 231.676 259.23 244.874 258.208C244.886 260.903 245.105 263.331 245.843 265.929C241.82 266.637 237.599 266.885 233.534 267.335C224.095 268.378 214.629 269.37 205.129 269.622C205.097 267.5 205.318 265.392 205.5 263.28Z" fill="#A8A7A7"/>
<path d="M123.637 167.807C125.592 170.12 128.279 172.08 129.86 174.669C133.704 180.964 136.95 197.249 138.864 205.041C137.698 206.675 135.271 207.116 133.354 207.443C132.564 207.578 131.785 207.644 130.983 207.628C129.473 194.4 126.573 180.783 123.637 167.807Z" fill="#DEDEDE"/>
<path d="M259.961 206.583C261.516 199.343 265.7 180.353 269.215 174.759C270.905 172.068 273.572 170.244 275.442 167.712C272.731 180.795 269.472 194.123 268.239 207.442C266.052 207.096 261.603 208.023 259.961 206.583Z" fill="#DEDEDE"/>
<path d="M118 199.874C118.027 199.899 118.056 199.919 118.08 199.946C120.368 202.507 120.836 235.526 120.838 241.375L113.655 241.334C112.594 241.311 112.034 241.465 111.166 240.824C111.329 235.964 113.261 230.326 114.22 225.492C115.889 217.085 117.194 208.408 118 199.874Z" fill="#4FB2CB"/>
<path d="M280.275 200.705C280.329 200.791 280.392 200.872 280.436 200.962C281.571 203.292 281.787 211.406 282.171 214.348C282.748 218.764 288.513 239.174 287.723 241.164L286.704 241.331C283.872 241.34 281.043 241.408 278.216 241.533C278.089 232.832 278.627 224.071 279.07 215.384C279.313 210.62 279.175 205.343 280.275 200.705Z" fill="#64E1FE"/>
</svg>
