<svg width="1920" height="1080" viewBox="0 0 1920 1080" fill="none" xmlns="http://www.w3.org/2000/svg">
<path d="M887.613 278.758C901.591 271.131 917.279 264.376 933.224 262.487C976.757 257.328 1016.12 257.445 1055.14 278.587C1069.24 274.951 1080.28 274.362 1094.16 280.048C1112.21 287.438 1120.61 303.843 1133.29 316.998C1150.73 335.094 1171.17 350.168 1181 374.28C1188.58 392.882 1188.94 411.135 1181 429.741C1178.52 435.571 1176.41 438.605 1170.68 440.817C1166.97 445.592 1158.52 465.173 1157.17 471.204C1157.37 481.972 1146.31 504.039 1138.75 511.837C1138.31 512.283 1137.87 512.725 1137.43 513.161C1118 516.228 1109.77 511.335 1098.51 495.174C1085.42 504.244 1072.28 511.506 1059.28 520.294C1059.43 535.163 1058.92 550.55 1058.28 565.422C1056.32 611.117 1056.34 657.196 1054.01 702.84C1106.93 731.481 1039.78 768.44 989.042 742.706C972.932 750.145 960.013 751.551 942.913 745.851C916.364 757.672 890.929 755.567 867.726 737.578C860.079 741.784 851.772 745.653 843.168 747.14C823.837 750.481 798.211 747.442 787.589 728.728C785.151 724.433 786.79 718.824 785.738 714.25C780.681 699.699 776.739 687.683 774.641 672.312C753.357 662.439 738.045 648.273 729.277 625.047C720.572 601.99 721.857 553.138 749.19 541.701C750.775 541.038 752.907 541.091 754.595 541.251C773.759 552.86 734.448 602.619 780.374 632.294C783.33 626.21 786.82 618.881 792.393 614.918C808.057 603.777 827.628 566.518 845.618 561.38C851.427 555.205 855.794 551.505 860.463 544.309C858.381 537.212 866.49 521.216 868.576 510.217C858.753 504.763 853.087 501.343 844.398 494.296L840.314 502.853C837.917 504.685 835.494 506.48 833.043 508.239C823.321 515.161 816.828 514.933 805.794 513.098C802.303 509.753 800.139 507.261 797.747 503.024C791.303 491.605 787.243 478.195 781.661 466.343C768.272 437.912 749.556 419.011 758.795 385.088C760.875 377.449 764.803 367.136 769.246 360.596C780.039 344.708 794.976 332.196 808.219 318.472C820.324 305.728 830.314 290.387 845.745 281.27C849.012 279.34 855.5 277.688 859.31 276.827C869.065 274.621 878.176 276.08 887.613 278.758Z" fill="black"/>
<path d="M877.37 516.064C934.961 551.837 987.656 559.517 1048.86 526.206C1048.92 532.948 1048.9 539.839 1049.06 546.565L1047.49 547.799L1047.17 547.744C1045.81 545.284 1045.32 543.954 1042.84 542.519C1035.39 542.793 1037.07 554.561 1038.05 559.619C1034.08 563.721 1032.35 562.961 1025.95 563.597L1023.4 562.466L1022.05 563.445C1021.52 566.849 1021.19 565.882 1022.37 568.669C1027.83 570.996 1034.91 562.984 1037.47 569.13C1028.59 628.466 1032.65 647.133 994.233 697.121C985.013 693.454 947.031 682.209 937.484 681.035C937.091 654.971 954.646 620.302 942.614 599.224L939.338 598.508C934.864 604.453 936.74 626.445 934.568 638.187C910.25 631.002 890.043 629.489 864.619 631.971C864.648 623.257 868.296 598.654 861.364 593.883C854.105 595.033 855.295 605.148 854.867 611.449C847.228 603.845 836.592 595.557 827.824 589.308C833.882 582.931 844.703 574.791 847.974 567.547C847.937 563.609 848.137 564.938 845.618 561.38C851.427 555.205 855.794 551.505 860.463 544.309C863.947 543.912 865.829 544.362 868.13 541.532C872.835 535.743 875.923 523.409 877.37 516.064Z" fill="#07007C"/>
<path d="M1037.47 569.13C1031.52 572.435 1028 570.288 1023.18 572.225C1019.08 575.041 1018.94 578.369 1013.11 578.638C986.73 579.858 1001.69 535.119 1023.45 559.281C1028.24 559.09 1033.41 558.622 1038.05 559.619C1034.08 563.721 1032.35 562.961 1025.95 563.597L1023.4 562.466L1022.05 563.445C1021.52 566.849 1021.19 565.882 1022.37 568.669C1027.83 570.996 1034.91 562.984 1037.47 569.13Z" fill="#F8EEDC"/>
<path d="M1008.76 555.005C1014.33 554.612 1014.49 554.629 1018.5 557.246L1018.43 558.274C1013.4 559.895 1006.31 560.682 1004.63 565.9C1005.31 568.895 1006.38 569.746 1008.41 571.959C1011.88 573.137 1012.2 572.324 1016.42 571.302C1017.58 571.845 1017.13 571.744 1018.01 573.245L1017.16 574.915C1004.47 583.09 992.396 566.247 1008.76 555.005Z" fill="#349AFE"/>
<path d="M1016.33 562.792C1018.61 563.793 1018.69 563.822 1020.29 565.669L1019.96 567.193C1016.09 569.695 1016.91 568.937 1011.77 569.24L1010.26 569.57L1009.06 568.091L1009.37 565.683C1012.24 562.663 1011.43 563.559 1016.33 562.792Z" fill="black"/>
<path d="M1068.83 285.702C1078.02 285.654 1089.98 286.877 1097.48 292.848C1108.63 301.72 1117.25 313.945 1126.97 324.337C1139.04 337.367 1155.41 350.399 1165.05 365.122C1180.68 388.997 1179.51 409.987 1167.9 435.04C1167.11 436.757 1169.57 439.393 1170.68 440.817C1166.97 445.592 1158.52 465.173 1157.17 471.204L1153.5 470.068C1140.6 472.995 1142.81 505.488 1127.58 504.555C1099.41 501.896 1108.33 470.393 1104.66 452.36C1096.24 411.016 1086.6 374.569 1090.39 332.232C1092.43 309.465 1084.34 300.787 1068.83 285.702Z" fill="#EFD49F"/>
<path d="M1045.67 583.346C1047.55 586.63 1047.22 592.509 1047.32 596.51C1047.19 602.782 1048.52 622.223 1044.68 627.472C1043.98 628.431 1042.74 628.124 1041.29 628.147C1039.14 625.518 1045.22 590.167 1045.67 583.346Z" fill="#07007C"/>
<path d="M1049.06 546.565C1048.96 554.853 1048.52 589.413 1047.32 596.51C1047.22 592.509 1047.55 586.63 1045.67 583.346C1046.7 570.58 1046.41 559.672 1047.17 547.744L1047.49 547.799L1049.06 546.565Z" fill="#02003F"/>
<path d="M954.216 270.39C974.386 268.724 1023.8 268.722 1037.78 284.07C1054.96 302.931 1068.31 334.789 1078.32 358.355C1080.96 364.573 1080.59 383.98 1082.68 391.438C1087.84 422.655 1096.24 448.801 1096.17 480.601C1086.88 490.924 1080.8 494.251 1069.34 502.041C1042.18 520.492 1018.36 532.041 985.535 536.904C943.428 541.515 903.355 523.157 869.891 499.312C861.22 493.133 851.918 487.853 844.423 480.146C844.566 467.253 843.071 453.13 843.814 440.301C845.771 424.774 846.109 392.256 853.216 378.635C868.336 349.661 883.394 313.377 902.594 287.269C913.841 271.976 937.139 271.658 954.216 270.39Z" fill="#EFD49F"/>
<path d="M962.732 423.138C971.121 422.949 983.667 422.432 990.977 426.071C1015.31 438.184 997.671 452.377 981.536 458.019C970.053 459.359 960.356 458.864 950.292 452.338C943.849 448.16 936.986 438.99 942.866 431.423C947.435 425.543 955.725 424.034 962.732 423.138Z" fill="black"/>
<path d="M906.509 384.797C908.721 383.798 911.3 384.07 913.255 385.508C915.21 386.947 916.237 389.328 915.941 391.738C915.645 394.147 914.073 396.209 911.828 397.132C908.438 398.526 904.556 396.945 903.105 393.579C901.654 390.213 903.168 386.305 906.509 384.797Z" fill="black"/>
<path d="M1031.32 384.768C1034.71 383.279 1038.67 384.822 1040.17 388.214C1041.66 391.607 1040.12 395.568 1036.73 397.065C1033.33 398.565 1029.37 397.024 1027.87 393.626C1026.37 390.227 1027.92 386.26 1031.32 384.768Z" fill="black"/>
<path d="M862.39 286.147C866.028 285.868 870.745 285.854 874.48 285.729C869.619 290.41 859.299 299.565 857.06 305.231C851.62 318.998 853.888 334.324 851.886 349.295C850.184 362.012 843.31 373.512 840.902 384.334C837.358 400.257 835.019 421.766 833.817 438.413C832.789 456.582 837.081 476.674 832.85 494.401C831.628 499.524 816.737 507.158 811.6 504.109C805.741 500.631 801.871 489.079 799.349 483.045C795.703 473.391 791.513 463.951 786.8 454.77C780.567 442.727 771.021 427.629 767.872 414.977C757.741 374.267 793.869 347.585 818.317 322.354C834.508 305.645 837.787 292.461 862.39 286.147Z" fill="#EFD49F"/>
<path d="M792.998 705.415C784.086 678.308 777.27 652.655 794.917 626.256C813.013 599.186 834.836 628.263 844.869 626.49C847.141 623.725 846.481 625.022 846.903 620.877L848.045 618.726L854.935 626.959C854.778 659.62 855.529 674.82 859.006 707.487L856.12 705.56C856.297 702.637 856.384 702.143 855.242 699.474C852.483 696.448 847.856 694.345 843.891 693.946C824.733 692.021 808.549 693.826 792.998 705.415Z" fill="#EFD49F"/>
<path d="M864.605 641.459C891.028 640.526 906.762 640.085 932.197 647.841C926.42 668.366 927.193 679.737 929.454 700.875C919.481 699.553 907.29 697.717 899.005 703.752C889.765 702.004 876.334 716.739 874.646 725.982C874.514 726.706 874.399 727.432 874.301 728.161C866.437 709.116 864.828 662.828 864.605 641.459Z" fill="#EFD49F"/>
<path d="M985.614 720.981C994.376 714.172 997.775 709.134 1004.33 700.354L1004.75 701.246C1004.86 703.925 1004.93 704.24 1006.22 706.591C1009.85 708.574 1019.15 707.188 1025.23 707.369C1036.92 707.683 1052.73 710.885 1061.71 718.875C1067.36 723.899 1058.82 732.448 1055.06 735.461C1054.92 731.217 1055.11 713.15 1047.32 714.918C1042.62 719.917 1046.1 733.19 1044.08 739.014C1041.6 740.618 1035.39 741.279 1032.15 741.81C1033.02 735.185 1036.29 714.614 1025.25 715.845C1020.44 720.148 1023.7 732.783 1021.9 741.821C1006.34 740.85 990.503 737.509 985.614 720.981Z" fill="#F8EEDC"/>
<path d="M874.301 728.161C874.399 727.432 874.514 726.706 874.646 725.982C876.334 716.739 889.765 702.004 899.005 703.752C899.903 705.673 900.857 708.642 902.966 709.02C917.461 711.623 927.187 708.068 941.188 715.349L940.433 715.794C936.239 716.444 937.375 715.721 934.275 718.249C930.711 727.597 945.331 736.997 921.992 742.593C923.068 736.127 923.739 720.424 917.838 716.005C904.979 716.24 916.958 734.983 911.408 741.458C899.536 746.818 881.972 737.826 874.301 728.161Z" fill="#F8EEDC"/>
<path d="M749.141 552.82C756.816 556.952 726.908 612.873 776.969 641.423C775.615 646.389 774.85 657.788 772.854 660.188L770.126 659.184C766.213 656.848 760.95 653.147 757.604 650.033C743.1 636.784 734.678 618.157 734.312 598.517C733.85 580.141 736.267 566.362 749.141 552.82Z" fill="#EFD49F"/>
<path d="M863.535 728.152C856.348 732.527 840.774 742.439 834.122 734.073C832.371 726.991 836.651 722.059 838.505 715.231C837.63 711.419 838.427 712.661 835.723 710.314C822.039 708.539 828.057 728.896 822.99 736.073C805.008 745.48 819.094 716.636 815.52 710.804L813.749 710.53C802.931 714.202 806.394 723.342 801.905 730.34C799.956 729.422 796.793 725.842 796.499 723.766C793.713 704.057 824.506 702.751 837.553 703.894C843.544 704.419 850.367 707.108 856.12 705.56L859.006 707.487C860.174 714.96 861.665 720.809 863.535 728.152Z" fill="#F8EEDC"/>
<path d="M1004.33 700.354C1017.24 683.196 1028.44 668.818 1033.47 647.411C1035.3 639.602 1036.46 637.357 1044.51 639.183C1047.7 642.051 1044.43 691.312 1044.38 699.719C1035.18 697.666 1014.73 694.9 1006.72 699.864C1006.03 700.282 1005.37 700.743 1004.75 701.246L1004.33 700.354Z" fill="#EFD49F"/>
<path d="M938.679 691.169C947.862 692.636 978.915 702.225 988.355 705.316C985.238 708.542 982.267 710.863 978.807 713.663C971.465 718.678 967.438 720.129 959.2 722.587C953.899 711.29 952.017 709.77 940.663 704.062C939.659 699.741 938.462 695.603 938.679 691.169Z" fill="#EFD49F"/>
<path d="M1057.05 292.26C1078.25 300.518 1080.28 316.654 1080.55 336.764C1078.36 334.778 1060.54 298.19 1057.05 292.26Z" fill="#349AFE"/>
<path d="M885.003 292.916L885.416 293.143C879.972 305.093 870.45 322.329 864.297 334.919L863.495 334.724C858.568 320.242 870.283 298.188 885.003 292.916Z" fill="#FE9A42"/>
<path d="M976.64 726.59C978.049 729.744 979.643 732.853 981.184 735.948C972.485 738.758 967.319 739.362 958.472 739.421C957.144 739.165 955.734 738.754 954.415 738.407C954.025 736.19 955.668 734.772 957.234 732.346C965.891 731.221 968.855 730.345 976.64 726.59Z" fill="#F8EEDC"/>
<path d="M821.295 597.013C827.846 601.09 834.409 606.697 840.46 611.601L839.787 614.195C831.296 608.057 825.525 606.211 815.329 605.072L821.295 597.013Z" fill="#EFD49F"/>
<path d="M941.188 715.349C947.628 719.789 952.037 723.551 946.229 731.128C944.021 729.203 945.225 723.189 940.433 715.794L941.188 715.349Z" fill="#F8EEDC"/>
<path d="M840.46 611.601C843.122 613.91 845.753 616.048 848.045 618.726L846.903 620.877L839.787 614.195L840.46 611.601Z" fill="#B49D73"/>
</svg>
